<svg width="191" height="46" viewBox="0 0 191 46" fill="none" xmlns="http://www.w3.org/2000/svg">
<path fill-rule="evenodd" clip-rule="evenodd" d="M23.2806 23.7104C21.9903 20.6801 19.9515 18.8517 16.9661 18.3377C7.90431 16.7783 3.72615 29.368 12.0473 33.5425C12.6794 33.8595 13.4897 34.0704 14.2655 34.1486C13.8358 33.0195 13.6097 31.1619 13.5709 30.1486C13.5534 30.1104 9.83097 27.4437 12.0594 24.0123C13.5649 21.6971 16.6091 21.4183 18.3497 23.0165C15.6431 26.9486 15.7503 33.3195 18.1018 37.7904C23.8879 48.7921 40.3872 48.5345 45.4799 36.4795C47.2684 32.2455 47.1902 25.9765 43.5514 21.5244C42.992 22.5104 42.6787 23.431 42.0423 24.4735C41.4332 25.4704 41.2048 25.8371 41.1938 25.8977C41.1835 25.948 41.4435 26.3395 41.8041 27.4128C44.0466 34.0886 39.1842 40.7491 32.5921 41.4049C22.943 42.3637 17.2691 31.7262 23.2806 23.7104Z" fill="url(#paint0_linear_431_5862)"/>
<path fill-rule="evenodd" clip-rule="evenodd" d="M34.5254 12.882C32.943 7.39414 25.9545 4.85779 21.2921 9.24262C21.2758 9.25777 21.1952 9.31716 21.1709 9.33777C21.2352 9.35898 21.2976 9.38322 21.3612 9.40565C21.9856 9.61121 22.5967 9.85532 23.1909 10.1366C23.3497 10.2093 23.6151 10.3541 23.9109 10.5165C24.1679 10.6531 24.421 10.7945 24.6703 10.9408C24.9285 11.0862 25.146 11.2075 25.2509 11.2584C25.2509 11.2584 25.4236 11.1372 25.923 11.0159C30.3733 9.93958 33.1666 16.3844 28.8666 18.6765C28.5636 18.162 26.5509 14.6577 22.3248 12.6881C7.66492 5.85718 -5.29199 22.5625 2.94797 34.6467C4.77584 37.3273 7.00856 39.1213 9.75339 40.2922C11.9194 41.2152 15.4582 41.8182 17.1667 41.2921C15.8382 39.834 15.3812 38.5849 14.714 37.0928C12.8406 36.734 11.514 36.6261 9.53521 35.2625C7.73034 34.0244 6.33258 32.2795 5.51826 30.248C4.29463 27.1849 4.50433 23.0201 6.96553 19.7723C11.5964 13.6632 20.7703 14.2111 24.766 20.5298C25.2791 21.357 25.7041 22.2358 26.0339 23.1516C31.9399 23.645 36.0563 18.1904 34.5254 12.882Z" fill="url(#paint1_linear_431_5862)"/>
<path fill-rule="evenodd" clip-rule="evenodd" d="M37.1738 29.737C36.5187 30.1704 35.7884 30.4855 35.7629 30.5364C35.7496 30.5631 35.6763 31.0007 35.6381 31.2279C35.3811 32.757 34.6454 33.9334 33.023 34.5885C29.7472 35.911 26.7254 32.5928 27.3121 30.3213C28.7763 30.308 30.5799 30.4231 34.4387 28.2061C44.7283 22.2947 44.409 6.90928 33.4648 1.51537C30.7593 0.182046 28.6412 -0.00765012 26.3587 0.000228629C21.0739 0.0190164 16.48 2.70143 13.1552 8.4517C13.1425 8.47473 13.1012 8.54382 13.0794 8.582C13.6914 8.5003 14.3071 8.45013 14.9243 8.4317C15.7121 8.38564 16.6085 8.38443 17.423 8.52503C17.6521 8.54988 17.8806 8.57776 18.1073 8.61109C19.9915 6.64686 20.7509 5.79535 23.1939 4.90323C28.6212 2.92203 35.0714 5.87899 37.029 11.6826C38.9332 17.3335 36.0102 23.4098 30.1872 25.4546C28.7933 25.9437 26.7072 26.1449 25.0557 25.8225C21.177 30.7886 24.5363 37.777 30.1824 38.6146C37.5611 39.7073 40.9435 31.9395 39.0193 28.2201C38.4175 28.7407 37.8157 29.3122 37.1738 29.737Z" fill="url(#paint2_linear_431_5862)"/>
<path d="M58.6921 14.6741C58.4799 14.057 58.7558 13.6522 59.4169 13.6522H60.545C60.7737 13.634 61.0012 13.6994 61.1853 13.8363C61.3693 13.9733 61.4974 14.1724 61.5457 14.3966L64.6312 23.5076C64.9087 24.381 65.2058 25.7213 65.2058 25.7213H65.2483C65.2483 25.7213 65.5258 24.381 65.8229 23.5076L68.9524 14.3966C69.0798 13.8856 69.421 13.6522 69.9319 13.6522H71.0176C71.6706 13.6522 71.9546 14.057 71.7408 14.6741L66.9085 28.0607C66.7453 28.5505 66.4188 28.7643 65.9094 28.7643H64.5463C64.0353 28.7643 63.717 28.5505 63.5456 28.0607L58.6921 14.6741Z" fill="#4DC2B9"/>
<path d="M73.7618 14.5468C73.7618 13.9787 74.0606 13.6522 74.6352 13.6522H75.6147C76.1894 13.6522 76.4865 13.9787 76.4865 14.5468V27.8713C76.4865 28.4672 76.1894 28.766 75.6147 28.766H74.6352C74.0606 28.766 73.7618 28.4672 73.7618 27.8713V14.5468Z" fill="#4DC2B9"/>
<path d="M79.9768 14.5468C79.9768 13.9787 80.2755 13.6522 80.8502 13.6522H85.3624C88.0871 13.6522 90.0461 15.0578 90.0461 17.5473C90.0461 18.9529 89.3653 20.1594 88.2144 20.783V20.8254C89.8469 21.3152 90.642 22.8481 90.642 24.381C90.642 27.4028 88.2356 28.766 85.4261 28.766H80.8551C80.2804 28.766 79.9817 28.4672 79.9817 27.8713L79.9768 14.5468ZM85.3837 19.8247C86.5754 19.8247 87.2365 18.9742 87.2365 17.8885C87.2365 16.8029 86.5966 16.0144 85.32 16.0144H82.708V19.8247H85.3837ZM85.64 26.4021C87.0439 26.4021 87.8324 25.4879 87.8324 24.2096C87.8324 22.9314 87.0162 22.0384 85.64 22.0384H82.7014V26.4021H85.64Z" fill="#4DC2B9"/>
<path d="M93.2589 14.5468C93.2589 13.9787 93.5576 13.6522 94.1322 13.6522H95.1118C95.6864 13.6522 95.9851 13.9787 95.9851 14.5468V27.8713C95.9851 28.4672 95.6864 28.766 95.1118 28.766H94.1322C93.5576 28.766 93.2589 28.4672 93.2589 27.8713V14.5468Z" fill="#4DC2B9"/>
<path d="M102.536 21.103L98.6658 14.7166C98.3034 14.1207 98.558 13.6522 99.2616 13.6522H100.453C100.669 13.6388 100.884 13.6904 101.07 13.8004C101.256 13.9105 101.404 14.0738 101.497 14.2693L103.242 17.3564C103.71 18.2232 104.179 19.2027 104.179 19.2027H104.221C104.221 19.2027 104.669 18.2444 105.158 17.3515L106.925 14.2693C107.017 14.0737 107.165 13.9102 107.351 13.8001C107.537 13.6901 107.752 13.6385 107.968 13.6522H109.16C109.862 13.6522 110.118 14.1207 109.755 14.7166L105.86 21.103L109.904 27.7016C110.288 28.3187 110.031 28.766 109.308 28.766H108.201C107.986 28.7789 107.771 28.7271 107.585 28.6171C107.399 28.5072 107.251 28.3441 107.158 28.1489L105.135 24.6994C104.646 23.8276 104.2 22.9036 104.2 22.9036H104.158C104.158 22.9036 103.731 23.8195 103.242 24.6994L101.24 28.1489C101.148 28.3442 100.999 28.5074 100.813 28.6174C100.627 28.7274 100.413 28.7792 100.197 28.766H99.1082C98.385 28.766 98.1091 28.3187 98.4911 27.7016L102.536 21.103Z" fill="#4DC2B9"/>
<path d="M117.65 14.3329C117.65 13.9934 117.822 13.8007 118.161 13.8007H118.566C118.638 13.7942 118.71 13.8035 118.777 13.8279C118.845 13.8524 118.906 13.8914 118.957 13.9422C119.008 13.9929 119.047 14.0543 119.071 14.1218C119.095 14.1893 119.105 14.2614 119.098 14.3329V25.9776C119.098 27.3179 119.737 27.4665 120.205 27.5301C120.267 27.5271 120.328 27.5373 120.386 27.56C120.443 27.5827 120.495 27.6174 120.538 27.6618C120.58 27.7062 120.613 27.7592 120.634 27.8173C120.654 27.8754 120.663 27.9372 120.657 27.9987V28.3252C120.657 28.6517 120.509 28.8574 120.104 28.8574C119.23 28.8574 117.655 28.5798 117.655 26.2454L117.65 14.3329Z" fill="#14212B"/>
<path d="M127.4 17.8036C130.252 17.8036 131.869 19.8671 131.869 22.9118C131.87 22.9838 131.856 23.0553 131.828 23.1218C131.801 23.1882 131.76 23.2484 131.708 23.2985C131.656 23.3486 131.595 23.3876 131.527 23.4132C131.46 23.4388 131.388 23.4503 131.316 23.4472H123.611C123.674 26.1719 125.547 27.726 127.762 27.726C128.781 27.7206 129.77 27.376 130.572 26.7465C130.869 26.5555 131.104 26.598 131.274 26.8739L131.437 27.1302C131.476 27.1852 131.503 27.2477 131.516 27.3137C131.53 27.3796 131.529 27.4477 131.515 27.5135C131.502 27.5794 131.474 27.6417 131.435 27.6965C131.396 27.7514 131.346 27.7975 131.288 27.8322C130.252 28.5969 129.001 29.014 127.713 29.0239C124.52 29.0239 122.114 26.7253 122.114 23.426C122.127 19.9112 124.505 17.8036 127.4 17.8036ZM130.4 22.3584C130.315 20.1022 128.954 18.9954 127.357 18.9954C125.561 18.9954 124.015 20.1871 123.674 22.3584H130.4Z" fill="#14212B"/>
<path d="M140.022 22.2098H140.639V21.8686C140.639 19.8035 139.511 19.1015 137.999 19.1015C137.082 19.1084 136.184 19.3658 135.402 19.8459C135.105 19.9961 134.87 19.9537 134.679 19.6827L134.552 19.4704C134.38 19.1929 134.423 18.917 134.7 18.7456C135.728 18.1269 136.906 17.8033 138.106 17.8102C140.66 17.8102 142.086 19.2354 142.086 21.9176V28.2338C142.086 28.5733 141.922 28.766 141.575 28.766H141.235C140.894 28.766 140.703 28.6027 140.703 28.2338V27.3816C140.7 27.1109 140.721 26.8404 140.767 26.5735H140.724C140.745 26.5735 139.766 29.0223 137.105 29.0223C135.296 29.0223 133.487 27.9579 133.487 25.8927C133.487 22.4008 137.962 22.2098 140.022 22.2098ZM137.361 27.8077C139.425 27.8077 140.639 25.6854 140.639 23.8064V23.2954H140.043C138.362 23.2954 134.983 23.3591 134.983 25.7638C134.976 26.7645 135.765 27.8077 137.361 27.8077Z" fill="#14212B"/>
<path d="M145.215 18.5905C145.209 18.5191 145.218 18.4472 145.243 18.3799C145.267 18.3126 145.307 18.2515 145.357 18.2009C145.408 18.1503 145.469 18.1114 145.537 18.0871C145.604 18.0627 145.676 18.0535 145.747 18.06H146.124C146.195 18.0541 146.266 18.064 146.332 18.089C146.398 18.1139 146.458 18.1534 146.507 18.2043C146.556 18.2553 146.593 18.3166 146.615 18.3837C146.637 18.4508 146.644 18.522 146.635 18.5921V20.0402C146.635 20.3258 146.607 20.6107 146.551 20.8907H146.593C147.104 19.3349 148.343 17.9947 150.042 17.9947C150.426 17.9947 150.598 18.1579 150.598 18.5056V18.8893C150.598 19.2288 150.362 19.4215 150 19.4215C147.744 19.4215 146.658 21.9959 146.658 24.2308V28.2338C146.658 28.5733 146.495 28.766 146.147 28.766H145.744C145.673 28.7725 145.6 28.7632 145.533 28.7387C145.465 28.7143 145.404 28.6753 145.353 28.6245C145.303 28.5737 145.264 28.5124 145.239 28.4449C145.215 28.3774 145.205 28.3053 145.212 28.2338L145.215 18.5905Z" fill="#14212B"/>
<path d="M152.41 18.5905C152.403 18.5191 152.413 18.4472 152.437 18.3799C152.462 18.3126 152.501 18.2515 152.552 18.2009C152.602 18.1503 152.664 18.1114 152.731 18.0871C152.799 18.0627 152.87 18.0535 152.942 18.0599H153.324C153.394 18.0541 153.465 18.064 153.531 18.0889C153.597 18.1139 153.657 18.1534 153.706 18.2043C153.755 18.2553 153.792 18.3166 153.814 18.3837C153.837 18.4508 153.844 18.522 153.835 18.5921V19.8263C153.835 20.0844 153.806 20.3417 153.75 20.5936H153.797C154.172 19.7619 154.78 19.0562 155.546 18.5615C156.313 18.0669 157.206 17.8042 158.118 17.8053C160.779 17.8053 161.71 19.3153 161.71 21.9551V28.2338C161.717 28.3053 161.707 28.3774 161.683 28.4449C161.658 28.5124 161.619 28.5737 161.569 28.6245C161.518 28.6753 161.456 28.7143 161.389 28.7387C161.321 28.7632 161.249 28.7725 161.178 28.766H160.773C160.432 28.766 160.262 28.5733 160.262 28.2338V22.3371C160.262 20.6556 159.986 19.1652 157.921 19.1652C155.644 19.1652 153.854 21.0393 153.854 23.5289V28.2338C153.854 28.5733 153.691 28.766 153.343 28.766H152.94C152.869 28.7725 152.797 28.7632 152.729 28.7387C152.662 28.7143 152.6 28.6753 152.549 28.6245C152.499 28.5737 152.46 28.5124 152.435 28.4449C152.411 28.3774 152.401 28.3053 152.408 28.2338L152.41 18.5905Z" fill="#14212B"/>
<path d="M164.797 15.1002V14.3329C164.797 13.9934 164.96 13.8007 165.308 13.8007H165.84C166.18 13.8007 166.351 13.9934 166.351 14.3329V15.1002C166.351 15.4398 166.188 15.6112 165.84 15.6112H165.308C164.967 15.6112 164.797 15.4479 164.797 15.1002ZM164.84 18.5905C164.833 18.5191 164.843 18.4472 164.867 18.3799C164.892 18.3126 164.931 18.2515 164.982 18.2009C165.032 18.1503 165.094 18.1114 165.161 18.0871C165.228 18.0627 165.3 18.0535 165.372 18.06H165.775C166.116 18.06 166.286 18.251 166.286 18.5922V28.2338C166.286 28.5733 166.123 28.766 165.775 28.766H165.372C165.3 28.7725 165.228 28.7632 165.161 28.7387C165.093 28.7143 165.032 28.6753 164.981 28.6245C164.93 28.5737 164.891 28.5124 164.867 28.4449C164.842 28.3774 164.833 28.3053 164.84 28.2338V18.5905Z" fill="#14212B"/>
<path d="M169.585 18.5905C169.579 18.5187 169.588 18.4463 169.613 18.3786C169.638 18.3109 169.678 18.2495 169.729 18.1988C169.78 18.1481 169.842 18.1094 169.91 18.0854C169.978 18.0614 170.051 18.0527 170.122 18.0599H170.506C170.576 18.0544 170.647 18.0645 170.713 18.0896C170.779 18.1147 170.839 18.1541 170.888 18.205C170.936 18.2559 170.973 18.3171 170.996 18.384C171.018 18.451 171.025 18.5221 171.017 18.5921V19.8263C171.017 20.0844 170.988 20.3417 170.932 20.5936H170.975C171.35 19.7619 171.957 19.0562 172.724 18.5615C173.49 18.0669 174.383 17.8042 175.296 17.8053C177.957 17.8053 178.887 19.3153 178.887 21.9551V28.2338C178.894 28.3053 178.885 28.3774 178.86 28.4449C178.836 28.5124 178.797 28.5737 178.746 28.6245C178.695 28.6753 178.634 28.7143 178.566 28.7387C178.499 28.7632 178.427 28.7725 178.355 28.766H177.958C177.617 28.766 177.447 28.5733 177.447 28.2338V22.3371C177.447 20.6556 177.17 19.1652 175.105 19.1652C172.819 19.1652 171.04 21.0393 171.04 23.5289V28.2338C171.04 28.5733 170.877 28.766 170.529 28.766H170.122C170.051 28.7725 169.979 28.7632 169.911 28.7387C169.844 28.7143 169.782 28.6753 169.732 28.6245C169.681 28.5737 169.642 28.5124 169.617 28.4449C169.593 28.3774 169.584 28.3053 169.59 28.2338L169.585 18.5905Z" fill="#14212B"/>
<path d="M183.336 31.3845C184.115 31.7507 184.965 31.9392 185.825 31.9363C187.806 31.9363 189.508 30.9568 189.508 28.5717V27.4665C189.51 27.21 189.531 26.954 189.572 26.7008H189.53C188.896 27.9138 187.806 28.7023 186.121 28.7023C183.248 28.7023 181.352 26.4445 181.352 23.1518C181.352 20.0026 183.098 17.8102 186.087 17.8102C188.862 17.8102 189.577 19.7692 189.577 19.7692H189.619C189.59 19.6512 189.576 19.53 189.577 19.4084V18.5269C189.577 18.2493 189.748 18.0583 190.088 18.0583H190.429C190.501 18.0518 190.573 18.0611 190.64 18.0855C190.708 18.11 190.769 18.149 190.82 18.1998C190.871 18.2505 190.91 18.3119 190.934 18.3794C190.959 18.4469 190.968 18.519 190.961 18.5905V28.508C190.961 31.9151 188.428 33.2341 185.873 33.2341C184.811 33.2393 183.76 33.0218 182.787 32.5958C182.461 32.4473 182.382 32.2334 182.531 31.9151L182.658 31.6163C182.804 31.3404 182.995 31.2555 183.336 31.3845ZM189.53 23.253C189.53 20.081 187.997 19.1015 186.209 19.1015C184.038 19.1015 182.846 20.6344 182.846 23.1028C182.846 25.785 184.229 27.4028 186.336 27.4028C188.039 27.4028 189.53 26.3596 189.53 23.253Z" fill="#14212B"/>
<defs>
<linearGradient id="paint0_linear_431_5862" x1="0.379498" y1="22.896" x2="190.963" y2="22.896" gradientUnits="userSpaceOnUse">
<stop stop-color="#9BE0C3"/>
<stop offset="1" stop-color="#013E5A"/>
</linearGradient>
<linearGradient id="paint1_linear_431_5862" x1="0.378841" y1="22.8949" x2="190.965" y2="22.8949" gradientUnits="userSpaceOnUse">
<stop offset="0.5" stop-color="#9BE0C3"/>
<stop offset="0.52" stop-color="#8DDBC1"/>
<stop offset="0.57" stop-color="#76D2BE"/>
<stop offset="0.63" stop-color="#63CBBC"/>
<stop offset="0.7" stop-color="#57C6BA"/>
<stop offset="0.8" stop-color="#4FC3B9"/>
<stop offset="1" stop-color="#9BE0C3"/>
</linearGradient>
<linearGradient id="paint2_linear_431_5862" x1="0.378906" y1="22.895" x2="190.963" y2="22.895" gradientUnits="userSpaceOnUse">
<stop stop-color="#4DC2B9"/>
<stop offset="1" stop-color="#4DC2B9"/>
</linearGradient>
</defs>
</svg>
