<svg width="50" height="50" viewBox="0 0 50 50" fill="none" xmlns="http://www.w3.org/2000/svg">
<path fill-rule="evenodd" clip-rule="evenodd" d="M24.7624 25.5982C23.3701 22.3262 21.1685 20.3522 17.9454 19.7982C8.16177 18.1139 3.64856 31.7091 12.635 36.2134C13.3892 36.5693 14.1996 36.7913 15.0299 36.8696C14.5658 35.6483 14.3215 33.6498 14.2793 32.5529C14.2616 32.5118 10.2413 29.6329 12.6483 25.9279C14.2727 23.4265 17.5601 23.1234 19.4387 24.8499C16.5165 29.0944 16.632 35.9725 19.1711 40.7999C25.4186 52.6775 43.2316 52.4043 48.7252 39.3843C50.6559 34.8133 50.5715 28.0452 46.6434 23.2378C46.0395 24.3025 45.7008 25.2973 45.0136 26.422C44.3563 27.4989 44.1098 27.8942 44.0965 27.9597C44.0832 28.0252 44.3663 28.4371 44.7549 29.5962C47.173 36.804 41.927 43.9952 34.808 44.7024C24.3982 45.7428 18.2729 34.2527 24.7624 25.5982Z" fill="url(#paint0_linear_1001_4339)"/>
<path fill-rule="evenodd" clip-rule="evenodd" d="M36.9031 13.9071C35.1944 7.98278 27.6458 5.2471 22.6152 9.97792C22.5985 9.99457 22.5108 10.059 22.4853 10.0812C22.5552 10.1034 22.6218 10.13 22.6907 10.1545C23.3649 10.3762 24.0245 10.6398 24.6658 10.9438C24.8379 11.0216 25.1277 11.1781 25.443 11.3535C25.7194 11.5012 25.9981 11.6544 26.2624 11.8143C26.5266 11.9742 26.7764 12.1018 26.8897 12.1574C26.8897 12.1574 27.0751 12.0241 27.6147 11.8942C32.4188 10.7296 35.4376 17.6887 30.7922 20.1635C30.4592 19.6083 28.2919 15.8246 23.7299 13.6984C7.90309 6.32849 -6.0851 24.3591 2.81032 37.4058C4.78436 40.3003 7.19141 42.2366 10.158 43.5C12.4973 44.4993 16.3178 45.1466 18.1608 44.5803C16.7274 43.006 16.2334 41.657 15.5128 40.046C13.4899 39.6585 12.0588 39.5431 9.92154 38.0709C7.97372 36.7333 6.46521 34.8493 5.58597 32.6561C4.26476 29.3498 4.49125 24.8532 7.14811 21.347C12.1443 14.7509 22.0523 15.3427 26.3667 22.1641C26.9222 23.0571 27.3829 24.0056 27.7412 24.9942C34.1108 25.5282 38.5552 19.6383 36.9031 13.9071Z" fill="url(#paint1_linear_1001_4339)"/>
<path fill-rule="evenodd" clip-rule="evenodd" d="M39.762 32.1043C39.0548 32.5728 38.2665 32.9126 38.2388 32.9681C38.2243 32.997 38.1455 33.4688 38.1044 33.7142C37.8269 35.3652 37.033 36.6353 35.281 37.3425C31.7448 38.7703 28.4818 35.1886 29.1146 32.7361C30.6956 32.7216 32.643 32.8471 36.8099 30.4522C47.918 24.0694 47.5738 7.45874 35.7584 1.63653C32.8373 0.196517 30.5502 -0.00888146 28.0865 6.2777e-07C22.3798 0.0199853 17.4169 2.91666 13.8308 9.12413L13.7519 9.26513C14.4149 9.17662 15.0819 9.12251 15.7504 9.10303C16.6503 9.03639 17.5548 9.0699 18.4472 9.20296C18.6948 9.23071 18.9424 9.26069 19.1867 9.29733C21.2207 7.17562 22.0412 6.25632 24.678 5.29373C30.5358 3.15425 37.4993 6.34403 39.6122 12.6126C41.6684 18.719 38.513 25.2695 32.2256 27.4801C30.7212 28.0075 28.4685 28.2251 26.6854 27.8764C22.4997 33.2379 26.1247 40.7832 32.22 41.687C40.1762 42.8694 43.8323 34.4847 41.755 30.4678C41.1054 31.0296 40.456 31.6425 39.762 32.1043Z" fill="url(#paint2_linear_1001_4339)"/>
<defs>
<linearGradient id="paint0_linear_1001_4339" x1="7.78762" y1="34.5458" x2="49.9631" y2="34.5458" gradientUnits="userSpaceOnUse">
<stop stop-color="#9BE0C3"/>
<stop offset="1" stop-color="#013E5A"/>
</linearGradient>
<linearGradient id="paint1_linear_1001_4339" x1="0.0368842" y1="26.18" x2="37.2506" y2="26.18" gradientUnits="userSpaceOnUse">
<stop offset="0.5" stop-color="#9BE0C3"/>
<stop offset="0.52" stop-color="#8DDBC1"/>
<stop offset="0.57" stop-color="#76D2BE"/>
<stop offset="0.63" stop-color="#63CBBC"/>
<stop offset="0.7" stop-color="#57C6BA"/>
<stop offset="0.8" stop-color="#4FC3B9"/>
<stop offset="1" stop-color="#9BE0C3"/>
</linearGradient>
<linearGradient id="paint2_linear_1001_4339" x1="13.7486" y1="20.9007" x2="44.8881" y2="20.9007" gradientUnits="userSpaceOnUse">
<stop stop-color="#4DC2B9"/>
<stop offset="1" stop-color="#4DC2B9"/>
</linearGradient>
</defs>
</svg>
