<svg width="90" height="71" viewBox="0 0 90 71" fill="none" xmlns="http://www.w3.org/2000/svg">
<g clip-path="url(#clip0_134_3464)">
<path d="M0.0477413 57.3805C-0.0965927 56.9609 0.0910414 56.6866 0.540697 56.6866H1.30789C1.46341 56.6742 1.61814 56.7187 1.74332 56.8119C1.8685 56.905 1.95561 57.0404 1.98848 57.1929L4.08687 63.3893C4.27562 63.9821 4.47768 64.8948 4.47768 64.8948H4.50655C4.50655 64.8948 4.69529 63.9821 4.89736 63.3893L7.02573 57.1929C7.11233 56.8454 7.34438 56.6866 7.69189 56.6866H8.43021C8.87432 56.6866 9.0675 56.9609 8.92206 57.3805L5.63569 66.4847C5.52466 66.8177 5.30261 66.9621 4.95621 66.9621H4.02914C3.68163 66.9621 3.46513 66.8177 3.34855 66.4847L0.0477413 57.3805Z" fill="#4DC2B9"/>
<path d="M10.2966 57.2895C10.2966 56.8987 10.4997 56.6822 10.8906 56.6822H11.5567C11.9475 56.6822 12.1496 56.8987 12.1496 57.2895V66.3525C12.1496 66.7578 11.9475 66.9599 11.5567 66.9599H10.8906C10.4997 66.9599 10.2966 66.7578 10.2966 66.3525V57.2895Z" fill="#4DC2B9"/>
<path d="M14.5233 57.2895C14.5233 56.8987 14.7265 56.6822 15.1173 56.6822H18.1861C20.0391 56.6822 21.3714 57.637 21.3714 59.3313C21.3714 60.2861 20.9084 61.1077 20.1257 61.5318V61.5607C21.236 61.8937 21.7767 62.9352 21.7767 63.9777C21.7767 66.0339 20.1401 66.9599 18.2294 66.9599H15.1206C14.7298 66.9599 14.5267 66.7578 14.5267 66.3525L14.5233 57.2895ZM18.2005 60.8801C19.011 60.8801 19.4607 60.3005 19.4607 59.5622C19.4607 58.8239 19.0254 58.2887 18.1572 58.2887H16.3808V60.8801H18.2005ZM18.3748 65.3533C19.3296 65.3533 19.8659 64.7305 19.8659 63.8622C19.8659 62.994 19.3108 62.3856 18.3748 62.3856H16.3764V65.3533H18.3748Z" fill="#4DC2B9"/>
<path d="M23.5564 57.2895C23.5564 56.8987 23.7596 56.6822 24.1504 56.6822H24.8166C25.2074 56.6822 25.4106 56.8987 25.4106 57.2895V66.3525C25.4106 66.7578 25.2074 66.9599 24.8166 66.9599H24.1504C23.7596 66.9599 23.5564 66.7578 23.5564 66.3525V57.2895Z" fill="#4DC2B9"/>
<path d="M29.866 61.7527L27.2314 57.4094C26.9849 57.0041 27.1581 56.6866 27.6366 56.6866H28.4471C28.5938 56.6775 28.7398 56.7126 28.8663 56.7874C28.9928 56.8623 29.0939 56.9733 29.1566 57.1063L30.3434 59.2047C30.6621 59.7987 30.9807 60.4648 30.9807 60.4648H31.0096C31.0096 60.4648 31.3138 59.8131 31.6469 59.2047L32.8482 57.1063C32.9107 56.9732 33.0118 56.8621 33.1383 56.7872C33.2648 56.7124 33.4109 56.6773 33.5576 56.6866H34.3681C34.8455 56.6866 35.0199 57.0041 34.7734 57.4094L32.1265 61.7527L34.8766 66.2404C35.1375 66.6612 34.9632 66.9643 34.4714 66.9643H33.7186C33.572 66.9734 33.4259 66.9383 33.2994 66.8635C33.1729 66.7886 33.0718 66.6776 33.0092 66.5446L31.6336 64.1997C31.3005 63.6058 30.9974 62.9785 30.9974 62.9785H30.9685C30.9685 62.9785 30.6787 63.6002 30.3457 64.1997L28.9845 66.5446C28.922 66.6777 28.8209 66.7888 28.6944 66.8637C28.5678 66.9385 28.4217 66.9736 28.275 66.9643H27.5345C27.0426 66.9643 26.855 66.6612 27.1148 66.2404L29.866 61.7527Z" fill="#4DC2B9"/>
<path d="M40.1448 57.1496C40.1448 56.9175 40.2614 56.7876 40.4923 56.7876H40.7677C40.8163 56.7832 40.8653 56.7895 40.9113 56.8061C40.9572 56.8228 40.9989 56.8493 41.0334 56.8838C41.068 56.9184 41.0945 56.9601 41.1111 57.006C41.1277 57.0519 41.1341 57.1009 41.1296 57.1496V65.068C41.1296 65.9806 41.5637 66.0816 41.8824 66.1249C41.924 66.1232 41.9656 66.1304 42.0043 66.146C42.0429 66.1616 42.0778 66.1852 42.1066 66.2154C42.1354 66.2455 42.1575 66.2815 42.1712 66.3209C42.185 66.3602 42.1903 66.4021 42.1866 66.4436V66.6656C42.1866 66.8877 42.0856 67.0265 41.8102 67.0265C41.2162 67.0265 40.1448 66.8388 40.1448 65.2501V57.1496Z" fill="white"/>
<path d="M46.7753 59.51C48.7149 59.51 49.8152 60.9145 49.8152 62.9851C49.8152 63.0338 49.8054 63.0821 49.7863 63.1269C49.7672 63.1717 49.7393 63.2122 49.7041 63.2459C49.6689 63.2797 49.6273 63.3059 49.5817 63.3231C49.5361 63.3403 49.4875 63.3481 49.4388 63.346H44.1984C44.2417 65.2001 45.5152 66.256 47.0218 66.256C47.7149 66.2518 48.387 66.0175 48.9325 65.5898C49.1346 65.4588 49.2945 65.4877 49.41 65.6764L49.521 65.8496C49.5475 65.8871 49.566 65.9296 49.5754 65.9746C49.5847 66.0196 49.5846 66.066 49.5751 66.111C49.5656 66.1559 49.5469 66.1984 49.5202 66.2358C49.4935 66.2731 49.4594 66.3046 49.4199 66.3281C48.7151 66.8477 47.8641 67.1314 46.9885 67.1386C44.8168 67.1386 43.1803 65.5754 43.1803 63.3304C43.1892 60.9422 44.8068 59.51 46.7753 59.51ZM48.816 62.6076C48.7582 61.0733 47.8323 60.3205 46.7464 60.3205C45.5252 60.3205 44.4737 61.1321 44.2417 62.6076H48.816Z" fill="white"/>
<path d="M55.3598 62.5077H55.7795V62.2745C55.7795 60.8701 55.0123 60.3927 53.9842 60.3927C53.3602 60.3969 52.7493 60.572 52.2178 60.8989C52.0157 61 51.8559 60.9711 51.726 60.7879L51.6394 60.6425C51.5228 60.4548 51.5517 60.2661 51.7404 60.1506C52.4387 59.7279 53.2401 59.5062 54.0564 59.51C55.794 59.51 56.7632 60.4804 56.7632 62.3045V66.6035C56.7632 66.8355 56.6522 66.9654 56.4157 66.9654H56.1848C55.9527 66.9654 55.8228 66.8544 55.8228 66.6035V66.025C55.8206 65.839 55.8351 65.6533 55.8661 65.4699H55.8373C55.8517 65.4699 55.1855 67.1353 53.3758 67.1353C52.1456 67.1353 50.9155 66.4114 50.9155 65.0069C50.9155 62.6365 53.9587 62.5077 55.3598 62.5077ZM53.5501 66.3159C54.9535 66.3159 55.7795 64.8726 55.7795 63.5935V63.246H55.3743C54.2307 63.246 51.9325 63.2893 51.9325 64.9259C51.928 65.6042 52.4643 66.3137 53.5501 66.3137V66.3159Z" fill="white"/>
<path d="M58.8916 60.0452C58.8872 59.9965 58.8935 59.9475 58.9101 59.9016C58.9267 59.8556 58.9532 59.8139 58.9878 59.7794C59.0223 59.7448 59.064 59.7183 59.1099 59.7017C59.1559 59.6851 59.2049 59.6788 59.2535 59.6832H59.51C59.5579 59.6792 59.6061 59.6859 59.6511 59.7029C59.6961 59.7199 59.7367 59.7467 59.77 59.7814C59.8033 59.8161 59.8284 59.8578 59.8436 59.9034C59.8587 59.949 59.8635 59.9974 59.8575 60.0452V61.0288C59.8572 61.2234 59.8378 61.4176 59.7998 61.6084H59.8287C60.1762 60.5514 61.0155 59.6388 62.1735 59.6388C62.4344 59.6388 62.551 59.7554 62.551 59.9863V60.2472C62.551 60.4793 62.3911 60.6092 62.1447 60.6092C60.6103 60.6092 59.872 62.3612 59.872 63.8811V66.6024C59.872 66.8344 59.7609 66.9643 59.5244 66.9643H59.2502C59.2016 66.9687 59.1525 66.9624 59.1066 66.9458C59.0607 66.9292 59.019 66.9027 58.9844 66.8681C58.9499 66.8336 58.9234 66.7919 58.9068 66.7459C58.8901 66.7 58.8838 66.651 58.8883 66.6024L58.8916 60.0452Z" fill="white"/>
<path d="M63.7845 60.0452C63.7801 59.9965 63.7864 59.9475 63.803 59.9016C63.8196 59.8556 63.8462 59.8139 63.8807 59.7794C63.9152 59.7449 63.9569 59.7183 64.0029 59.7017C64.0488 59.6851 64.0978 59.6788 64.1465 59.6832H64.4063C64.4542 59.6792 64.5024 59.6859 64.5473 59.7029C64.5923 59.7199 64.6329 59.7467 64.6662 59.7814C64.6995 59.8161 64.7247 59.8578 64.7398 59.9034C64.755 59.949 64.7597 59.9975 64.7538 60.0452V60.8845C64.7537 61.0597 64.7343 61.2343 64.696 61.4052H64.7282C64.9832 60.8403 65.3958 60.361 65.9166 60.0248C66.4373 59.6886 67.044 59.5098 67.6638 59.51C69.4735 59.51 70.1063 60.5381 70.1063 62.3334V66.6035C70.1108 66.6521 70.1045 66.7011 70.0878 66.7471C70.0712 66.793 70.0447 66.8347 70.0102 66.8692C69.9756 66.9038 69.9339 66.9303 69.888 66.9469C69.8421 66.9635 69.793 66.9699 69.7444 66.9654H69.4691C69.237 66.9654 69.1215 66.8355 69.1215 66.6035V62.5921C69.1215 61.4485 68.9339 60.436 67.5294 60.436C65.9806 60.436 64.7638 61.7094 64.7638 63.4037V66.6024C64.7638 66.8344 64.6527 66.9643 64.4163 66.9643H64.142C64.0934 66.9687 64.0444 66.9624 63.9984 66.9458C63.9525 66.9292 63.9108 66.9027 63.8763 66.8681C63.8417 66.8336 63.8152 66.7919 63.7986 66.7459C63.782 66.7 63.7756 66.651 63.7801 66.6024L63.7845 60.0452Z" fill="white"/>
<path d="M72.2092 57.6703V57.1496C72.2092 56.9175 72.3202 56.7877 72.5567 56.7877H72.9186C73.1496 56.7877 73.2661 56.9175 73.2661 57.1496V57.6703C73.2661 57.9024 73.1551 58.0178 72.9186 58.0178H72.5567C72.325 58.0178 72.2092 57.902 72.2092 57.6703ZM72.238 60.0452C72.2336 59.9965 72.2399 59.9475 72.2565 59.9016C72.2732 59.8556 72.2997 59.8139 72.3342 59.7794C72.3688 59.7449 72.4105 59.7183 72.4564 59.7017C72.5023 59.6851 72.5513 59.6788 72.6 59.6832H72.8742C73.1063 59.6832 73.2217 59.8131 73.2217 60.0452V66.6024C73.2217 66.8344 73.1107 66.9643 72.8742 66.9643H72.6C72.5513 66.9687 72.5023 66.9624 72.4564 66.9458C72.4105 66.9292 72.3688 66.9027 72.3342 66.8681C72.2997 66.8336 72.2732 66.7919 72.2565 66.7459C72.2399 66.7 72.2336 66.651 72.238 66.6024V60.0452Z" fill="white"/>
<path d="M75.4656 60.0452C75.4611 59.9965 75.4675 59.9475 75.4841 59.9016C75.5007 59.8556 75.5272 59.8139 75.5618 59.7794C75.5963 59.7449 75.638 59.7183 75.6839 59.7017C75.7299 59.6851 75.7789 59.6788 75.8275 59.6832H76.0884C76.1363 59.6794 76.1844 59.6863 76.2293 59.7034C76.2741 59.7204 76.3147 59.7472 76.3479 59.7819C76.3812 59.8165 76.4063 59.8581 76.4215 59.9036C76.4368 59.9491 76.4417 59.9975 76.4359 60.0452V60.8845C76.4359 61.0597 76.4165 61.2343 76.3782 61.4052H76.4071C76.6623 60.8398 77.0754 60.3601 77.5968 60.0239C78.1182 59.6876 78.7256 59.5092 79.3459 59.51C81.1557 59.51 81.7885 60.5381 81.7885 62.3334V66.6035C81.7929 66.6521 81.7866 66.7011 81.77 66.7471C81.7534 66.793 81.7269 66.8347 81.6923 66.8692C81.6578 66.9038 81.6161 66.9303 81.5702 66.9469C81.5242 66.9635 81.4752 66.9699 81.4266 66.9654H81.1601C80.9281 66.9654 80.8126 66.8355 80.8126 66.6035V62.5921C80.8126 61.4485 80.6238 60.436 79.2194 60.436C77.665 60.436 76.4548 61.7094 76.4548 63.4037V66.6024C76.4548 66.8344 76.3438 66.9643 76.1073 66.9643H75.8308C75.7822 66.9687 75.7332 66.9624 75.6873 66.9458C75.6413 66.9292 75.5996 66.9027 75.5651 66.8681C75.5305 66.8336 75.504 66.7919 75.4874 66.7459C75.4708 66.7 75.4645 66.651 75.4689 66.6024L75.4656 60.0452Z" fill="white"/>
<path d="M84.8173 68.7452C85.3466 68.9951 85.9251 69.1237 86.5104 69.1215C87.8572 69.1215 89.0152 68.4554 89.0152 66.8344V66.0816C89.0162 65.9072 89.0306 65.7331 89.0585 65.5609H89.0296C88.5955 66.3858 87.8572 66.921 86.7136 66.921C84.7596 66.921 83.4706 65.3866 83.4706 63.1461C83.4706 61.0033 84.6574 59.5122 86.6903 59.5122C88.5778 59.5122 89.064 60.8445 89.064 60.8445H89.0929C89.0731 60.7639 89.0634 60.6811 89.064 60.5981V60.0041C89.064 59.8164 89.1806 59.6865 89.4116 59.6865H89.6436C89.6922 59.6821 89.7413 59.6884 89.7872 59.705C89.8331 59.7217 89.8748 59.7482 89.9094 59.7827C89.9439 59.8172 89.9704 59.859 89.987 59.9049C90.0037 59.9508 90.01 59.9998 90.0055 60.0485V66.7944C90.0055 69.1104 88.2824 70.0086 86.5449 70.0086C85.8227 70.0117 85.1079 69.8635 84.4465 69.5734C84.2244 69.4724 84.1711 69.328 84.2722 69.1104L84.3588 68.9084C84.4554 68.7163 84.5853 68.6586 84.8173 68.7452ZM89.0296 63.2149C89.0296 61.0577 87.9871 60.3927 86.7714 60.3927C85.2947 60.3927 84.4842 61.4341 84.4842 63.1139C84.4842 64.9381 85.4246 66.0383 86.858 66.0383C88.016 66.0383 89.0296 65.3289 89.0296 63.2149Z" fill="white"/>
<path fill-rule="evenodd" clip-rule="evenodd" d="M44.7624 25.5982C43.3701 22.3262 41.1685 20.3522 37.9454 19.7982C28.1618 18.1139 23.6486 31.7091 32.635 36.2134C33.3892 36.5693 34.1996 36.7913 35.0299 36.8696C34.5658 35.6483 34.3215 33.6498 34.2793 32.5529C34.2616 32.5118 30.2413 29.6329 32.6483 25.9279C34.2727 23.4265 37.5601 23.1234 39.4387 24.8499C36.5165 29.0944 36.632 35.9725 39.1711 40.7999C45.4186 52.6775 63.2316 52.4043 68.7252 39.3843C70.6559 34.8133 70.5715 28.0452 66.6434 23.2378C66.0395 24.3025 65.7008 25.2973 65.0136 26.422C64.3563 27.4989 64.1098 27.8942 64.0965 27.9597C64.0832 28.0252 64.3663 28.4371 64.7549 29.5962C67.173 36.804 61.927 43.9952 54.808 44.7024C44.3982 45.7428 38.2729 34.2527 44.7624 25.5982Z" fill="url(#paint0_linear_134_3464)"/>
<path fill-rule="evenodd" clip-rule="evenodd" d="M56.9031 13.9071C55.1944 7.98278 47.6458 5.2471 42.6152 9.97792C42.5985 9.99457 42.5108 10.059 42.4853 10.0812C42.5552 10.1034 42.6218 10.13 42.6907 10.1545C43.3649 10.3762 44.0245 10.6398 44.6658 10.9438C44.8379 11.0216 45.1277 11.1781 45.443 11.3535C45.7194 11.5012 45.9981 11.6544 46.2624 11.8143C46.5266 11.9742 46.7764 12.1018 46.8897 12.1574C46.8897 12.1574 47.0751 12.0241 47.6147 11.8942C52.4188 10.7296 55.4376 17.6887 50.7922 20.1635C50.4592 19.6083 48.2919 15.8246 43.7299 13.6984C27.9031 6.32849 13.9149 24.3591 22.8103 37.4058C24.7844 40.3003 27.1914 42.2366 30.158 43.5C32.4973 44.4993 36.3178 45.1466 38.1608 44.5803C36.7274 43.006 36.2334 41.657 35.5128 40.046C33.4899 39.6585 32.0588 39.5431 29.9215 38.0709C27.9737 36.7333 26.4652 34.8493 25.586 32.6561C24.2648 29.3498 24.4913 24.8532 27.1481 21.347C32.1443 14.7509 42.0523 15.3427 46.3667 22.1641C46.9222 23.0571 47.3829 24.0056 47.7412 24.9942C54.1108 25.5282 58.5552 19.6383 56.9031 13.9071Z" fill="url(#paint1_linear_134_3464)"/>
<path fill-rule="evenodd" clip-rule="evenodd" d="M59.762 32.1043C59.0548 32.5728 58.2665 32.9126 58.2388 32.9681C58.2243 32.997 58.1455 33.4688 58.1044 33.7142C57.8269 35.3652 57.033 36.6353 55.281 37.3425C51.7448 38.7703 48.4818 35.1886 49.1146 32.7361C50.6956 32.7216 52.643 32.8471 56.8099 30.4522C67.918 24.0694 67.5738 7.45874 55.7584 1.63653C52.8373 0.196517 50.5502 -0.00888146 48.0865 6.2777e-07C42.3798 0.0199853 37.4169 2.91666 33.8308 9.12413L33.7519 9.26513C34.4149 9.17662 35.0819 9.12251 35.7504 9.10303C36.6503 9.03639 37.5548 9.0699 38.4472 9.20296C38.6948 9.23071 38.9424 9.26069 39.1867 9.29733C41.2207 7.17562 42.0412 6.25632 44.678 5.29373C50.5358 3.15425 57.4993 6.34403 59.6122 12.6126C61.6684 18.719 58.513 25.2695 52.2256 27.4801C50.7212 28.0075 48.4685 28.2251 46.6854 27.8764C42.4997 33.2379 46.1247 40.7832 52.22 41.687C60.1762 42.8694 63.8323 34.4847 61.755 30.4678C61.1054 31.0296 60.456 31.6425 59.762 32.1043Z" fill="url(#paint2_linear_134_3464)"/>
</g>
<defs>
<linearGradient id="paint0_linear_134_3464" x1="27.7876" y1="34.5458" x2="69.9631" y2="34.5458" gradientUnits="userSpaceOnUse">
<stop stop-color="#9BE0C3"/>
<stop offset="1" stop-color="#013E5A"/>
</linearGradient>
<linearGradient id="paint1_linear_134_3464" x1="20.0369" y1="26.18" x2="57.2506" y2="26.18" gradientUnits="userSpaceOnUse">
<stop offset="0.5" stop-color="#9BE0C3"/>
<stop offset="0.52" stop-color="#8DDBC1"/>
<stop offset="0.57" stop-color="#76D2BE"/>
<stop offset="0.63" stop-color="#63CBBC"/>
<stop offset="0.7" stop-color="#57C6BA"/>
<stop offset="0.8" stop-color="#4FC3B9"/>
<stop offset="1" stop-color="#9BE0C3"/>
</linearGradient>
<linearGradient id="paint2_linear_134_3464" x1="33.7486" y1="20.9007" x2="64.8881" y2="20.9007" gradientUnits="userSpaceOnUse">
<stop stop-color="#4DC2B9"/>
<stop offset="1" stop-color="#4DC2B9"/>
</linearGradient>
<clipPath id="clip0_134_3464">
<rect width="90" height="70.0053" fill="white"/>
</clipPath>
</defs>
</svg>
