<svg width="107" height="93" viewBox="0 0 107 93" fill="none" xmlns="http://www.w3.org/2000/svg">
<path opacity="0.11" d="M104.78 61.9214C104.798 72.7517 101.073 83.2793 94.1947 91.8423H13.7886C6.91008 83.2793 3.18563 72.7517 3.20319 61.9214C3.20319 34.8804 25.9428 12.9609 53.9928 12.9609C82.0428 12.9609 104.78 34.8812 104.78 61.9214Z" fill="#DCF5F3"/>
<path d="M79.0839 92.001H57.7213L56.4395 75.5645L78.3186 76.3072C78.3186 76.3072 78.5833 74.3908 78.5966 78.0235C78.6053 80.5435 79.1513 85.5394 79.0839 92.001Z" fill="#262626"/>
<path d="M65.4893 74.6211C65.4695 75.0124 65.4474 75.4059 65.4209 75.7972C65.0806 81.2493 64.2985 86.6674 63.0817 92.0019H41.7305C42.0084 83.6561 42.2402 77.0457 42.2402 77.0457L56.4394 75.5654L57.2909 75.4756L65.4893 74.6211Z" fill="#262626"/>
<path d="M70.6388 18.9234C70.6388 18.9234 70.881 24.2994 72.0857 26.275C75.5566 31.9624 76.4491 38.2928 72.7582 41.5067C69.0673 44.7206 46.0314 44.2495 44.4694 36.6316C43.1544 30.218 46.3237 29.6026 47.2179 24.3563C47.6225 21.9825 48.698 17.0098 48.698 17.0098" fill="#0A0A0A"/>
<path d="M50.9277 35.7944C50.9674 35.7894 51.4087 42.8493 59.9163 42.2339C65.8062 41.8085 67.9062 35.7844 68.0411 35.7844C67.406 35.6544 66.3367 35.4651 66.0547 35.32C65.1274 34.8396 63.9798 34.3398 63.6808 32.6035C63.5085 31.6027 63.8008 26.4832 63.7108 25.4707L54.6701 27.416C54.7964 29.5545 55.6807 34.5117 52.5818 35.3897C52.0661 35.5342 51.5108 35.6673 50.9277 35.7944Z" fill="#E98862"/>
<path opacity="0.52" d="M54.5449 33.3633C54.6866 32.9233 54.7778 32.4697 54.8169 32.0106C54.9163 30.9629 54.8965 29.9079 54.7579 28.8644C56.5954 28.6254 58.3265 27.8942 59.7545 26.7539C59.9221 27.3516 60.8456 29.9631 60.59 30.5312C60.1067 31.6049 57.8363 33.3633 54.5449 33.3633Z" fill="#0C0C0C"/>
<path d="M55.3541 31.1323C58.9096 31.5454 63.5534 30.2741 64.6189 25.7206L65.5804 21.6122C66.6459 17.059 65.029 12.8283 60.5819 11.8606C56.1348 10.8934 51.9469 13.8618 50.8813 18.4156L50.4556 20.2344C50.0469 21.9813 49.0106 30.3966 55.3541 31.1323Z" fill="#E98862"/>
<path d="M54.5035 26.1016C55.1861 26.114 55.8562 26.2808 56.4596 26.5887C56.484 26.6014 56.5023 26.6228 56.5106 26.6483C56.5189 26.6738 56.5165 26.7014 56.504 26.7253C56.4915 26.7491 56.4699 26.7674 56.4437 26.7761C56.4174 26.7848 56.3887 26.7834 56.3636 26.772C55.0618 26.1391 53.8413 26.1445 52.834 26.7876C52.8137 26.8012 52.7926 26.8138 52.7709 26.8254C52.7458 26.8355 52.7176 26.836 52.6921 26.8268C52.6666 26.8175 52.6457 26.7992 52.6338 26.7756C52.6219 26.752 52.6198 26.7249 52.628 26.6998C52.6361 26.6748 52.6539 26.6537 52.6777 26.6409C52.6857 26.6366 52.699 26.628 52.7172 26.6163C53.2463 26.2772 53.8682 26.098 54.5035 26.1016Z" fill="#0C0C0C"/>
<path d="M54.3302 24.7079H54.3213C54.1385 24.681 53.9574 24.6445 53.7788 24.5985C53.5118 24.5279 53.1613 24.4072 53.1957 24.1763C53.2352 23.913 54.4094 21.1772 54.5431 20.8661C54.5487 20.8523 54.557 20.8397 54.5676 20.829C54.5783 20.8183 54.5911 20.8098 54.6052 20.8039C54.6194 20.7981 54.6346 20.795 54.65 20.7949C54.6653 20.7948 54.6806 20.7977 54.6948 20.8034C54.709 20.8091 54.7219 20.8175 54.7327 20.828C54.7435 20.8386 54.7519 20.8512 54.7576 20.8649C54.7633 20.8787 54.7661 20.8935 54.7657 20.9083C54.7654 20.9231 54.762 20.9377 54.7557 20.9513C54.2548 22.1162 53.45 24.0308 53.4235 24.2081C53.4569 24.2882 53.9006 24.4248 54.355 24.4882C54.3843 24.4925 54.4108 24.5075 54.4289 24.5301C54.447 24.5527 54.4554 24.5812 54.4523 24.6096C54.4492 24.638 54.4349 24.6642 54.4123 24.6826C54.3897 24.7011 54.3605 24.7105 54.331 24.7088L54.3302 24.7079Z" fill="#0C0C0C"/>
<path d="M69.1097 23.1736L65.1231 22.3295C62.1269 21.0417 61.3912 15.9387 61.3912 15.9387C61.3912 15.9387 57.5742 19.2833 48.6992 17.0098C48.6992 17.0098 50.928 5.04263 64.0183 8.98403C68.2392 10.255 71.1481 14.4974 70.5668 20.0184C70.1587 23.8863 69.1097 23.1736 69.1097 23.1736Z" fill="#0A0A0A"/>
<path d="M64.0173 27.048C65.3689 27.342 66.7906 26.186 67.0956 24.8836C67.4005 23.5813 66.473 22.6239 65.1209 22.3301L64.2202 23.0515L62.8555 26.7966L64.0173 27.048Z" fill="#E98862"/>
<path d="M53.8159 18.4345C53.4279 18.1742 52.9745 18.0191 52.5031 17.9856C52.2711 17.9678 52.0376 17.9837 51.8105 18.0328C51.5856 18.0805 51.3679 18.1553 51.1624 18.2555C51.1341 18.2684 51.1122 18.2915 51.1013 18.3197C51.0904 18.348 51.0913 18.3793 51.104 18.4069C51.1166 18.4345 51.1399 18.4562 51.1689 18.4675C51.1979 18.4788 51.2303 18.4788 51.2593 18.4674L51.2678 18.464C51.4574 18.382 51.657 18.3232 51.8617 18.2891C52.0641 18.2543 52.2708 18.2493 52.4748 18.2742C52.8795 18.3206 53.2642 18.4693 53.5901 18.7052L53.6005 18.7133C53.6383 18.7416 53.6862 18.7544 53.7337 18.7487C53.7812 18.743 53.8245 18.7193 53.8539 18.6829C53.8833 18.6465 53.8965 18.6003 53.8906 18.5545C53.8847 18.5087 53.8602 18.467 53.8224 18.4387L53.8159 18.4345Z" fill="#0C0C0C"/>
<path d="M57.299 19.2138C57.698 19.1336 58.1119 19.1567 58.4987 19.2806C58.6942 19.3418 58.8791 19.4311 59.0469 19.5455C59.2172 19.6603 59.3719 19.7952 59.5073 19.9472L59.5134 19.9537C59.5346 19.9757 59.5639 19.989 59.5951 19.9906C59.6262 19.9922 59.6568 19.9821 59.6804 19.9624C59.704 19.9426 59.7186 19.9148 59.7213 19.8848C59.7239 19.8549 59.7144 19.8251 59.6947 19.8017C59.5528 19.6269 59.3887 19.4701 59.2062 19.3348C59.0224 19.1972 58.8182 19.0871 58.6004 19.0081C58.159 18.8451 57.6802 18.7994 57.2142 18.876C57.1904 18.8794 57.1675 18.8874 57.1469 18.8996C57.1263 18.9117 57.1085 18.9277 57.0944 18.9466C57.0803 18.9655 57.0703 18.9869 57.065 19.0096C57.0597 19.0323 57.0591 19.0558 57.0634 19.0787C57.0676 19.1016 57.0766 19.1234 57.0897 19.1429C57.1029 19.1624 57.12 19.1792 57.14 19.1922C57.1599 19.2052 57.1824 19.2143 57.2061 19.2188C57.2298 19.2233 57.2541 19.2232 57.2778 19.2184L57.2852 19.217L57.299 19.2138Z" fill="#0C0C0C"/>
<path d="M65.1142 22.2817L65.1577 22.1759C60.1371 20.2455 61.5544 15.4773 61.5691 15.4292L61.4562 15.3965C61.4415 15.4453 59.9916 20.3121 65.1142 22.2817Z" fill="#0C0C0C"/>
<path d="M51.6552 20.3697C51.9653 20.3697 52.2167 20.1273 52.2167 19.8284C52.2167 19.5294 51.9653 19.2871 51.6552 19.2871C51.3451 19.2871 51.0938 19.5294 51.0938 19.8284C51.0938 20.1273 51.3451 20.3697 51.6552 20.3697Z" fill="#0C0C0C"/>
<path d="M57.2041 21.2915C57.5141 21.2915 57.7655 21.0492 57.7655 20.7503C57.7655 20.4513 57.5141 20.209 57.2041 20.209C56.894 20.209 56.6426 20.4513 56.6426 20.7503C56.6426 21.0492 56.894 21.2915 57.2041 21.2915Z" fill="#0C0C0C"/>
<path opacity="0.1" d="M58.9339 24.5861C58.9953 24.1726 58.5709 23.772 57.9861 23.6913C57.4013 23.6107 56.8775 23.8806 56.8162 24.2942C56.7548 24.7077 57.1792 25.1083 57.764 25.1889C58.3488 25.2696 58.8726 24.9997 58.9339 24.5861Z" fill="#0C0C0C"/>
<path opacity="0.1" d="M51.6074 23.392C51.545 23.8051 51.0213 24.0745 50.4364 23.9947C50.3353 23.9807 50.2361 23.9566 50.1402 23.9229C50.1247 23.4285 50.1346 22.9531 50.1603 22.5142C50.3241 22.4787 50.4934 22.4729 50.6594 22.4971C51.2441 22.5763 51.6683 22.9775 51.6074 23.392Z" fill="#0C0C0C"/>
<path d="M9.88286 35.3786C9.96113 35.2292 10.0856 35.1068 10.2391 35.0285C10.3926 34.9502 10.5676 34.9198 10.7398 34.9415C10.7383 34.9315 10.7393 34.9213 10.7428 34.9118C10.7463 34.9023 10.7522 34.8937 10.7599 34.8869C10.7676 34.88 10.7769 34.8751 10.787 34.8725C10.7972 34.8699 10.8078 34.8698 10.818 34.872L10.237 34.4705C10.0632 34.3558 9.9383 34.1843 9.88543 33.9878C9.83256 33.7912 9.85527 33.5829 9.94936 33.4012C10.0483 33.2247 10.2118 33.0899 10.4079 33.023C10.6041 32.9561 10.8191 32.9618 11.0112 33.039C11.0097 33.0311 11.0153 33.0235 11.0166 33.0154L10.7778 32.8504C10.6145 32.7416 10.4951 32.5818 10.44 32.398C10.3848 32.2142 10.3972 32.0177 10.4751 31.8417C10.5263 31.7323 10.602 31.6352 10.6968 31.5574C10.7917 31.4797 10.9032 31.4232 11.0234 31.392C11.1437 31.3609 11.2695 31.3558 11.392 31.3772C11.5145 31.3987 11.6306 31.446 11.7318 31.5159L12.2826 31.8966C12.2843 31.8934 12.2826 31.8898 12.2849 31.8867C12.2871 31.8837 12.2931 31.8828 12.2962 31.8796C12.1696 31.7425 12.0951 31.5679 12.0849 31.3846C12.0747 31.2013 12.1296 31.0201 12.2403 30.8708C12.5011 30.4675 13.1006 30.5499 13.457 30.7959L16.6995 32.9553L16.12 32.0146C16.0035 31.8336 15.9626 31.6168 16.0056 31.4079C16.0485 31.199 16.172 31.0135 16.3512 30.889C16.446 30.8277 16.5529 30.7858 16.6651 30.7657C16.7774 30.7456 16.8927 30.7478 17.004 30.7721C17.1154 30.7964 17.2204 30.8422 17.3128 30.907C17.4051 30.9717 17.4828 31.0538 17.5412 31.1485L20.706 36.2847C21.0773 36.8872 21.1902 37.6056 21.0208 38.2871C20.8514 38.9687 20.413 39.5597 19.7988 39.9346C19.0865 40.3694 18.2557 40.5892 17.4129 40.5659C16.5702 40.5426 15.7538 40.2771 15.0686 39.8037L10.1716 36.4202C10.0087 36.3034 9.89153 36.137 9.83912 35.9479C9.7867 35.7588 9.80212 35.5582 9.88286 35.3786Z" fill="#E98862"/>
<g opacity="0.25">
<path d="M15.493 34.0317C15.4811 34.0476 15.4633 34.0584 15.4433 34.0617C15.4233 34.0651 15.4028 34.0608 15.386 34.0497L12.305 31.9913C12.2963 31.9858 12.2888 31.9787 12.2829 31.9704C12.2771 31.9621 12.273 31.9528 12.271 31.9429C12.269 31.9331 12.269 31.9229 12.2712 31.9131C12.2733 31.9033 12.2774 31.894 12.2834 31.8857C12.2893 31.8775 12.2969 31.8705 12.3057 31.8651C12.3145 31.8597 12.3243 31.8561 12.3346 31.8545C12.3449 31.8529 12.3554 31.8533 12.3655 31.8556C12.3756 31.858 12.3851 31.8623 12.3935 31.8683L15.4745 33.9256C15.4914 33.9369 15.5029 33.9542 15.5066 33.9737C15.5102 33.9932 15.5057 34.0133 15.4941 34.0296L15.493 34.0317Z" fill="#0C0C0C"/>
</g>
<g opacity="0.25">
<path d="M14.5884 35.367C14.5766 35.3828 14.5587 35.3936 14.5388 35.3969C14.5188 35.4003 14.4982 35.396 14.4815 35.3849L11.0432 33.0884C11.0263 33.0771 11.0147 33.0598 11.011 33.0403C11.0073 33.0208 11.0118 33.0007 11.0234 32.9844C11.0356 32.9686 11.0535 32.9579 11.0736 32.9544C11.0937 32.9509 11.1144 32.9549 11.1315 32.9655L14.57 35.2615C14.5869 35.2729 14.5984 35.2902 14.602 35.3096C14.6057 35.3291 14.6012 35.3492 14.5896 35.3655L14.5884 35.367Z" fill="#0C0C0C"/>
</g>
<g opacity="0.25">
<path d="M13.6183 36.8173C13.6065 36.8332 13.5887 36.844 13.5688 36.8473C13.5488 36.8507 13.5283 36.8463 13.5116 36.8352L10.7687 35.0035C10.7529 34.9918 10.7423 34.9746 10.7392 34.9556C10.7361 34.9366 10.7407 34.9172 10.7521 34.9014C10.7634 34.8856 10.7807 34.8746 10.8002 34.8707C10.8197 34.8668 10.8401 34.8703 10.857 34.8804L13.5999 36.7122C13.6168 36.7235 13.6284 36.7409 13.632 36.7604C13.6357 36.7799 13.6312 36.8001 13.6195 36.8164L13.6183 36.8173Z" fill="#0C0C0C"/>
</g>
<path d="M22.101 34.4316L29.9777 51.9674L40.8457 37.6279L50.2644 45.8128L34.1807 65.8935L34.0753 66.0372C33.4315 66.8872 32.5738 67.5652 31.5831 68.0073C30.5924 68.4494 29.5012 68.6411 28.4124 68.5643C27.3236 68.4874 26.273 68.1446 25.3596 67.5682C24.4462 66.9917 23.7001 66.2006 23.1916 65.2693L11.8652 39.9204L22.101 34.4316Z" fill="#9CE0C2"/>
<path d="M30.8891 53.8031C30.9093 53.8031 30.9292 53.7982 30.9468 53.7886C30.9645 53.7791 30.9793 53.7654 30.9898 53.7488C31.0004 53.7321 31.0063 53.7132 31.0071 53.6937C31.0078 53.6742 31.0034 53.6549 30.9941 53.6375L30.083 51.9166C30.0682 51.8906 30.0436 51.8712 30.0142 51.8625C29.9849 51.8537 29.9531 51.8564 29.9258 51.8699C29.8984 51.8833 29.8775 51.9065 29.8676 51.9346C29.8577 51.9626 29.8595 51.9932 29.8727 52.02L30.7838 53.7412C30.7937 53.7599 30.8088 53.7755 30.8274 53.7865C30.846 53.7974 30.8673 53.8032 30.8891 53.8031Z" fill="#0C0C0C"/>
<path d="M40.3573 51.3349C40.6254 54.3699 41.9288 73.3045 42.1865 77.0428H78.5773C78.7779 73.671 78.796 58.928 79.5568 52.3348C80.2833 46.0433 81.7073 42.8934 80.6632 41.0334C78.9568 37.9935 76.5063 35.2519 71.8081 34.8735C69.8558 34.716 66.2534 35.3875 66.2534 35.3875C66.2534 35.3875 66.0056 40.2085 60.1109 40.4767C52.0858 40.8418 52.6192 35.3999 52.5819 35.3868C50.9277 34.8037 45.1697 34.5068 42.6341 36.1213C37.7962 39.2009 39.7886 44.9033 40.3573 51.3349Z" fill="#9CE0C2"/>
<path d="M40.6282 53.3074L40.3926 53.3203L40.6763 58.1399L40.9119 58.127L40.6282 53.3074Z" fill="#0C0C0C"/>
<path d="M106.881 37.5063C106.788 37.3646 106.653 37.2539 106.493 37.1896C106.333 37.1253 106.156 37.1104 105.986 37.1471C105.987 37.137 105.985 37.127 105.981 37.1178C105.976 37.1087 105.969 37.1007 105.961 37.0946C105.953 37.0885 105.943 37.0844 105.933 37.0827C105.922 37.081 105.912 37.0818 105.902 37.085L106.442 36.6335C106.604 36.5039 106.712 36.3221 106.746 36.1216C106.78 35.9212 106.737 35.7158 106.626 35.5432C106.511 35.3763 106.335 35.2567 106.133 35.2075C105.932 35.1583 105.718 35.183 105.534 35.2769C105.534 35.2688 105.529 35.2618 105.527 35.2539L105.749 35.0684C105.901 34.9456 106.005 34.7759 106.042 34.5879C106.079 34.4 106.048 34.2054 105.954 34.037C105.892 33.9327 105.808 33.8427 105.706 33.7737C105.604 33.7048 105.487 33.6584 105.365 33.638C105.242 33.6177 105.116 33.6238 104.996 33.656C104.876 33.6882 104.765 33.7457 104.671 33.8242L104.159 34.2522C104.157 34.2491 104.159 34.2454 104.156 34.2427C104.153 34.24 104.147 34.2394 104.144 34.2366C104.257 34.0887 104.314 33.9083 104.307 33.7248C104.299 33.5414 104.227 33.3659 104.103 33.2271C103.805 32.8485 103.215 32.9839 102.884 33.2605L99.8615 35.6986L100.349 34.7108C100.448 34.5202 100.468 34.3005 100.405 34.0961C100.343 33.8916 100.202 33.7178 100.011 33.6096C99.9109 33.5571 99.8005 33.5248 99.6868 33.5147C99.5731 33.5046 99.4585 33.517 99.3499 33.5511C99.2414 33.5851 99.1411 33.6402 99.0554 33.7128C98.9696 33.7855 98.9001 33.8742 98.851 33.9736L96.1905 39.369C95.8783 40.0019 95.8345 40.7273 96.0682 41.3909C96.302 42.0545 96.7949 42.6042 97.4423 42.923C98.1932 43.2927 99.0415 43.4378 99.8785 43.3397C100.715 43.2417 101.503 42.9049 102.14 42.3726L106.693 38.5684C106.844 38.4377 106.945 38.2616 106.979 38.0688C107.013 37.876 106.978 37.6778 106.881 37.5063Z" fill="#E98862"/>
<g opacity="0.25">
<path d="M101.166 36.663C101.179 36.6776 101.198 36.6866 101.218 36.6881C101.238 36.6896 101.258 36.6834 101.274 36.6709L104.145 34.3488C104.153 34.3425 104.159 34.3348 104.164 34.3261C104.169 34.3174 104.172 34.3079 104.173 34.2981C104.174 34.2883 104.172 34.2785 104.169 34.2691C104.166 34.2597 104.161 34.251 104.155 34.2435C104.148 34.236 104.14 34.2298 104.131 34.2253C104.122 34.2207 104.112 34.2179 104.102 34.2171C104.092 34.2162 104.082 34.2173 104.072 34.2203C104.062 34.2232 104.053 34.228 104.046 34.2343L101.174 36.5563C101.158 36.5691 101.149 36.5873 101.147 36.6071C101.145 36.6268 101.151 36.6464 101.165 36.6616L101.166 36.663Z" fill="#0C0C0C"/>
</g>
<g opacity="0.25">
<path d="M102.195 37.9099C102.208 37.9246 102.227 37.9336 102.247 37.9351C102.268 37.9366 102.288 37.9304 102.303 37.9178L105.507 35.3264C105.523 35.3136 105.533 35.2953 105.535 35.2756C105.536 35.2558 105.53 35.2362 105.517 35.2209C105.503 35.2064 105.484 35.1973 105.464 35.1956C105.444 35.1939 105.424 35.1997 105.408 35.2118L102.203 37.8032C102.188 37.816 102.178 37.8343 102.176 37.854C102.174 37.8738 102.181 37.8934 102.194 37.9086L102.195 37.9099Z" fill="#0C0C0C"/>
</g>
<g opacity="0.25">
<path d="M103.299 39.2702C103.312 39.2848 103.331 39.2939 103.351 39.2953C103.371 39.2968 103.391 39.2906 103.407 39.2781L105.963 37.2102C105.979 37.1974 105.988 37.1792 105.99 37.1594C105.992 37.1397 105.986 37.12 105.972 37.1049C105.959 37.0897 105.94 37.0801 105.92 37.0784C105.899 37.0767 105.879 37.0829 105.863 37.0956L103.307 39.1628C103.291 39.1756 103.281 39.1938 103.28 39.2136C103.278 39.2333 103.284 39.2529 103.297 39.2681L103.299 39.2702Z" fill="#0C0C0C"/>
</g>
<path d="M94.9429 37.2793L88.9548 52.0832L80.2118 40.2484L70.7949 48.4336L84.2809 68.2863L84.3863 68.4299C85.0301 69.2799 85.8878 69.9579 86.8785 70.4C87.8693 70.8422 88.9604 71.0338 90.0493 70.957C91.1381 70.8802 92.1887 70.5374 93.1021 69.9609C94.0155 69.3845 94.7616 68.5933 95.2702 67.662L104.944 42.5408L94.9429 37.2793Z" fill="#9CE0C2"/>
<path d="M88.0419 53.9202C88.0217 53.9201 88.0018 53.9151 87.9842 53.9056C87.9666 53.896 87.9518 53.8823 87.9412 53.8657C87.9307 53.849 87.9247 53.8301 87.9239 53.8106C87.9231 53.7911 87.9275 53.7718 87.9367 53.7544L88.8478 52.0334C88.8623 52.0069 88.887 51.987 88.9167 51.978C88.9463 51.9689 88.9784 51.9715 89.0061 51.9851C89.0337 51.9988 89.0547 52.0223 89.0645 52.0508C89.0742 52.0792 89.0719 52.1102 89.0581 52.1371L88.147 53.858C88.1371 53.8767 88.1221 53.8924 88.1036 53.9034C88.085 53.9144 88.0637 53.9202 88.0419 53.9202Z" fill="#0C0C0C"/>
<path d="M30.6186 23.5748V1.83987C30.6186 1.35203 30.4176 0.884161 30.0598 0.539139C29.7021 0.194117 29.2168 0.000190469 28.7108 0L2.19173 0C1.68555 0 1.20011 0.193843 0.842196 0.538886C0.484279 0.883928 0.283203 1.35191 0.283203 1.83987L0.283203 18.0462C0.283203 18.5341 0.484279 19.0021 0.842196 19.3472C1.20011 19.6922 1.68555 19.886 2.19173 19.886H23.74L29.7501 24.0067C29.8323 24.0631 29.9291 24.0966 30.0298 24.1035C30.1304 24.1104 30.2311 24.0905 30.3208 24.0459C30.4106 24.0013 30.4858 23.9337 30.5383 23.8506C30.5908 23.7675 30.6186 23.6721 30.6186 23.5748Z" fill="#2E636E"/>
<path d="M13.2416 5.9169L12.7305 3.41678L15.767 3L16.0745 5.52802L16.5945 11.3725L14.6058 11.6454L13.2416 5.9169ZM14.2363 14.6162C14.0751 13.6254 14.7291 12.7546 15.7788 12.6105C16.8286 12.4663 17.7318 13.1235 17.8931 14.1144C18.053 15.0986 17.3992 15.9692 16.3491 16.1136C15.299 16.2579 14.3966 15.6009 14.2363 14.6162Z" fill="white"/>
</svg>
