<svg width="102" height="98" viewBox="0 0 102 98" fill="none" xmlns="http://www.w3.org/2000/svg">
<g clip-path="url(#clip0_431_5631)">
<path d="M17.4244 23.2891L35.2969 23.2891V0.00084877L17.4244 0.00084877L17.4244 23.2891Z" fill="#F4F4F4"/>
<path d="M17.4255 0H16.8457V23.2882H17.4255V0Z" fill="#F4F4F4"/>
<path opacity="0.05" d="M17.4255 0H16.8457V23.2882H17.4255V0Z" fill="#292A2E"/>
<path opacity="0.05" d="M20.6799 19.0469H32.041V4.24309L20.6799 4.24309V19.0469Z" fill="#292A2E"/>
<path opacity="0.03" d="M20.6814 19.0469H21.2734L21.2734 4.24309H20.6814V19.0469Z" fill="#292A2E"/>
<path d="M2.80902 43.7812H17.4258L17.4258 29.0144H2.80902L2.80902 43.7812Z" fill="#F4F4F4"/>
<path opacity="0.05" d="M5.4702 41.0918H14.7617L14.7617 31.7049H5.4702L5.4702 41.0918Z" fill="#292A2E"/>
<path d="M2.80833 29.0156H2.22852V43.7825H2.80833V29.0156Z" fill="#F4F4F4"/>
<path opacity="0.05" d="M2.80833 29.0156H2.22852V43.7825H2.80833V29.0156Z" fill="#292A2E"/>
<path opacity="0.03" d="M5.47043 41.0918H6.0625L6.0625 31.7049H5.47043L5.47043 41.0918Z" fill="#292A2E"/>
<path d="M96.6101 0.830078H54.5332V42.9523H96.6101V0.830078Z" fill="#F4F4F4"/>
<path d="M97.0936 0.830078H96.6113V42.9523H97.0936V0.830078Z" fill="#F4F4F4"/>
<path opacity="0.05" d="M97.0936 0.830078H96.6113V42.9523H97.0936V0.830078Z" fill="#292A2E"/>
<path opacity="0.05" d="M86.4172 29.8564V18.8359H77.3994V25.2386H63.4309V36.5754H57.4941V42.953H63.4309H64.5746H94.5864V29.8564H86.4172Z" fill="#292A2E"/>
<path opacity="0.34" d="M85.1235 20.0312H78.5566V21.2278H85.1235V20.0312Z" fill="#FFFFFA"/>
<path opacity="0.34" d="M85.1235 22.5117H78.5566V23.7083H85.1235V22.5117Z" fill="#FFFFFA"/>
<path opacity="0.34" d="M85.1235 24.9902H78.5566V26.1868H85.1235V24.9902Z" fill="#FFFFFA"/>
<path opacity="0.34" d="M93.4213 31.0176H92.2109V32.2141H93.4213V31.0176Z" fill="#FFFFFA"/>
<path opacity="0.34" d="M93.4213 33.498H92.2109V34.6946H93.4213V33.498Z" fill="#FFFFFA"/>
<path opacity="0.34" d="M93.4213 35.9766H92.2109V37.1731H93.4213V35.9766Z" fill="#FFFFFA"/>
<path opacity="0.34" d="M91.181 31.0176H89.9707V32.2141H91.181V31.0176Z" fill="#FFFFFA"/>
<path opacity="0.34" d="M91.181 33.498H89.9707V34.6946H91.181V33.498Z" fill="#FFFFFA"/>
<path opacity="0.34" d="M91.181 35.9766H89.9707V37.1731H91.181V35.9766Z" fill="#FFFFFA"/>
<path opacity="0.34" d="M89.0033 31.0176H87.793V32.2141H89.0033V31.0176Z" fill="#FFFFFA"/>
<path opacity="0.34" d="M89.0033 33.498H87.793V34.6946H89.0033V33.498Z" fill="#FFFFFA"/>
<path opacity="0.34" d="M89.0033 35.9766H87.793V37.1731H89.0033V35.9766Z" fill="#FFFFFA"/>
<path d="M96.6101 21.655H88.1435V0.830078H87.4433V21.655H64.5743V0.830078H63.8741V21.655H54.5332V22.3559H63.8741V42.9523H64.5743V22.3559H87.4433V42.9523H88.1435V22.3559H96.6101V21.655Z" fill="white"/>
<path d="M98.2867 42.9023H52.8574V44.3031H98.2867V42.9023Z" fill="#F4F4F4"/>
<path opacity="0.1" d="M98.2867 42.9023H52.8574V44.3031H98.2867V42.9023Z" fill="#292A2E"/>
<path opacity="0.1" d="M98.943 42.9023H98.2871V44.3031H98.943V42.9023Z" fill="#292A2E"/>
<path opacity="0.1" d="M98.943 42.9023H98.2871V44.3031H98.943V42.9023Z" fill="#292A2E"/>
<path d="M92.9566 84.1598C92.943 84.1599 92.9294 84.1572 92.9168 84.152C92.9042 84.1467 92.8928 84.139 92.8832 84.1294C92.7368 83.9829 92.4983 81.2949 91.8558 73.2917C91.5928 70.0171 91.3444 66.9239 91.1632 65.0442C91.1502 64.91 91.0983 64.8944 91.0812 64.8893C90.8331 64.8143 90.0786 65.4098 89.6574 65.9314C89.6401 65.9529 89.6149 65.9665 89.5875 65.9694C89.5601 65.9724 89.5327 65.9642 89.5112 65.9469C89.4898 65.9295 89.4761 65.9044 89.4732 65.8769C89.4703 65.8495 89.4784 65.822 89.4958 65.8006C89.7744 65.4558 90.6822 64.5518 91.1409 64.69C91.2335 64.7179 91.3486 64.7984 91.37 65.0242C91.5514 66.9056 91.7998 69.9996 92.0628 73.2751C92.4532 78.1385 92.8956 83.6482 93.0409 83.9952C93.0521 84.0107 93.0587 84.0291 93.0601 84.0481C93.0615 84.0672 93.0577 84.0863 93.049 84.1033C93.0403 84.1203 93.027 84.1346 93.0107 84.1446C92.9944 84.1545 92.9757 84.1598 92.9566 84.1598Z" fill="#494949"/>
<path d="M90.8967 68.4925C92.6204 67.1094 93.1917 64.9565 92.1727 63.684C91.1538 62.4115 88.9305 62.5012 87.2069 63.8843C85.4832 65.2674 84.9119 67.4203 85.9309 68.6928C86.9498 69.9653 89.1731 69.8756 90.8967 68.4925Z" fill="#2E636E"/>
<path opacity="0.2" d="M90.8967 68.4925C92.6204 67.1094 93.1917 64.9565 92.1727 63.684C91.1538 62.4115 88.9305 62.5012 87.2069 63.8843C85.4832 65.2674 84.9119 67.4203 85.9309 68.6928C86.9498 69.9653 89.1731 69.8756 90.8967 68.4925Z" fill="white"/>
<path d="M86.4132 69.0172C86.4033 69.0172 86.3937 69.0144 86.3854 69.0091C86.3771 69.0038 86.3704 68.9962 86.3662 68.9873C86.3621 68.9784 86.3605 68.9684 86.3617 68.9586C86.363 68.9489 86.367 68.9396 86.3733 68.932L91.2855 63.0019C91.2898 62.9965 91.2952 62.992 91.3012 62.9887C91.3073 62.9854 91.3139 62.9834 91.3208 62.9827C91.3277 62.982 91.3346 62.9827 91.3412 62.9847C91.3478 62.9867 91.3539 62.99 91.3592 62.9944C91.3645 62.9988 91.3689 63.0043 91.3721 63.0104C91.3753 63.0165 91.3772 63.0232 91.3778 63.0301C91.3784 63.037 91.3776 63.0439 91.3754 63.0505C91.3733 63.057 91.3699 63.0631 91.3654 63.0683L86.4532 68.9985C86.4483 69.0044 86.4422 69.0091 86.4352 69.0123C86.4283 69.0156 86.4208 69.0172 86.4132 69.0172Z" fill="white"/>
<path d="M94.0278 82.8887C94.0112 82.8887 93.9948 82.8848 93.9801 82.8771C93.9654 82.8695 93.9527 82.8585 93.943 82.845C93.9334 82.8315 93.9272 82.8158 93.9249 82.7994C93.9225 82.7829 93.9242 82.7662 93.9296 82.7505L95.7748 77.4382C95.8291 77.2821 95.9217 77.1422 96.0441 77.0312C96.1664 76.9202 96.3146 76.8417 96.4751 76.803C96.6356 76.7642 96.8033 76.7663 96.9628 76.8092C97.1222 76.8521 97.2684 76.9344 97.3878 77.0485L98.3633 77.9814C98.3832 78.0004 98.3948 78.0266 98.3954 78.0542C98.3961 78.0818 98.3857 78.1085 98.3667 78.1284C98.3477 78.1484 98.3215 78.16 98.2939 78.1606C98.2664 78.1612 98.2397 78.1509 98.2198 78.1318L97.2443 77.1989C97.15 77.1088 97.0346 77.0439 96.9087 77.0101C96.7829 76.9762 96.6505 76.9745 96.5238 77.0052C96.3972 77.0358 96.2802 77.0977 96.1836 77.1853C96.087 77.2729 96.0139 77.3834 95.971 77.5066L94.1258 82.8188C94.1188 82.8392 94.1055 82.8569 94.0879 82.8694C94.0704 82.882 94.0493 82.8887 94.0278 82.8887Z" fill="#494949"/>
<path d="M101.09 80.9231C102.368 79.9109 102.292 77.6847 100.921 75.9507C99.5497 74.2168 97.4028 73.6316 96.1254 74.6438C94.848 75.656 94.9239 77.8822 96.295 79.6162C97.666 81.3502 99.8129 81.9353 101.09 80.9231Z" fill="#2E636E"/>
<path d="M92.1191 83.821C92.0958 83.821 92.0731 83.8131 92.0548 83.7986C92.0365 83.7842 92.0236 83.7639 92.0182 83.7412L88.9217 70.78C88.9006 70.6917 88.8555 70.6109 88.7914 70.5465C88.7273 70.4822 88.6468 70.4367 88.5586 70.4152C88.4704 70.3938 88.378 70.397 88.2916 70.4247C88.2051 70.4523 88.128 70.5033 88.0686 70.572L87.1141 71.6763C87.0961 71.6972 87.0705 71.7101 87.043 71.712C87.0156 71.714 86.9884 71.705 86.9676 71.687C86.9467 71.6689 86.9339 71.6433 86.9319 71.6158C86.9299 71.5883 86.9389 71.5611 86.957 71.5402L87.9116 70.436C87.996 70.3384 88.1056 70.2659 88.2285 70.2266C88.3514 70.1873 88.4827 70.1828 88.608 70.2134C88.7333 70.244 88.8478 70.3086 88.9388 70.4001C89.0298 70.4917 89.0938 70.6066 89.1238 70.7322L92.2203 83.6932C92.2235 83.7065 92.224 83.7203 92.2218 83.7338C92.2197 83.7473 92.2149 83.7602 92.2078 83.7719C92.2006 83.7835 92.1912 83.7936 92.1802 83.8016C92.1691 83.8096 92.1566 83.8154 92.1433 83.8185C92.1354 83.8203 92.1273 83.8212 92.1191 83.821Z" fill="#494949"/>
<path d="M90.9773 74.5549C91.3537 72.3758 90.3575 70.3841 88.7522 70.1062C87.1469 69.8283 85.5404 71.3695 85.164 73.5486C84.7876 75.7276 85.7838 77.7194 87.3891 77.9973C88.9944 78.2752 90.6008 76.734 90.9773 74.5549Z" fill="#2E636E"/>
<path d="M92.9575 84.16C92.9532 84.1601 92.9489 84.1598 92.9447 84.1593C92.9311 84.1576 92.9181 84.1533 92.9062 84.1466C92.8943 84.1399 92.8839 84.1308 92.8755 84.1201C92.8671 84.1093 92.8609 84.097 92.8573 84.0838C92.8536 84.0707 92.8526 84.0569 92.8543 84.0434L94.8316 67.9718C94.8531 67.7967 94.9247 67.6316 95.0378 67.4963C95.1508 67.361 95.3005 67.2612 95.4688 67.209C95.6371 67.1568 95.8169 67.1544 95.9865 67.202C96.1562 67.2497 96.3085 67.3453 96.4251 67.4776L98.6852 70.0401C98.6942 70.0503 98.7011 70.0622 98.7056 70.0751C98.71 70.0881 98.7118 70.1017 98.711 70.1154C98.7101 70.129 98.7066 70.1423 98.7006 70.1546C98.6946 70.1669 98.6863 70.1778 98.6761 70.1869C98.6658 70.1959 98.6539 70.2029 98.641 70.2073C98.6281 70.2117 98.6144 70.2136 98.6008 70.2127C98.5872 70.2119 98.5739 70.2083 98.5616 70.2023C98.5494 70.1963 98.5384 70.188 98.5294 70.1777L96.2696 67.6152C96.1795 67.513 96.0618 67.4391 95.9307 67.4022C95.7995 67.3654 95.6606 67.3673 95.5305 67.4076C95.4004 67.448 95.2847 67.5251 95.1973 67.6297C95.11 67.7342 95.0547 67.8619 95.038 67.9972L93.0605 84.0687C93.0574 84.0939 93.0452 84.1171 93.0263 84.1339C93.0073 84.1507 92.9829 84.16 92.9575 84.16Z" fill="#494949"/>
<path d="M101.002 71.4641C101.791 70.037 100.863 68.0124 98.9298 66.942C96.9968 65.8716 94.7905 66.1608 94.002 67.5879C93.2135 69.015 94.1412 71.0396 96.0743 72.11C98.0073 73.1804 100.214 72.8912 101.002 71.4641Z" fill="#2E636E"/>
<path opacity="0.2" d="M101.09 80.9231C102.368 79.9109 102.292 77.6847 100.921 75.9507C99.5497 74.2168 97.4028 73.6316 96.1254 74.6438C94.848 75.656 94.9239 77.8822 96.295 79.6162C97.666 81.3502 99.8129 81.9353 101.09 80.9231Z" fill="white"/>
<path opacity="0.5" d="M90.9773 74.5549C91.3537 72.3758 90.3575 70.3841 88.7522 70.1062C87.1469 69.8283 85.5404 71.3695 85.164 73.5486C84.7876 75.7276 85.7838 77.7194 87.3891 77.9973C88.9944 78.2752 90.6008 76.734 90.9773 74.5549Z" fill="white"/>
<path opacity="0.5" d="M101.002 71.4641C101.791 70.037 100.863 68.0124 98.9298 66.942C96.9968 65.8716 94.7905 66.1608 94.002 67.5879C93.2135 69.015 94.1412 71.0396 96.0743 72.11C98.0073 73.1804 100.214 72.8912 101.002 71.4641Z" fill="white"/>
<path d="M95.4862 97.7969H90.428L89.5898 81.5957H96.3244L95.4862 97.7969Z" fill="#292A2E"/>
<path opacity="0.3" d="M95.4862 97.7969H90.428L89.5898 81.5957H96.3244L95.4862 97.7969Z" fill="white"/>
<path d="M101.089 80.9731C101.082 80.9731 101.074 80.9713 101.067 80.9679C101.06 80.9645 101.053 80.9595 101.049 80.9534L96.0835 74.6741C96.0793 74.6688 96.0761 74.6626 96.0742 74.6561C96.0724 74.6495 96.0718 74.6426 96.0726 74.6358C96.0734 74.6291 96.0755 74.6225 96.0788 74.6165C96.0822 74.6106 96.0866 74.6053 96.092 74.6011C96.0973 74.5968 96.1034 74.5937 96.11 74.5918C96.1166 74.59 96.1234 74.5894 96.1302 74.5902C96.137 74.591 96.1435 74.5931 96.1495 74.5964C96.1554 74.5997 96.1607 74.6042 96.1649 74.6096L101.13 80.8889C101.139 80.8997 101.143 80.9134 101.141 80.927C101.14 80.9407 101.133 80.9531 101.122 80.9617C101.113 80.969 101.101 80.9731 101.089 80.9731Z" fill="white"/>
<path d="M100.673 71.9673C100.662 71.9672 100.651 71.9636 100.642 71.9569L94.2889 67.3128C94.2834 67.3087 94.2787 67.3037 94.2752 67.2978C94.2716 67.292 94.2693 67.2855 94.2682 67.2788C94.2671 67.272 94.2674 67.2651 94.269 67.2585C94.2707 67.2519 94.2736 67.2456 94.2776 67.2401C94.2816 67.2346 94.2867 67.2299 94.2925 67.2263C94.2983 67.2228 94.3048 67.2204 94.3115 67.2194C94.3183 67.2183 94.3252 67.2186 94.3318 67.2202C94.3384 67.2218 94.3447 67.2247 94.3502 67.2288L100.704 71.873C100.712 71.8795 100.719 71.8886 100.722 71.899C100.725 71.9094 100.725 71.9205 100.722 71.9308C100.718 71.9411 100.712 71.9502 100.703 71.9566C100.694 71.963 100.684 71.9665 100.673 71.9666V71.9673Z" fill="white"/>
<path d="M87.1301 77.9308C87.1255 77.9308 87.121 77.9302 87.1167 77.929C87.1033 77.9255 87.092 77.9168 87.0851 77.9048C87.0782 77.8929 87.0763 77.8787 87.0799 77.8654L89.1025 70.2794C89.1063 70.2664 89.1151 70.2555 89.1269 70.2488C89.1387 70.2422 89.1526 70.2405 89.1656 70.2439C89.1787 70.2474 89.1899 70.2559 89.1968 70.2675C89.2038 70.2791 89.2059 70.293 89.2028 70.3061L87.1802 77.8922C87.1773 77.9033 87.1708 77.9131 87.1617 77.92C87.1526 77.927 87.1415 77.9308 87.1301 77.9308Z" fill="white"/>
<path d="M18.787 65.6895H10.4434V68.1198H18.787V65.6895Z" fill="#F4F4F4"/>
<path opacity="0.05" d="M12.6577 65.6895H11.5645V68.1198H12.6577V65.6895Z" fill="#292A2E"/>
<path d="M17.7217 66.2168H13.1758V67.657H17.7217V66.2168Z" fill="white"/>
<path d="M25.4422 66.0069L17.6895 62.6172L16.7178 64.8444L24.4705 68.2341L25.4422 66.0069Z" fill="#F4F4F4"/>
<path opacity="0.05" d="M25.4422 66.0069L17.6895 62.6172L16.7178 64.8444L24.4705 68.2341L25.4422 66.0069Z" fill="#292A2E"/>
<path d="M24.4006 65.5516L23.3848 65.1074L22.4131 67.3346L23.4289 67.7788L24.4006 65.5516Z" fill="white"/>
<path d="M22.6926 65.382L18.4688 63.5352L17.8929 64.8549L22.1168 66.7018L22.6926 65.382Z" fill="white"/>
<path opacity="0.05" d="M25.4562 96.4766H23.3594V97.8784H25.4562V96.4766Z" fill="#292A2E"/>
<path opacity="0.05" d="M4.01865 96.4766H1.92188V97.8784H4.01865V96.4766Z" fill="#292A2E"/>
<path d="M27.3781 68.2344H0V96.43H27.3781V68.2344Z" fill="#F4F4F4"/>
<path opacity="0.03" d="M27.3781 68.2344H0V96.43H27.3781V68.2344Z" fill="#292A2E"/>
<path d="M32.4524 68.2344H5.07422V96.43H32.4524V68.2344Z" fill="#F4F4F4"/>
<path opacity="0.05" d="M30.5304 96.4766H28.4336V97.8784H30.5304V96.4766Z" fill="#292A2E"/>
<path opacity="0.05" d="M9.09287 96.4766H6.99609V97.8784H9.09287V96.4766Z" fill="#292A2E"/>
<path opacity="0.7" d="M31.4243 69.5547H6.10156V74.9717H31.4243V69.5547Z" fill="white"/>
<path opacity="0.7" d="M31.4243 76.2969H6.10156V81.7139H31.4243V76.2969Z" fill="white"/>
<path opacity="0.7" d="M31.4243 83.041H6.10156V88.458H31.4243V83.041Z" fill="white"/>
<path opacity="0.05" d="M18.763 73.0217C19.1811 73.0217 19.5201 72.6824 19.5201 72.2638C19.5201 71.8452 19.1811 71.5059 18.763 71.5059C18.3448 71.5059 18.0059 71.8452 18.0059 72.2638C18.0059 72.6824 18.3448 73.0217 18.763 73.0217Z" fill="#292A2E"/>
<path opacity="0.05" d="M18.763 79.7639C19.1811 79.7639 19.5201 79.4246 19.5201 79.006C19.5201 78.5874 19.1811 78.248 18.763 78.248C18.3448 78.248 18.0059 78.5874 18.0059 79.006C18.0059 79.4246 18.3448 79.7639 18.763 79.7639Z" fill="#292A2E"/>
<path opacity="0.05" d="M18.763 86.5061C19.1811 86.5061 19.5201 86.1668 19.5201 85.7482C19.5201 85.3296 19.1811 84.9902 18.763 84.9902C18.3448 84.9902 18.0059 85.3296 18.0059 85.7482C18.0059 86.1668 18.3448 86.5061 18.763 86.5061Z" fill="#292A2E"/>
<path opacity="0.7" d="M31.4243 89.9355H6.10156V95.3525H31.4243V89.9355Z" fill="white"/>
<path opacity="0.05" d="M18.763 93.4026C19.1811 93.4026 19.5201 93.0633 19.5201 92.6447C19.5201 92.2261 19.1811 91.8867 18.763 91.8867C18.3448 91.8867 18.0059 92.2261 18.0059 92.6447C18.0059 93.0633 18.3448 93.4026 18.763 93.4026Z" fill="#292A2E"/>
<path d="M66.14 75.3489H12.4362C11.7114 75.3489 11.0162 75.0606 10.5036 74.5475C9.99108 74.0344 9.70312 73.3385 9.70312 72.6129L11.5728 11.9238H70.6389L68.8731 72.6129C68.8731 73.3385 68.5851 74.0344 68.0726 74.5475C67.56 75.0606 66.8648 75.3489 66.14 75.3489Z" fill="#292A2E"/>
<path opacity="0.9" d="M66.14 75.3489H12.4362C11.7114 75.3489 11.0162 75.0606 10.5036 74.5475C9.99108 74.0344 9.70312 73.3385 9.70312 72.6129L11.5728 11.9238H70.6389L68.8731 72.6129C68.8731 73.3385 68.5851 74.0344 68.0726 74.5475C67.56 75.0606 66.8648 75.3489 66.14 75.3489Z" fill="white"/>
<path d="M66.1404 75.4534H12.4367C11.6845 75.4525 10.9634 75.153 10.4315 74.6206C9.89968 74.0882 9.60049 73.3663 9.59961 72.6133L11.4693 11.8203H70.7432L68.9774 72.6133C68.9766 73.3663 68.6774 74.0882 68.1455 74.6206C67.6137 75.153 66.8926 75.4525 66.1404 75.4534ZM11.6771 12.0283L9.80735 72.6133C9.80815 73.3112 10.0854 73.9802 10.5784 74.4736C11.0713 74.9671 11.7396 75.2446 12.4367 75.2454H66.1404C66.8375 75.2446 67.5058 74.967 67.9987 74.4736C68.4916 73.9802 68.7689 73.3112 68.7697 72.6133L70.5355 12.0283H11.6771Z" fill="#292A2E"/>
<path d="M68.1135 5.90625H14.4097C13.6575 5.9071 12.9364 6.20659 12.4046 6.73901C11.8727 7.27143 11.5735 7.99331 11.5726 8.74628L11.4688 12.0277H70.7427L70.9504 8.74628C70.9496 7.99332 70.6504 7.27144 70.1186 6.73902C69.5867 6.20659 68.8656 5.9071 68.1135 5.90625Z" fill="#0C0C0C"/>
<path d="M69.1524 5.90625H14.8254C14.0732 5.9071 13.3521 6.20659 12.8202 6.73901C12.2884 7.27143 11.9892 7.99331 11.9883 8.74628V12.0277H71.9893V8.74628C71.9885 7.99332 71.6893 7.27144 71.1575 6.73902C70.6256 6.20659 69.9045 5.9071 69.1524 5.90625Z" fill="#292A2E"/>
<path d="M12.0918 11.9238H71.8851V73.6527C71.8851 74.3783 71.5971 75.0743 71.0846 75.5874C70.572 76.1005 69.8769 76.3887 69.152 76.3887H14.8249C14.1 76.3887 13.4049 76.1005 12.8923 75.5874C12.3797 75.0743 12.0918 74.3783 12.0918 73.6527V11.9238Z" fill="white"/>
<path d="M69.1524 76.4932H14.8254C14.0732 76.4923 13.3521 76.1929 12.8202 75.6604C12.2884 75.128 11.9892 74.4061 11.9883 73.6532V11.8203H71.9893V73.6532C71.9885 74.4061 71.6893 75.128 71.1575 75.6604C70.6256 76.1929 69.9045 76.4923 69.1524 76.4932ZM12.196 12.0283V73.6532C12.1968 74.351 12.4741 75.02 12.967 75.5135C13.46 76.0069 14.1283 76.2845 14.8254 76.2852H69.1524C69.8494 76.2844 70.5177 76.0069 71.0106 75.5134C71.5035 75.02 71.7808 74.351 71.7816 73.6532V12.0283H12.196Z" fill="#292A2E"/>
<path d="M19.2773 3.44922C18.6264 3.44996 18.0024 3.70913 17.5421 4.16988C17.0819 4.63062 16.823 5.25531 16.8223 5.9069H17.03C17.0299 5.47514 17.1539 5.05247 17.3872 4.68935C17.6206 4.32622 17.9533 4.03797 18.3458 3.85899C18.7383 3.68002 19.174 3.61789 19.6008 3.68001C20.0276 3.74213 20.4275 3.92588 20.7528 4.20934C21.0782 4.49279 21.3152 4.86397 21.4355 5.27858C21.5559 5.69318 21.5545 6.1337 21.4316 6.54756C21.3087 6.96141 21.0694 7.33112 20.7424 7.61256C20.4153 7.894 20.0142 8.07528 19.587 8.13477C19.5511 8.06052 19.4897 8.00162 19.4141 7.96871C19.3385 7.93581 19.2537 7.93108 19.1749 7.95538C19.0961 7.97968 19.0286 8.0314 18.9846 8.10119C18.9406 8.17098 18.923 8.25422 18.935 8.33587C18.947 8.41752 18.9878 8.49217 19.05 8.54633C19.1122 8.60049 19.1917 8.63057 19.2741 8.63114C19.3566 8.6317 19.4365 8.60271 19.4994 8.54942C19.5624 8.49612 19.6042 8.42203 19.6173 8.34056C20.233 8.25451 20.7931 7.93782 21.1846 7.45443C21.5762 6.97103 21.7699 6.35694 21.7268 5.73611C21.6836 5.11528 21.4068 4.53396 20.9521 4.10951C20.4975 3.68506 19.899 3.44908 19.2773 3.44922Z" fill="#F4F4F4"/>
<path d="M67.1563 5.90664C67.152 5.25758 66.8915 4.63654 66.4316 4.17907C65.9716 3.7216 65.3496 3.46484 64.7012 3.46484C64.0528 3.46484 63.4307 3.7216 62.9708 4.17907C62.5108 4.63654 62.2503 5.25758 62.2461 5.90664H62.4538C62.4537 5.47488 62.5778 5.05222 62.8111 4.68909C63.0444 4.32596 63.3771 4.03771 63.7696 3.85874C64.1621 3.67976 64.5978 3.61763 65.0246 3.67975C65.4514 3.74187 65.8513 3.92563 66.1767 4.20908C66.502 4.49253 66.739 4.86371 66.8593 5.27832C66.9797 5.69292 66.9783 6.13344 66.8554 6.5473C66.7325 6.96115 66.4933 7.33086 66.1662 7.6123C65.8391 7.89374 65.4381 8.07503 65.0109 8.13451C64.9749 8.06027 64.9135 8.00136 64.8379 7.96846C64.7623 7.93555 64.6775 7.93082 64.5987 7.95512C64.5199 7.97942 64.4524 8.03114 64.4084 8.10093C64.3644 8.17072 64.3468 8.25397 64.3588 8.33561C64.3708 8.41726 64.4116 8.49192 64.4738 8.54607C64.536 8.60023 64.6155 8.63031 64.698 8.63088C64.7804 8.63144 64.8603 8.60246 64.9232 8.54916C64.9862 8.49586 65.028 8.42177 65.0411 8.3403C65.6273 8.25755 66.1639 7.96584 66.5525 7.51876C66.9411 7.07168 67.1555 6.49925 67.1563 5.90664Z" fill="#F4F4F4"/>
<path d="M60.6659 5.9069C60.6659 5.25508 60.4073 4.62996 59.9469 4.16906C59.4865 3.70815 58.862 3.44922 58.2109 3.44922C57.5598 3.44922 56.9353 3.70815 56.4749 4.16906C56.0145 4.62996 55.7559 5.25508 55.7559 5.9069H55.9636C55.9635 5.47518 56.0876 5.05256 56.3209 4.68948C56.5542 4.32639 56.8869 4.03817 57.2794 3.85922C57.6718 3.68027 58.1074 3.61815 58.5342 3.68026C58.961 3.74237 59.3609 3.92609 59.6862 4.20951C60.0115 4.49292 60.2485 4.86405 60.3689 5.27861C60.4892 5.69317 60.4879 6.13365 60.3651 6.54747C60.2422 6.9613 60.003 7.331 59.676 7.61246C59.349 7.89391 58.948 8.07523 58.5208 8.13477C58.4849 8.06045 58.4235 8.00146 58.3479 7.96849C58.2723 7.93551 58.1874 7.93072 58.1085 7.95499C58.0297 7.97925 57.9621 8.03097 57.918 8.10079C57.874 8.1706 57.8563 8.25389 57.8683 8.3356C57.8802 8.41731 57.921 8.49204 57.9832 8.54626C58.0455 8.60048 58.125 8.63061 58.2075 8.63121C58.29 8.63181 58.37 8.60283 58.433 8.54952C58.496 8.49621 58.5378 8.42208 58.551 8.34056C59.1371 8.25776 59.6737 7.96603 60.0623 7.51895C60.4508 7.07188 60.6651 6.49948 60.6659 5.9069Z" fill="#F4F4F4"/>
<path d="M54.1777 5.90664C54.1735 5.25758 53.913 4.63654 53.453 4.17907C52.9931 3.7216 52.371 3.46484 51.7227 3.46484C51.0743 3.46484 50.4522 3.7216 49.9923 4.17907C49.5323 4.63654 49.2718 5.25758 49.2676 5.90664H49.4753C49.4752 5.47488 49.5992 5.05222 49.8326 4.68909C50.0659 4.32596 50.3986 4.03771 50.7911 3.85874C51.1836 3.67976 51.6193 3.61763 52.0461 3.67975C52.4729 3.74187 52.8728 3.92563 53.1981 4.20908C53.5235 4.49253 53.7605 4.86371 53.8808 5.27832C54.0012 5.69292 53.9998 6.13344 53.8769 6.5473C53.754 6.96115 53.5147 7.33086 53.1877 7.6123C52.8606 7.89374 52.4595 8.07503 52.0324 8.13451C51.9964 8.06027 51.935 8.00136 51.8594 7.96846C51.7838 7.93555 51.699 7.93082 51.6202 7.95512C51.5414 7.97942 51.4739 8.03114 51.4299 8.10093C51.3859 8.17072 51.3683 8.25397 51.3803 8.33561C51.3923 8.41726 51.4331 8.49192 51.4953 8.54607C51.5575 8.60023 51.637 8.63031 51.7194 8.63088C51.8019 8.63144 51.8818 8.60246 51.9447 8.54916C52.0077 8.49586 52.0495 8.42177 52.0626 8.3403C52.6488 8.25755 53.1854 7.96584 53.574 7.51876C53.9626 7.07168 54.1769 6.49925 54.1777 5.90664Z" fill="#F4F4F4"/>
<path d="M47.6894 5.9069C47.6894 5.58415 47.6259 5.26456 47.5025 4.96639C47.3791 4.66821 47.1983 4.39727 46.9703 4.16906C46.7423 3.94084 46.4717 3.75981 46.1738 3.6363C45.876 3.51279 45.5567 3.44922 45.2343 3.44922C44.9119 3.44922 44.5927 3.51279 44.2948 3.6363C43.997 3.75981 43.7263 3.94084 43.4984 4.16906C43.2704 4.39727 43.0896 4.66821 42.9662 4.96639C42.8428 5.26456 42.7793 5.58415 42.7793 5.9069H42.987C42.987 5.47517 43.111 5.05254 43.3443 4.68945C43.5776 4.32635 43.9104 4.03813 44.3028 3.85918C44.6953 3.68023 45.1309 3.61811 45.5577 3.68024C45.9845 3.74236 46.3844 3.9261 46.7097 4.20954C47.035 4.49297 47.272 4.86412 47.3923 5.2787C47.5127 5.69327 47.5113 6.13376 47.3884 6.54759C47.2656 6.96142 47.0263 7.33111 46.6993 7.61254C46.3722 7.89398 45.9712 8.07526 45.5441 8.13477C45.5081 8.06052 45.4468 8.00162 45.3712 7.96871C45.2956 7.93581 45.2107 7.93108 45.1319 7.95538C45.0531 7.97968 44.9856 8.0314 44.9416 8.10119C44.8976 8.17098 44.88 8.25422 44.892 8.33587C44.904 8.41752 44.9448 8.49217 45.007 8.54633C45.0692 8.60049 45.1487 8.63057 45.2312 8.63114C45.3136 8.6317 45.3935 8.60271 45.4564 8.54942C45.5194 8.49612 45.5612 8.42203 45.5743 8.34056C46.1605 8.25778 46.6971 7.96606 47.0856 7.51898C47.4742 7.07191 47.6886 6.4995 47.6894 5.9069Z" fill="#F4F4F4"/>
<path d="M41.1992 5.90664C41.195 5.25758 40.9345 4.63654 40.4745 4.17907C40.0146 3.7216 39.3925 3.46484 38.7441 3.46484C38.0958 3.46484 37.4737 3.7216 37.0138 4.17907C36.5538 4.63654 36.2933 5.25758 36.2891 5.90664H36.4968C36.4967 5.47488 36.6207 5.05222 36.854 4.68909C37.0874 4.32596 37.4201 4.03771 37.8126 3.85874C38.2051 3.67976 38.6408 3.61763 39.0676 3.67975C39.4944 3.74187 39.8943 3.92563 40.2196 4.20908C40.545 4.49253 40.7819 4.86371 40.9023 5.27832C41.0227 5.69292 41.0213 6.13344 40.8984 6.5473C40.7755 6.96115 40.5362 7.33086 40.2092 7.6123C39.8821 7.89374 39.481 8.07503 39.0538 8.13451C39.0179 8.06027 38.9565 8.00136 38.8809 7.96846C38.8053 7.93555 38.7205 7.93082 38.6417 7.95512C38.5629 7.97942 38.4954 8.03114 38.4514 8.10093C38.4074 8.17072 38.3898 8.25397 38.4018 8.33561C38.4138 8.41726 38.4546 8.49192 38.5168 8.54607C38.579 8.60023 38.6585 8.63031 38.7409 8.63088C38.8234 8.63144 38.9033 8.60246 38.9662 8.54916C39.0292 8.49586 39.071 8.42177 39.0841 8.3403C39.6702 8.25755 40.2069 7.96584 40.5955 7.51876C40.9841 7.07168 41.1984 6.49925 41.1992 5.90664Z" fill="#F4F4F4"/>
<path d="M34.7108 5.9069C34.7108 5.25508 34.4522 4.62996 33.9918 4.16906C33.5314 3.70815 32.9069 3.44922 32.2558 3.44922C31.6047 3.44922 30.9803 3.70815 30.5198 4.16906C30.0594 4.62996 29.8008 5.25508 29.8008 5.9069H30.0085C30.0085 5.47517 30.1325 5.05254 30.3658 4.68945C30.5991 4.32635 30.9319 4.03813 31.3243 3.85918C31.7168 3.68023 32.1524 3.61811 32.5792 3.68024C33.006 3.74236 33.4059 3.9261 33.7312 4.20954C34.0565 4.49297 34.2935 4.86412 34.4138 5.2787C34.5342 5.69327 34.5328 6.13376 34.4099 6.54759C34.287 6.96142 34.0478 7.33111 33.7208 7.61254C33.3937 7.89398 32.9927 8.07526 32.5656 8.13477C32.5296 8.06052 32.4682 8.00162 32.3926 7.96871C32.317 7.93581 32.2322 7.93108 32.1534 7.95538C32.0746 7.97968 32.0071 8.0314 31.9631 8.10119C31.9191 8.17098 31.9015 8.25422 31.9135 8.33587C31.9255 8.41752 31.9663 8.49217 32.0285 8.54633C32.0907 8.60049 32.1702 8.63057 32.2526 8.63114C32.3351 8.6317 32.415 8.60271 32.4779 8.54942C32.5409 8.49612 32.5827 8.42203 32.5958 8.34056C33.1819 8.25778 33.7186 7.96606 34.1071 7.51898C34.4957 7.07191 34.71 6.4995 34.7108 5.9069Z" fill="#F4F4F4"/>
<path d="M28.2207 5.90664C28.2165 5.25758 27.956 4.63654 27.496 4.17907C27.0361 3.7216 26.414 3.46484 25.7656 3.46484C25.1173 3.46484 24.4952 3.7216 24.0352 4.17907C23.5753 4.63654 23.3148 5.25758 23.3105 5.90664H23.5183C23.5182 5.47488 23.6422 5.05222 23.8755 4.68909C24.1088 4.32596 24.4416 4.03771 24.8341 3.85874C25.2266 3.67976 25.6622 3.61763 26.089 3.67975C26.5158 3.74187 26.9158 3.92563 27.2411 4.20908C27.5664 4.49253 27.8034 4.86371 27.9238 5.27832C28.0441 5.69292 28.0428 6.13344 27.9199 6.5473C27.797 6.96115 27.5577 7.33086 27.2306 7.6123C26.9036 7.89374 26.5025 8.07503 26.0753 8.13451C26.0393 8.06027 25.978 8.00136 25.9024 7.96846C25.8268 7.93555 25.7419 7.93082 25.6632 7.95512C25.5844 7.97942 25.5169 8.03114 25.4729 8.10093C25.4289 8.17072 25.4113 8.25397 25.4233 8.33561C25.4353 8.41726 25.4761 8.49192 25.5383 8.54607C25.6005 8.60023 25.68 8.63031 25.7624 8.63088C25.8448 8.63144 25.9248 8.60246 25.9877 8.54916C26.0506 8.49586 26.0924 8.42177 26.1056 8.3403C26.6917 8.25755 27.2284 7.96584 27.617 7.51876C28.0055 7.07168 28.2199 6.49925 28.2207 5.90664Z" fill="#F4F4F4"/>
<g opacity="0.6">
<path d="M19.2773 3.44922C18.6264 3.44996 18.0024 3.70913 17.5421 4.16988C17.0819 4.63062 16.823 5.25531 16.8223 5.9069H17.03C17.0299 5.47514 17.1539 5.05247 17.3872 4.68935C17.6206 4.32622 17.9533 4.03797 18.3458 3.85899C18.7383 3.68002 19.174 3.61789 19.6008 3.68001C20.0276 3.74213 20.4275 3.92588 20.7528 4.20934C21.0782 4.49279 21.3152 4.86397 21.4355 5.27858C21.5559 5.69318 21.5545 6.1337 21.4316 6.54756C21.3087 6.96141 21.0694 7.33112 20.7424 7.61256C20.4153 7.894 20.0142 8.07528 19.587 8.13477C19.5511 8.06052 19.4897 8.00162 19.4141 7.96871C19.3385 7.93581 19.2537 7.93108 19.1749 7.95538C19.0961 7.97968 19.0286 8.0314 18.9846 8.10119C18.9406 8.17098 18.923 8.25422 18.935 8.33587C18.947 8.41752 18.9878 8.49217 19.05 8.54633C19.1122 8.60049 19.1917 8.63057 19.2741 8.63114C19.3566 8.6317 19.4365 8.60271 19.4994 8.54942C19.5624 8.49612 19.6042 8.42203 19.6173 8.34056C20.233 8.25451 20.7931 7.93782 21.1846 7.45443C21.5762 6.97103 21.7699 6.35694 21.7268 5.73611C21.6836 5.11528 21.4068 4.53396 20.9521 4.10951C20.4975 3.68506 19.899 3.44908 19.2773 3.44922Z" fill="#292A2E"/>
<path d="M67.1563 5.90664C67.152 5.25758 66.8915 4.63654 66.4316 4.17907C65.9716 3.7216 65.3496 3.46484 64.7012 3.46484C64.0528 3.46484 63.4307 3.7216 62.9708 4.17907C62.5108 4.63654 62.2503 5.25758 62.2461 5.90664H62.4538C62.4537 5.47488 62.5778 5.05222 62.8111 4.68909C63.0444 4.32596 63.3771 4.03771 63.7696 3.85874C64.1621 3.67976 64.5978 3.61763 65.0246 3.67975C65.4514 3.74187 65.8513 3.92563 66.1767 4.20908C66.502 4.49253 66.739 4.86371 66.8593 5.27832C66.9797 5.69292 66.9783 6.13344 66.8554 6.5473C66.7325 6.96115 66.4933 7.33086 66.1662 7.6123C65.8391 7.89374 65.4381 8.07503 65.0109 8.13451C64.9749 8.06027 64.9135 8.00136 64.8379 7.96846C64.7623 7.93555 64.6775 7.93082 64.5987 7.95512C64.5199 7.97942 64.4524 8.03114 64.4084 8.10093C64.3644 8.17072 64.3468 8.25397 64.3588 8.33561C64.3708 8.41726 64.4116 8.49192 64.4738 8.54607C64.536 8.60023 64.6155 8.63031 64.698 8.63088C64.7804 8.63144 64.8603 8.60246 64.9232 8.54916C64.9862 8.49586 65.028 8.42177 65.0411 8.3403C65.6273 8.25755 66.1639 7.96584 66.5525 7.51876C66.9411 7.07168 67.1555 6.49925 67.1563 5.90664Z" fill="#292A2E"/>
<path d="M60.6659 5.9069C60.6659 5.25508 60.4073 4.62996 59.9469 4.16906C59.4865 3.70815 58.862 3.44922 58.2109 3.44922C57.5598 3.44922 56.9353 3.70815 56.4749 4.16906C56.0145 4.62996 55.7559 5.25508 55.7559 5.9069H55.9636C55.9635 5.47518 56.0876 5.05256 56.3209 4.68948C56.5542 4.32639 56.8869 4.03817 57.2794 3.85922C57.6718 3.68027 58.1074 3.61815 58.5342 3.68026C58.961 3.74237 59.3609 3.92609 59.6862 4.20951C60.0115 4.49292 60.2485 4.86405 60.3689 5.27861C60.4892 5.69317 60.4879 6.13365 60.3651 6.54747C60.2422 6.9613 60.003 7.331 59.676 7.61246C59.349 7.89391 58.948 8.07523 58.5208 8.13477C58.4849 8.06045 58.4235 8.00146 58.3479 7.96849C58.2723 7.93551 58.1874 7.93072 58.1085 7.95499C58.0297 7.97925 57.9621 8.03097 57.918 8.10079C57.874 8.1706 57.8563 8.25389 57.8683 8.3356C57.8802 8.41731 57.921 8.49204 57.9832 8.54626C58.0455 8.60048 58.125 8.63061 58.2075 8.63121C58.29 8.63181 58.37 8.60283 58.433 8.54952C58.496 8.49621 58.5378 8.42208 58.551 8.34056C59.1371 8.25776 59.6737 7.96603 60.0623 7.51895C60.4508 7.07188 60.6651 6.49948 60.6659 5.9069Z" fill="#292A2E"/>
<path d="M54.1777 5.90664C54.1735 5.25758 53.913 4.63654 53.453 4.17907C52.9931 3.7216 52.371 3.46484 51.7227 3.46484C51.0743 3.46484 50.4522 3.7216 49.9923 4.17907C49.5323 4.63654 49.2718 5.25758 49.2676 5.90664H49.4753C49.4752 5.47488 49.5992 5.05222 49.8326 4.68909C50.0659 4.32596 50.3986 4.03771 50.7911 3.85874C51.1836 3.67976 51.6193 3.61763 52.0461 3.67975C52.4729 3.74187 52.8728 3.92563 53.1981 4.20908C53.5235 4.49253 53.7605 4.86371 53.8808 5.27832C54.0012 5.69292 53.9998 6.13344 53.8769 6.5473C53.754 6.96115 53.5147 7.33086 53.1877 7.6123C52.8606 7.89374 52.4595 8.07503 52.0324 8.13451C51.9964 8.06027 51.935 8.00136 51.8594 7.96846C51.7838 7.93555 51.699 7.93082 51.6202 7.95512C51.5414 7.97942 51.4739 8.03114 51.4299 8.10093C51.3859 8.17072 51.3683 8.25397 51.3803 8.33561C51.3923 8.41726 51.4331 8.49192 51.4953 8.54607C51.5575 8.60023 51.637 8.63031 51.7194 8.63088C51.8019 8.63144 51.8818 8.60246 51.9447 8.54916C52.0077 8.49586 52.0495 8.42177 52.0626 8.3403C52.6488 8.25755 53.1854 7.96584 53.574 7.51876C53.9626 7.07168 54.1769 6.49925 54.1777 5.90664Z" fill="#292A2E"/>
<path d="M47.6894 5.9069C47.6894 5.58415 47.6259 5.26456 47.5025 4.96639C47.3791 4.66821 47.1983 4.39727 46.9703 4.16906C46.7423 3.94084 46.4717 3.75981 46.1738 3.6363C45.876 3.51279 45.5567 3.44922 45.2343 3.44922C44.9119 3.44922 44.5927 3.51279 44.2948 3.6363C43.997 3.75981 43.7263 3.94084 43.4984 4.16906C43.2704 4.39727 43.0896 4.66821 42.9662 4.96639C42.8428 5.26456 42.7793 5.58415 42.7793 5.9069H42.987C42.987 5.47517 43.111 5.05254 43.3443 4.68945C43.5776 4.32635 43.9104 4.03813 44.3028 3.85918C44.6953 3.68023 45.1309 3.61811 45.5577 3.68024C45.9845 3.74236 46.3844 3.9261 46.7097 4.20954C47.035 4.49297 47.272 4.86412 47.3923 5.2787C47.5127 5.69327 47.5113 6.13376 47.3884 6.54759C47.2656 6.96142 47.0263 7.33111 46.6993 7.61254C46.3722 7.89398 45.9712 8.07526 45.5441 8.13477C45.5081 8.06052 45.4468 8.00162 45.3712 7.96871C45.2956 7.93581 45.2107 7.93108 45.1319 7.95538C45.0531 7.97968 44.9856 8.0314 44.9416 8.10119C44.8976 8.17098 44.88 8.25422 44.892 8.33587C44.904 8.41752 44.9448 8.49217 45.007 8.54633C45.0692 8.60049 45.1487 8.63057 45.2312 8.63114C45.3136 8.6317 45.3935 8.60271 45.4564 8.54942C45.5194 8.49612 45.5612 8.42203 45.5743 8.34056C46.1605 8.25778 46.6971 7.96606 47.0856 7.51898C47.4742 7.07191 47.6886 6.4995 47.6894 5.9069Z" fill="#292A2E"/>
<path d="M41.1992 5.90664C41.195 5.25758 40.9345 4.63654 40.4745 4.17907C40.0146 3.7216 39.3925 3.46484 38.7441 3.46484C38.0958 3.46484 37.4737 3.7216 37.0138 4.17907C36.5538 4.63654 36.2933 5.25758 36.2891 5.90664H36.4968C36.4967 5.47488 36.6207 5.05222 36.854 4.68909C37.0874 4.32596 37.4201 4.03771 37.8126 3.85874C38.2051 3.67976 38.6408 3.61763 39.0676 3.67975C39.4944 3.74187 39.8943 3.92563 40.2196 4.20908C40.545 4.49253 40.7819 4.86371 40.9023 5.27832C41.0227 5.69292 41.0213 6.13344 40.8984 6.5473C40.7755 6.96115 40.5362 7.33086 40.2092 7.6123C39.8821 7.89374 39.481 8.07503 39.0538 8.13451C39.0179 8.06027 38.9565 8.00136 38.8809 7.96846C38.8053 7.93555 38.7205 7.93082 38.6417 7.95512C38.5629 7.97942 38.4954 8.03114 38.4514 8.10093C38.4074 8.17072 38.3898 8.25397 38.4018 8.33561C38.4138 8.41726 38.4546 8.49192 38.5168 8.54607C38.579 8.60023 38.6585 8.63031 38.7409 8.63088C38.8234 8.63144 38.9033 8.60246 38.9662 8.54916C39.0292 8.49586 39.071 8.42177 39.0841 8.3403C39.6702 8.25755 40.2069 7.96584 40.5955 7.51876C40.9841 7.07168 41.1984 6.49925 41.1992 5.90664Z" fill="#292A2E"/>
<path d="M34.7108 5.9069C34.7108 5.25508 34.4522 4.62996 33.9918 4.16906C33.5314 3.70815 32.9069 3.44922 32.2558 3.44922C31.6047 3.44922 30.9803 3.70815 30.5198 4.16906C30.0594 4.62996 29.8008 5.25508 29.8008 5.9069H30.0085C30.0085 5.47517 30.1325 5.05254 30.3658 4.68945C30.5991 4.32635 30.9319 4.03813 31.3243 3.85918C31.7168 3.68023 32.1524 3.61811 32.5792 3.68024C33.006 3.74236 33.4059 3.9261 33.7312 4.20954C34.0565 4.49297 34.2935 4.86412 34.4138 5.2787C34.5342 5.69327 34.5328 6.13376 34.4099 6.54759C34.287 6.96142 34.0478 7.33111 33.7208 7.61254C33.3937 7.89398 32.9927 8.07526 32.5656 8.13477C32.5296 8.06052 32.4682 8.00162 32.3926 7.96871C32.317 7.93581 32.2322 7.93108 32.1534 7.95538C32.0746 7.97968 32.0071 8.0314 31.9631 8.10119C31.9191 8.17098 31.9015 8.25422 31.9135 8.33587C31.9255 8.41752 31.9663 8.49217 32.0285 8.54633C32.0907 8.60049 32.1702 8.63057 32.2526 8.63114C32.3351 8.6317 32.415 8.60271 32.4779 8.54942C32.5409 8.49612 32.5827 8.42203 32.5958 8.34056C33.1819 8.25778 33.7186 7.96606 34.1071 7.51898C34.4957 7.07191 34.71 6.4995 34.7108 5.9069Z" fill="#292A2E"/>
<path d="M28.2207 5.90664C28.2165 5.25758 27.956 4.63654 27.496 4.17907C27.0361 3.7216 26.414 3.46484 25.7656 3.46484C25.1173 3.46484 24.4952 3.7216 24.0352 4.17907C23.5753 4.63654 23.3148 5.25758 23.3105 5.90664H23.5183C23.5182 5.47488 23.6422 5.05222 23.8755 4.68909C24.1088 4.32596 24.4416 4.03771 24.8341 3.85874C25.2266 3.67976 25.6622 3.61763 26.089 3.67975C26.5158 3.74187 26.9158 3.92563 27.2411 4.20908C27.5664 4.49253 27.8034 4.86371 27.9238 5.27832C28.0441 5.69292 28.0428 6.13344 27.9199 6.5473C27.797 6.96115 27.5577 7.33086 27.2306 7.6123C26.9036 7.89374 26.5025 8.07503 26.0753 8.13451C26.0393 8.06027 25.978 8.00136 25.9024 7.96846C25.8268 7.93555 25.7419 7.93082 25.6632 7.95512C25.5844 7.97942 25.5169 8.03114 25.4729 8.10093C25.4289 8.17072 25.4113 8.25397 25.4233 8.33561C25.4353 8.41726 25.4761 8.49192 25.5383 8.54607C25.6005 8.60023 25.68 8.63031 25.7624 8.63088C25.8448 8.63144 25.9248 8.60246 25.9877 8.54916C26.0506 8.49586 26.0924 8.42177 26.1056 8.3403C26.6917 8.25755 27.2284 7.96584 27.617 7.51876C28.0055 7.07168 28.2199 6.49925 28.2207 5.90664Z" fill="#292A2E"/>
</g>
<g opacity="0.72">
<path d="M66.2107 18.663H17.4867C17.4591 18.663 17.4327 18.6521 17.4132 18.6326C17.3938 18.6131 17.3828 18.5866 17.3828 18.5591C17.3828 18.5315 17.3938 18.505 17.4132 18.4855C17.4327 18.466 17.4591 18.4551 17.4867 18.4551H66.2107C66.2382 18.4551 66.2646 18.466 66.2841 18.4855C66.3036 18.505 66.3146 18.5315 66.3146 18.5591C66.3146 18.5866 66.3036 18.6131 66.2841 18.6326C66.2646 18.6521 66.2382 18.663 66.2107 18.663Z" fill="#292A2E"/>
</g>
<g opacity="0.72">
<path d="M66.2107 24.5576H17.4867C17.4591 24.5576 17.4327 24.5466 17.4132 24.5271C17.3938 24.5076 17.3828 24.4812 17.3828 24.4536C17.3828 24.426 17.3938 24.3996 17.4132 24.3801C17.4327 24.3606 17.4591 24.3496 17.4867 24.3496H66.2107C66.2382 24.3496 66.2646 24.3606 66.2841 24.3801C66.3036 24.3996 66.3146 24.426 66.3146 24.4536C66.3146 24.4812 66.3036 24.5076 66.2841 24.5271C66.2646 24.5466 66.2382 24.5576 66.2107 24.5576Z" fill="#292A2E"/>
</g>
<g opacity="0.72">
<path d="M38.7183 30.4541H17.4867C17.4591 30.4541 17.4327 30.4431 17.4132 30.4236C17.3938 30.4041 17.3828 30.3777 17.3828 30.3501C17.3828 30.3225 17.3938 30.296 17.4132 30.2765C17.4327 30.257 17.4591 30.2461 17.4867 30.2461H38.7183C38.7458 30.2461 38.7722 30.257 38.7917 30.2765C38.8112 30.296 38.8221 30.3225 38.8221 30.3501C38.8221 30.3777 38.8112 30.4041 38.7917 30.4236C38.7722 30.4431 38.7458 30.4541 38.7183 30.4541Z" fill="#292A2E"/>
</g>
<path d="M89.4178 49.3956C89.8772 49.3956 90.3298 49.2844 90.7371 49.0716C91.1443 48.8587 91.4942 48.5506 91.7569 48.1733C92.0196 47.796 92.1873 47.3607 92.2459 46.9045C92.3044 46.4484 92.252 45.9848 92.093 45.5533C91.9316 45.1152 88.1486 35.0866 87.4284 33.2285L82.0957 35.3914C82.5008 36.4362 83.9678 40.3964 85.1464 43.5865L83.1883 43.3735L82.572 49.05L89.1092 49.3793C89.2117 49.3903 89.3147 49.3958 89.4178 49.3956Z" fill="#4ECEC2"/>
<path d="M42.5234 35.3041L44.4945 28.25L90.9363 40.6692L88.9652 47.7233L42.5234 35.3041Z" fill="#4ECEC2"/>
<path opacity="0.5" d="M42.5234 35.3041L44.4945 28.25L90.9363 40.6692L88.9652 47.7233L42.5234 35.3041Z" fill="white"/>
<path d="M94.0622 49.1518L96.0332 42.0977L90.9359 40.6703L88.9649 47.7245L94.0622 49.1518Z" fill="#262626"/>
<path d="M42.5227 35.3038C42.5227 35.3038 41.1852 33.8032 39.9907 32.4546C39.0436 31.3849 38.1868 30.4108 38.1606 30.3575C38.1343 30.3041 39.421 29.8679 40.8424 29.4077C42.5693 28.848 44.4941 28.25 44.4941 28.25L42.5227 35.3038Z" fill="#4ECEC2"/>
<path opacity="0.9" d="M42.5227 35.3038C42.5227 35.3038 41.1852 33.8032 39.9907 32.4546C39.0436 31.3849 38.1868 30.4108 38.1606 30.3575C38.1343 30.3041 39.421 29.8679 40.8424 29.4077C42.5693 28.848 44.4941 28.25 44.4941 28.25L42.5227 35.3038Z" fill="white"/>
<path d="M39.9907 32.4552C39.0436 31.3855 38.1868 30.4113 38.1606 30.358C38.1343 30.3047 39.421 29.8684 40.8424 29.4082L39.9907 32.4552Z" fill="#262626"/>
<path d="M43.1495 33.1113L89.6036 45.399L89.5148 45.7211L43.0605 33.4336L43.1495 33.1113Z" fill="white"/>
<path d="M43.9208 30.3516L90.3751 42.6391L90.2862 42.9613L43.832 30.6737L43.9208 30.3516Z" fill="white"/>
<path d="M83.3658 93.4004C83.3658 93.4004 82.8969 95.8336 80.6207 95.9697C78.3445 96.1059 78.8381 97.9206 78.8381 97.9206H87.5363V93.5704L83.3658 93.4004Z" fill="#4ECEC2"/>
<path d="M86.0479 49.0074C86.0479 49.0074 86.0206 48.2758 86.0264 49.9354C86.0479 56.1255 86.1552 63.196 86.4174 67.3335C86.8388 73.9847 87.9193 94.9548 87.9193 94.9548L82.2037 94.9068L76.6641 48.7559L86.0479 49.0074Z" fill="#262626"/>
<path d="M79.5936 56.3066C79.5936 56.3066 79.3568 60.7988 79.3132 61.8534C79.2116 64.2924 79.1763 66.8175 79.1763 69.6805L78.2754 62.1749C78.2754 62.1749 78.9344 59.8228 79.5936 56.3066Z" fill="#0A0A0A"/>
<path d="M73.1901 93.4004C73.1901 93.4004 72.7212 95.8336 70.445 95.9697C68.1688 96.1059 68.6623 97.9206 68.6623 97.9206H77.3606V93.5704L73.1901 93.4004Z" fill="#4ECEC2"/>
<path d="M70.4218 49.4868C70.4218 49.4868 69.9157 70.6431 69.9898 71.6771L72.1154 94.7929L77.7367 94.8969L77.1888 70.8408C77.1888 70.8408 77.5753 64.2049 79.1769 58.043C79.9963 54.8805 80.4895 51.6422 80.6485 48.3789L70.4218 49.4868Z" fill="#262626"/>
<path d="M86.1113 49.0053L86.13 49.0064C86.13 49.0064 86.1165 48.6456 86.1113 49.0053Z" fill="#333333"/>
<path d="M69.6182 37.7439C69.7361 39.1303 70.3096 47.7795 70.4228 49.487H86.0425C86.1307 47.9469 86.1456 41.274 86.4802 38.2623C86.7996 35.3884 87.8076 33.8879 87.3483 33.0383C86.5977 31.6497 84.5466 30.8473 83.1481 30.6577C82.294 30.542 81.0096 30.459 81.0096 30.459C81.0096 30.459 80.9009 32.6615 78.3076 32.7841C74.7774 32.9505 75.0132 30.459 74.9956 30.459C74.4243 30.459 71.261 30.7832 70.5652 31.3996C68.6944 33.0573 69.3681 34.8061 69.6182 37.7439Z" fill="#4ECEC2"/>
<path d="M73.1348 30.2686C73.1522 30.2663 73.6313 32.0713 77.3704 31.7904C79.959 31.5963 80.5904 29.8324 80.6494 29.8324C80.3704 29.773 79.9171 29.7113 79.7932 29.6452C79.3856 29.426 79.0886 29.1591 78.9393 28.5863C78.8223 28.1384 78.7627 26.414 78.7627 25.5488L74.7795 26.4449C74.835 27.4208 75.2235 29.6833 73.8617 30.0837C73.6351 30.1498 73.391 30.2108 73.1348 30.2686Z" fill="#E98862"/>
<path d="M74.9173 28.3633C76.4875 28.4874 78.5048 27.8237 78.8878 25.7264L79.2336 23.8339C79.6167 21.7366 78.827 19.8349 76.8549 19.4738C74.8824 19.1126 73.0973 20.5429 72.7142 22.6401L72.5612 23.4779C72.4137 24.2828 72.1155 28.1421 74.9173 28.3633Z" fill="#E98862"/>
<path d="M73.4622 26.4381C73.744 25.0204 73.8732 24.0745 73.8582 23.0765C73.4612 22.3798 73.5656 21.5791 73.6559 21.2335C73.3825 21.4074 73.061 21.4899 72.7378 21.4692C72.7378 21.4692 73.3943 18.8313 75.6254 18.1215C76.0358 17.9616 77.0835 17.7597 78.4748 17.9507C79.658 18.1131 82.5747 18.9989 82.9915 22.2861V22.288C83.0052 22.397 83.2852 25.4257 83.8432 26.8789C84.5938 28.8325 85.6476 29.4395 85.6209 31.6934C85.5865 34.5926 80.2623 34.9785 77.0514 34.7617C73.8405 34.5449 72.0473 33.4877 72.024 31.3983C71.9988 29.0573 72.8981 29.2747 73.4622 26.4381Z" fill="#0A0A0A"/>
<path d="M86.376 38.2596L85.9922 49.4863L86.096 49.4899L86.4798 38.2632L86.376 38.2596Z" fill="#0C0C0C"/>
<path d="M54.9621 38.4808L53.4186 36.2702C53.3847 36.2216 53.341 36.1806 53.2904 36.1499C53.2398 36.1191 53.1834 36.0992 53.1247 36.0915C53.066 36.0838 53.0063 36.0884 52.9495 36.105C52.8927 36.1217 52.84 36.15 52.7947 36.1881C52.7132 36.2611 52.6617 36.3618 52.6502 36.4707C52.6387 36.5795 52.668 36.6888 52.7323 36.7773L53.0633 37.2513L51.339 36.2389C51.1492 36.123 50.8424 36.1022 50.7261 36.3239C50.6759 36.4063 50.6551 36.5032 50.6671 36.599C50.6791 36.6947 50.7232 36.7835 50.7921 36.8509C50.7905 36.8524 50.7891 36.8541 50.7879 36.8559C50.7873 36.8574 50.7867 36.859 50.7863 36.8606L50.4937 36.6818C50.4394 36.6488 50.3785 36.6282 50.3154 36.6217C50.2522 36.6152 50.1884 36.6228 50.1286 36.6441C50.0688 36.6654 50.0145 36.6998 49.9696 36.7448C49.9248 36.7897 49.8905 36.8441 49.8693 36.904C49.8378 36.9991 49.8398 37.1021 49.8751 37.1957C49.9104 37.2894 49.9768 37.3681 50.0631 37.4187L50.1878 37.4947C50.1873 37.4993 50.1875 37.504 50.1886 37.5085C50.0925 37.4766 49.9882 37.4801 49.8945 37.5182C49.8007 37.5563 49.7235 37.6266 49.6768 37.7165C49.6286 37.8162 49.6196 37.9304 49.6518 38.0364C49.6839 38.1424 49.7547 38.2324 49.8502 38.2884L50.1594 38.4773C50.1544 38.4775 50.1495 38.4787 50.1449 38.4808C50.1404 38.4829 50.1364 38.4859 50.133 38.4896C50.1297 38.4934 50.1271 38.4978 50.1256 38.5025C50.124 38.5073 50.1234 38.5123 50.1238 38.5173C50.0305 38.5128 49.9383 38.5391 49.8613 38.5921C49.7844 38.6452 49.727 38.722 49.6979 38.8109C49.6692 38.905 49.6731 39.006 49.7089 39.0976C49.7447 39.1892 49.8104 39.266 49.8953 39.3156L52.5046 40.9094C52.8697 41.1324 53.293 41.2411 53.7202 41.2217C54.1474 41.2023 54.559 41.0557 54.9024 40.8006C55.1985 40.5805 55.3972 40.2536 55.4564 39.8893C55.5155 39.5249 55.4305 39.1519 55.2192 38.8493L54.9621 38.4808Z" fill="#E98862"/>
<g opacity="0.2">
<path d="M52.4953 37.8623C52.4899 37.8711 52.4812 37.8773 52.4713 37.8798C52.4613 37.8822 52.4507 37.8807 52.4419 37.8754L50.8034 36.9106C50.7948 36.9051 50.7886 36.8965 50.7863 36.8865C50.7839 36.8766 50.7854 36.8661 50.7906 36.8573C50.7958 36.8485 50.8041 36.8421 50.814 36.8393C50.8238 36.8366 50.8343 36.8378 50.8433 36.8427L52.4819 37.8076C52.4863 37.8103 52.4902 37.8137 52.4933 37.8178C52.4964 37.822 52.4987 37.8267 52.5 37.8317C52.5013 37.8367 52.5016 37.8419 52.5009 37.847C52.5001 37.8521 52.4984 37.857 52.4958 37.8615L52.4953 37.8623Z" fill="#0C0C0C"/>
</g>
<g opacity="0.2">
<path d="M52.0884 38.5975C52.083 38.6062 52.0744 38.6125 52.0644 38.6149C52.0544 38.6174 52.0439 38.6158 52.035 38.6106L50.2069 37.5338C50.2024 37.5312 50.1985 37.5277 50.1954 37.5236C50.1923 37.5194 50.19 37.5147 50.1888 37.5097C50.1875 37.5047 50.1872 37.4995 50.1879 37.4944C50.1886 37.4892 50.1903 37.4843 50.193 37.4799C50.1985 37.4711 50.2071 37.4648 50.2171 37.4622C50.2271 37.4596 50.2377 37.461 50.2468 37.4659L52.0749 38.5427C52.0839 38.548 52.0904 38.5567 52.093 38.5668C52.0957 38.5769 52.0942 38.5876 52.0889 38.5967L52.0884 38.5975Z" fill="#0C0C0C"/>
</g>
<g opacity="0.2">
<path d="M51.6552 39.3949C51.6498 39.4037 51.6412 39.4099 51.6313 39.4124C51.6213 39.4149 51.6108 39.4133 51.6019 39.4081L50.1432 38.5492C50.1346 38.5437 50.1285 38.5351 50.1261 38.5252C50.1237 38.5153 50.1253 38.5048 50.1304 38.496C50.1356 38.4872 50.144 38.4807 50.1538 38.478C50.1637 38.4753 50.1742 38.4765 50.1831 38.4813L51.6418 39.3402C51.6463 39.3429 51.6502 39.3463 51.6533 39.3505C51.6564 39.3546 51.6586 39.3593 51.6599 39.3643C51.6612 39.3694 51.6615 39.3746 51.6608 39.3797C51.6601 39.3848 51.6584 39.3897 51.6557 39.3942L51.6552 39.3949Z" fill="#0C0C0C"/>
</g>
<path d="M69.9832 32.0664L63.507 41.7834L55.3301 37.0372L52.377 41.8792L62.8513 48.6134C63.5231 49.0443 64.337 49.1943 65.118 49.0309C65.8991 48.8676 66.585 48.4041 67.0283 47.7399L67.0672 47.6817L75.1674 35.5291L69.9832 32.0664Z" fill="#4ECEC2"/>
<path d="M70.003 43.398C69.9936 43.398 69.9844 43.3954 69.9764 43.3906C69.9683 43.3857 69.9617 43.3788 69.9573 43.3705C69.9529 43.3622 69.9508 43.3528 69.9512 43.3434C69.9517 43.334 69.9547 43.3249 69.9599 43.3171L71.6678 40.7718C71.6757 40.7608 71.6875 40.7533 71.7008 40.7508C71.7141 40.7484 71.7278 40.7513 71.739 40.7588C71.7502 40.7664 71.7581 40.778 71.7609 40.7912C71.7637 40.8044 71.7612 40.8182 71.754 40.8297L70.0462 43.375C70.0414 43.3821 70.035 43.3879 70.0275 43.3919C70.0199 43.3959 70.0116 43.398 70.003 43.398Z" fill="#0C0C0C"/>
</g>
<defs>
<clipPath id="clip0_431_5631">
<rect width="102" height="98" fill="white"/>
</clipPath>
</defs>
</svg>
