<svg width="102" height="80" viewBox="0 0 102 80" fill="none" xmlns="http://www.w3.org/2000/svg">
<g clip-path="url(#clip0_431_5423)">
<path opacity="0.08" d="M23.6052 74.2716C42.7509 86.884 70.3399 75.367 87.3841 60.0653C103.743 45.3789 111.698 7.24332 82.1753 1.00092C69.8825 -1.59824 64.2922 1.11241 55.2392 6.27435C47.9305 10.4418 37.8881 8.46916 30.6251 4.73359C20.3552 -0.548359 7.69844 7.13415 2.27981 18.7197C-4.35843 32.9175 3.72384 61.1744 23.6052 74.2716Z" fill="white"/>
<path opacity="0.1" d="M23.6052 74.2716C42.7509 86.884 70.3399 75.367 87.3841 60.0653C103.743 45.3789 111.698 7.24332 82.1753 1.00092C69.8825 -1.59824 64.2922 1.11241 55.2392 6.27435C47.9305 10.4418 37.8881 8.46916 30.6251 4.73359C20.3552 -0.548359 7.69844 7.13415 2.27981 18.7197C-4.35843 32.9175 3.72384 61.1744 23.6052 74.2716Z" fill="#4ECEC2"/>
<path d="M27.0202 12.2948C27.0202 12.2948 26.6019 18.5307 25.19 20.7923C21.1248 27.3053 19.9471 34.632 24.018 38.4601C28.0888 42.2882 54.054 42.3412 56.0211 33.5366C57.6771 26.1243 54.1233 25.3272 53.2585 19.213C52.8673 16.4462 51.7909 10.6445 51.7909 10.6445" fill="#0A0A0A"/>
<path d="M49.301 32.2469C49.2562 32.2411 48.7588 40.4404 39.1714 39.7256C32.5341 39.2316 30.1676 32.2347 30.0156 32.2347C30.7312 32.0835 31.9362 31.8638 32.254 31.6954C33.2992 31.1374 34.5918 30.5569 34.9293 28.5404C35.1241 27.379 34.7929 21.4323 34.8954 20.2559L45.0843 22.5153C44.9419 24.9987 43.9455 30.7563 47.4377 31.7752C48.0179 31.9438 48.6439 32.0986 49.301 32.2469Z" fill="#FAA896"/>
<path opacity="0.5" d="M45.2248 29.422C45.0652 28.9111 44.9625 28.3843 44.9184 27.8511C44.8064 26.6343 44.8288 25.409 44.985 24.197C42.9145 23.9193 40.964 23.0701 39.355 21.7461C39.1658 22.4402 38.1252 25.4733 38.4134 26.133C38.9571 27.3799 41.5158 29.422 45.2248 29.422Z" fill="#0C0C0C"/>
<path d="M43.9074 26.8678C39.8905 27.255 34.6934 25.6577 33.6168 20.3432L32.6454 15.5479C31.5688 10.2334 33.5056 5.3632 38.5419 4.35609C43.5785 3.34956 48.2157 6.90454 49.2923 12.219L49.7225 14.3426C50.1355 16.3812 51.074 26.179 43.9074 26.8678Z" fill="#FAA896"/>
<path d="M46.7647 20.5128C45.4596 21.172 43.9706 21.3805 42.5329 21.1053C42.4832 21.096 42.4318 21.1009 42.3847 21.1195C42.3377 21.1382 42.2969 21.1697 42.2673 21.2105C42.2376 21.2513 42.2203 21.2997 42.2173 21.3499C42.2143 21.4001 42.2257 21.4501 42.2502 21.4941C42.6788 22.2446 43.6954 23.5266 45.4395 23.0039C46.5656 22.6664 46.9913 21.5152 47.1491 20.8033C47.1598 20.7541 47.1562 20.7028 47.1387 20.6556C47.1211 20.6083 47.0903 20.567 47.05 20.5365C47.0096 20.506 46.9613 20.4875 46.9108 20.4833C46.8603 20.4791 46.8096 20.4894 46.7647 20.5128Z" fill="white"/>
<path d="M46.8474 14.7453C47.1957 14.7453 47.4781 14.4648 47.4781 14.1188C47.4781 13.7727 47.1957 13.4922 46.8474 13.4922C46.4991 13.4922 46.2168 13.7727 46.2168 14.1188C46.2168 14.4648 46.4991 14.7453 46.8474 14.7453Z" fill="#0C0C0C"/>
<path d="M40.7869 15.8C41.1352 15.8 41.4175 15.5195 41.4175 15.1734C41.4175 14.8274 41.1352 14.5469 40.7869 14.5469C40.4386 14.5469 40.1562 14.8274 40.1562 15.1734C40.1562 15.5195 40.4386 15.8 40.7869 15.8Z" fill="#0C0C0C"/>
<path opacity="0.1" d="M41.3556 19.9033C42.0166 19.8249 42.5056 19.3709 42.4477 18.8892C42.3899 18.4075 41.8071 18.0805 41.1461 18.1589C40.4851 18.2373 39.9961 18.6913 40.054 19.173C40.1118 19.6547 40.6946 19.9817 41.3556 19.9033Z" fill="#0C0C0C"/>
<path opacity="0.1" d="M48.3405 17.9779C48.3989 18.4589 48.9824 18.7855 49.6435 18.708C49.7577 18.6944 49.8702 18.6691 49.9792 18.6324C50.0099 18.0588 50.0117 17.507 49.9949 16.9962C49.8113 16.9506 49.6208 16.9395 49.4331 16.9635C48.772 17.0411 48.2832 17.4948 48.3405 17.9779Z" fill="#0C0C0C"/>
<path opacity="0.5" d="M45.4196 19.4638L45.4293 19.4622C45.6335 19.42 45.8351 19.3665 46.0333 19.3022C46.329 19.2038 46.7152 19.0424 46.6622 18.7766C46.601 18.4737 45.1036 15.3734 44.9337 15.0215C44.9266 15.0058 44.9164 14.9917 44.9038 14.9799C44.8911 14.9682 44.8762 14.9591 44.8599 14.9532C44.8436 14.9472 44.8263 14.9446 44.809 14.9455C44.7917 14.9463 44.7747 14.9506 44.7591 14.958C44.7434 14.9655 44.7295 14.976 44.718 14.9889C44.7065 15.0018 44.6978 15.0169 44.6923 15.0332C44.6868 15.0495 44.6846 15.0668 44.6859 15.084C44.6872 15.1012 44.692 15.1179 44.6999 15.1332C45.3384 16.4535 46.3666 18.6241 46.4079 18.8281C46.3756 18.9232 45.885 19.1088 45.3787 19.2102C45.3448 19.2157 45.3144 19.2343 45.2943 19.262C45.2742 19.2896 45.266 19.3241 45.2714 19.3578C45.2769 19.3915 45.2956 19.4217 45.3235 19.4417C45.3514 19.4616 45.3861 19.4698 45.42 19.4644L45.4196 19.4638Z" fill="#0C0C0C"/>
<path d="M28.628 17.2693L33.1433 16.3931C36.554 14.976 37.5217 9.07022 37.5217 9.07022C37.5217 9.07022 41.7311 13.053 51.7914 10.6445C51.7914 10.6445 49.6061 -3.30852 34.7511 0.927605C29.9614 2.29319 26.5685 7.14368 27.0731 13.5686C27.4267 18.0703 28.628 17.2693 28.628 17.2693Z" fill="#0A0A0A"/>
<path d="M34.2575 21.8998C32.7269 22.2059 31.1566 20.8271 30.848 19.3061C30.5394 17.7851 31.611 16.6986 33.1415 16.3926L34.1367 17.2537L35.5731 21.6362L34.2575 21.8998Z" fill="#FAA896"/>
<path d="M46.0184 12.5503C46.4013 12.2812 46.8492 12.1178 47.3163 12.0767C47.5507 12.0545 47.7872 12.0675 48.0177 12.1154C48.2504 12.1626 48.4763 12.2386 48.69 12.3417L48.6967 12.3447C48.7205 12.3559 48.7478 12.3571 48.7725 12.3482C48.7973 12.3394 48.8175 12.3211 48.8286 12.2974C48.8398 12.2738 48.8411 12.2466 48.8322 12.2221C48.8232 12.1975 48.8048 12.1774 48.781 12.1663C48.5545 12.0476 48.3139 11.9576 48.0648 11.8986C47.814 11.838 47.5555 11.8152 47.2978 11.831C46.7759 11.8595 46.2713 12.0267 45.8366 12.3149C45.8205 12.3259 45.8066 12.3399 45.7959 12.3561C45.7852 12.3724 45.7778 12.3905 45.7741 12.4096C45.7705 12.4287 45.7706 12.4483 45.7746 12.4674C45.7786 12.4864 45.7863 12.5044 45.7973 12.5205C45.8083 12.5366 45.8224 12.5503 45.8387 12.561C45.8551 12.5716 45.8734 12.579 45.8926 12.5826C45.9118 12.5863 45.9315 12.5861 45.9507 12.5821C45.9698 12.5782 45.988 12.5705 46.0042 12.5596L46.0077 12.5571L46.0184 12.5503Z" fill="#0C0C0C"/>
<path d="M41.8937 13.1162C41.381 13.015 40.8503 13.0523 40.357 13.2242C40.1131 13.3076 39.8833 13.4269 39.6751 13.5782C39.4678 13.7275 39.2802 13.9021 39.1167 14.0979C39.0995 14.1173 39.0906 14.1426 39.0919 14.1685C39.0933 14.1943 39.1049 14.2186 39.1241 14.236C39.1434 14.2535 39.1688 14.2627 39.1948 14.2617C39.2208 14.2607 39.2454 14.2496 39.2632 14.2307L39.2685 14.2253C39.4262 14.0488 39.6055 13.8928 39.8023 13.7607C39.9971 13.6287 40.2108 13.5267 40.4363 13.4582C40.8838 13.3187 41.3605 13.2994 41.818 13.4022L41.8293 13.405C41.8676 13.4142 41.9081 13.4079 41.9418 13.3875C41.9755 13.3671 41.9997 13.3342 42.009 13.2961C42.0183 13.258 42.012 13.2177 41.9914 13.1842C41.9709 13.1508 41.9378 13.1268 41.8994 13.1175L41.8937 13.1162Z" fill="#0C0C0C"/>
<path d="M33.1454 16.3192C36.1806 15.1966 37.1878 13.1142 37.498 11.5645C37.6987 10.531 37.68 9.46728 37.4428 8.44141L37.3489 8.46696C37.5825 9.47951 37.6005 10.5294 37.4019 11.5493C37.0957 13.0736 36.1028 15.1226 33.1113 16.2286L33.1454 16.3192Z" fill="#0C0C0C"/>
<path d="M61.2537 37.3066L73.6669 70.0987L63.3646 67.2032L86.7951 49.8406L95.1425 61.1811L71.3876 78.1029C70.5627 78.6893 69.6171 79.0864 68.6191 79.2656C67.621 79.4448 66.5953 79.4017 65.616 79.1393C64.6367 78.8768 63.7283 78.4017 62.9563 77.7481C62.1843 77.0946 61.568 76.2789 61.1518 75.36L61.0853 75.2074L46.8262 43.1648L61.2537 37.3066Z" fill="#4ECEC2"/>
<path d="M38.9917 37.6759C32.3498 37.3648 32.0702 31.7637 32.0702 31.7637C32.0702 31.7637 28.7793 31.975 26.5916 32.2691C23.01 32.7507 20.6471 33.9573 18.7667 35.8254C17.0176 37.5632 15.9527 39.4435 17.0795 51.4481C17.8954 60.1402 17.3211 79.259 17.3211 79.259H57.4061C57.4061 79.259 59.8098 54.1994 60.1449 50.2867C60.7843 42.8171 63.4032 38.6071 59.7428 34.7594C57.0883 31.969 50.2354 31.7637 47.4771 31.7643C47.4323 31.7639 48.037 38.0994 38.9917 37.6759Z" fill="#4ECEC2"/>
<path d="M77.5252 38.9224C75.0336 34.7414 69.395 34.2393 65.1868 36.7158L64.9201 36.8803L64.7412 36.594C62.1657 32.4636 56.9152 30.3092 52.7578 32.8681C50.7615 34.097 49.3382 36.0634 48.8011 38.3348C48.264 40.6063 48.6571 42.9966 49.8939 44.9801L58.45 58.4089C58.7275 58.8445 59.1663 59.1543 59.6717 59.2712C60.1771 59.3881 60.7085 59.3029 61.1512 59.0339L74.7304 50.7827C76.6465 49.546 78.0072 47.6212 78.528 45.4108C79.0489 43.2005 78.6896 40.8756 77.5252 38.9224Z" fill="#4ECEC2"/>
<path opacity="0.6" d="M77.5252 38.9224C75.0336 34.7414 69.395 34.2393 65.1868 36.7158L64.9201 36.8803L64.7412 36.594C62.1657 32.4636 56.9152 30.3092 52.7578 32.8681C50.7615 34.097 49.3382 36.0634 48.8011 38.3348C48.264 40.6063 48.6571 42.9966 49.8939 44.9801L58.45 58.4089C58.7275 58.8445 59.1663 59.1543 59.6717 59.2712C60.1771 59.3881 60.7085 59.3029 61.1512 59.0339L74.7304 50.7827C76.6465 49.546 78.0072 47.6212 78.528 45.4108C79.0489 43.2005 78.6896 40.8756 77.5252 38.9224Z" fill="white"/>
<path d="M63.1782 47.5696C58.7604 44.9242 53.2708 47.2585 50.6082 51.6478L50.4432 51.9331L50.133 51.756C45.6626 49.199 39.7019 49.8062 37.1285 54.2477C35.8926 56.3805 35.56 58.9138 36.204 61.2902C36.848 63.6666 38.4158 65.6915 40.5625 66.9195L55.2664 75.142C55.7434 75.4088 56.3069 75.4785 56.8351 75.336C57.3634 75.1935 57.8141 74.8504 58.0898 74.3806L66.5491 59.9727C67.7063 57.8726 68.0017 55.4093 67.3735 53.0978C66.7453 50.7864 65.2421 48.8056 63.1782 47.5696Z" fill="#4ECEC2"/>
<path opacity="0.5" d="M63.1782 47.5696C58.7604 44.9242 53.2708 47.2585 50.6082 51.6478L50.4432 51.9331L50.133 51.756C45.6626 49.199 39.7019 49.8062 37.1285 54.2477C35.8926 56.3805 35.56 58.9138 36.204 61.2902C36.848 63.6666 38.4158 65.6915 40.5625 66.9195L55.2664 75.142C55.7434 75.4088 56.3069 75.4785 56.8351 75.336C57.3634 75.1935 57.8141 74.8504 58.0898 74.3806L66.5491 59.9727C67.7063 57.8726 68.0017 55.4093 67.3735 53.0978C66.7453 50.7864 65.2421 48.8056 63.1782 47.5696Z" fill="white"/>
<path d="M59.3269 53.794C59.3285 53.7683 59.3403 53.7444 59.3597 53.7274C59.3791 53.7103 59.4046 53.7017 59.4304 53.7033C59.4562 53.7049 59.4804 53.7167 59.4975 53.736C59.5146 53.7553 59.5233 53.7805 59.5217 53.8062L58.7063 66.7408C58.7049 66.7641 58.6951 66.7861 58.6787 66.8027C58.6622 66.8194 58.6403 66.8296 58.6169 66.8314C58.6124 66.8314 58.6078 66.8314 58.6031 66.8314C58.5773 66.8298 58.5532 66.8181 58.5361 66.7989C58.519 66.7797 58.5103 66.7545 58.5119 66.7288" fill="#0C0C0C"/>
<path d="M89.7141 52.6332C89.7243 52.4911 89.7636 52.3525 89.8295 52.226C89.8954 52.0994 89.9866 51.9875 90.0975 51.8972C90.2083 51.8068 90.3366 51.7398 90.4744 51.7003C90.6122 51.6608 90.7567 51.6496 90.899 51.6674C91.1732 51.7113 91.4204 51.857 91.5906 52.0751C91.7609 52.2931 91.8414 52.5673 91.816 52.8421L91.7143 54.2551L93.802 50.4489C94.0584 49.965 94.6846 49.5337 95.212 49.8552C95.6558 50.0875 96.4922 49.9611 96.8004 50.5433C96.8056 50.5453 98.4174 56.2147 98.1797 56.6646C97.1711 58.5696 93.7794 59.839 91.6235 59.6261L88.2305 59.2883L89.7141 52.6332Z" fill="#FAA896"/>
<g opacity="0.1">
<path d="M89.7141 52.6332C89.7243 52.4911 89.7636 52.3525 89.8295 52.226C89.8954 52.0994 89.9866 51.9875 90.0975 51.8972C90.2083 51.8068 90.3366 51.7398 90.4744 51.7003C90.6122 51.6608 90.7567 51.6496 90.899 51.6674C91.1732 51.7113 91.4204 51.857 91.5906 52.0751C91.7609 52.2931 91.8414 52.5673 91.816 52.8421L91.7143 54.2551L93.802 50.4489C94.0584 49.965 94.6846 49.5337 95.212 49.8552C95.6558 50.0875 96.4922 49.9611 96.8004 50.5433C96.8056 50.5453 98.4174 56.2147 98.1797 56.6646C97.1711 58.5696 93.7794 59.839 91.6235 59.6261L88.2305 59.2883L89.7141 52.6332Z" fill="#0C0C0C"/>
</g>
<path d="M93.4295 48.3241C89.533 43.4269 82.2661 43.7508 77.337 47.6222L77.0253 47.8773L76.7481 47.5432C72.7542 42.7235 65.6944 40.8787 60.8438 44.8477C59.6904 45.7914 58.7355 46.9516 58.0334 48.2621C57.3313 49.5725 56.8959 51.0075 56.7521 52.4851C56.6082 53.9627 56.7587 55.454 57.195 56.8738C57.6312 58.2937 58.3447 59.6142 59.2946 60.7601L72.514 76.3971C72.9429 76.9043 73.5553 77.2235 74.2191 77.286C74.8829 77.3485 75.5448 77.1491 76.0619 76.731L91.9231 63.9032C94.1487 62.0011 95.5481 59.3179 95.8288 56.4145C96.1096 53.5112 95.2499 50.6124 93.4295 48.3241Z" fill="#2E636E"/>
<path d="M93.6044 55.3656C93.6041 55.1783 93.6654 54.9961 93.7789 54.8466C93.8925 54.6971 94.0521 54.5887 94.2335 54.5377C94.2271 54.5239 94.2017 54.4951 94.2263 54.4854L93.5154 54.3604C93.3053 54.3281 93.1141 54.2213 92.9771 54.0598C92.8401 53.8983 92.7666 53.693 92.7702 53.4818C92.7804 53.2734 92.8683 53.0762 93.0166 52.9285C93.1649 52.7807 93.3631 52.693 93.5728 52.6822C93.568 52.6754 93.5695 52.6659 93.567 52.6578L93.2748 52.6063C93.0769 52.575 92.8961 52.4768 92.7628 52.3283C92.6294 52.1798 92.5519 51.99 92.5432 51.7912C92.5403 51.6664 92.5654 51.5426 92.6165 51.4285C92.6677 51.3145 92.7436 51.2132 92.839 51.1319C92.9343 51.0506 93.0466 50.9913 93.1678 50.9584C93.289 50.9254 93.416 50.9196 93.5397 50.9413L94.2134 51.0599C94.2134 51.0563 94.2103 51.0535 94.2109 51.0499C94.2115 51.0462 94.2165 51.0425 94.2179 51.0383C94.0407 50.9643 93.894 50.8328 93.802 50.6651C93.7099 50.4975 93.678 50.3038 93.7114 50.1157C93.7657 49.6249 94.3494 49.4421 94.785 49.5188L96.1381 49.8672C96.3468 49.9209 96.539 50.0249 96.6975 50.1701C96.856 50.3153 96.976 50.4972 97.0467 50.6995C97.6591 52.4511 99.1487 57.0641 97.7584 56.8194L94.3363 56.217C94.1365 56.176 93.9561 56.0701 93.8235 55.9159C93.691 55.7617 93.6139 55.5681 93.6044 55.3656Z" fill="#FAA896"/>
<path d="M52.2773 61.8992L57.5924 57.8911C57.7093 57.803 57.8432 57.7401 57.9859 57.7063C58.1285 57.6726 58.2766 57.6686 58.4209 57.6949C58.5651 57.7211 58.7023 57.7769 58.8236 57.8586C58.945 57.9404 59.0478 58.0464 59.1257 58.1698C59.2623 58.4021 59.3073 58.6765 59.2518 58.9398C59.1963 59.2032 59.0444 59.4367 58.8255 59.595L57.6858 60.4544L62.5186 59.3864C63.0537 59.2584 63.7931 59.4413 63.8981 60.0472C63.9538 60.2778 63.9293 60.5203 63.8284 60.7352C63.7276 60.9501 63.5564 61.1248 63.3429 61.2306C63.3454 61.2353 63.3473 61.2402 63.3487 61.2453C63.349 61.2494 63.349 61.2535 63.3487 61.2575L64.174 61.0601C64.3269 61.0236 64.486 61.0214 64.6399 61.0538C64.7937 61.0861 64.9384 61.1522 65.0633 61.2471C65.1882 61.342 65.2902 61.4634 65.3618 61.6025C65.4335 61.7416 65.473 61.8948 65.4775 62.051C65.4797 62.297 65.3966 62.5364 65.2424 62.7289C65.0882 62.9215 64.8721 63.0556 64.6303 63.1088L64.2796 63.193C64.2774 63.2042 64.2732 63.2149 64.2671 63.2245C64.5176 63.2224 64.7606 63.3089 64.9528 63.4685C65.145 63.628 65.2738 63.8503 65.3162 64.0956C65.3546 64.3654 65.2892 64.6396 65.133 64.8636C64.9768 65.0876 64.7414 65.2449 64.4736 65.304L63.6014 65.5126C63.6158 65.5183 63.6286 65.5274 63.6387 65.539C63.6489 65.5506 63.6561 65.5645 63.6598 65.5794C63.6635 65.5974 63.6617 65.616 63.6548 65.633C63.8784 65.6927 64.0761 65.8238 64.2175 66.006C64.3588 66.1883 64.436 66.4116 64.4372 66.6417C64.4334 66.8834 64.3476 67.1167 64.1938 67.304C64.0399 67.4912 63.8269 67.6214 63.5893 67.6734L56.2287 69.4348C55.199 69.6812 54.1186 69.6164 53.1262 69.2488C52.1338 68.8812 51.2745 68.2274 50.6585 67.3714C50.1273 66.6333 49.9067 65.7185 50.0435 64.8214C50.1804 63.9243 50.6639 63.1156 51.3914 62.567L52.2773 61.8992Z" fill="#FAA896"/>
<g opacity="0.2">
<path d="M58.5636 62.3118C58.5697 62.3363 58.5852 62.3575 58.6069 62.3708C58.6285 62.3841 58.6545 62.3885 58.6793 62.383L63.2741 61.3614C63.2993 61.3558 63.3213 61.3404 63.3351 61.3187C63.349 61.297 63.3536 61.2707 63.3479 61.2456C63.3422 61.2205 63.3268 61.1987 63.3049 61.185C63.2831 61.1712 63.2566 61.1666 63.2314 61.1723L58.6367 62.1939C58.6241 62.1967 58.6123 62.2019 58.6018 62.2093C58.5913 62.2166 58.5824 62.226 58.5755 62.2368C58.5687 62.2475 58.5641 62.2596 58.5619 62.2722C58.5598 62.2847 58.5601 62.2976 58.563 62.31L58.5636 62.3118Z" fill="#0C0C0C"/>
</g>
<g opacity="0.2">
<path d="M58.9624 64.3364C58.9686 64.3609 58.9842 64.3821 59.0058 64.3954C59.0275 64.4087 59.0535 64.413 59.0784 64.4074L64.2059 63.2673C64.2185 63.2646 64.2303 63.2594 64.2409 63.252C64.2514 63.2447 64.2603 63.2353 64.2672 63.2245C64.274 63.2138 64.2787 63.2017 64.2809 63.1891C64.283 63.1765 64.2826 63.1637 64.2798 63.1512C64.2733 63.1265 64.2577 63.1052 64.2359 63.0916C64.2142 63.078 64.1881 63.0731 64.1629 63.078L59.0351 64.2181C59.0226 64.2209 59.0107 64.2261 59.0002 64.2335C58.9897 64.2408 58.9808 64.2502 58.974 64.261C58.9671 64.2718 58.9625 64.2838 58.9604 64.2964C58.9582 64.309 58.9586 64.3218 58.9615 64.3343L58.9624 64.3364Z" fill="#0C0C0C"/>
</g>
<g opacity="0.2">
<path d="M59.3798 66.5339C59.386 66.5584 59.4015 66.5796 59.4232 66.5929C59.4449 66.6061 59.4709 66.6105 59.4957 66.6049L63.587 65.6952C63.6123 65.6895 63.6342 65.6742 63.648 65.6525C63.6619 65.6308 63.6664 65.6046 63.6608 65.5795C63.6551 65.5545 63.6397 65.5327 63.6179 65.5189C63.596 65.5052 63.5696 65.5006 63.5444 65.5063L59.4531 66.416C59.4405 66.4188 59.4287 66.424 59.4182 66.4314C59.4077 66.4387 59.3988 66.4481 59.3919 66.4589C59.3851 66.4696 59.3805 66.4817 59.3783 66.4943C59.3762 66.5068 59.3766 66.5197 59.3794 66.5321L59.3798 66.5339Z" fill="#0C0C0C"/>
</g>
<path d="M54.5599 71.4899L20.78 79.119C19.6578 79.2404 18.5226 79.1017 17.4634 78.7139C16.4042 78.3262 15.4499 77.6998 14.6752 76.884C13.9006 76.0683 13.3268 75.0853 12.9988 74.0121C12.6708 72.939 12.5976 71.805 12.7848 70.699L16.6505 39.8064C16.972 37.9079 18.0393 36.2141 19.6178 35.0976C21.1962 33.981 23.1565 33.5332 25.0673 33.8526C26.9781 34.172 28.6829 35.2324 29.8067 36.8007C30.9306 38.3689 31.3813 40.3164 31.0599 42.2149L29.1983 64.3265L52.6676 59.0498L54.5599 71.4899Z" fill="#4ECEC2"/>
<path d="M24.4485 65.1952C24.4227 65.1971 24.3972 65.1887 24.3776 65.1718C24.358 65.155 24.3459 65.1311 24.344 65.1055C24.3421 65.0798 24.3506 65.0544 24.3675 65.035C24.3844 65.0155 24.4085 65.0035 24.4343 65.0016L29.1414 64.0032C29.1541 64.0012 29.1671 64.0016 29.1795 64.0046C29.192 64.0076 29.2038 64.013 29.2141 64.0206C29.2244 64.0282 29.2331 64.0378 29.2396 64.0487C29.2462 64.0597 29.2504 64.0719 29.2521 64.0845C29.2559 64.1099 29.2494 64.1357 29.2341 64.1563C29.2187 64.1769 29.1958 64.1906 29.1703 64.1945L24.4631 65.1931C24.4583 65.1942 24.4535 65.1949 24.4485 65.1952Z" fill="#0C0C0C"/>
<path d="M21.7934 79.2585C21.7676 79.2602 21.7421 79.2516 21.7227 79.2346C21.7032 79.2176 21.6913 79.1937 21.6897 79.168C21.688 79.1423 21.6966 79.1171 21.7137 79.0977C21.7308 79.0784 21.7549 79.0666 21.7807 79.0649L54.3479 71.4442L52.5025 59.1916L29.1733 64.196C29.1582 64.198 29.1428 64.1965 29.1284 64.1915C29.114 64.1865 29.101 64.1782 29.0904 64.1673C29.0798 64.1564 29.0719 64.1432 29.0674 64.1287C29.0629 64.1142 29.0619 64.0989 29.0644 64.0839L30.3731 51.4501C30.375 51.4375 30.3794 51.4254 30.3862 51.4145C30.3929 51.4036 30.4018 51.3942 30.4122 51.3868C30.4227 51.3794 30.4346 51.3741 30.4471 51.3714C30.4597 51.3686 30.4726 51.3684 30.4853 51.3707C30.5107 51.375 30.5335 51.3891 30.5484 51.41C30.5634 51.431 30.5694 51.4569 30.5651 51.4822L29.2793 63.9864L52.5479 58.9789C52.5604 58.9755 52.5735 58.9746 52.5864 58.9762C52.5993 58.9779 52.6117 58.9821 52.6229 58.9886C52.6341 58.9952 52.6439 59.0038 52.6517 59.0142C52.6595 59.0245 52.6651 59.0363 52.6683 59.0488L54.5606 71.4897C54.5666 71.5141 54.5628 71.5399 54.5499 71.5616C54.5371 71.5833 54.5163 71.5991 54.4919 71.6058L21.8061 79.2577C21.8019 79.2583 21.7976 79.2585 21.7934 79.2585Z" fill="#0C0C0C"/>
<path d="M96.4866 22.9051C95.2007 20.7467 92.2895 20.4875 90.117 21.7654L89.9792 21.8504L89.8871 21.7025C88.5574 19.5702 85.8468 18.4582 83.7007 19.7791C82.6702 20.4135 81.9356 21.4285 81.6583 22.6009C81.381 23.7734 81.5839 25.0073 82.2221 26.0312L86.6392 32.9636C86.7825 33.1885 87.009 33.3484 87.2699 33.4087C87.5308 33.4691 87.8052 33.4251 88.0337 33.2863L95.0435 29.0267C96.0323 28.3883 96.7346 27.3949 97.0035 26.2541C97.2724 25.1133 97.0872 23.9134 96.4866 22.9051Z" fill="#2E636E"/>
<path opacity="0.2" d="M96.4866 22.9051C95.2007 20.7467 92.2895 20.4875 90.117 21.7654L89.9792 21.8504L89.8871 21.7025C88.5574 19.5702 85.8468 18.4582 83.7007 19.7791C82.6702 20.4135 81.9356 21.4285 81.6583 22.6009C81.381 23.7734 81.5839 25.0073 82.2221 26.0312L86.6392 32.9636C86.7825 33.1885 87.009 33.3484 87.2699 33.4087C87.5308 33.4691 87.8052 33.4251 88.0337 33.2863L95.0435 29.0267C96.0323 28.3883 96.7346 27.3949 97.0035 26.2541C97.2724 25.1133 97.0872 23.9134 96.4866 22.9051Z" fill="white"/>
<path d="M77.2906 2.54716C76.1227 1.86795 74.6903 2.49877 74.0069 3.65918L73.9644 3.73448L73.8826 3.68918C72.701 3.03339 71.1395 3.21263 70.4794 4.38601C70.3224 4.66513 70.2222 4.97226 70.1847 5.28985C70.1472 5.60743 70.173 5.92926 70.2606 6.23693C70.3483 6.54461 70.4961 6.83211 70.6957 7.08301C70.8952 7.33392 71.1425 7.54331 71.4235 7.69922L75.3089 9.80693C75.435 9.87531 75.583 9.89169 75.7211 9.85254C75.8592 9.81339 75.9763 9.72186 76.0471 9.59769L78.2172 5.78953C78.5136 5.23471 78.5827 4.58752 78.41 3.98327C78.2374 3.37901 77.8363 2.86446 77.2906 2.54716Z" fill="#4ECEC2"/>
<path opacity="0.5" d="M77.2906 2.54716C76.1227 1.86795 74.6903 2.49877 74.0069 3.65918L73.9644 3.73448L73.8826 3.68918C72.701 3.03339 71.1395 3.21263 70.4794 4.38601C70.3224 4.66513 70.2222 4.97226 70.1847 5.28985C70.1472 5.60743 70.173 5.92926 70.2606 6.23693C70.3483 6.54461 70.4961 6.83211 70.6957 7.08301C70.8952 7.33392 71.1425 7.54331 71.4235 7.69922L75.3089 9.80693C75.435 9.87531 75.583 9.89169 75.7211 9.85254C75.8592 9.81339 75.9763 9.72186 76.0471 9.59769L78.2172 5.78953C78.5136 5.23471 78.5827 4.58752 78.41 3.98327C78.2374 3.37901 77.8363 2.86446 77.2906 2.54716Z" fill="white"/>
</g>
<defs>
<clipPath id="clip0_431_5423">
<rect width="102" height="79.6571" fill="white"/>
</clipPath>
</defs>
</svg>
