<svg width="96" height="82" viewBox="0 0 96 82" fill="none" xmlns="http://www.w3.org/2000/svg">
<path d="M88.9491 0H7.05561C3.16744 0 0 3.17818 0 7.07955V34.1084V38.3904V74.9204C0 78.8266 3.16744 82 7.05561 82H31.6128H36.0462H88.9444C92.8373 82 96 78.8218 96 74.9204V37.9146V34.1084V7.07955C96.0047 3.17818 92.8373 0 88.9491 0ZM91.2631 34.1084V38.3904V74.9204C91.2631 76.2003 90.2246 77.2422 88.9491 77.2422H40.7832H36.7385H7.05561C5.7801 77.2422 4.74168 76.2003 4.74168 74.9204V38.8661V34.1084V7.07955C4.74168 5.79971 5.7801 4.75776 7.05561 4.75776H88.9491C90.2246 4.75776 91.2631 5.79971 91.2631 7.07955V34.1084Z" fill="url(#paint0_linear_1391_18681)"/>
<path d="M88.9491 0H7.05561C3.16744 0 0 3.17818 0 7.07955V34.1084V38.3904V74.9204C0 78.8266 3.16744 82 7.05561 82H31.6128H36.0462H88.9444C92.8373 82 96 78.8218 96 74.9204V37.9146V34.1084V7.07955C96.0047 3.17818 92.8373 0 88.9491 0ZM91.2631 34.1084V38.3904V74.9204C91.2631 76.2003 90.2246 77.2422 88.9491 77.2422H40.7832H36.7385H7.05561C5.7801 77.2422 4.74168 76.2003 4.74168 74.9204V38.8661V34.1084V7.07955C4.74168 5.79971 5.7801 4.75776 7.05561 4.75776H88.9491C90.2246 4.75776 91.2631 5.79971 91.2631 7.07955V34.1084Z" fill="url(#paint1_linear_1391_18681)"/>
<path d="M49.3424 11.8224C51.5942 11.8913 53.1645 13.588 53.0739 15.8488C52.9876 18.002 51.2664 19.604 49.1051 19.5394C46.9741 19.4748 45.2917 17.7221 45.3348 15.612C45.3822 13.4114 47.1337 11.7535 49.3424 11.8224Z" fill="url(#paint2_linear_1391_18681)"/>
<path d="M60.4892 61.6729L60.3641 61.0484C60.3641 61.0398 60.3598 61.0355 60.3598 61.0269L59.2813 55.6009C59.0182 54.2788 57.8793 52.6209 56.7361 51.9017L51.0073 48.2973C49.8642 47.5781 47.9229 47.4016 46.6676 47.9054L40.1407 50.5194C40.1407 50.5194 38.7559 51.0749 38.2642 51.2687C37.3755 51.6261 36.2668 52.9353 35.788 54.1927L35.5551 54.8085C35.5551 54.8128 35.5507 54.8171 35.5507 54.8214L35.1625 55.8377L34.5154 57.543C34.1574 58.4775 34.097 58.7316 34.3083 58.2924C34.1315 59.2268 34.1746 60.3508 34.4248 61.2724C34.455 61.4532 34.5456 61.7073 34.7009 62.0303L35.3264 63.3351C35.9088 64.5538 37.4359 65.8328 38.7387 66.1945L47.3621 68.5932C48.6649 68.9549 50.714 68.7913 51.9434 68.2271L58.7594 65.0964C58.9147 65.0275 59.0613 64.9414 59.1994 64.8423C60.1484 64.1447 60.7178 62.8313 60.4892 61.6729Z" fill="url(#paint3_linear_1391_18681)"/>
<path d="M73.6595 48.0303L21.8283 46.2216C20.9095 46.1915 20.1934 45.4206 20.2236 44.5034L20.2279 44.3871C20.2581 43.4698 21.0303 42.755 21.9491 42.7851L73.7803 44.5938C74.6991 44.6239 75.4152 45.3948 75.385 46.312L75.3807 46.4283C75.3505 47.3455 74.5783 48.0604 73.6595 48.0303Z" fill="url(#paint4_linear_1391_18681)"/>
<path d="M49.3463 19.5353C49.1479 19.5266 48.9494 19.518 48.751 19.5093C48.8675 19.5223 48.9839 19.5353 49.1047 19.5397C49.1867 19.544 49.2686 19.5353 49.3463 19.5353Z" fill="url(#paint5_linear_1391_18681)"/>
<path d="M68.1808 24.7979C67.9435 23.8462 67.1886 23.5533 66.2913 23.7428C65.5407 23.9021 64.8202 24.1864 64.0826 24.406C62.7323 24.8151 61.2311 25.7754 60.062 25.4697C58.8326 25.1467 57.8059 23.7084 56.887 22.5973C55.5239 20.9437 53.8242 20.0781 51.8528 19.7508C51.0978 20.2374 50.1962 20.513 49.2256 20.513C49.1738 20.513 49.1264 20.513 49.0746 20.5087C48.0393 20.4786 47.0859 20.1212 46.3094 19.5398C44.3811 19.6776 42.5779 20.1599 41.1457 21.7447C40.2571 22.7308 39.1743 23.5533 38.1045 24.3543C37.7723 24.6041 37.1338 24.7203 36.7499 24.5825C35.0718 23.9969 33.4369 23.2691 31.7717 22.6404C30.5681 22.1839 29.6881 22.5112 29.3344 23.4672C29.0151 24.3328 29.4767 25.1424 30.5897 25.5945C32.6172 26.4171 34.6663 27.1793 36.6766 28.0449C37.7119 28.4927 38.5013 28.342 39.3253 27.5927C40.723 26.3223 42.1897 25.1338 43.8592 23.717C43.7427 27.0501 43.6003 30.043 43.5572 33.0402C43.5443 33.8628 43.2164 34.2546 42.5262 34.5949C40.0543 35.8092 37.6127 37.0839 35.1538 38.3285C34.3428 38.7419 33.7863 39.4352 34.0624 40.2706C34.2867 40.9467 34.2694 41.5281 34.8259 42.0449C35.0459 42.2516 36.1762 42.2128 36.5385 42.23C39.9853 42.3592 43.4321 42.4841 46.8789 42.5918C48.0522 42.6305 48.6432 41.9802 48.6778 40.684C48.7123 39.362 48.1903 38.7031 47.0126 38.6471C45.4725 38.5739 43.9282 38.5825 42.3924 38.4533C42.0042 38.4232 41.5728 38.3672 41.5642 37.7127C41.5987 37.3165 41.8748 36.9935 42.4313 37.0495C43.9282 37.0107 45.4294 37.1055 46.9306 37.17C48.8589 37.2519 50.097 38.4878 50.1013 40.417C50.1013 41.1577 49.9029 41.8941 49.7864 42.6908C53.2548 42.8114 56.6972 42.9578 60.1397 43.0353C61.1923 43.0568 62.0421 42.5788 62.3268 41.4721C62.6159 40.3568 62.1025 39.6591 61.1405 39.0993C58.8283 37.76 56.5678 36.326 54.2556 34.9867C53.5222 34.5647 53.2763 34.0695 53.3324 33.234C53.4618 31.2143 53.492 29.1861 53.5654 27.1621C53.5999 26.219 53.6301 25.2759 53.6775 24.0012C55.3211 25.6161 56.6541 27.0286 58.1079 28.3075C58.5867 28.7296 59.4538 29.1172 60.0017 28.9751C62.426 28.342 64.8073 27.5281 67.1929 26.7443C68.1247 26.4429 68.3964 25.6721 68.1808 24.7979Z" fill="url(#paint6_linear_1391_18681)"/>
<defs>
<linearGradient id="paint0_linear_1391_18681" x1="76.7442" y1="92.0116" x2="-2.89839" y2="-94.4685" gradientUnits="userSpaceOnUse">
<stop stop-color="#F26903"/>
<stop offset="1" stop-color="#FFC89F"/>
</linearGradient>
<linearGradient id="paint1_linear_1391_18681" x1="76.7442" y1="92.0116" x2="-2.89839" y2="-94.4685" gradientUnits="userSpaceOnUse">
<stop stop-color="#F26903"/>
<stop offset="1" stop-color="#FFC89F"/>
</linearGradient>
<linearGradient id="paint2_linear_1391_18681" x1="51.5244" y1="20.4839" x2="43.2345" y2="3.85547" gradientUnits="userSpaceOnUse">
<stop stop-color="#F26903"/>
<stop offset="1" stop-color="#FFC89F"/>
</linearGradient>
<linearGradient id="paint3_linear_1391_18681" x1="55.2537" y1="71.3698" x2="35.5698" y2="22.3572" gradientUnits="userSpaceOnUse">
<stop stop-color="#F26903"/>
<stop offset="1" stop-color="#FFC89F"/>
</linearGradient>
<linearGradient id="paint4_linear_1391_18681" x1="64.3212" y1="48.6718" x2="63.6517" y2="34.5947" gradientUnits="userSpaceOnUse">
<stop stop-color="#F26903"/>
<stop offset="1" stop-color="#FFC89F"/>
</linearGradient>
<linearGradient id="paint5_linear_1391_18681" x1="49.2269" y1="19.5448" x2="49.2246" y2="19.4598" gradientUnits="userSpaceOnUse">
<stop stop-color="#F26903"/>
<stop offset="1" stop-color="#FFC89F"/>
</linearGradient>
<linearGradient id="paint6_linear_1391_18681" x1="60.4248" y1="45.9047" x2="42.9818" y2="-12.0231" gradientUnits="userSpaceOnUse">
<stop stop-color="#F26903"/>
<stop offset="1" stop-color="#FFC89F"/>
</linearGradient>
</defs>
</svg>
