<svg width="95" height="124" viewBox="0 0 95 124" fill="none" xmlns="http://www.w3.org/2000/svg">
<path d="M88.0159 21.885H71.3643V10.5894L77.49 16.5408L81.4113 12.9579L68.6854 0.503906L55.9595 13.2335L59.6565 17.036L65.7304 10.5894V21.885H39.0707L34.347 26.5703H65.834H68.0038H88.0116C89.2755 26.5703 90.3022 27.5952 90.3022 28.857V49.4888V95.6444C90.3022 96.9062 89.2755 97.9311 88.0116 97.9311H76.9767L81.64 102.616H88.0116C91.8638 102.616 94.9957 99.49 94.9957 95.6444V49.4845V28.8527C95 25.0114 91.8682 21.885 88.0159 21.885Z" fill="url(#paint0_linear_1391_19746)"/>
<path d="M40.6064 97.931H29.261H6.98415C5.72019 97.931 4.69349 96.9061 4.69349 95.6443V49.4844V28.8526C4.69349 27.5909 5.72019 26.5659 6.98415 26.5659H18.403L13.7397 21.8806H6.98415C3.13187 21.8849 0 25.0113 0 28.8569V49.4887V95.6443C0 99.4899 3.13187 102.616 6.98415 102.616H23.6357V113.912L17.51 107.961L13.5887 111.543L26.3146 123.997L39.0405 111.268L35.3435 107.465L29.2696 113.912V102.616H40.6064H55.6489L60.3726 97.931H40.6064Z" fill="url(#paint1_linear_1391_19746)"/>
<path d="M49.3421 32.8224C51.594 32.8913 53.1642 34.588 53.0736 36.8488C52.9874 39.002 51.2661 40.604 49.1049 40.5394C46.9738 40.4748 45.2914 38.7221 45.3346 36.612C45.382 34.4114 47.1334 32.7535 49.3421 32.8224Z" fill="url(#paint2_linear_1391_19746)"/>
<path d="M60.4892 82.6729L60.3641 82.0484C60.3641 82.0398 60.3598 82.0355 60.3598 82.0269L59.2813 76.6009C59.0182 75.2788 57.8793 73.6209 56.7361 72.9017L51.0073 69.2973C49.8642 68.5781 47.9229 68.4016 46.6676 68.9054L40.1407 71.5194C40.1407 71.5194 38.7559 72.0749 38.2642 72.2687C37.3755 72.6261 36.2668 73.9353 35.788 75.1927L35.5551 75.8085C35.5551 75.8128 35.5507 75.8171 35.5507 75.8214L35.1625 76.8377L34.5154 78.543C34.1574 79.4775 34.097 79.7316 34.3083 79.2924C34.1315 80.2268 34.1746 81.3508 34.4248 82.2724C34.455 82.4532 34.5456 82.7073 34.7009 83.0303L35.3264 84.3351C35.9088 85.5538 37.4359 86.8328 38.7387 87.1945L47.3621 89.5932C48.6649 89.9549 50.714 89.7913 51.9434 89.2271L58.7594 86.0964C58.9147 86.0275 59.0613 85.9414 59.1994 85.8423C60.1484 85.1447 60.7178 83.8313 60.4892 82.6729Z" fill="url(#paint3_linear_1391_19746)"/>
<path d="M73.6595 69.0303L21.8283 67.2216C20.9095 67.1915 20.1934 66.4206 20.2236 65.5034L20.2279 65.3871C20.2581 64.4698 21.0303 63.755 21.9491 63.7851L73.7803 65.5938C74.6991 65.6239 75.4152 66.3948 75.385 67.312L75.3807 67.4283C75.3505 68.3455 74.5783 69.0604 73.6595 69.0303Z" fill="url(#paint4_linear_1391_19746)"/>
<path d="M49.3465 40.5353C49.1481 40.5266 48.9497 40.518 48.7512 40.5093C48.8677 40.5223 48.9842 40.5353 49.105 40.5397C49.1869 40.544 49.2689 40.5353 49.3465 40.5353Z" fill="url(#paint5_linear_1391_19746)"/>
<path d="M68.1809 45.7979C67.9436 44.8462 67.1887 44.5533 66.2914 44.7428C65.5408 44.9021 64.8204 45.1864 64.0827 45.406C62.7325 45.8151 61.2312 46.7754 60.0622 46.4697C58.8327 46.1467 57.806 44.7084 56.8872 43.5973C55.524 41.9437 53.8243 41.0781 51.8529 40.7508C51.098 41.2374 50.1964 41.513 49.2257 41.513C49.174 41.513 49.1265 41.513 49.0748 41.5087C48.0394 41.4786 47.0861 41.1212 46.3096 40.5398C44.3813 40.6776 42.5781 41.1599 41.1459 42.7447C40.2572 43.7308 39.1744 44.5533 38.1046 45.3543C37.7724 45.6041 37.134 45.7203 36.75 45.5825C35.0719 44.9969 33.437 44.2691 31.7718 43.6404C30.5683 43.1839 29.6882 43.5112 29.3345 44.4672C29.0153 45.3328 29.4769 46.1424 30.5898 46.5945C32.6173 47.4171 34.6664 48.1793 36.6767 49.0449C37.712 49.4927 38.5015 49.342 39.3254 48.5927C40.7231 47.3223 42.1898 46.1338 43.8593 44.717C43.7428 48.0501 43.6005 51.043 43.5573 54.0402C43.5444 54.8628 43.2165 55.2546 42.5263 55.5949C40.0545 56.8092 37.6128 58.0839 35.1539 59.3285C34.3429 59.7419 33.7864 60.4352 34.0625 61.2706C34.2868 61.9467 34.2696 62.5281 34.826 63.0449C35.0461 63.2516 36.1763 63.2128 36.5387 63.23C39.9854 63.3592 43.4322 63.4841 46.879 63.5918C48.0524 63.6305 48.6434 62.9802 48.6779 61.684C48.7124 60.362 48.1904 59.7031 47.0127 59.6471C45.4727 59.5739 43.9283 59.5825 42.3926 59.4533C42.0043 59.4232 41.5729 59.3672 41.5643 58.7127C41.5988 58.3165 41.8749 57.9935 42.4314 58.0495C43.9283 58.0107 45.4295 58.1055 46.9308 58.17C48.8591 58.2519 50.0971 59.4878 50.1014 61.417C50.1014 62.1577 49.903 62.8941 49.7865 63.6908C53.2549 63.8114 56.6974 63.9578 60.1398 64.0353C61.1924 64.0568 62.0422 63.5788 62.327 62.4721C62.616 61.3568 62.1026 60.6591 61.1406 60.0993C58.8284 58.76 56.5679 57.326 54.2557 55.9867C53.5223 55.5647 53.2765 55.0695 53.3325 54.234C53.462 52.2143 53.4921 50.1861 53.5655 48.1621C53.6 47.219 53.6302 46.2759 53.6776 45.0012C55.3212 46.6161 56.6542 48.0286 58.108 49.3075C58.5868 49.7296 59.4539 50.1172 60.0018 49.9751C62.4262 49.342 64.8074 48.5281 67.193 47.7443C68.1248 47.4429 68.3966 46.6721 68.1809 45.7979Z" fill="url(#paint6_linear_1391_19746)"/>
<defs>
<linearGradient id="paint0_linear_1391_19746" x1="87.062" y1="115.38" x2="2.32137" y2="26.4285" gradientUnits="userSpaceOnUse">
<stop stop-color="#4ECEC2"/>
<stop offset="1" stop-color="#9CE0C2"/>
</linearGradient>
<linearGradient id="paint1_linear_1391_19746" x1="52.475" y1="136.762" x2="-32.2872" y2="48.1961" gradientUnits="userSpaceOnUse">
<stop stop-color="#4ECEC2"/>
<stop offset="1" stop-color="#9CE0C2"/>
</linearGradient>
<linearGradient id="paint2_linear_1391_19746" x1="52.0644" y1="41.5064" x2="46.5738" y2="31.7741" gradientUnits="userSpaceOnUse">
<stop stop-color="#4ECEC2"/>
<stop offset="1" stop-color="#9CE0C2"/>
</linearGradient>
<linearGradient id="paint3_linear_1391_19746" x1="57.0923" y1="92.4313" x2="43.8433" y2="63.279" gradientUnits="userSpaceOnUse">
<stop stop-color="#4ECEC2"/>
<stop offset="1" stop-color="#9CE0C2"/>
</linearGradient>
<linearGradient id="paint4_linear_1391_19746" x1="68.1698" y1="69.6871" x2="67.7019" y2="60.9933" gradientUnits="userSpaceOnUse">
<stop stop-color="#4ECEC2"/>
<stop offset="1" stop-color="#9CE0C2"/>
</linearGradient>
<linearGradient id="paint5_linear_1391_19746" x1="49.2687" y1="40.5449" x2="49.2671" y2="40.4924" gradientUnits="userSpaceOnUse">
<stop stop-color="#4ECEC2"/>
<stop offset="1" stop-color="#9CE0C2"/>
</linearGradient>
<linearGradient id="paint6_linear_1391_19746" x1="63.1469" y1="66.973" x2="51.2267" y2="31.9912" gradientUnits="userSpaceOnUse">
<stop stop-color="#4ECEC2"/>
<stop offset="1" stop-color="#9CE0C2"/>
</linearGradient>
</defs>
</svg>
