<svg width="96" height="103" viewBox="0 0 96 103" fill="none" xmlns="http://www.w3.org/2000/svg">
<g opacity="0.4">
<path d="M88.0158 22.2678H84.4612H71.3643V10.9722L77.49 16.9236L81.4113 13.3407L68.6854 0.886719L55.9595 13.6163L59.6565 17.4189L65.7304 10.9722V22.2678H39.0707L34.347 26.9531H65.8339H66.0194H68.9442H84.4569H88.0115C89.2755 26.9531 90.3022 27.9781 90.3022 29.2398V96.0272C90.3022 97.289 89.2755 98.3139 88.0115 98.3139H6.98415C5.72019 98.3139 4.69349 97.289 4.69349 96.0272V29.2398C4.69349 27.9781 5.72019 26.9531 6.98415 26.9531H18.403L13.7397 22.2678H6.98415C3.13187 22.2678 0 25.3942 0 29.2398V96.0272C0 99.8728 3.13187 102.999 6.98415 102.999H88.0202C91.8724 102.999 95.0043 99.8728 95.0043 96.0272V29.2398C95 25.3942 91.8681 22.2678 88.0158 22.2678Z" fill="url(#paint0_linear_1391_18609)"/>
<path d="M60.6764 49.1401C60.6721 51.0564 59.1363 52.5766 57.2037 52.5723C55.3358 52.568 53.7828 51.0048 53.7871 49.1272C53.7914 47.2324 55.3531 45.6821 57.2512 45.6907C59.1493 45.6993 60.6807 47.241 60.6764 49.1401Z" fill="url(#paint1_linear_1391_18609)"/>
<path d="M19.0431 99.7658C19.0129 99.7658 19.0043 99.7615 19 99.7615C19 99.9983 19 100.231 19 100.468C19.0129 100.468 19.0302 100.468 19.0431 100.468C19.0431 100.231 19.0431 99.9983 19.0431 99.7658Z" fill="white"/>
<path d="M63.4716 51.3881C63.01 51.233 62.488 51.3149 62.0825 51.6421C61.4484 52.1632 61.3535 53.0675 61.8755 53.7178C62.4061 54.381 62.941 55.0399 63.4716 55.6987V51.3881Z" fill="url(#paint2_linear_1391_18609)"/>
<path d="M31.7345 54.9926C32.8173 55.0184 33.4988 56.0864 33.0502 57.0768C32.2996 58.7391 31.5403 60.4013 30.7811 62.0636C30.7207 62.1928 30.7121 62.3004 30.7682 62.4426C31.5619 64.3847 32.347 66.3269 33.1322 68.2691C33.4385 69.027 33.0977 69.8926 32.3643 70.1983C31.5921 70.517 30.7466 70.1897 30.4274 69.4146C29.5819 67.3475 28.7406 65.2805 27.9167 63.2091C27.6406 62.5158 27.6751 61.8095 27.9857 61.1291C28.7752 59.3764 29.5732 57.6324 30.367 55.884C30.6215 55.3112 31.1435 54.9796 31.7345 54.9926Z" fill="url(#paint3_linear_1391_18609)"/>
<path d="M19.0431 99.7658C19.0431 99.9983 19.0431 100.235 19.0431 100.468C19.0302 100.468 19.0129 100.468 19 100.468C19 100.231 19 99.9983 19 99.7615C19.0086 99.7615 19.0129 99.7615 19.0431 99.7658Z" fill="url(#paint4_linear_1391_18609)"/>
<path d="M39.9093 51.5603C39.905 53.4766 38.3692 54.9967 36.4366 54.9924C34.5687 54.9881 33.0157 53.4249 33.02 51.5473C33.0243 49.6525 34.586 48.1023 36.4841 48.1109C38.3822 48.1195 39.9093 49.6612 39.9093 51.5603Z" fill="url(#paint5_linear_1391_18609)"/>
<path d="M47.4411 60.2377C47.165 60.1085 46.8803 60.0655 46.5869 60.1344C45.2151 60.4703 43.8433 60.8148 42.4715 61.155C41.9841 61.2756 41.4966 61.3961 41.0005 61.5167C40.9746 61.4435 40.953 61.3875 40.9358 61.3316C40.7762 60.7803 40.6122 60.2248 40.4526 59.6736C40.1593 58.6573 39.8616 57.6367 39.5683 56.6204C39.564 56.6075 39.564 56.5989 39.5597 56.5859C39.4906 56.3448 39.4216 56.1036 39.3483 55.8668C39.2663 55.5955 38.9428 55.2983 38.5502 55.0529C37.9204 55.4232 37.2 55.6299 36.4407 55.6299C36.4364 55.6299 36.4321 55.6299 36.4321 55.6299C35.414 55.6256 34.4736 55.2208 33.7532 54.5706C33.49 54.5964 33.2312 54.6997 32.9508 54.7686C32.9896 54.8289 32.9983 54.8418 33.0069 54.8505C33.7144 55.4103 34.0207 56.4438 33.5116 57.5118C32.7826 59.0363 32.101 60.5865 31.4064 62.1239C31.3719 62.2057 31.3633 62.3263 31.3978 62.4081C31.7041 63.1919 32.0233 63.967 32.3426 64.7465C32.7955 65.8662 33.2614 66.9815 33.7014 68.1055C34.1414 69.2208 33.5289 70.4567 32.3814 70.8141C31.9716 70.939 31.5661 70.9218 31.1476 70.8098C31.139 70.8701 31.1304 70.9132 31.1304 70.9606C31.1045 71.585 31.0786 72.2094 31.0527 72.8381C31.0009 74.0095 30.9492 75.1765 30.8974 76.3478C30.8586 77.222 30.8241 78.0919 30.6213 78.9575C30.0907 81.2442 29.6033 83.5395 29.1028 85.8304C29.0209 86.2051 28.9217 86.5798 28.9993 86.9759C29.1848 87.8975 29.9225 88.5607 30.8198 88.5865C31.7774 88.6124 32.5712 88.0224 32.8041 87.0922C32.9034 86.696 32.9767 86.2998 33.0673 85.8994C33.5289 83.8065 33.9905 81.7136 34.4477 79.6207C34.5383 79.2116 34.6548 78.8025 34.6936 78.3847C34.754 77.7086 34.754 77.0282 34.7842 76.3478C34.8403 74.9956 34.8964 73.6434 34.9524 72.2869C34.9697 71.852 34.9956 71.4214 35.0172 70.9864C35.1509 70.9864 35.2674 70.9864 35.4054 70.9864C35.4054 71.0984 35.4054 71.1845 35.4054 71.2749C35.4054 73.2472 35.4054 75.2196 35.4054 77.1919C35.4054 77.5321 35.4011 77.8723 35.3881 78.2125C35.3407 79.457 35.2889 80.7016 35.2415 81.9461C35.1854 83.3414 35.1379 84.7323 35.0819 86.1276C35.0603 86.6616 35.0474 87.187 35.3709 87.6564C35.8325 88.3195 36.4623 88.6468 37.2647 88.5262C38.0412 88.41 38.589 87.9535 38.8004 87.187C38.8953 86.8381 38.8996 86.4635 38.9169 86.0974C38.9816 84.4524 39.042 82.8074 39.0938 81.1624C39.1455 79.5776 39.2189 77.9929 39.2361 76.4081C39.262 74.2033 39.2404 71.9984 39.2491 69.7935C39.2491 69.6471 39.3008 69.4878 39.3698 69.3543C39.5726 68.9581 39.7365 68.5447 39.7452 68.0968C39.7624 67.2399 39.7581 66.3829 39.7581 65.5259C39.7581 65.1901 39.7581 64.8585 39.7581 64.5226C40.1161 64.6431 40.4915 64.6733 40.8883 64.5742C42.6656 64.1307 44.4473 63.6914 46.2246 63.2522C46.6344 63.1488 47.0399 63.0412 47.4584 62.9292C46.7983 62.0851 46.7897 61.0688 47.4411 60.2377Z" fill="url(#paint6_linear_1391_18609)"/>
<path d="M63.4716 67.8384V56.6376C62.7814 55.7806 62.0912 54.9236 61.401 54.0624C61.0213 53.593 60.8617 53.0504 60.9825 52.4604C61.0515 52.1245 61.2111 51.8058 61.3406 51.4441C61.1076 51.4441 60.8401 51.4139 60.5856 51.4484C60.4433 51.6508 60.2837 51.8446 60.1068 52.0254C59.3389 52.7877 58.3079 53.2054 57.2079 53.2054C57.2036 53.2054 57.1992 53.2054 57.1992 53.2054C56.8153 53.2054 56.44 53.1451 56.082 53.0374C55.6117 53.4207 55.2278 53.8686 55.2192 54.2131C55.176 55.5136 55.1415 56.8141 55.1027 58.1146C55.0855 58.752 55.0596 59.385 55.038 60.0439C54.956 60.0439 54.9043 60.0482 54.8482 60.0482C53.0148 60.0611 51.1814 60.0611 49.348 60.087C48.5197 60.0956 47.8813 60.7674 47.8942 61.564C47.9072 62.3823 48.5629 63.0239 49.3998 63.0196C51.5826 63.011 53.7697 62.9981 55.9525 62.9808C56.4357 62.9765 56.8498 62.8 57.2079 62.4985C57.2855 62.7957 57.3632 63.0928 57.4365 63.3856C57.6393 64.1694 57.8204 64.9575 58.0232 65.7455C58.1656 66.3097 58.4416 66.8049 58.8471 67.2226C58.9248 67.3001 58.9852 67.4078 59.0111 67.5154C59.5417 69.5653 60.0593 71.6194 60.5943 73.6692C60.8358 74.6037 61.0947 75.5339 61.3664 76.4641C61.8367 78.0789 62.3198 79.6895 62.7986 81.3001C62.8806 81.58 62.9626 81.8599 63.0445 82.1442C63.1481 81.8083 63.2689 81.481 63.2861 81.1279C63.2947 80.9255 63.3638 80.7618 63.463 80.6369V69.4662C63.3422 68.9882 63.2214 68.5059 63.0963 68.0279C63.0747 67.9504 63.0575 67.8729 63.0359 67.7824C63.1696 67.748 63.2861 67.7178 63.4155 67.6877C63.4414 67.7307 63.4587 67.7867 63.4716 67.8384Z" fill="url(#paint7_linear_1391_18609)"/>
<path d="M62.3285 83.3842C62.0352 83.3842 61.7505 83.2894 61.5089 83.1L52.0011 75.7016C51.6733 75.4476 51.4878 75.0643 51.4878 74.6509V41.1732C51.4878 40.7727 51.6647 40.3937 51.9796 40.1397L61.4873 32.3925C61.8928 32.0652 62.4364 31.9963 62.9066 32.2203C63.3768 32.4442 63.6702 32.905 63.6702 33.426V82.0535C63.6702 82.566 63.3811 83.0267 62.9195 83.255C62.7254 83.3368 62.527 83.3842 62.3285 83.3842ZM62.0438 33.0729L52.5361 40.8201C52.4325 40.9062 52.3721 41.0311 52.3721 41.1689V74.6466C52.3721 74.7844 52.4368 74.9136 52.5447 74.9997L62.0525 82.398C62.1905 82.5057 62.3674 82.5229 62.527 82.4454C62.6866 82.3679 62.7815 82.2171 62.7815 82.0406V33.4174C62.7815 33.2409 62.6866 33.0859 62.5227 33.0126C62.3587 32.9351 62.1819 32.961 62.0438 33.0729Z" fill="url(#paint8_linear_1391_18609)"/>
<path d="M66.1247 83.3197C65.9134 83.3197 65.7451 83.1518 65.7451 82.9408V32.5262C65.7451 32.3152 65.9134 32.1472 66.1247 32.1472C66.3361 32.1472 66.5044 32.3152 66.5044 32.5262V82.9408C66.5044 83.1518 66.3361 83.3197 66.1247 83.3197Z" fill="url(#paint9_linear_1391_18609)"/>
<path d="M59.0974 38.383C59.0456 38.383 58.9895 38.3615 58.9507 38.3184C58.8817 38.2366 58.8903 38.1203 58.9723 38.0514L60.8962 36.415C60.9782 36.3461 61.0947 36.3547 61.1637 36.4365C61.2327 36.5183 61.2241 36.6346 61.1421 36.7035L59.2182 38.3399C59.1836 38.3701 59.1405 38.383 59.0974 38.383Z" fill="url(#paint10_linear_1391_18609)"/>
<path d="M58.2087 38.3139C58.1569 38.3139 58.1008 38.2924 58.062 38.2493C57.993 38.1675 58.0016 38.0512 58.0836 37.9823L60.0076 36.3459C60.0895 36.277 60.206 36.2856 60.275 36.3674C60.3441 36.4492 60.3354 36.5655 60.2535 36.6344L58.3295 38.2708C58.295 38.2967 58.2518 38.3139 58.2087 38.3139Z" fill="url(#paint11_linear_1391_18609)"/>
<path d="M59.9904 38.456C59.9387 38.456 59.8826 38.4344 59.8438 38.3914C59.7747 38.3096 59.7834 38.1933 59.8653 38.1244L61.7893 36.488C61.8713 36.4191 61.9878 36.4277 62.0568 36.5095C62.1258 36.5913 62.1172 36.7076 62.0352 36.7765L60.1112 38.4129C60.0767 38.4387 60.0336 38.456 59.9904 38.456Z" fill="url(#paint12_linear_1391_18609)"/>
<path d="M56.1464 75.495C56.1032 75.495 56.0601 75.4821 56.0213 75.4476L54.0973 73.8112C54.0153 73.7423 54.0067 73.6217 54.0757 73.5442C54.1447 73.4667 54.2655 73.4538 54.3432 73.5227L56.2671 75.1591C56.3491 75.228 56.3577 75.3486 56.2887 75.4261C56.2542 75.4735 56.2024 75.495 56.1464 75.495Z" fill="url(#paint13_linear_1391_18609)"/>
<path d="M56.2201 76.3821C56.1769 76.3821 56.1338 76.3692 56.095 76.3348L54.171 74.6984C54.089 74.6295 54.0804 74.5089 54.1494 74.4314C54.2184 74.3496 54.3392 74.3409 54.4169 74.4098L56.3409 76.0463C56.4228 76.1152 56.4315 76.2357 56.3624 76.3133C56.3279 76.3606 56.2719 76.3821 56.2201 76.3821Z" fill="url(#paint14_linear_1391_18609)"/>
<path d="M56.0775 74.6036C56.0344 74.6036 55.9912 74.5907 55.9524 74.5562L54.0284 72.9198C53.9465 72.8509 53.9378 72.7303 54.0068 72.6528C54.0759 72.571 54.1967 72.5624 54.2743 72.6313L56.1983 74.2677C56.2803 74.3366 56.2889 74.4572 56.2199 74.5347C56.1854 74.5821 56.1293 74.6036 56.0775 74.6036Z" fill="url(#paint15_linear_1391_18609)"/>
</g>
<defs>
<linearGradient id="paint0_linear_1391_18609" x1="82.5764" y1="115.763" x2="7.24562" y2="-8.10463" gradientUnits="userSpaceOnUse">
<stop stop-color="#4ECEC2"/>
<stop offset="1" stop-color="#9CE0C2"/>
</linearGradient>
<linearGradient id="paint1_linear_1391_18609" x1="59.7752" y1="53.4325" x2="54.8768" y2="44.7658" gradientUnits="userSpaceOnUse">
<stop stop-color="#4ECEC2"/>
<stop offset="1" stop-color="#9CE0C2"/>
</linearGradient>
<linearGradient id="paint2_linear_1391_18609" x1="63.2187" y1="56.247" x2="59.6849" y2="53.4941" gradientUnits="userSpaceOnUse">
<stop stop-color="#4ECEC2"/>
<stop offset="1" stop-color="#9CE0C2"/>
</linearGradient>
<linearGradient id="paint3_linear_1391_18609" x1="32.5231" y1="72.2353" x2="20.9904" y2="64.9013" gradientUnits="userSpaceOnUse">
<stop stop-color="#4ECEC2"/>
<stop offset="1" stop-color="#9CE0C2"/>
</linearGradient>
<linearGradient id="paint4_linear_1391_18609" x1="19.0375" y1="100.556" x2="18.9123" y2="100.542" gradientUnits="userSpaceOnUse">
<stop stop-color="#4ECEC2"/>
<stop offset="1" stop-color="#9CE0C2"/>
</linearGradient>
<linearGradient id="paint5_linear_1391_18609" x1="39.0081" y1="55.8526" x2="34.1097" y2="47.186" gradientUnits="userSpaceOnUse">
<stop stop-color="#4ECEC2"/>
<stop offset="1" stop-color="#9CE0C2"/>
</linearGradient>
<linearGradient id="paint6_linear_1391_18609" x1="45.04" y1="92.8394" x2="16.8" y2="65.7149" gradientUnits="userSpaceOnUse">
<stop stop-color="#4ECEC2"/>
<stop offset="1" stop-color="#9CE0C2"/>
</linearGradient>
<linearGradient id="paint7_linear_1391_18609" x1="61.4338" y1="85.9832" x2="36.0683" y2="63.2451" gradientUnits="userSpaceOnUse">
<stop stop-color="#4ECEC2"/>
<stop offset="1" stop-color="#9CE0C2"/>
</linearGradient>
<linearGradient id="paint8_linear_1391_18609" x1="62.0765" y1="89.796" x2="31.6585" y2="77.0282" gradientUnits="userSpaceOnUse">
<stop stop-color="#4ECEC2"/>
<stop offset="1" stop-color="#9CE0C2"/>
</linearGradient>
<linearGradient id="paint9_linear_1391_18609" x1="66.405" y1="89.7163" x2="64.1768" y2="89.6579" gradientUnits="userSpaceOnUse">
<stop stop-color="#4ECEC2"/>
<stop offset="1" stop-color="#9CE0C2"/>
</linearGradient>
<linearGradient id="paint10_linear_1391_18609" x1="60.9085" y1="38.6348" x2="59.5788" y2="35.9448" gradientUnits="userSpaceOnUse">
<stop stop-color="#4ECEC2"/>
<stop offset="1" stop-color="#9CE0C2"/>
</linearGradient>
<linearGradient id="paint11_linear_1391_18609" x1="60.0198" y1="38.5657" x2="58.6902" y2="35.8757" gradientUnits="userSpaceOnUse">
<stop stop-color="#4ECEC2"/>
<stop offset="1" stop-color="#9CE0C2"/>
</linearGradient>
<linearGradient id="paint12_linear_1391_18609" x1="61.8015" y1="38.7078" x2="60.4719" y2="36.0178" gradientUnits="userSpaceOnUse">
<stop stop-color="#4ECEC2"/>
<stop offset="1" stop-color="#9CE0C2"/>
</linearGradient>
<linearGradient id="paint13_linear_1391_18609" x1="56.0335" y1="75.7471" x2="54.7008" y2="73.0548" gradientUnits="userSpaceOnUse">
<stop stop-color="#4ECEC2"/>
<stop offset="1" stop-color="#9CE0C2"/>
</linearGradient>
<linearGradient id="paint14_linear_1391_18609" x1="56.1072" y1="76.6345" x2="54.773" y2="73.941" gradientUnits="userSpaceOnUse">
<stop stop-color="#4ECEC2"/>
<stop offset="1" stop-color="#9CE0C2"/>
</linearGradient>
<linearGradient id="paint15_linear_1391_18609" x1="55.9646" y1="74.8559" x2="54.6304" y2="72.1624" gradientUnits="userSpaceOnUse">
<stop stop-color="#4ECEC2"/>
<stop offset="1" stop-color="#9CE0C2"/>
</linearGradient>
</defs>
</svg>
