<svg width="95" height="124" viewBox="0 0 95 124" fill="none" xmlns="http://www.w3.org/2000/svg">
<path d="M88.0159 21.4514H71.3643V10.1558L77.49 16.1072L81.4113 12.5243L68.6854 0.0703125L55.9595 12.7999L59.6565 16.6024L65.7304 10.1558V21.4514H39.0707L34.347 26.1367H65.834H68.4697H88.0072C89.2712 26.1367 90.2979 27.1616 90.2979 28.4234V49.0552V95.2108C90.2979 96.4726 89.2712 97.4975 88.0072 97.4975H76.9724L81.6357 102.183H88.0072C91.8595 102.183 94.9914 99.0564 94.9914 95.2108V49.0509V28.4191C95 24.5778 91.8682 21.4514 88.0159 21.4514Z" fill="url(#paint0_linear_1391_19818)"/>
<path d="M40.6064 97.4975H29.261H6.98415C5.72019 97.4975 4.69349 96.4726 4.69349 95.2108V49.0509V28.4191C4.69349 27.1573 5.72019 26.1324 6.98415 26.1324H18.403L13.7397 21.4514H6.98415C3.13187 21.4514 0 24.5778 0 28.4234V49.0552V95.2108C0 99.0564 3.13187 102.183 6.98415 102.183H23.6357V113.478L17.51 107.527L13.5887 111.11L26.3146 123.564L39.0405 110.834L35.3435 107.032L29.2653 113.478V102.183H40.6021H55.6489L60.3726 97.4975H40.6064Z" fill="url(#paint1_linear_1391_19818)"/>
<path d="M47.879 43.5044C50.5191 43.513 52.4129 45.4466 52.3827 48.0993C52.3525 50.6271 50.3853 52.5564 47.8531 52.5521C45.3554 52.5478 43.3279 50.5496 43.3106 48.0735C43.289 45.494 45.2863 43.4958 47.879 43.5044Z" fill="url(#paint2_linear_1391_19818)"/>
<path d="M74.103 43.1557C73.4084 42.4969 72.5672 42.2729 71.6268 42.3978C70.9884 42.4796 70.4534 42.7638 70.0479 43.2548C69.815 43.539 69.6122 43.849 69.3922 44.1548C69.3405 44.0644 69.2758 43.961 69.2154 43.862C68.7063 43.0222 68.0247 42.4495 66.9937 42.3806C65.9066 42.3074 65.0223 42.682 64.3666 43.5476C63.8317 44.2495 63.7238 45.0505 63.8489 45.9032C63.9611 46.6439 64.2328 47.3243 64.5866 47.9788C65.0999 48.9176 65.7556 49.7574 66.4545 50.5627C67.3388 51.579 68.2922 52.5264 69.2456 53.4781C69.362 53.5944 69.4483 53.59 69.5648 53.4738C69.8538 53.1852 70.1428 52.8967 70.4276 52.6082C71.2817 51.7426 72.1272 50.8684 72.8908 49.9167C73.5077 49.1545 74.0685 48.3535 74.4783 47.4578C74.7802 46.7946 74.9787 46.1056 75.0003 45.3735C75.0261 44.495 74.7328 43.75 74.103 43.1557Z" fill="url(#paint3_linear_1391_19818)"/>
<path d="M30.6278 46.7902C30.3733 46.8075 30.1145 46.8032 29.8556 46.7859C29.7823 46.7816 29.6874 46.7084 29.6529 46.6395C29.5364 46.4027 29.4415 46.1572 29.3164 45.8644C29.5278 45.662 29.7694 45.438 30.0023 45.2055C30.287 44.9213 30.2827 44.7318 29.998 44.4476C29.696 44.1418 29.3897 43.8361 29.0835 43.5346C28.8419 43.2978 28.6305 43.2978 28.3932 43.5303C28.1517 43.7672 27.9144 44.0126 27.6771 44.2538C27.3967 44.1418 27.125 44.0471 26.8661 43.9265C26.8144 43.905 26.7755 43.8016 26.7712 43.7327C26.7583 43.47 26.754 43.203 26.7712 42.936C26.7885 42.6777 26.6979 42.4882 26.4736 42.3633C25.8912 42.3633 25.3131 42.3633 24.7308 42.3633C24.5064 42.4882 24.4159 42.6777 24.4288 42.936C24.4461 43.2504 24.4331 43.5648 24.4331 43.8705C24.1268 43.9954 23.8378 44.1117 23.5013 44.2538C23.2943 44.0342 23.0699 43.793 22.837 43.5562C22.5652 43.2849 22.3625 43.2848 22.0907 43.5518C21.7844 43.8533 21.4781 44.159 21.1761 44.4648C20.9173 44.7275 20.9173 44.9213 21.1805 45.1883C21.3703 45.3821 21.573 45.5715 21.7585 45.7739C21.8017 45.8213 21.8232 45.9247 21.8017 45.9806C21.6981 46.2476 21.573 46.5103 21.4436 46.7945C21.1632 46.7945 20.8655 46.8075 20.5679 46.7902C20.3091 46.7773 20.1192 46.8634 19.9941 47.0874C19.9941 47.6687 19.9941 48.2458 19.9941 48.8271C20.1192 49.0511 20.3091 49.1415 20.5679 49.1243C20.8397 49.1114 21.1718 49.0338 21.3746 49.1544C21.5558 49.2621 21.5773 49.6152 21.7067 49.8391C21.8146 50.0286 21.7844 50.1449 21.6291 50.2784C21.4565 50.4291 21.2926 50.6014 21.133 50.7693C20.9303 50.9846 20.9259 51.1913 21.133 51.4023C21.4609 51.7426 21.7973 52.0741 22.1381 52.4057C22.3538 52.6167 22.5695 52.6081 22.7938 52.3971C22.9793 52.2206 23.1519 52.0268 23.346 51.8588C23.4021 51.8115 23.5229 51.7942 23.5962 51.8158C23.8292 51.8976 24.0578 51.9923 24.2821 52.1043C24.3511 52.1387 24.4202 52.2335 24.4288 52.3067C24.4461 52.5306 24.4461 52.7545 24.4331 52.9785C24.4159 53.2369 24.5064 53.4263 24.7308 53.5512C25.3131 53.5512 25.8912 53.5512 26.4736 53.5512C26.6979 53.422 26.7885 53.2369 26.7712 52.9785C26.754 52.7072 26.7669 52.4316 26.7669 52.1646C27.0646 52.0311 27.345 51.8976 27.634 51.7856C27.6901 51.7641 27.7936 51.7985 27.8411 51.8416C28.0352 52.0182 28.2164 52.2162 28.4105 52.3971C28.6305 52.6081 28.8462 52.6124 29.0662 52.4014C29.407 52.0741 29.7392 51.7382 30.067 51.4023C30.2698 51.1913 30.2698 50.9803 30.0627 50.7693C29.8298 50.5325 29.5882 50.3128 29.3639 50.0975C29.5019 49.753 29.6227 49.4473 29.7564 49.12C30.0411 49.12 30.3388 49.1071 30.6321 49.1243C30.891 49.1372 31.0808 49.0468 31.2059 48.8271C31.2059 48.2458 31.2059 47.6687 31.2059 47.0874C31.0722 46.8677 30.8867 46.773 30.6278 46.7902ZM27.8152 47.9788C27.8109 49.2018 26.8101 50.175 25.5633 50.1707C24.3555 50.1664 23.3762 49.1673 23.3805 47.9357C23.3848 46.7127 24.3813 45.7395 25.6324 45.7438C26.8402 45.7524 27.8152 46.7515 27.8152 47.9788Z" fill="url(#paint4_linear_1391_19818)"/>
<path d="M70.3715 58.0944C70.0652 56.9833 69.1679 56.669 68.124 56.923C67.2526 57.1341 66.4157 57.4872 65.5572 57.7714C63.987 58.2925 62.2614 59.4681 60.881 59.1494C59.4272 58.8135 58.1805 57.1599 57.0675 55.8852C55.3937 53.9689 53.3447 53.0085 50.985 52.7028C50.1351 53.2583 49.1214 53.5942 48.0213 53.6287C47.961 53.6287 47.9049 53.633 47.8445 53.633C46.6668 53.633 45.5668 53.2669 44.6565 52.6511C42.3659 52.8664 40.2434 53.4823 38.5955 55.4115C37.5861 56.5958 36.3437 57.5948 35.1186 58.5681C34.7346 58.8695 33.997 59.0245 33.5354 58.8781C31.5467 58.2451 29.6141 57.4484 27.6426 56.7637C26.2147 56.2685 25.1967 56.6819 24.8171 57.8144C24.4719 58.8394 25.0371 59.7738 26.3571 60.2648C28.7599 61.1605 31.1886 61.9873 33.5656 62.939C34.7907 63.43 35.7139 63.2275 36.6543 62.3232C38.2504 60.7901 39.9328 59.3475 41.8353 57.6336C41.8051 61.5438 41.7404 65.0535 41.7835 68.5631C41.7964 69.5278 41.4254 69.9972 40.6231 70.4192C37.7673 71.9264 34.946 73.4982 32.1075 75.0356C31.1671 75.5438 30.5416 76.3792 30.891 77.3481C31.1757 78.1362 31.1757 78.8123 31.84 79.4023C32.1032 79.6348 33.4275 79.5573 33.8503 79.5616C37.8924 79.6003 41.9345 79.6348 45.9723 79.6477C47.3484 79.652 48.017 78.8769 48.017 77.3567C48.0127 75.8064 47.3829 75.0528 45.9981 75.027C44.1906 74.9925 42.3831 75.0485 40.5799 74.9495C40.1227 74.9236 39.6136 74.8763 39.5877 74.1054C39.6179 73.6403 39.9285 73.2528 40.5799 73.3001C42.3314 73.2054 44.0957 73.2657 45.8558 73.2958C48.1206 73.3303 49.6089 74.7342 49.6779 76.9993C49.7038 77.8649 49.4967 78.7391 49.3845 79.6736C53.4525 79.7037 57.4903 79.764 61.5281 79.7425C62.7618 79.7338 63.7411 79.1482 64.0431 77.839C64.345 76.5256 63.7238 75.7203 62.5763 75.1002C59.8241 73.6059 57.1322 71.9996 54.3757 70.5053C53.5 70.0316 53.198 69.4632 53.2368 68.4813C53.3231 66.1085 53.2929 63.7357 53.3102 61.3629C53.3188 60.2562 53.3274 59.1494 53.336 57.6551C55.3118 59.4939 56.9209 61.1045 58.6637 62.5558C59.2374 63.0338 60.2684 63.4601 60.9026 63.2792C63.7238 62.461 66.4847 61.4275 69.2542 60.4284C70.3586 60.0236 70.6519 59.1107 70.3715 58.0944Z" fill="url(#paint5_linear_1391_19818)"/>
<defs>
<linearGradient id="paint0_linear_1391_19818" x1="87.0583" y1="114.947" x2="2.31737" y2="26.0008" gradientUnits="userSpaceOnUse">
<stop stop-color="#4ECEC2"/>
<stop offset="1" stop-color="#9CE0C2"/>
</linearGradient>
<linearGradient id="paint1_linear_1391_19818" x1="52.475" y1="136.328" x2="-32.2835" y2="47.7622" gradientUnits="userSpaceOnUse">
<stop stop-color="#4ECEC2"/>
<stop offset="1" stop-color="#9CE0C2"/>
</linearGradient>
<linearGradient id="paint2_linear_1391_19818" x1="51.1962" y1="53.6831" x2="44.7615" y2="42.2794" gradientUnits="userSpaceOnUse">
<stop stop-color="#4ECEC2"/>
<stop offset="1" stop-color="#9CE0C2"/>
</linearGradient>
<linearGradient id="paint3_linear_1391_19818" x1="73.5367" y1="54.963" x2="65.5617" y2="40.8663" gradientUnits="userSpaceOnUse">
<stop stop-color="#4ECEC2"/>
<stop offset="1" stop-color="#9CE0C2"/>
</linearGradient>
<linearGradient id="paint4_linear_1391_19818" x1="29.7392" y1="54.9497" x2="21.7798" y2="40.8527" gradientUnits="userSpaceOnUse">
<stop stop-color="#4ECEC2"/>
<stop offset="1" stop-color="#9CE0C2"/>
</linearGradient>
<linearGradient id="paint5_linear_1391_19818" x1="64.4859" y1="83.134" x2="50.9215" y2="42.654" gradientUnits="userSpaceOnUse">
<stop stop-color="#4ECEC2"/>
<stop offset="1" stop-color="#9CE0C2"/>
</linearGradient>
</defs>
</svg>
