<svg width="96" height="103" viewBox="0 0 96 103" fill="none" xmlns="http://www.w3.org/2000/svg">
<path d="M88.0158 0H6.98415C3.13187 0 0 3.12642 0 6.972V73.7594C0 77.605 3.13187 80.7314 6.98415 80.7314H10.5388H23.6357V92.027L17.51 86.0756L13.5887 89.6585L26.3146 102.112L39.0405 89.3829L35.3435 85.5804L29.2653 92.027V80.7314H55.925L60.6487 76.0461H29.1617H28.9762H26.5217H10.5388H6.98415C5.72019 76.0461 4.69349 75.0212 4.69349 73.7594V6.972C4.69349 5.71024 5.72019 4.68532 6.98415 4.68532H88.0202C89.2841 4.68532 90.3108 5.71024 90.3108 6.972V73.7594C90.3108 75.0212 89.2841 76.0461 88.0202 76.0461H76.6014L81.2646 80.7314H88.0245C91.8768 80.7314 95.0086 77.605 95.0086 73.7594V6.972C95 3.12642 91.8681 0 88.0158 0Z" fill="url(#paint0_linear_1391_18654)"/>
<path d="M68.6861 61.4875L68.5697 60.8889C68.5697 60.8803 68.5654 60.8759 68.5654 60.8673L67.5343 55.6911C67.2841 54.4293 66.197 52.8532 65.1056 52.1642L59.64 48.7277C58.5486 48.043 56.6979 47.875 55.4986 48.353L49.2737 50.8421C49.2737 50.8421 47.9537 51.3718 47.4835 51.557C46.638 51.8972 45.5811 53.146 45.1195 54.3475L44.8952 54.9332C44.8952 54.9375 44.8908 54.9418 44.8908 54.9461L44.5199 55.915L43.903 57.5385C43.5622 58.4299 43.5018 58.6711 43.7088 58.2534C43.5406 59.1448 43.5837 60.2128 43.821 61.0913C43.8512 61.2635 43.9332 61.5047 44.0842 61.8147L44.6795 63.0593C45.236 64.222 46.6897 65.4407 47.9321 65.7852L56.1544 68.0719C57.3967 68.4164 59.3509 68.2614 60.52 67.7231L67.021 64.7388C67.1677 64.6699 67.3057 64.588 67.4394 64.4976C68.3626 63.8473 68.9062 62.5942 68.6861 61.4875Z" fill="url(#paint1_linear_1391_18654)"/>
<path d="M40.8015 18.945C42.9541 19.0139 44.451 20.6288 44.3647 22.7906C44.2827 24.8448 42.6392 26.3778 40.5771 26.3132C38.5453 26.2529 36.9362 24.5778 36.9794 22.5624C37.0182 20.4609 38.692 18.8761 40.8015 18.945Z" fill="url(#paint2_linear_1391_18654)"/>
<path d="M66.8656 16.5463C67.3402 16.0769 67.0727 15.2673 66.4084 15.1769L63.5871 14.7893C63.324 14.7548 63.0953 14.5912 62.9745 14.3544L61.6933 11.8136C61.3913 11.2193 60.5372 11.2236 60.2482 11.8265L59.0058 14.3845C58.8893 14.6213 58.665 14.7893 58.4018 14.8281L55.5849 15.2587C54.9249 15.3577 54.666 16.1716 55.1492 16.6367L55.5461 17.0157L56.3829 16.5334C56.9653 16.1975 57.6469 16.107 58.2983 16.2836C58.9497 16.4559 59.4932 16.8736 59.8297 17.4592L59.9074 17.597C60.2439 18.1784 60.3345 18.8588 60.1576 19.5091C59.985 20.1593 59.5666 20.7019 58.9799 21.0378L56.9696 22.1962C56.9222 22.8207 57.5865 23.2685 58.1516 22.9671L60.6623 21.6235C60.8953 21.4986 61.1757 21.4943 61.4129 21.6192L63.9452 22.924C64.5405 23.2298 65.2264 22.7216 65.1099 22.067L64.6095 19.2679C64.562 19.0052 64.6483 18.7382 64.8381 18.5531L66.8656 16.5463Z" fill="url(#paint3_linear_1391_18654)"/>
<path d="M43.5365 24.9998L41.3623 26.2529C42.2466 26.0979 43.0016 25.65 43.5365 24.9998Z" fill="url(#paint4_linear_1391_18654)"/>
<path d="M59.1138 18.0664L59.0491 17.9501C58.5961 17.1664 57.591 16.8994 56.8059 17.3516L45.0506 24.1255C44.438 25.9557 42.7297 27.2347 40.6936 27.2347C40.6461 27.2347 40.5987 27.2347 40.5512 27.2347C40.2967 27.2261 40.0508 27.1959 39.8093 27.1485L31.0219 32.2128C30.8364 32.3205 30.6768 32.4583 30.5517 32.6219C30.2195 32.9018 29.9909 33.3066 29.9434 33.7717L29.4862 38.6078C29.3956 39.5466 30.0901 40.382 31.0305 40.4681C31.971 40.5586 32.8078 39.8652 32.8941 38.9264L33.2781 34.8483L37.2943 32.5358C37.2986 35.0378 37.3072 38.9308 37.3245 39.9557C37.3245 40.0332 37.3245 43.896 37.3202 45.4678L27.0704 53.8265C26.3672 54.3992 26.2637 55.4327 26.8375 56.1347L26.9237 56.238C27.4975 56.94 28.5328 57.0433 29.236 56.4706L49.5413 39.9083L49.1013 44.5764C49.0107 45.5152 49.7053 46.3506 50.6457 46.4367C51.5861 46.5272 52.423 45.8339 52.5093 44.8951L53.3203 36.3383C53.3764 35.7268 53.1046 35.1627 52.6473 34.8139C52.0563 34.254 51.1288 34.2067 50.4818 34.7364L46.6812 37.8326C46.6899 36.4417 46.6726 35.0507 46.6726 33.6598C46.6726 32.7038 46.6726 31.752 46.6726 30.4601V27.127L58.5228 20.2971C59.2993 19.8536 59.5668 18.8502 59.1138 18.0664Z" fill="url(#paint5_linear_1391_18654)"/>
<defs>
<linearGradient id="paint0_linear_1391_18654" x1="82.5802" y1="114.877" x2="7.25096" y2="-8.99439" gradientUnits="userSpaceOnUse">
<stop stop-color="#4ECEC2"/>
<stop offset="1" stop-color="#9CE0C2"/>
</linearGradient>
<linearGradient id="paint1_linear_1391_18654" x1="65.4455" y1="70.777" x2="52.8274" y2="42.9813" gradientUnits="userSpaceOnUse">
<stop stop-color="#4ECEC2"/>
<stop offset="1" stop-color="#9CE0C2"/>
</linearGradient>
<linearGradient id="paint2_linear_1391_18654" x1="43.4016" y1="27.2367" x2="38.1573" y2="17.9464" gradientUnits="userSpaceOnUse">
<stop stop-color="#4ECEC2"/>
<stop offset="1" stop-color="#9CE0C2"/>
</linearGradient>
<linearGradient id="paint3_linear_1391_18654" x1="65.5093" y1="24.5249" x2="57.3699" y2="9.5074" gradientUnits="userSpaceOnUse">
<stop stop-color="#4ECEC2"/>
<stop offset="1" stop-color="#9CE0C2"/>
</linearGradient>
<linearGradient id="paint4_linear_1391_18654" x1="43.2521" y1="26.4096" x2="42.6383" y2="24.5274" gradientUnits="userSpaceOnUse">
<stop stop-color="#4ECEC2"/>
<stop offset="1" stop-color="#9CE0C2"/>
</linearGradient>
<linearGradient id="paint5_linear_1391_18654" x1="55.0349" y1="61.8042" x2="24.2937" y2="16.8342" gradientUnits="userSpaceOnUse">
<stop stop-color="#4ECEC2"/>
<stop offset="1" stop-color="#9CE0C2"/>
</linearGradient>
</defs>
</svg>
