<svg width="135" height="92" viewBox="0 0 135 92" fill="none" xmlns="http://www.w3.org/2000/svg">
<g clip-path="url(#clip0_431_5888)">
<path d="M62.0814 34.3427L63.3835 30.3175C63.4121 30.229 63.4594 30.1473 63.5225 30.0775C63.5855 30.0078 63.6629 29.9515 63.7497 29.9122C63.8365 29.873 63.9307 29.8516 64.0265 29.8495C64.1223 29.8475 64.2174 29.8647 64.3059 29.9002C64.4672 29.9705 64.5957 30.0964 64.6666 30.2532C64.7374 30.4101 64.7455 30.5868 64.6894 30.7491L64.4102 31.6124L66.5761 29.2882C66.8121 29.0258 67.2755 28.8498 67.5623 29.1255C67.6799 29.2246 67.7593 29.3593 67.7875 29.5077C67.8158 29.6561 67.7912 29.8093 67.7179 29.9424C67.721 29.944 67.7239 29.9458 67.7265 29.9479C67.7283 29.9499 67.7299 29.952 67.7313 29.9541L68.0955 29.5499C68.163 29.475 68.2469 29.4155 68.3411 29.3759C68.4354 29.3363 68.5375 29.3176 68.6402 29.321C68.7429 29.3245 68.8435 29.3501 68.9347 29.3959C69.0258 29.4418 69.1053 29.5067 69.1672 29.586C69.2621 29.7128 69.3091 29.8673 69.3004 30.0237C69.2918 30.18 69.2279 30.3287 69.1194 30.4449L68.9644 30.6172C68.9675 30.6238 68.9693 30.631 68.9698 30.6382C69.1024 30.5453 69.2648 30.5011 69.428 30.5135C69.5911 30.5258 69.7445 30.5939 69.8605 30.7057C69.9838 30.8314 70.0535 30.9976 70.0558 31.1709C70.058 31.3443 69.9926 31.5121 69.8726 31.6408L69.4876 32.0688C69.4975 32.0664 69.5078 32.0664 69.5176 32.0686C69.5275 32.0709 69.5366 32.0754 69.5443 32.0818C69.5531 32.0898 69.5593 32.1002 69.5621 32.1115C69.7038 32.0604 69.8589 32.0556 70.0036 32.098C70.1483 32.1404 70.2746 32.2277 70.3631 32.3463C70.4532 32.473 70.4965 32.6253 70.4859 32.7788C70.4753 32.9322 70.4116 33.0777 70.3049 33.1917L67.0576 36.8018C66.6032 37.3068 66.0034 37.6691 65.3349 37.8422C64.6664 38.0152 63.9597 37.9911 63.3054 37.773C62.7413 37.5849 62.2752 37.1915 62.0061 36.6762C61.7371 36.1609 61.6862 35.5645 61.8644 35.0135L62.0814 34.3427Z" fill="#FAA896"/>
<g opacity="0.2">
<path d="M65.5865 32.2529C65.5992 32.2633 65.6155 32.2686 65.6321 32.2675C65.6487 32.2665 65.6642 32.2592 65.6753 32.2472L67.7321 30.0341C67.7432 30.0219 67.7489 30.006 67.748 29.9898C67.747 29.9735 67.7395 29.9583 67.727 29.9474C67.7145 29.9366 67.6981 29.9309 67.6813 29.9317C67.6645 29.9325 67.6487 29.9397 67.6374 29.9517L65.5806 32.1654C65.5694 32.1775 65.5636 32.1934 65.5645 32.2097C65.5655 32.2259 65.573 32.2411 65.5855 32.252L65.5865 32.2529Z" fill="#0C0C0C"/>
</g>
<g opacity="0.2">
<path d="M66.5704 33.157C66.583 33.1675 66.5994 33.1728 66.6159 33.1717C66.6325 33.1707 66.648 33.1635 66.6592 33.1515L68.9545 30.6815C68.9657 30.6693 68.9715 30.6534 68.9706 30.6372C68.9697 30.621 68.9622 30.6058 68.9498 30.5948C68.937 30.5846 68.9207 30.5793 68.9041 30.5802C68.8875 30.581 68.8718 30.5879 68.8602 30.5995L66.5649 33.0694C66.5537 33.0815 66.548 33.0975 66.5489 33.1137C66.5498 33.1299 66.5574 33.1451 66.5698 33.156L66.5704 33.157Z" fill="#0C0C0C"/>
</g>
<g opacity="0.2">
<path d="M67.6294 34.1429C67.6421 34.1534 67.6584 34.1587 67.675 34.1577C67.6916 34.1566 67.7071 34.1494 67.7182 34.1374L69.5491 32.1671C69.5547 32.1611 69.559 32.1541 69.5618 32.1465C69.5646 32.1389 69.5658 32.1308 69.5654 32.1227C69.5649 32.1147 69.5628 32.1067 69.5592 32.0995C69.5556 32.0922 69.5506 32.0856 69.5444 32.0802C69.5382 32.0748 69.5309 32.0707 69.523 32.068C69.5152 32.0653 69.5068 32.0641 69.4985 32.0645C69.4901 32.065 69.482 32.067 69.4744 32.0705C69.4669 32.074 69.4601 32.0788 69.4545 32.0848L67.6235 34.055C67.6123 34.0672 67.6066 34.0831 67.6075 34.0993C67.6084 34.1155 67.6159 34.1307 67.6282 34.1416L67.6294 34.1429Z" fill="#0C0C0C"/>
</g>
<path d="M9.11969 35.4538L7.76754 31.2736C7.73783 31.1817 7.68867 31.0969 7.6232 31.0244C7.55773 30.952 7.47738 30.8935 7.38726 30.8528C7.29715 30.812 7.19926 30.7899 7.09982 30.7878C7.00038 30.7857 6.90157 30.8036 6.8097 30.8405C6.6422 30.9135 6.50872 31.0442 6.43515 31.2071C6.36157 31.37 6.35314 31.5535 6.4115 31.7221L6.70138 32.6185L4.45241 30.2043C4.20713 29.9316 3.72613 29.7489 3.42818 30.0351C3.30612 30.1381 3.2237 30.278 3.19438 30.432C3.16506 30.5861 3.19058 30.7453 3.26676 30.8835C3.26356 30.8851 3.26052 30.887 3.25765 30.8891C3.25583 30.8912 3.25419 30.8933 3.25273 30.8956L2.87452 30.4753C2.80443 30.3975 2.71729 30.3357 2.61943 30.2946C2.52157 30.2535 2.41547 30.2341 2.30886 30.2377C2.20225 30.2413 2.0978 30.2678 2.00314 30.3154C1.90848 30.363 1.82599 30.4305 1.76167 30.5128C1.6631 30.6445 1.61424 30.8049 1.62329 30.9672C1.63233 31.1296 1.69872 31.284 1.81135 31.4046L1.97219 31.5836C1.96902 31.5905 1.96715 31.5979 1.96667 31.6054C1.82898 31.509 1.66032 31.4631 1.49086 31.4759C1.32139 31.4887 1.16217 31.5595 1.04165 31.6754C0.913647 31.8061 0.841272 31.9786 0.838976 32.1586C0.836681 32.3386 0.904634 32.5129 1.02927 32.6465L1.42897 33.0908C1.41873 33.0884 1.40806 33.0884 1.39781 33.0908C1.38757 33.0931 1.37805 33.0978 1.37003 33.1044C1.36093 33.1128 1.35456 33.1235 1.35168 33.1353C1.20438 33.0824 1.04319 33.0777 0.89288 33.122C0.742575 33.1664 0.611485 33.2573 0.519768 33.3807C0.426211 33.5123 0.381279 33.6705 0.392245 33.8299C0.403211 33.9892 0.469434 34.1403 0.580192 34.2587L3.95201 38.0075C4.42374 38.5319 5.04662 38.9081 5.74078 39.0878C6.43493 39.2674 7.16874 39.2424 7.8481 39.0159C8.43392 38.8207 8.91797 38.4121 9.1974 37.8771C9.47683 37.342 9.52961 36.7226 9.34453 36.1505L9.11969 35.4538Z" fill="#FAA896"/>
<g opacity="0.2">
<path d="M5.48041 33.2829C5.46729 33.2938 5.45031 33.2992 5.43309 33.2982C5.41587 33.2971 5.39977 33.2896 5.38821 33.2772L3.25247 30.9789C3.24113 30.9662 3.23538 30.9497 3.23646 30.933C3.23754 30.9163 3.24536 30.9006 3.25825 30.8894C3.27114 30.8782 3.28806 30.8724 3.30537 30.8731C3.32267 30.8739 3.33899 30.8811 3.35079 30.8934L5.48653 33.1917C5.49233 33.1979 5.49682 33.2052 5.49971 33.2131C5.50261 33.221 5.50387 33.2294 5.50341 33.2378C5.50295 33.2462 5.50079 33.2544 5.49705 33.262C5.49331 33.2695 5.48806 33.2763 5.4816 33.2819L5.48041 33.2829Z" fill="#0C0C0C"/>
</g>
<g opacity="0.2">
<path d="M4.4594 34.2233C4.44629 34.2342 4.42931 34.2397 4.41208 34.2386C4.39485 34.2375 4.37874 34.23 4.36719 34.2175L1.98365 31.6526C1.97197 31.64 1.96594 31.6234 1.96689 31.6065C1.96785 31.5896 1.97569 31.5737 1.98872 31.5624C2.00199 31.5516 2.019 31.5461 2.03631 31.547C2.05363 31.5479 2.06995 31.5551 2.08197 31.5672L4.46551 34.1321C4.47722 34.1447 4.48327 34.1613 4.48235 34.1782C4.48143 34.1952 4.4736 34.2111 4.46059 34.2224L4.4594 34.2233Z" fill="#0C0C0C"/>
</g>
<g opacity="0.2">
<path d="M3.35841 35.2463C3.34529 35.2572 3.32832 35.2627 3.31109 35.2616C3.29388 35.2605 3.27777 35.253 3.26621 35.2406L1.36456 33.1946C1.35285 33.182 1.3468 33.1654 1.34775 33.1484C1.3487 33.1315 1.35658 33.1156 1.36963 33.1042C1.38269 33.0929 1.39987 33.0871 1.41738 33.088C1.4349 33.0889 1.45132 33.0965 1.46303 33.1092L3.36423 35.155C3.37004 35.1612 3.37453 35.1685 3.37743 35.1764C3.38033 35.1843 3.38158 35.1927 3.38112 35.2011C3.38067 35.2095 3.3785 35.2177 3.37476 35.2253C3.37102 35.2329 3.36576 35.2397 3.3593 35.2453L3.35841 35.2463Z" fill="#0C0C0C"/>
</g>
<path d="M49.7616 35.2613L60.9436 55.2349L52.6077 55.9841L60.5507 33.7148L69.5954 36.8103L61.3012 58.9593C61.0051 59.7498 60.485 60.4437 59.8003 60.9614C59.1156 61.4792 58.2941 61.7999 57.4297 61.8868C56.5654 61.9738 55.6932 61.8234 54.9131 61.453C54.133 61.0826 53.4765 60.5071 53.0187 59.7924L52.9652 59.7085L40.6133 40.3913L49.7616 35.2613Z" fill="#2E636E"/>
<path d="M43.3464 20.8533C43.3464 20.8533 45.3425 19.4571 45.8997 16.1628C46.3312 13.612 43.8569 15.2209 43.8569 15.2209C43.8569 15.2209 44.1492 13.3812 42.7567 13.5367C41.3643 13.6921 40.5449 15.6144 40.5449 15.6144" fill="#0C0C0C"/>
<path d="M35.5728 13.6094C35.5728 13.6094 28.6651 14.1868 30.9651 23.2727L31.5741 23.3244L32.8102 23.4293" fill="#0C0C0C"/>
<path d="M42.1115 32.7959C42.0816 32.7922 41.7448 38.1915 35.2619 37.7208C30.7738 37.3955 29.1736 32.7883 29.0703 32.7883C29.5542 32.6888 30.3691 32.544 30.5839 32.4332C31.2906 32.0658 32.1654 31.6834 32.3929 30.3554C32.5242 29.5904 32.3014 25.6747 32.3701 24.9004L39.2592 26.3881C39.1629 28.0235 38.4892 31.8149 40.8506 32.486C41.2439 32.5969 41.6672 32.6989 42.1115 32.7959Z" fill="#FAA896"/>
<path d="M39.3554 30.9376C39.2475 30.6011 39.178 30.2541 39.1482 29.903C39.0724 29.1018 39.0874 28.2949 39.1929 27.4969C37.7927 27.314 36.4736 26.7548 35.3854 25.8828C35.2574 26.3398 34.554 28.3369 34.7487 28.7717C35.1172 29.5929 36.8474 30.9376 39.3554 30.9376Z" fill="#0C0C0C"/>
<path d="M37.8204 29.9228C35.108 29.6329 31.891 27.907 31.9201 24.3372L31.9462 21.1161C31.9752 17.5463 33.9365 14.6671 37.4104 14.6935C40.8841 14.72 43.4573 17.6336 43.4282 21.204L43.4167 22.6299C43.4039 23.1195 43.3566 23.6076 43.2752 24.0909C43.0698 25.3699 42.7522 27.3143 41.8245 28.6155C40.9485 29.8426 39.5536 30.108 37.8204 29.9228Z" fill="#FAA896"/>
<path opacity="0.5" d="M39.001 26.4494C39.5525 26.5602 40.0694 26.7949 40.51 27.1345C40.5285 27.1482 40.5406 27.1685 40.5437 27.1908C40.5468 27.2132 40.5406 27.2358 40.5264 27.2537C40.5122 27.2717 40.4913 27.2834 40.4682 27.2864C40.4451 27.2893 40.4217 27.2833 40.4032 27.2696C39.4476 26.5623 38.4566 26.3864 37.5377 26.7612C37.5191 26.7694 37.5 26.7765 37.4806 26.7826C37.4581 26.7886 37.4341 26.7857 37.4138 26.7746C37.3935 26.7635 37.3786 26.745 37.3723 26.7233C37.3661 26.7016 37.3691 26.6783 37.3805 26.6587C37.392 26.639 37.4111 26.6246 37.4336 26.6186C37.4407 26.6163 37.4527 26.6112 37.4694 26.6041C37.9526 26.4062 38.4859 26.3523 39.001 26.4494Z" fill="#0C0C0C"/>
<path d="M42.2443 23.2929C42.4806 23.2929 42.6722 23.1075 42.6722 22.8789C42.6722 22.6502 42.4806 22.4648 42.2443 22.4648C42.008 22.4648 41.8164 22.6502 41.8164 22.8789C41.8164 23.1075 42.008 23.2929 42.2443 23.2929Z" fill="#0C0C0C"/>
<path d="M38.3283 22.9862C38.5646 22.9862 38.7562 22.8009 38.7562 22.5722C38.7562 22.3436 38.5646 22.1582 38.3283 22.1582C38.092 22.1582 37.9004 22.3436 37.9004 22.5722C37.9004 22.8009 38.092 22.9862 38.3283 22.9862Z" fill="#0C0C0C"/>
<path d="M32.1273 25.4256C31.0716 25.4175 30.2246 24.3183 30.2325 23.2968C30.2404 22.2753 31.1011 21.7187 32.1571 21.7266L32.6955 22.4152L33.0347 25.4323L32.1273 25.4256Z" fill="#FAA896"/>
<path d="M33.2112 23.8056C33.2112 23.8056 33.6751 18.7629 35.2643 18.4825C36.3227 18.2959 38.848 19.7933 41.2248 19.4035C42.2647 19.233 43.2427 19.5007 43.3327 19.976C43.3683 20.1637 44.0709 17.4836 42.4922 15.407C41.2354 13.7537 37.0192 13.2101 35.0851 13.7055C29.729 15.0769 31.934 21.9449 31.934 21.9449L32.1345 23.6906L33.2112 23.8056Z" fill="#0C0C0C"/>
<path d="M39.8748 25.5976H39.8815C40.2216 25.6011 40.7926 25.5702 40.7956 25.3234C40.7977 25.1194 40.2443 22.9112 40.1812 22.6601C40.1754 22.6389 40.1613 22.6207 40.1418 22.6095C40.1223 22.5982 40.099 22.5948 40.0769 22.6C40.0549 22.6052 40.0358 22.6185 40.0238 22.6372C40.0118 22.6558 40.0079 22.6783 40.0128 22.6997C40.2586 23.6777 40.6245 25.1826 40.6224 25.3216C40.5882 25.3794 40.2357 25.4329 39.8834 25.4295C39.8612 25.4295 39.8398 25.4378 39.8238 25.4526C39.8077 25.4674 39.7981 25.4877 39.797 25.5091C39.7959 25.5306 39.8033 25.5517 39.8178 25.568C39.8323 25.5843 39.8527 25.5946 39.8748 25.5968V25.5976Z" fill="#0C0C0C"/>
<path d="M41.0862 20.6317C41.4412 20.5439 41.8141 20.5504 42.1656 20.6506C42.3386 20.6987 42.5031 20.7717 42.6538 20.8671C42.8029 20.9608 42.9392 21.0724 43.0594 21.1991C43.0798 21.2189 43.0914 21.2456 43.0916 21.2735C43.0919 21.3014 43.0808 21.3283 43.0607 21.3484C43.0406 21.3684 43.0132 21.38 42.9844 21.3807C42.9555 21.3814 42.9276 21.3711 42.9065 21.352L42.9001 21.3462C42.7874 21.24 42.6615 21.1479 42.5252 21.0719C42.3909 20.9966 42.2457 20.9413 42.0944 20.9078C41.7958 20.8397 41.4839 20.849 41.1903 20.935L41.1791 20.9384C41.1374 20.9515 41.092 20.948 41.053 20.9286C41.0139 20.9093 40.9844 20.8758 40.9709 20.8354C40.9574 20.7951 40.9611 20.7511 40.981 20.7134C41.001 20.6756 41.0356 20.647 41.0774 20.634L41.0862 20.6317Z" fill="#0C0C0C"/>
<path d="M38.5554 20.7456C38.2817 20.6115 37.9762 20.5498 37.6699 20.5667C37.5149 20.5742 37.362 20.6042 37.2162 20.6559C37.0683 20.7076 36.9277 20.777 36.7977 20.8627L36.7907 20.867C36.7666 20.8813 36.7377 20.8861 36.71 20.8803C36.6823 20.8746 36.658 20.8587 36.642 20.836C36.6261 20.8133 36.6199 20.7856 36.6246 20.7586C36.6292 20.7315 36.6445 20.7073 36.6672 20.6909C36.8084 20.5864 36.9627 20.4995 37.1264 20.4323C37.2919 20.3638 37.4671 20.3196 37.6461 20.3013C38.0103 20.2619 38.3787 20.3182 38.7125 20.4644C38.7523 20.4822 38.7832 20.5145 38.7984 20.5543C38.8135 20.5941 38.8117 20.6381 38.7933 20.6767C38.7749 20.7152 38.7415 20.745 38.7004 20.7597C38.6592 20.7744 38.6137 20.7726 38.5739 20.7548L38.5662 20.7512L38.5554 20.7456Z" fill="#0C0C0C"/>
<path d="M40.6443 17.1224C41.4288 16.98 41.8892 15.9588 41.6726 14.8415C41.456 13.7242 40.6445 12.9338 39.8599 13.0762C39.0754 13.2186 38.615 14.2398 38.8316 15.3571C39.0482 16.4744 39.8598 17.2647 40.6443 17.1224Z" fill="#0C0C0C"/>
<path d="M35.109 36.3906C30.6028 36.1851 30.4132 32.4844 30.4132 32.4844C30.4132 32.4844 28.1805 32.624 26.6963 32.8183C24.2663 33.1359 22.6632 33.9336 21.3876 35.1678C20.2009 36.3161 19.4779 37.5583 20.243 45.4892C20.7965 51.2321 20.4071 63.8641 20.4071 63.8641H47.6021C47.6021 63.8641 49.233 47.3065 49.4602 44.7226C49.8941 39.7875 51.6707 37.0059 49.1875 34.4636C47.3866 32.6201 42.7376 32.4844 40.8658 32.4844C40.836 32.4844 41.2457 36.6707 35.109 36.3906Z" fill="#2E636E"/>
<path d="M29.6287 41.4647L16.9024 59.3731L16.8451 59.4538C16.3612 60.1348 15.6921 60.6729 14.9117 61.0087C14.1313 61.3444 13.2702 61.4648 12.4235 61.3563C11.5768 61.2479 10.7777 60.915 10.1145 60.3943C9.45126 59.8737 8.94985 59.1857 8.66572 58.4064L1.24414 38.0523L10.3178 35.0371L17.3868 55.5079L9.15001 54.5407L20.7392 35.9235L29.6287 41.4647Z" fill="#2E636E"/>
<path d="M48.699 52.7503H48.6928C48.6753 52.7486 48.6593 52.7404 48.6481 52.7273C48.6369 52.7143 48.6315 52.6975 48.6331 52.6806L49.4956 43.7864C49.4978 43.7697 49.5064 43.7544 49.5198 43.7437C49.5332 43.733 49.5503 43.7276 49.5676 43.7286C49.5851 43.7303 49.6012 43.7385 49.6123 43.7516C49.6235 43.7647 49.6289 43.7815 49.6273 43.7984L48.7648 52.6925C48.7632 52.7083 48.7556 52.723 48.7434 52.7337C48.7313 52.7443 48.7154 52.7503 48.699 52.7503Z" fill="#0C0C0C"/>
<path d="M20.5384 53.7884C20.5213 53.7884 20.5048 53.782 20.4925 53.7705C20.4802 53.759 20.4729 53.7433 20.4723 53.7268L20.1778 45.4919C20.1772 45.475 20.1836 45.4585 20.1955 45.4461C20.2075 45.4337 20.224 45.4264 20.2415 45.4258C20.2588 45.426 20.2754 45.4324 20.288 45.4438C20.3007 45.4552 20.3085 45.4707 20.31 45.4874L20.6045 53.7223C20.605 53.7393 20.5986 53.7557 20.5867 53.7681C20.5748 53.7805 20.5583 53.7878 20.5408 53.7884H20.5384Z" fill="#0C0C0C"/>
<path d="M93.8238 42.8886V32.2306C93.8238 31.8871 93.6828 31.5577 93.4318 31.3148C93.1808 31.072 92.8404 30.9355 92.4854 30.9355H79.7466C79.3917 30.9355 79.0512 31.072 78.8002 31.3148C78.5492 31.5577 78.4082 31.8871 78.4082 32.2306V39.7828C78.4082 40.1263 78.5492 40.4557 78.8002 40.6985C79.0512 40.9414 79.3917 41.0778 79.7466 41.0778H90.328L93.3234 43.1386C93.3709 43.1711 93.4266 43.1904 93.4846 43.1943C93.5426 43.1982 93.6005 43.1866 93.6522 43.1608C93.7038 43.135 93.7471 43.096 93.7774 43.048C93.8077 43 93.8237 42.9448 93.8238 42.8886Z" fill="#2E636E"/>
<path opacity="0.5" d="M93.8238 42.8886V32.2306C93.8238 31.8871 93.6828 31.5577 93.4318 31.3148C93.1808 31.072 92.8404 30.9355 92.4854 30.9355H79.7466C79.3917 30.9355 79.0512 31.072 78.8002 31.3148C78.5492 31.5577 78.4082 31.8871 78.4082 32.2306V39.7828C78.4082 40.1263 78.5492 40.4557 78.8002 40.6985C79.0512 40.9414 79.3917 41.0778 79.7466 41.0778H90.328L93.3234 43.1386C93.3709 43.1711 93.4266 43.1904 93.4846 43.1943C93.5426 43.1982 93.6005 43.1866 93.6522 43.1608C93.7038 43.135 93.7471 43.096 93.7774 43.048C93.8077 43 93.8237 42.9448 93.8238 42.8886Z" fill="white"/>
<path d="M90.3302 37.3979C91.0681 37.3979 91.6662 36.8191 91.6662 36.1052C91.6662 35.3913 91.0681 34.8125 90.3302 34.8125C89.5923 34.8125 88.9941 35.3913 88.9941 36.1052C88.9941 36.8191 89.5923 37.3979 90.3302 37.3979Z" fill="white"/>
<path d="M86.1153 37.3979C86.8532 37.3979 87.4514 36.8191 87.4514 36.1052C87.4514 35.3913 86.8532 34.8125 86.1153 34.8125C85.3775 34.8125 84.7793 35.3913 84.7793 36.1052C84.7793 36.8191 85.3775 37.3979 86.1153 37.3979Z" fill="white"/>
<path d="M81.9025 37.3979C82.6403 37.3979 83.2385 36.8191 83.2385 36.1052C83.2385 35.3913 82.6403 34.8125 81.9025 34.8125C81.1646 34.8125 80.5664 35.3913 80.5664 36.1052C80.5664 36.8191 81.1646 37.3979 81.9025 37.3979Z" fill="white"/>
<path d="M56.2324 23.077V8.32499C56.2324 8.16099 56.2658 7.9986 56.3307 7.84709C56.3955 7.69558 56.4906 7.55791 56.6105 7.44194C56.7303 7.32598 56.8726 7.23399 57.0292 7.17123C57.1858 7.10847 57.3536 7.07617 57.5231 7.07617H75.4564C75.6259 7.07617 75.7937 7.10847 75.9503 7.17123C76.1069 7.23399 76.2492 7.32598 76.3691 7.44194C76.4889 7.55791 76.584 7.69558 76.6489 7.84709C76.7137 7.9986 76.7471 8.16099 76.7471 8.32499V19.3249C76.7471 19.4889 76.7137 19.6513 76.6489 19.8028C76.584 19.9543 76.4889 20.092 76.3691 20.2079C76.2492 20.3239 76.1069 20.4159 75.9503 20.4786C75.7937 20.5414 75.6259 20.5737 75.4564 20.5737H60.8845L56.8203 23.3704C56.7646 23.4089 56.6991 23.4317 56.6309 23.4365C56.5627 23.4412 56.4945 23.4277 56.4337 23.3974C56.373 23.367 56.322 23.3211 56.2865 23.2646C56.251 23.208 56.2323 23.1431 56.2324 23.077Z" fill="#2E636E"/>
<path d="M66.4891 18.7843C66.9253 18.7843 67.2789 18.4421 67.2789 18.0201C67.2789 17.598 66.9253 17.2559 66.4891 17.2559C66.0528 17.2559 65.6992 17.598 65.6992 18.0201C65.6992 18.4421 66.0528 18.7843 66.4891 18.7843Z" fill="white"/>
<path d="M66.4521 16.3611C66.3158 16.3611 66.185 16.3087 66.0886 16.2154C65.9921 16.1221 65.938 15.9956 65.938 15.8637V14.0159C65.9379 13.9043 65.9767 13.7959 66.0481 13.7082C66.1195 13.6205 66.2193 13.5585 66.3314 13.5323C66.3538 13.527 68.6539 12.9637 68.6539 11.466C68.6539 10.5263 67.8577 9.8699 66.7175 9.8699C65.4831 9.8699 64.8484 11.064 64.8227 11.115C64.7609 11.2309 64.6544 11.3186 64.5263 11.3593C64.3981 11.4 64.2586 11.3904 64.1378 11.3326C64.0169 11.2747 63.9244 11.1732 63.8801 11.05C63.8358 10.9267 63.8433 10.7916 63.901 10.6737C63.9383 10.6003 64.8374 8.875 66.7183 8.875C68.4361 8.875 69.6829 9.9646 69.6829 11.466C69.6829 13.2755 67.8065 14.1043 66.9676 14.3845V15.8637C66.9676 15.9291 66.9542 15.9939 66.9283 16.0544C66.9024 16.1148 66.8644 16.1697 66.8165 16.2159C66.7686 16.2621 66.7118 16.2987 66.6493 16.3236C66.5867 16.3486 66.5197 16.3613 66.4521 16.3611Z" fill="white"/>
<path d="M102.701 49.5368C104.579 49.5368 106.101 48.0638 106.101 46.2469C106.101 44.43 104.579 42.957 102.701 42.957C100.823 42.957 99.3008 44.43 99.3008 46.2469C99.3008 48.0638 100.823 49.5368 102.701 49.5368Z" fill="#4ECEC2"/>
<path d="M118.323 40.3281C118.323 40.3281 119.415 45.3928 120.72 46.9252C124.476 51.3364 126.124 56.6351 123.429 59.8672C120.734 63.0993 101.958 65.7099 99.5578 59.3974C97.5374 54.0829 99.7048 53.1418 99.7312 48.5369C99.7431 46.4533 100.041 42.0587 100.041 42.0587" fill="#0A0A0A"/>
<path d="M102.631 56.7161C102.665 56.7118 103.046 62.8267 110.388 62.2936C115.471 61.9252 117.283 56.707 117.4 56.707C116.852 56.5944 115.929 56.4304 115.686 56.3049C114.886 55.8887 113.896 55.4557 113.637 53.9519C113.488 53.0857 113.741 48.6508 113.663 47.7734L105.861 49.4592C105.97 51.3113 106.733 55.6052 104.058 56.365C103.613 56.4908 103.134 56.6064 102.631 56.7161Z" fill="#FAA896"/>
<path opacity="0.5" d="M105.752 54.6113C105.874 54.2302 105.953 53.8374 105.987 53.4397C106.072 52.5323 106.055 51.6185 105.936 50.7147C107.521 50.5075 109.015 49.8742 110.248 48.8867C110.392 49.4044 111.189 51.6664 110.969 52.1584C110.551 53.0885 108.592 54.6113 105.752 54.6113Z" fill="#0C0C0C"/>
<path d="M107.14 53.2672C110.228 53.1549 114.008 51.4604 114.278 47.4258L114.521 43.7855C114.791 39.751 112.819 36.3434 108.893 36.0977C104.967 35.8523 101.814 38.939 101.544 42.9736L101.437 44.5852C101.333 46.1333 101.63 53.4677 107.14 53.2672Z" fill="#FAA896"/>
<path opacity="0.1" d="M108.36 47.8686C108.869 47.8611 109.278 47.5617 109.272 47.2C109.267 46.8382 108.849 46.5511 108.339 46.5586C107.829 46.5662 107.421 46.8655 107.426 47.2273C107.432 47.589 107.85 47.8762 108.36 47.8686Z" fill="#0C0C0C"/>
<path opacity="0.1" d="M102.861 47.1358C102.865 47.4967 102.457 47.7962 101.947 47.8045C101.859 47.8058 101.771 47.7982 101.684 47.7818C101.602 47.361 101.544 46.9534 101.504 46.5741C101.639 46.5223 101.782 46.4952 101.927 46.4943C102.437 46.4862 102.854 46.7735 102.861 47.1358Z" fill="#0C0C0C"/>
<path d="M102.721 44.4189C102.988 44.4189 103.204 44.2097 103.204 43.9517C103.204 43.6936 102.988 43.4844 102.721 43.4844C102.455 43.4844 102.238 43.6936 102.238 43.9517C102.238 44.2097 102.455 44.4189 102.721 44.4189Z" fill="#0C0C0C"/>
<path d="M107.501 44.7646C107.767 44.7646 107.983 44.5554 107.983 44.2974C107.983 44.0393 107.767 43.8301 107.501 43.8301C107.234 43.8301 107.018 44.0393 107.018 44.2974C107.018 44.5554 107.234 44.7646 107.501 44.7646Z" fill="#0C0C0C"/>
<path opacity="0.5" d="M105.231 47.9464H105.223C105.064 47.9353 104.906 47.9157 104.749 47.8878C104.514 47.8445 104.204 47.7634 104.217 47.5617C104.232 47.3319 105.049 44.8923 105.142 44.6149C105.146 44.6024 105.152 44.5908 105.16 44.5807C105.169 44.5707 105.179 44.5623 105.191 44.5563C105.203 44.5502 105.216 44.5464 105.229 44.5453C105.242 44.5442 105.256 44.5456 105.269 44.5496C105.281 44.5536 105.293 44.56 105.303 44.5685C105.313 44.577 105.321 44.5874 105.327 44.599C105.333 44.6107 105.336 44.6233 105.337 44.6362C105.338 44.6491 105.336 44.662 105.331 44.6742C104.983 45.7135 104.426 47.4194 104.415 47.5742C104.45 47.6411 104.841 47.7299 105.236 47.7546C105.262 47.7564 105.285 47.7677 105.302 47.786C105.32 47.8043 105.329 47.8282 105.328 47.8529C105.327 47.8776 105.317 47.9011 105.299 47.9185C105.281 47.936 105.257 47.946 105.231 47.9466L105.231 47.9464Z" fill="#0C0C0C"/>
<path opacity="0.5" d="M106.016 49.5805C105.38 49.5767 104.754 49.4283 104.188 49.1475C104.165 49.1363 104.147 49.1164 104.138 49.0923C104.13 49.0683 104.131 49.0419 104.143 49.019C104.154 48.9961 104.175 48.9786 104.2 48.9704C104.225 48.9621 104.252 48.9638 104.276 48.975C105.496 49.5524 106.633 49.5339 107.564 48.9215C107.582 48.9086 107.602 48.8966 107.622 48.8856C107.645 48.8753 107.672 48.8742 107.696 48.8824C107.72 48.8906 107.74 48.9076 107.752 48.9298C107.763 48.9519 107.766 48.9775 107.758 49.0013C107.751 49.025 107.734 49.045 107.711 49.0571C107.704 49.0611 107.692 49.0692 107.675 49.0805C107.186 49.4032 106.608 49.5773 106.016 49.5805Z" fill="#0C0C0C"/>
<path d="M117.7 44.6569L114.183 44.4564C111.448 43.7468 110.105 39.4777 110.105 39.4777C110.105 39.4777 107.918 42.8382 100.035 42.0543C100.035 42.0543 99.6506 31.3766 111.369 33.1847C115.138 33.766 118.219 36.9688 118.498 41.7672C118.694 45.13 117.7 44.6569 117.7 44.6569Z" fill="#0A0A0A"/>
<path d="M113.952 48.6415C115.145 48.7161 116.195 47.5415 116.272 46.3871C116.349 45.2327 115.424 44.5356 114.231 44.4609L113.564 45.196L112.926 48.5772L113.952 48.6415Z" fill="#FAA896"/>
<path d="M104.065 42.8943C103.746 42.7334 103.39 42.6569 103.031 42.6726C102.85 42.6793 102.672 42.7124 102.502 42.7706C102.33 42.8285 102.166 42.907 102.015 43.0043L102.01 43.0072C101.993 43.0172 101.973 43.0204 101.954 43.0162C101.934 43.0119 101.917 43.0005 101.907 42.9844C101.896 42.9683 101.892 42.9487 101.896 42.9299C101.9 42.9111 101.911 42.8946 101.928 42.8838C102.087 42.7736 102.261 42.6833 102.444 42.615C102.628 42.5454 102.822 42.503 103.019 42.4891C103.418 42.4587 103.818 42.5325 104.178 42.7027C104.205 42.7158 104.225 42.7388 104.235 42.7665C104.245 42.7942 104.242 42.8245 104.229 42.8507C104.215 42.8769 104.192 42.8968 104.163 42.906C104.134 42.9153 104.103 42.9132 104.076 42.9001L104.073 42.8986L104.065 42.8943Z" fill="#0C0C0C"/>
<path d="M107.252 42.906C107.631 42.7804 108.037 42.7554 108.429 42.8338C108.623 42.8712 108.81 42.9366 108.984 43.0278C109.157 43.1176 109.317 43.228 109.461 43.3566C109.476 43.3693 109.486 43.3871 109.487 43.4064C109.489 43.4256 109.483 43.4447 109.47 43.4595C109.457 43.4743 109.439 43.4836 109.419 43.4854C109.399 43.4872 109.379 43.4814 109.364 43.4692L109.359 43.4658C109.221 43.351 109.069 43.2533 108.906 43.1752C108.745 43.097 108.572 43.0428 108.394 43.0144C108.04 42.9555 107.676 42.9884 107.34 43.1098L107.331 43.113C107.303 43.1236 107.272 43.123 107.244 43.1112C107.216 43.0994 107.195 43.0775 107.184 43.0502C107.173 43.023 107.173 42.9926 107.185 42.9658C107.198 42.939 107.22 42.918 107.248 42.9074L107.252 42.906Z" fill="#0C0C0C"/>
<path d="M105.997 50.4915C105.882 50.4925 105.767 50.484 105.654 50.4663C105.628 50.4623 105.605 50.4484 105.589 50.4278C105.574 50.4072 105.567 50.3815 105.572 50.3563C105.576 50.3312 105.59 50.3087 105.611 50.2937C105.633 50.2787 105.659 50.2726 105.685 50.2766C106.368 50.3817 106.712 50.0937 106.726 50.0814C106.746 50.0643 106.772 50.0555 106.798 50.0568C106.824 50.058 106.849 50.0694 106.867 50.0883C106.884 50.1072 106.893 50.1321 106.892 50.1575C106.891 50.1829 106.879 50.2068 106.859 50.2239C106.613 50.4069 106.308 50.5014 105.997 50.4915Z" fill="#0C0C0C"/>
<path d="M114.22 44.4066C111.801 43.8779 110.822 42.4382 110.427 41.3235C110.169 40.5795 110.073 39.7915 110.147 39.0098L110.222 39.0194C110.149 39.7909 110.244 40.5686 110.499 41.3027C110.889 42.3989 111.853 43.8145 114.237 44.3363L114.22 44.4066Z" fill="#0C0C0C"/>
<path d="M79.2919 54.4651L78.087 49.6601C78.0605 49.5545 78.0116 49.4554 77.9433 49.3691C77.8751 49.2829 77.789 49.2113 77.6906 49.159C77.5922 49.1066 77.4836 49.0747 77.3718 49.0652C77.2599 49.0557 77.1473 49.0689 77.041 49.1039C76.8468 49.1742 76.6865 49.3119 76.5912 49.4901C76.496 49.6683 76.4725 49.8744 76.5253 50.0684L76.7837 51.0987L74.4342 48.2195C74.1788 47.8952 73.6508 47.655 73.2935 47.9562C73.1481 48.0635 73.0446 48.2152 72.9999 48.3866C72.9551 48.5581 72.9717 48.7392 73.047 48.9003C73.0433 48.9019 73.0397 48.9038 73.0364 48.9061C73.0341 48.9082 73.0321 48.9105 73.0303 48.913L72.6363 48.4125C72.5633 48.3199 72.4698 48.2442 72.3627 48.1909C72.2556 48.1376 72.1376 48.1082 72.0172 48.1046C71.8969 48.1011 71.7772 48.1236 71.667 48.1704C71.5568 48.2173 71.4587 48.2874 71.38 48.3756C71.259 48.5169 71.1918 48.6941 71.1896 48.8776C71.1874 49.061 71.2504 49.2397 71.3681 49.3836L71.5358 49.5967C71.5317 49.6042 71.5289 49.6124 71.5277 49.6208C71.38 49.5024 71.1935 49.4386 71.0017 49.441C70.8098 49.4434 70.6251 49.5117 70.4805 49.6338C70.3264 49.7718 70.2318 49.961 70.2155 50.1636C70.1992 50.3662 70.2625 50.5673 70.3927 50.7267L70.8091 51.2558C70.7977 51.2523 70.7857 51.2514 70.774 51.2533C70.7622 51.2552 70.7512 51.2598 70.7416 51.2667C70.7308 51.2755 70.7228 51.2872 70.7187 51.3002C70.5569 51.2302 70.376 51.2135 70.2035 51.2526C70.031 51.2917 69.8765 51.3845 69.7638 51.5168C69.6484 51.6583 69.5857 51.8333 69.5859 52.0136C69.5862 52.1939 69.6492 52.3688 69.765 52.5101L73.2781 56.9727C73.7696 57.597 74.4426 58.065 75.2108 58.3168C75.979 58.5686 76.8074 58.5927 77.5899 58.3861C78.2645 58.2078 78.8407 57.7821 79.1962 57.1993C79.5516 56.6166 79.6582 55.9227 79.4933 55.2651L79.2919 54.4651Z" fill="#FAA896"/>
<g opacity="0.2">
<path d="M75.358 51.7614C75.3424 51.7727 75.3228 51.7777 75.3035 51.7752C75.2842 51.7727 75.2666 51.7631 75.2546 51.7482L73.0238 49.0075C73.0116 48.9925 73.006 48.9733 73.0083 48.9543C73.0107 48.9353 73.0207 48.918 73.0363 48.9061C73.0518 48.8943 73.0716 48.8889 73.0913 48.8911C73.1109 48.8934 73.1288 48.9031 73.1411 48.9182L75.3718 51.659C75.384 51.6741 75.3895 51.6931 75.3871 51.7121C75.3848 51.731 75.3748 51.7483 75.3593 51.7601L75.358 51.7614Z" fill="#0C0C0C"/>
</g>
<g opacity="0.2">
<path d="M74.1361 52.7461C74.1205 52.7575 74.101 52.7624 74.0816 52.76C74.0623 52.7576 74.0447 52.7479 74.0327 52.7331L71.5432 49.674C71.5311 49.6589 71.5255 49.6399 71.5279 49.621C71.5302 49.602 71.5401 49.5848 71.5556 49.5729C71.5714 49.5618 71.5909 49.5569 71.6103 49.5591C71.6296 49.5614 71.6474 49.5706 71.66 49.585L74.1495 52.6438C74.1616 52.6588 74.1672 52.6778 74.1648 52.6968C74.1625 52.7157 74.1526 52.733 74.1371 52.7448L74.1361 52.7461Z" fill="#0C0C0C"/>
</g>
<g opacity="0.2">
<path d="M72.819 53.8205C72.8034 53.8318 72.7838 53.8367 72.7645 53.8343C72.7452 53.8318 72.7276 53.8222 72.7156 53.8073L70.7296 51.3677C70.7234 51.3603 70.7187 51.3517 70.7159 51.3426C70.7131 51.3334 70.7123 51.3237 70.7133 51.3142C70.7144 51.3047 70.7175 51.2955 70.7223 51.2871C70.7271 51.2787 70.7336 51.2714 70.7414 51.2654C70.7492 51.2595 70.7581 51.2552 70.7676 51.2526C70.7772 51.2501 70.7872 51.2494 70.797 51.2506C70.8068 51.2518 70.8163 51.2549 70.8248 51.2597C70.8334 51.2645 70.8409 51.2709 70.8469 51.2785L72.8328 53.7181C72.845 53.7332 72.8505 53.7522 72.8481 53.7712C72.8458 53.7901 72.8358 53.8074 72.8203 53.8192L72.819 53.8205Z" fill="#0C0C0C"/>
</g>
<path d="M94.6336 58.5915L84.901 69.6491L80.802 54.2129L70.3359 56.9031L77.1467 80.9162C77.3687 81.6885 77.7745 82.3997 78.3318 82.9929C78.7953 83.483 79.3541 83.8799 79.9762 84.1611C80.5983 84.4422 81.2716 84.602 81.9575 84.6314C82.6435 84.6608 83.3287 84.5592 83.974 84.3323C84.6194 84.1055 85.2122 83.7579 85.7187 83.3093L85.8068 83.2314L103.205 67.0509L94.6336 58.5915Z" fill="#2E636E"/>
<path d="M79.2922 54.4653L78.0873 49.6603C78.0608 49.5547 78.0119 49.4557 77.9437 49.3694C77.8754 49.2831 77.7894 49.2115 77.691 49.1592C77.5926 49.1069 77.484 49.075 77.3721 49.0655C77.2603 49.056 77.1476 49.0692 77.0413 49.1041C76.8471 49.1745 76.6868 49.3121 76.5916 49.4904C76.4963 49.6686 76.4728 49.8747 76.5257 50.0687L76.7841 51.099L77.1259 52.9285" fill="#FAA896"/>
<path d="M110.526 60.7665C115.612 60.5345 115.826 56.3574 115.826 56.3574C115.826 56.3574 118.346 56.5149 120.022 56.7343C122.765 57.0933 124.574 57.9933 126.014 59.3864C127.354 60.6826 128.169 62.0847 127.306 71.0375C126.681 77.5191 127.121 91.7784 127.121 91.7784H96.424C96.424 91.7784 94.5831 73.0894 94.3266 70.1714C93.8368 64.6008 91.8315 61.461 94.6346 58.5915C96.6672 56.5104 101.915 56.3574 104.028 56.3577C104.062 56.3577 103.599 61.0825 110.526 60.7665Z" fill="#2E636E"/>
<path d="M94.5048 69.2396C94.5042 69.2302 94.5016 69.2209 94.4973 69.2124C94.493 69.2038 94.487 69.1962 94.4796 69.1899C94.4723 69.1837 94.4637 69.1788 94.4544 69.1758C94.4451 69.1727 94.4353 69.1714 94.4255 69.172C94.4157 69.1726 94.4061 69.1751 94.3973 69.1793C94.3885 69.1834 94.3806 69.1893 94.3741 69.1964C94.3676 69.2035 94.3627 69.2118 94.3595 69.2208C94.3563 69.2298 94.355 69.2393 94.3556 69.2487L94.6676 74.8877C94.6687 74.9051 94.6763 74.9214 94.6889 74.9338C94.7015 74.9462 94.7183 74.9538 94.7362 74.9551C94.7397 74.9553 94.7432 74.9553 94.7467 74.9551C94.7664 74.9539 94.7848 74.9452 94.7979 74.9309C94.811 74.9165 94.8177 74.8977 94.8165 74.8786" fill="#0C0C0C"/>
<path d="M101.269 83.3223L96.3036 82.1549C96.1945 82.1293 96.081 82.1259 95.9705 82.145C95.86 82.1641 95.7548 82.2053 95.6616 82.2659C95.5684 82.3265 95.4893 82.4052 95.4293 82.497C95.3693 82.5888 95.3297 82.6917 95.3131 82.7992C95.2886 82.9984 95.3416 83.1993 95.4616 83.363C95.5815 83.5266 95.7601 83.6413 95.9625 83.6848L97.0273 83.9351L93.3055 84.6351C92.8903 84.706 92.4276 85.0498 92.5404 85.4952C92.5722 85.6695 92.6642 85.8282 92.8014 85.9454C92.9385 86.0625 93.1126 86.1313 93.2953 86.1403C93.2949 86.1442 93.2949 86.1482 93.2953 86.1521C93.2963 86.155 93.2975 86.1578 93.2989 86.1605L92.6587 86.2696C92.5401 86.2899 92.4277 86.3355 92.3297 86.4032C92.2316 86.4708 92.1504 86.5588 92.092 86.6607C92.0335 86.7626 91.9993 86.8758 91.9918 86.9921C91.9843 87.1084 92.0037 87.2248 92.0487 87.3329C92.1229 87.5018 92.2548 87.6409 92.4224 87.7269C92.5899 87.8129 92.7829 87.8406 92.969 87.8054L93.2415 87.7591C93.2466 87.766 93.2528 87.7721 93.26 87.777C93.0835 87.8497 92.9394 87.9808 92.8536 88.1468C92.7678 88.3128 92.7459 88.503 92.7917 88.6832C92.8477 88.8792 92.978 89.0475 93.1566 89.1545C93.3353 89.2615 93.5491 89.2995 93.7553 89.2607L94.4321 89.1452C94.4237 89.1534 94.4174 89.1633 94.4138 89.1743C94.4102 89.1853 94.4093 89.1969 94.4112 89.2083C94.4144 89.2216 94.4214 89.2337 94.4315 89.2433C94.2929 89.3504 94.1944 89.4985 94.1513 89.6649C94.1082 89.8313 94.1227 90.0068 94.1928 90.1645C94.2698 90.3286 94.4019 90.4628 94.5675 90.5453C94.7332 90.6278 94.9228 90.6538 95.1057 90.6191L100.815 89.6448C101.614 89.5085 102.353 89.1445 102.936 88.5995C103.52 88.0544 103.922 87.3532 104.091 86.5856C104.237 85.9238 104.11 85.233 103.738 84.6602C103.365 84.0873 102.777 83.6774 102.097 83.5176L101.269 83.3223Z" fill="#FAA896"/>
<g opacity="0.2">
<path d="M96.9817 85.4645C96.985 85.4831 96.9805 85.5023 96.9694 85.5178C96.9582 85.5333 96.9412 85.544 96.922 85.5475L93.3818 86.2086C93.3623 86.2123 93.3422 86.2083 93.3258 86.1976C93.3094 86.1869 93.2981 86.1703 93.2943 86.1515C93.2906 86.1327 93.2947 86.1132 93.3058 86.0973C93.3168 86.0815 93.334 86.0705 93.3534 86.0669L96.8937 85.4056C96.9033 85.4038 96.9133 85.4039 96.9229 85.4058C96.9325 85.4077 96.9417 85.4115 96.9498 85.4169C96.9579 85.4222 96.9649 85.4291 96.9702 85.4371C96.9756 85.445 96.9793 85.454 96.9811 85.4633L96.9817 85.4645Z" fill="#0C0C0C"/>
</g>
<g opacity="0.2">
<path d="M97.3256 86.9669C97.3288 86.9855 97.3244 87.0046 97.3132 87.0201C97.3021 87.0356 97.2851 87.0462 97.2659 87.0497L93.3149 87.7877C93.3053 87.7895 93.2953 87.7894 93.2857 87.7875C93.2761 87.7855 93.2669 87.7818 93.2588 87.7764C93.2507 87.771 93.2437 87.7642 93.2383 87.7562C93.233 87.7482 93.2293 87.7393 93.2275 87.7299C93.2245 87.7112 93.2289 87.692 93.24 87.6763C93.2511 87.6606 93.268 87.6496 93.2872 87.6455L97.238 86.9075C97.2477 86.9058 97.2576 86.9058 97.2673 86.9078C97.2769 86.9097 97.286 86.9134 97.2942 86.9188C97.3023 86.9242 97.3092 86.9311 97.3146 86.939C97.32 86.947 97.3237 86.9559 97.3254 86.9653L97.3256 86.9669Z" fill="#0C0C0C"/>
</g>
<g opacity="0.2">
<path d="M97.7101 88.5934C97.7134 88.612 97.7089 88.6311 97.6978 88.6466C97.6866 88.6621 97.6696 88.6727 97.6505 88.6763L94.4989 89.2649C94.4794 89.2686 94.4593 89.2646 94.4429 89.2538C94.4265 89.2431 94.4152 89.2265 94.4115 89.2077C94.4078 89.1889 94.4119 89.1694 94.423 89.1536C94.4341 89.1377 94.4512 89.1268 94.4707 89.1232L97.6223 88.5345C97.6319 88.5327 97.6419 88.5328 97.6515 88.5347C97.6611 88.5366 97.6703 88.5404 97.6784 88.5458C97.6865 88.5511 97.6935 88.558 97.6988 88.566C97.7042 88.574 97.7079 88.5829 97.7097 88.5922L97.7101 88.5934Z" fill="#0C0C0C"/>
</g>
<path d="M100.773 91.5336L127.455 91.6743C128.315 91.7648 129.184 91.6614 129.995 91.3722C130.806 91.083 131.537 90.6159 132.13 90.0075C132.723 89.3991 133.163 88.666 133.414 87.8657C133.665 87.0654 133.721 86.2196 133.578 85.3948L127.634 62.3557C127.512 61.6546 127.249 60.9836 126.859 60.381C126.469 59.7784 125.96 59.256 125.362 58.8436C124.763 58.4313 124.087 58.137 123.371 57.9776C122.654 57.8183 121.913 57.7969 121.188 57.9148C120.464 58.0327 119.77 58.2875 119.148 58.6647C118.525 59.0419 117.985 59.5341 117.559 60.1132C117.132 60.6924 116.828 61.347 116.664 62.0398C116.499 62.7327 116.477 63.4501 116.599 64.1512L121.157 81.5079L100.903 82.1509L100.773 91.5336Z" fill="#2E636E"/>
<path d="M124.645 81.4325C124.664 81.4324 124.682 81.4255 124.696 81.4131C124.71 81.4007 124.718 81.3838 124.719 81.3657C124.721 81.3476 124.715 81.3297 124.703 81.3155C124.692 81.3013 124.675 81.2919 124.656 81.2891L121.201 81.4105C121.191 81.4089 121.181 81.4093 121.172 81.4115C121.162 81.4138 121.153 81.4178 121.145 81.4235C121.137 81.4291 121.131 81.4362 121.126 81.4444C121.121 81.4526 121.117 81.4617 121.116 81.4711C121.113 81.49 121.118 81.5093 121.13 81.5247C121.142 81.54 121.159 81.5503 121.179 81.5531L124.634 81.4317C124.638 81.4323 124.642 81.4325 124.645 81.4325Z" fill="#0C0C0C"/>
<path d="M126.68 91.7783C126.699 91.7795 126.719 91.7731 126.734 91.7604C126.749 91.7477 126.758 91.7298 126.759 91.7107C126.76 91.6916 126.754 91.6727 126.741 91.6583C126.728 91.6439 126.709 91.6351 126.689 91.6339L100.93 91.4784L101.043 82.2397L121.177 81.555C121.189 81.5564 121.201 81.5552 121.212 81.5515C121.223 81.5478 121.232 81.5417 121.241 81.5336C121.249 81.5255 121.255 81.5156 121.258 81.5048C121.262 81.494 121.263 81.4826 121.261 81.4714L119.065 71.0388C119.064 71.0294 119.06 71.0204 119.055 71.0123C119.05 71.0043 119.043 70.9972 119.035 70.9917C119.027 70.9862 119.018 70.9823 119.008 70.9802C118.999 70.9782 118.989 70.978 118.979 70.9797C118.969 70.9812 118.96 70.9846 118.952 70.9896C118.944 70.9946 118.936 71.0012 118.931 71.0089C118.925 71.0167 118.921 71.0254 118.919 71.0346C118.916 71.0439 118.916 71.0534 118.918 71.0628L121.097 81.3987L100.987 82.0864C100.977 82.0851 100.967 82.0858 100.957 82.0883C100.948 82.0909 100.939 82.0952 100.931 82.1012C100.923 82.1072 100.917 82.1146 100.912 82.123C100.907 82.1314 100.904 82.1407 100.903 82.1503L100.774 91.5334C100.772 91.5522 100.777 91.5709 100.789 91.5858C100.801 91.6006 100.819 91.6102 100.838 91.6127L126.67 91.7777C126.673 91.7781 126.676 91.7783 126.68 91.7783Z" fill="#0C0C0C"/>
<path opacity="0.11" d="M21.3814 92C7.39826 92 -2.749 78.9798 1.27956 66.0306C3.55774 58.7075 8.08376 51.5623 16.6909 47.2285C40.2446 35.3689 38.1697 38.6208 49.2721 18.6919C60.3745 -1.23708 90.4654 -5.96474 106.233 8.07329C128.533 27.9285 113.533 43.746 127.645 57.3937C127.792 57.536 127.937 57.679 128.08 57.8227C140.832 70.6266 131.236 92 112.855 92H21.3814Z" fill="#2E636E"/>
</g>
<defs>
<clipPath id="clip0_431_5888">
<rect width="133.813" height="92" fill="white" transform="translate(0.388672)"/>
</clipPath>
</defs>
</svg>
