<svg width="102" height="76" viewBox="0 0 102 76" fill="none" xmlns="http://www.w3.org/2000/svg">
<g clip-path="url(#clip0_431_5482)">
<path d="M93.3206 66.6211L94.641 74.9181H85.5605L87.1874 66.6211H93.3206Z" fill="#262626"/>
<path opacity="0.2" d="M93.3206 66.6211L94.641 74.9181H85.5605L87.1874 66.6211H93.3206Z" fill="white"/>
<path d="M90.3321 66.6481C90.3274 66.6481 90.3227 66.6478 90.318 66.647C90.2955 66.6432 90.2754 66.6307 90.2622 66.6122C90.2489 66.5937 90.2435 66.5706 90.2472 66.5481L92.7481 51.4586C92.7522 51.4366 92.7649 51.417 92.7833 51.4042C92.8017 51.3913 92.8244 51.3862 92.8465 51.3898C92.8687 51.3935 92.8885 51.4057 92.9018 51.4238C92.9151 51.4419 92.9208 51.4644 92.9176 51.4867L90.4168 66.5762C90.4135 66.5963 90.4031 66.6145 90.3876 66.6277C90.3721 66.6408 90.3525 66.6481 90.3321 66.6481Z" fill="#494949"/>
<path d="M90.9219 63.229C90.9022 63.2291 90.8831 63.2223 90.8677 63.2098C90.8524 63.1974 90.8418 63.1801 90.8378 63.1607C90.8337 63.1414 90.8364 63.1213 90.8455 63.1037C90.8545 63.0862 90.8693 63.0723 90.8874 63.0644L96.9932 60.3949C97.014 60.3865 97.0372 60.3866 97.0578 60.3951C97.0785 60.4035 97.0951 60.4197 97.1041 60.4402C97.113 60.4607 97.1137 60.4838 97.1058 60.5048C97.098 60.5257 97.0823 60.5428 97.0621 60.5523L90.9562 63.2218C90.9454 63.2266 90.9338 63.2291 90.9219 63.229Z" fill="#494949"/>
<path d="M91.2251 60.6439C91.2137 60.6414 91.2028 60.6366 91.1933 60.6298L87.0744 57.6874C87.0647 57.6811 87.0563 57.6729 87.0498 57.6633C87.0433 57.6536 87.0389 57.6428 87.0367 57.6314C87.0345 57.62 87.0347 57.6083 87.0371 57.597C87.0396 57.5856 87.0443 57.5749 87.0511 57.5654C87.0578 57.556 87.0664 57.548 87.0762 57.5419C87.0861 57.5359 87.0972 57.5319 87.1086 57.5302C87.1201 57.5285 87.1318 57.5292 87.1431 57.5321C87.1543 57.5351 87.1648 57.5403 87.1739 57.5474L91.2928 60.4899C91.3088 60.5015 91.3203 60.5181 91.3255 60.5372C91.3306 60.5562 91.3291 60.5764 91.3211 60.5944C91.3132 60.6125 91.2992 60.6272 91.2817 60.6362C91.2641 60.6452 91.244 60.6478 91.2248 60.6438L91.2251 60.6439Z" fill="#494949"/>
<path d="M98.7684 65.1868C100.553 64.302 101.168 61.9084 100.143 59.8405C99.1176 57.7727 96.8398 56.8138 95.0553 57.6986C93.2708 58.5835 92.6554 60.9771 93.6808 63.0449C94.7061 65.1127 96.9839 66.0717 98.7684 65.1868Z" fill="#2E636E"/>
<path opacity="0.5" d="M99.2164 64.5897C97.4321 65.4745 95.154 64.5154 94.1288 62.4478C93.4334 61.0452 93.4926 59.4935 94.1601 58.3634C94.4165 58.09 94.72 57.8648 95.0559 57.6986C96.8403 56.8137 99.1183 57.7728 100.144 59.8405C100.839 61.2431 100.78 62.7955 100.112 63.9249C99.8558 64.1983 99.5524 64.4234 99.2164 64.5897Z" fill="white"/>
<path d="M96.3958 53.0956C97.1361 51.261 96.1796 49.1457 94.2594 48.3708C92.3392 47.5959 90.1824 48.4549 89.442 50.2895C88.7017 52.1241 89.6582 54.2395 91.5784 55.0144C93.4987 55.7893 95.6555 54.9302 96.3958 53.0956Z" fill="#2E636E"/>
<path opacity="0.5" d="M96.3959 53.0942C96.3679 53.1635 96.3379 53.231 96.3054 53.2976C95.3571 54.6347 93.5273 55.1798 91.8733 54.5121C89.953 53.7372 88.9965 51.6217 89.7368 49.7871C89.7647 49.7178 89.7949 49.6503 89.8273 49.5836C90.7756 48.2465 92.6053 47.7014 94.2594 48.3692C96.1796 49.1441 97.1362 51.2596 96.3959 53.0942Z" fill="white"/>
<path d="M89.1513 58.8764C90.1158 57.0969 89.6529 54.9796 88.1172 54.1472C86.5816 53.3148 84.5548 54.0826 83.5902 55.862C82.6257 57.6415 83.0886 59.7588 84.6243 60.5912C86.1599 61.4236 88.1867 60.6558 89.1513 58.8764Z" fill="#2E636E"/>
<path opacity="0.5" d="M84.2505 60.0529C85.786 60.8855 87.813 60.1175 88.7774 58.3381C89.4315 57.1314 89.429 55.7695 88.8803 54.7577C88.6643 54.5099 88.4056 54.3029 88.1165 54.1465C86.581 53.314 84.554 54.082 83.5896 55.8613C82.9351 57.0687 82.9374 58.4307 83.4867 59.4418C83.7027 59.6895 83.9614 59.8965 84.2505 60.0529Z" fill="white"/>
<path d="M38.5055 8.72174C39.0111 7.24528 38.6405 5.7811 37.6777 5.45141C36.7149 5.12172 35.5246 6.05135 35.019 7.52781C34.5134 9.00427 34.884 10.4684 35.8468 10.7981C36.8096 11.1278 38 10.1982 38.5055 8.72174Z" fill="#F4F4F4"/>
<path d="M35.0775 7.52466C35.7632 7.21555 35.9361 6.11536 35.4636 5.06731C34.9911 4.01927 34.0523 3.42025 33.3666 3.72936C32.6809 4.03848 32.508 5.13867 32.9805 6.18671C33.4529 7.23476 34.3918 7.83378 35.0775 7.52466Z" fill="#F4F4F4"/>
<path d="M33.7812 9.96094H37.4491C37.7717 9.96094 38.0811 10.0891 38.3092 10.3172C38.5373 10.5453 38.6655 10.8547 38.6655 11.1773V12.8461C38.6655 13.1687 38.5373 13.4781 38.3092 13.7062C38.0811 13.9343 37.7717 14.0624 37.4491 14.0624H33.7812V9.96094Z" fill="#F4F4F4"/>
<g opacity="0.05">
<path d="M33.7812 9.96094H37.4491C37.7717 9.96094 38.0811 10.0891 38.3092 10.3172C38.5373 10.5453 38.6655 10.8547 38.6655 11.1773V12.8461C38.6655 13.1687 38.5373 13.4781 38.3092 13.7062C38.0811 13.9343 37.7717 14.0624 37.4491 14.0624H33.7812V9.96094Z" fill="#292A2E"/>
</g>
<g opacity="0.05">
<path d="M38.1955 7.12755H38.1909C38.1835 7.12678 38.1764 7.12421 38.1703 7.12006C38.1641 7.11591 38.1591 7.11031 38.1556 7.10375C38.142 7.07094 38.141 7.03424 38.153 7.00077C38.174 6.91213 38.1688 6.81926 38.1379 6.73355C38.1357 6.72796 38.1346 6.722 38.1348 6.716C38.1349 6.71 38.1363 6.70409 38.1387 6.69862C38.1412 6.69314 38.1447 6.68821 38.1491 6.68411C38.1534 6.68001 38.1586 6.67682 38.1642 6.67472C38.1698 6.67263 38.1758 6.67167 38.1818 6.67191C38.1878 6.67215 38.1937 6.67358 38.1991 6.67612C38.2046 6.67865 38.2095 6.68224 38.2135 6.68668C38.2175 6.69112 38.2206 6.69632 38.2226 6.70197C38.2523 6.78374 38.2625 6.8713 38.2524 6.9577C38.3049 6.90993 38.3636 6.8694 38.4269 6.83717C38.4322 6.83412 38.4381 6.8322 38.4442 6.8315C38.4503 6.83081 38.4565 6.83137 38.4624 6.83314C38.4683 6.83492 38.4737 6.83787 38.4784 6.84182C38.4831 6.84577 38.487 6.85063 38.4897 6.85612C38.4925 6.8616 38.4941 6.86759 38.4945 6.87372C38.4948 6.87985 38.494 6.88599 38.4919 6.89177C38.4898 6.89755 38.4866 6.90285 38.4824 6.90734C38.4782 6.91182 38.4731 6.91541 38.4675 6.91788C38.3761 6.96543 38.2954 7.03129 38.2304 7.11135C38.2262 7.11646 38.2208 7.12055 38.2148 7.12335C38.2087 7.12615 38.2022 7.12759 38.1955 7.12755Z" fill="#292A2E"/>
<path d="M36.8232 6.0509C36.8173 6.05092 36.8115 6.04976 36.8061 6.04746C36.7747 6.03089 36.7508 6.00305 36.7392 5.96955C36.7009 5.88816 36.6391 5.82011 36.5617 5.77418C36.5513 5.76818 36.5437 5.75829 36.5406 5.7467C36.5375 5.7351 36.5391 5.72274 36.5451 5.71233C36.5511 5.70193 36.561 5.69433 36.5726 5.69122C36.5842 5.6881 36.5966 5.68973 36.607 5.69573C36.6808 5.73918 36.7431 5.79965 36.7889 5.87209C36.7996 5.80084 36.8195 5.73128 36.848 5.66514C36.8503 5.65952 36.8537 5.6544 36.8579 5.6501C36.8622 5.6458 36.8673 5.6424 36.8729 5.6401C36.8785 5.6378 36.8845 5.63665 36.8906 5.63672C36.8966 5.63679 36.9026 5.63808 36.9081 5.6405C36.9137 5.64292 36.9187 5.64644 36.9229 5.65084C36.927 5.65523 36.9303 5.66042 36.9324 5.6661C36.9345 5.67177 36.9355 5.67781 36.9352 5.68387C36.935 5.68992 36.9335 5.69586 36.9309 5.70134C36.89 5.79775 36.8689 5.90138 36.8687 6.00611C36.8687 6.01811 36.8639 6.02962 36.8554 6.0381C36.8469 6.04659 36.8354 6.05136 36.8234 6.05136L36.8232 6.0509Z" fill="#292A2E"/>
<path d="M35.6671 7.50989C35.6612 7.5099 35.6553 7.50876 35.6499 7.50654C35.6187 7.49014 35.595 7.46252 35.5834 7.42926C35.545 7.34762 35.483 7.27933 35.4055 7.23317C35.3951 7.22717 35.3875 7.21728 35.3844 7.20568C35.3812 7.19408 35.3829 7.18172 35.3889 7.17132C35.3949 7.16091 35.4048 7.15332 35.4164 7.1502C35.428 7.14709 35.4403 7.14871 35.4507 7.15471C35.5246 7.1982 35.587 7.2587 35.6327 7.33117C35.6433 7.25989 35.6631 7.19029 35.6917 7.12412C35.6939 7.1185 35.6973 7.11339 35.7016 7.10908C35.7058 7.10478 35.7109 7.10138 35.7165 7.09908C35.7221 7.09679 35.7282 7.09564 35.7342 7.09571C35.7403 7.09577 35.7463 7.09706 35.7518 7.09948C35.7574 7.10191 35.7624 7.10542 35.7665 7.10982C35.7707 7.11422 35.7739 7.11941 35.7761 7.12508C35.7782 7.13076 35.7792 7.1368 35.7789 7.14285C35.7786 7.1489 35.7772 7.15485 35.7746 7.16032C35.7337 7.25671 35.7126 7.36031 35.7125 7.465C35.7125 7.477 35.7077 7.48851 35.6993 7.497C35.6908 7.50548 35.6793 7.51025 35.6673 7.51025L35.6671 7.50989Z" fill="#292A2E"/>
<path d="M36.8955 7.28927C36.8896 7.28925 36.8838 7.28811 36.8784 7.28593C36.8471 7.26942 36.8232 7.24159 36.8116 7.2081C36.7732 7.12667 36.7113 7.05855 36.634 7.01246C36.6236 7.00646 36.616 6.99658 36.6129 6.98498C36.6098 6.97338 36.6114 6.96102 36.6174 6.95061C36.6234 6.94021 36.6333 6.93261 36.6449 6.9295C36.6565 6.92639 36.6688 6.92801 36.6792 6.93401C36.7529 6.97755 36.8152 7.038 36.8609 7.11037C36.8716 7.03912 36.8915 6.96956 36.92 6.90342C36.9223 6.8978 36.9256 6.89268 36.9299 6.88838C36.9342 6.88408 36.9393 6.88068 36.9449 6.87838C36.9505 6.87608 36.9565 6.87493 36.9625 6.875C36.9686 6.87507 36.9746 6.87636 36.9801 6.87878C36.9857 6.88121 36.9907 6.88472 36.9949 6.88912C36.999 6.89351 37.0023 6.8987 37.0044 6.90438C37.0065 6.91005 37.0075 6.9161 37.0072 6.92215C37.007 6.9282 37.0055 6.93414 37.0029 6.93962C36.962 7.03599 36.9408 7.1396 36.9408 7.2443C36.9408 7.2563 36.936 7.26781 36.9275 7.27629C36.919 7.28478 36.9075 7.28955 36.8955 7.28955V7.28927Z" fill="#292A2E"/>
<path d="M37.6758 8.56498C37.6686 8.56495 37.6616 8.56324 37.6552 8.56C37.6486 8.55662 37.6429 8.55166 37.6387 8.54557C37.6345 8.53948 37.6318 8.53244 37.6309 8.52508C37.6299 8.48977 37.6421 8.45536 37.6652 8.42861C37.7167 8.35358 37.745 8.26511 37.7467 8.17415C37.7467 8.16215 37.7514 8.15064 37.7599 8.14216C37.7684 8.13367 37.7799 8.12891 37.7919 8.12891C37.8039 8.12891 37.8154 8.13367 37.8239 8.14216C37.8324 8.15064 37.8371 8.16215 37.8371 8.17415C37.8357 8.26161 37.8136 8.34749 37.7727 8.42481C37.8392 8.39982 37.9087 8.38396 37.9794 8.37767C37.9913 8.37678 38.0031 8.38061 38.0123 8.38832C38.0214 8.39603 38.0272 8.40702 38.0284 8.41893C38.0288 8.42485 38.0282 8.43082 38.0264 8.43648C38.0246 8.44214 38.0216 8.44739 38.0178 8.45193C38.014 8.45647 38.0093 8.46021 38.004 8.46293C37.9987 8.46565 37.9929 8.4673 37.987 8.46779C37.8852 8.47752 37.7866 8.50833 37.6974 8.55829C37.6909 8.56235 37.6835 8.56466 37.6758 8.56498Z" fill="#292A2E"/>
<path d="M35.77 9.35115C35.7636 9.35115 35.7573 9.3498 35.7515 9.34717C35.7207 9.32955 35.6977 9.30094 35.6871 9.26709C35.6512 9.18459 35.5915 9.11468 35.5157 9.06629C35.5054 9.05999 35.4981 9.04989 35.4954 9.0382C35.4926 9.02652 35.4946 9.01421 35.5009 9.00399C35.5072 8.99376 35.5173 8.98646 35.529 8.98368C35.5406 8.98091 35.553 8.98289 35.5632 8.98919C35.6356 9.03504 35.696 9.09744 35.7395 9.17126C35.7524 9.10038 35.7744 9.03146 35.8049 8.96621C35.8071 8.96042 35.8106 8.95517 35.815 8.95077C35.8194 8.94637 35.8246 8.94293 35.8304 8.94065C35.8362 8.93837 35.8424 8.93731 35.8486 8.93753C35.8548 8.93775 35.8609 8.93924 35.8665 8.94192C35.8721 8.9446 35.8771 8.9484 35.8812 8.9531C35.8852 8.95779 35.8883 8.96328 35.8902 8.9692C35.892 8.97513 35.8926 8.98138 35.892 8.98756C35.8913 8.99374 35.8894 8.99972 35.8863 9.00512C35.8425 9.10019 35.8182 9.20309 35.8149 9.30772C35.8145 9.3194 35.8095 9.33045 35.801 9.33855C35.7926 9.34665 35.7814 9.35116 35.7697 9.35115H35.77Z" fill="#292A2E"/>
<path d="M36.904 9.77236C36.9024 9.77245 36.9009 9.77245 36.8993 9.77236C36.8919 9.77161 36.8848 9.76904 36.8786 9.76487C36.8724 9.7607 36.8674 9.75507 36.8639 9.74847C36.8504 9.71581 36.8495 9.67934 36.8612 9.64603C36.8824 9.55725 36.8771 9.46423 36.8462 9.37836C36.8424 9.36722 36.843 9.35501 36.8481 9.34434C36.8531 9.33367 36.8621 9.32538 36.8731 9.32124C36.8841 9.3171 36.8964 9.31743 36.9072 9.32217C36.918 9.32691 36.9265 9.33567 36.9309 9.3466C36.9607 9.42841 36.9709 9.51604 36.9608 9.60251C37.0133 9.55469 37.0719 9.51412 37.1352 9.48188C37.1458 9.47708 37.1579 9.47657 37.1689 9.48046C37.1799 9.48434 37.1889 9.49232 37.1942 9.50274C37.1994 9.51315 37.2005 9.52519 37.1971 9.53635C37.1936 9.5475 37.1861 9.55691 37.1759 9.5626C37.0844 9.61018 37.0037 9.67606 36.9388 9.75616C36.9345 9.76125 36.9292 9.76534 36.9232 9.76814C36.9172 9.77094 36.9106 9.77238 36.904 9.77236Z" fill="#292A2E"/>
</g>
<g opacity="0.05">
<path d="M34.8728 5.45439H34.8682C34.8608 5.45364 34.8537 5.45107 34.8476 5.44692C34.8414 5.44277 34.8363 5.43716 34.8328 5.43059C34.8192 5.39777 34.8183 5.36106 34.8303 5.32761C34.8513 5.23896 34.8461 5.14609 34.8151 5.06039C34.8111 5.0492 34.8117 5.03689 34.8167 5.02612C34.8218 5.01535 34.8308 5.00699 34.842 5.00285C34.8531 4.9987 34.8654 4.9991 34.8762 5.00396C34.8871 5.00881 34.8956 5.01774 34.8999 5.02881C34.9297 5.11056 34.9399 5.19813 34.9298 5.28454C34.9823 5.23677 35.0409 5.19624 35.1041 5.16401C35.1148 5.1592 35.1268 5.15869 35.1378 5.16258C35.1488 5.16646 35.1579 5.17444 35.1632 5.18486C35.1684 5.19527 35.1694 5.20731 35.166 5.21847C35.1626 5.22962 35.155 5.23903 35.1449 5.24472C35.0534 5.29227 34.9726 5.35812 34.9077 5.43819C34.9034 5.44328 34.8981 5.44737 34.8921 5.45017C34.886 5.45297 34.8795 5.45441 34.8728 5.45439Z" fill="#292A2E"/>
<path d="M33.921 4.44221C33.9151 4.44223 33.9093 4.44109 33.9038 4.43886C33.8725 4.42238 33.8486 4.39458 33.8371 4.36113C33.7987 4.27965 33.7368 4.21152 33.6594 4.16549C33.6542 4.16252 33.6497 4.15856 33.6461 4.15385C33.6425 4.14913 33.6398 4.14375 33.6383 4.138C33.6367 4.13226 33.6363 4.12627 33.6371 4.12037C33.6379 4.11448 33.6398 4.10879 33.6428 4.10364C33.6457 4.09849 33.6497 4.09397 33.6544 4.09035C33.6591 4.08673 33.6645 4.08407 33.6703 4.08253C33.676 4.08099 33.682 4.08059 33.6879 4.08136C33.6938 4.08214 33.6995 4.08406 33.7046 4.08704C33.7784 4.13057 33.8407 4.19102 33.8864 4.2634C33.8971 4.19216 33.9169 4.1226 33.9454 4.05645C33.9478 4.051 33.9512 4.04607 33.9555 4.04194C33.9598 4.03782 33.9649 4.03458 33.9704 4.03241C33.9759 4.03024 33.9818 4.02919 33.9878 4.02931C33.9937 4.02942 33.9996 4.03071 34.0051 4.0331C34.016 4.03792 34.0246 4.0469 34.029 4.05806C34.0334 4.06923 34.0331 4.08166 34.0283 4.09265C33.9875 4.18903 33.9663 4.29264 33.9662 4.39733C33.9662 4.40933 33.9615 4.42084 33.953 4.42932C33.9445 4.43781 33.933 4.44257 33.921 4.44257V4.44221Z" fill="#292A2E"/>
<path d="M33.7685 5.51974C33.7626 5.51973 33.7567 5.51856 33.7513 5.5163C33.7199 5.49969 33.6961 5.47182 33.6845 5.4383C33.6461 5.35695 33.5843 5.28892 33.507 5.24293C33.4966 5.23693 33.489 5.22704 33.4859 5.21545C33.4828 5.20385 33.4844 5.19148 33.4904 5.18108C33.4964 5.17068 33.5063 5.16308 33.5179 5.15997C33.5295 5.15685 33.5419 5.15848 33.5523 5.16448C33.6261 5.20793 33.6885 5.2684 33.7342 5.34084C33.7449 5.2696 33.7647 5.20004 33.7933 5.13389C33.7955 5.12827 33.7989 5.12315 33.8031 5.11885C33.8074 5.11455 33.8125 5.11115 33.8181 5.10885C33.8237 5.10655 33.8297 5.1054 33.8358 5.10547C33.8418 5.10554 33.8478 5.10683 33.8534 5.10925C33.8589 5.11167 33.8639 5.11519 33.8681 5.11959C33.8723 5.12398 33.8755 5.12917 33.8776 5.13485C33.8798 5.14052 33.8807 5.14656 33.8805 5.15262C33.8802 5.15867 33.8787 5.16461 33.8761 5.17009C33.8352 5.26653 33.8141 5.37019 33.8139 5.47495C33.8138 5.48234 33.812 5.4896 33.8084 5.4961C33.8049 5.5026 33.7999 5.50814 33.7937 5.51223C33.7862 5.51714 33.7774 5.51975 33.7685 5.51974Z" fill="#292A2E"/>
<path d="M34.5489 6.795C34.5417 6.795 34.5347 6.79329 34.5283 6.79002C34.5217 6.78663 34.516 6.78167 34.5117 6.77556C34.5075 6.76945 34.5048 6.76239 34.5039 6.755C34.5031 6.71978 34.5153 6.68549 34.5382 6.65872C34.5897 6.58365 34.618 6.49515 34.6197 6.40417C34.6198 6.39225 34.6246 6.38085 34.6331 6.37247C34.6416 6.36408 34.653 6.35937 34.6649 6.35938C34.6769 6.35938 34.6884 6.36414 34.6969 6.37263C34.7054 6.38111 34.7102 6.39262 34.7102 6.40462C34.7087 6.49202 34.6866 6.57783 34.6457 6.6551C34.7122 6.63005 34.7818 6.61421 34.8525 6.60804C34.8644 6.60735 34.8761 6.61126 34.8852 6.61896C34.8943 6.62666 34.9 6.63756 34.9013 6.6494C34.9023 6.66135 34.8985 6.6732 34.8907 6.68234C34.883 6.69149 34.8719 6.69718 34.8599 6.69817C34.7582 6.70781 34.6595 6.73864 34.5704 6.78866C34.5639 6.79257 34.5565 6.79475 34.5489 6.795Z" fill="#292A2E"/>
<path d="M33.6034 6.51366C33.5714 6.51081 33.5413 6.49748 33.5177 6.47574C33.4469 6.42172 33.3613 6.39062 33.2723 6.38661C33.2664 6.38642 33.2605 6.38507 33.2551 6.38262C33.2497 6.38017 33.2448 6.37668 33.2408 6.37234C33.2367 6.36801 33.2335 6.36291 33.2314 6.35735C33.2293 6.35178 33.2283 6.34586 33.2285 6.33992C33.2286 6.33396 33.2299 6.32808 33.2324 6.32263C33.2348 6.31717 33.2382 6.31226 33.2426 6.30818C33.2469 6.3041 33.2521 6.30092 33.2576 6.29885C33.2632 6.29678 33.2692 6.29585 33.2751 6.29612C33.3604 6.29965 33.4435 6.32394 33.5172 6.36688C33.4941 6.29784 33.4802 6.22607 33.4757 6.15342C33.475 6.14144 33.4791 6.12969 33.4871 6.12075C33.4951 6.11181 33.5063 6.1064 33.5183 6.10573C33.5243 6.10507 33.5304 6.10568 33.5361 6.10752C33.5418 6.10935 33.5471 6.11238 33.5516 6.1164C33.5561 6.12042 33.5597 6.12535 33.5622 6.13085C33.5647 6.13635 33.566 6.14232 33.566 6.14835C33.5731 6.25271 33.6011 6.35458 33.6482 6.44796C33.6515 6.4545 33.6531 6.46173 33.653 6.46903C33.6528 6.47633 33.6509 6.48348 33.6474 6.48989C33.6439 6.49629 33.6389 6.50174 33.6328 6.50579C33.6267 6.50983 33.6198 6.51235 33.6125 6.51312C33.6095 6.51347 33.6064 6.51365 33.6034 6.51366Z" fill="#292A2E"/>
</g>
<path d="M21.3234 13.9707L31.4141 13.9707V11.075L21.3234 11.075V13.9707Z" fill="#F4F4F4"/>
<path opacity="0.05" d="M21.3234 13.9707L31.4141 13.9707V11.075L21.3234 11.075V13.9707Z" fill="#292A2E"/>
<path d="M22.6797 13.9707H24.002V11.075H22.6797V13.9707Z" fill="white"/>
<path d="M24.6273 13.3398H30.125V11.6239H24.6273V13.3398Z" fill="white"/>
<path d="M18.9171 11.0781L28.8691 11.0781V8.18242L18.9171 8.18242V11.0781Z" fill="#F4F4F4"/>
<path opacity="0.05" d="M26.2291 11.0781H27.5332V8.18242H26.2291V11.0781Z" fill="#292A2E"/>
<path d="M20.1892 10.4473H25.6113V8.73129H20.1892V10.4473Z" fill="white"/>
<path d="M14.0596 13.9699L20.6152 6.29883L18.4139 4.41756L11.8583 12.0886L14.0596 13.9699Z" fill="#F4F4F4"/>
<path opacity="0.05" d="M14.9398 12.9407L15.7988 11.9355L13.5975 10.0543L12.7384 11.0595L14.9398 12.9407Z" fill="#292A2E"/>
<path opacity="0.05" d="M15.7271 11.0505L19.2988 6.87109L17.9943 5.75627L14.4226 9.93568L15.7271 11.0505Z" fill="#292A2E"/>
<path d="M39.7155 13.918H10.5801V15.0629H39.7155V13.918Z" fill="#F4F4F4"/>
<path d="M91.8593 0H55.2031V36.6562H91.8593V0Z" fill="#F4F4F4"/>
<path d="M92.2795 0H91.8594V36.6562H92.2795V0Z" fill="#F4F4F4"/>
<path opacity="0.05" d="M92.2795 0H91.8594V36.6562H92.2795V0Z" fill="#292A2E"/>
<path opacity="0.05" d="M82.9782 25.2584V15.668H75.1222V21.2398H62.9533V31.1054H57.7812V36.6554H62.9533H63.9497H90.095V25.2584H82.9782Z" fill="#292A2E"/>
<path opacity="0.34" d="M81.8517 16.709H76.1309V17.7503H81.8517V16.709Z" fill="#FFFFFA"/>
<path opacity="0.34" d="M81.8517 18.8672H76.1309V19.9085H81.8517V18.8672Z" fill="#FFFFFA"/>
<path opacity="0.34" d="M81.8517 21.0254H76.1309V22.0667H81.8517V21.0254Z" fill="#FFFFFA"/>
<path opacity="0.34" d="M89.0798 26.2695H88.0254V27.3108H89.0798V26.2695Z" fill="#FFFFFA"/>
<path opacity="0.34" d="M89.0798 28.4277H88.0254V29.469H89.0798V28.4277Z" fill="#FFFFFA"/>
<path opacity="0.34" d="M89.0798 30.5859H88.0254V31.6272H89.0798V30.5859Z" fill="#FFFFFA"/>
<path opacity="0.34" d="M87.1306 26.2695H86.0762V27.3108H87.1306V26.2695Z" fill="#FFFFFA"/>
<path opacity="0.34" d="M87.1306 28.4277H86.0762V29.469H87.1306V28.4277Z" fill="#FFFFFA"/>
<path opacity="0.34" d="M87.1306 30.5859H86.0762V31.6272H87.1306V30.5859Z" fill="#FFFFFA"/>
<path opacity="0.34" d="M85.2321 26.2695H84.1777V27.3108H85.2321V26.2695Z" fill="#FFFFFA"/>
<path opacity="0.34" d="M85.2321 28.4277H84.1777V29.469H85.2321V28.4277Z" fill="#FFFFFA"/>
<path opacity="0.34" d="M85.2321 30.5859H84.1777V31.6272H85.2321V30.5859Z" fill="#FFFFFA"/>
<path d="M91.8593 18.1224H84.4835V0H83.8735V18.1224H63.9506V0H63.3406V18.1224H55.2031V18.7324H63.3406V36.6562H63.9506V18.7324H83.8735V36.6562H84.4835V18.7324H91.8593V18.1224Z" fill="white"/>
<path d="M93.3188 36.6113H53.7422V37.8303H93.3188V36.6113Z" fill="#F4F4F4"/>
<path opacity="0.1" d="M93.3188 36.6113H53.7422V37.8303H93.3188V36.6113Z" fill="#292A2E"/>
<path opacity="0.1" d="M93.8897 36.6113H93.3184V37.8303H93.8897V36.6113Z" fill="#292A2E"/>
<path opacity="0.1" d="M93.8897 36.6113H93.3184V37.8303H93.8897V36.6113Z" fill="#292A2E"/>
<path d="M76.5073 59.4883H14.2473C13.4752 59.4883 12.7346 59.795 12.1887 60.341C11.6427 60.887 11.3359 61.6275 11.3359 62.3996V64.1928C11.336 64.9649 11.6427 65.7054 12.1887 66.2514C12.7347 66.7974 13.4752 67.1042 14.2473 67.1042H17.7687L15.8874 75.0081H17.7024L20.5871 67.1042H70.149L72.971 75.0081H74.8668L72.9854 67.1042H76.5068C77.2789 67.1042 78.0194 66.7974 78.5654 66.2515C79.1114 65.7055 79.4181 64.965 79.4181 64.1928V62.3996C79.4181 61.6276 79.1115 60.8872 78.5656 60.3412C78.0197 59.7952 77.2794 59.4884 76.5073 59.4883Z" fill="#262626"/>
<path opacity="0.2" d="M76.5073 59.4883H14.2473C13.4752 59.4883 12.7347 59.795 12.1887 60.341C11.6427 60.887 11.336 61.6275 11.3359 62.3996V64.1928C11.336 64.9649 11.6427 65.7054 12.1887 66.2514C12.7347 66.7974 13.4752 67.1041 14.2473 67.1041H17.7687L15.8874 75.0081H17.7024L20.5871 67.1041H70.149L72.971 75.0081H74.8668L72.9854 67.1041H76.5068C76.8891 67.1041 77.2677 67.0288 77.6209 66.8825C77.9741 66.7362 78.2951 66.5218 78.5654 66.2514C78.8358 65.9811 79.0502 65.6601 79.1965 65.3069C79.3428 64.9537 79.4181 64.5751 79.4181 64.1928V62.3996C79.4181 61.6276 79.1115 60.8872 78.5656 60.3412C78.0197 59.7952 77.2794 59.4884 76.5073 59.4883Z" fill="white"/>
<path d="M16.6565 25.3457H74.0953C76.3751 25.3457 78.5615 26.2513 80.1735 27.8634C81.7856 29.4754 82.6912 31.6618 82.6912 33.9416V56.4105C82.6912 57.2334 82.3643 58.0226 81.7824 58.6045C81.2006 59.1864 80.4114 59.5133 79.5885 59.5133H11.1633C10.3404 59.5133 9.5512 59.1864 8.96932 58.6045C8.38744 58.0226 8.06055 57.2334 8.06055 56.4105V33.9416C8.06055 31.6618 8.96618 29.4754 10.5782 27.8634C12.1903 26.2513 14.3767 25.3457 16.6565 25.3457Z" fill="#4ECEC2"/>
<path opacity="0.74" d="M16.6565 25.3457H74.0953C76.3751 25.3457 78.5615 26.2513 80.1735 27.8634C81.7856 29.4754 82.6912 31.6618 82.6912 33.9416V56.4105C82.6912 57.2334 82.3643 58.0226 81.7824 58.6045C81.2006 59.1864 80.4114 59.5133 79.5885 59.5133H11.1633C10.3404 59.5133 9.5512 59.1864 8.96932 58.6045C8.38744 58.0226 8.06055 57.2334 8.06055 56.4105V33.9416C8.06055 31.6618 8.96618 29.4754 10.5782 27.8634C12.1903 26.2513 14.3767 25.3457 16.6565 25.3457Z" fill="white"/>
<path d="M87.6786 35.9978C86.5674 35.6445 85.3612 35.7471 84.3256 36.283C83.29 36.819 82.5097 37.7443 82.1563 38.8556L76.3007 54.8502H14.4524L8.59699 38.8556C8.42531 38.3014 8.14564 37.7867 7.77412 37.3411C7.40259 36.8954 6.94655 36.5278 6.43227 36.2592C5.91799 35.9906 5.35565 35.8265 4.77765 35.7763C4.19965 35.726 3.61743 35.7907 3.06453 35.9665C2.51163 36.1423 1.99899 36.4258 1.55616 36.8007C1.11333 37.1755 0.749063 37.6343 0.484349 38.1505C0.219635 38.6668 0.0597105 39.2304 0.0137928 39.8087C-0.0321249 40.3871 0.0368719 40.9688 0.216807 41.5204L7.04643 60.5795C7.32922 61.4689 7.88767 62.2452 8.64097 62.7962C9.39427 63.3471 10.3033 63.6441 11.2366 63.6441H79.5164C80.4497 63.6441 81.3588 63.3471 82.1121 62.7962C82.8654 62.2452 83.4238 61.4689 83.7066 60.5795L90.5365 41.5204C90.7115 40.9701 90.7764 40.3908 90.7274 39.8154C90.6785 39.2401 90.5167 38.68 90.2514 38.1672C89.986 37.6544 89.6222 37.1988 89.1808 36.8266C88.7393 36.4544 88.2289 36.1728 87.6786 35.9978Z" fill="#4ECEC2"/>
<path opacity="0.87" d="M87.6786 35.9978C86.5674 35.6445 85.3612 35.7471 84.3256 36.283C83.29 36.819 82.5097 37.7443 82.1563 38.8556L76.3007 54.8502H14.4524L8.59699 38.8556C8.42531 38.3014 8.14564 37.7867 7.77412 37.3411C7.40259 36.8954 6.94655 36.5278 6.43227 36.2592C5.91799 35.9906 5.35565 35.8265 4.77765 35.7763C4.19965 35.726 3.61743 35.7907 3.06453 35.9665C2.51163 36.1423 1.99899 36.4258 1.55616 36.8007C1.11333 37.1755 0.749063 37.6343 0.484349 38.1505C0.219635 38.6668 0.0597105 39.2304 0.0137928 39.8087C-0.0321249 40.3871 0.0368719 40.9688 0.216807 41.5204L7.04643 60.5795C7.32922 61.4689 7.88767 62.2452 8.64097 62.7962C9.39427 63.3471 10.3033 63.6441 11.2366 63.6441H79.5164C80.4497 63.6441 81.3588 63.3471 82.1121 62.7962C82.8654 62.2452 83.4238 61.4689 83.7066 60.5795L90.5365 41.5204C90.7115 40.9701 90.7764 40.3908 90.7274 39.8154C90.6785 39.2401 90.5167 38.68 90.2514 38.1672C89.986 37.6544 89.6222 37.1988 89.1808 36.8266C88.7393 36.4544 88.2289 36.1728 87.6786 35.9978Z" fill="white"/>
<path d="M65.4181 47.934L48.1716 35.367C47.4606 34.8405 46.6141 34.5275 45.7316 34.4648C44.849 34.4021 43.9668 34.5924 43.1885 35.0132L42.8619 35.1902L22.5117 45.5553L28.5535 54.7164L45.4029 43.6461L61.2985 53.8952L65.4181 47.934Z" fill="#262626"/>
<path opacity="0.8" d="M65.4181 47.934L48.1716 35.367C47.4606 34.8405 46.6141 34.5275 45.7316 34.4648C44.849 34.4021 43.9668 34.5924 43.1885 35.0132L42.8619 35.1902L22.5117 45.5553L28.5535 54.7164L45.4029 43.6461L61.2985 53.8952L65.4181 47.934Z" fill="#0A0A0A"/>
<path d="M10.9251 36.1697C10.9158 36.1716 10.9061 36.1701 10.8978 36.1655C10.8895 36.1609 10.8831 36.1536 10.8797 36.1447C10.8762 36.1359 10.8761 36.1261 10.8791 36.1171C10.8822 36.1082 10.8884 36.1006 10.8965 36.0957L12.897 34.8779C12.9015 34.8748 12.9066 34.8728 12.9119 34.8718C12.9173 34.8708 12.9228 34.8709 12.9281 34.872C12.9334 34.8732 12.9384 34.8755 12.9428 34.8786C12.9472 34.8818 12.951 34.8858 12.9538 34.8904C12.9566 34.8951 12.9585 34.9002 12.9593 34.9056C12.9601 34.911 12.9598 34.9165 12.9584 34.9217C12.957 34.927 12.9546 34.9319 12.9512 34.9362C12.9479 34.9405 12.9437 34.9441 12.939 34.9467L10.9385 36.1646C10.9344 36.1671 10.9298 36.1688 10.9251 36.1697Z" fill="#0C0C0C"/>
<path d="M68.9308 49.4999C68.9308 49.4999 71.6789 49.342 72.1642 46.8539C72.6495 44.3657 74.5748 45.1773 74.5748 45.1773L73.2907 54.7621L68.502 54.1205L68.9308 49.4999Z" fill="#4ECEC2"/>
<path d="M25.6828 43.4707L12.8232 44.4228C12.8232 44.4228 12.2209 46.888 13.1162 49.6869C13.8582 52.0064 15.5775 54.6958 19.5273 54.7709H69.5823L69.9152 48.2013L25.6828 43.4707Z" fill="#262626"/>
<path d="M20.7294 16.0231C20.7294 16.0231 21.7632 14.8747 21.656 12.713C21.5729 11.0389 20.2747 12.3853 20.2747 12.3853C20.2747 12.3853 20.2032 11.1806 19.3704 11.4627C18.5376 11.7449 18.2969 13.0715 18.2969 13.0715" fill="#0C0C0C"/>
<path d="M14.9755 12.4551C14.9755 12.4551 10.8179 13.7323 13.4664 19.1883L13.8471 19.1408L14.6196 19.0443" fill="#0C0C0C"/>
<path d="M21.5115 23.8646C21.4923 23.8658 21.9505 27.343 17.8996 27.8163C15.0952 28.1445 13.5419 25.4024 13.4785 25.4147C13.7643 25.2936 14.1139 25.1262 14.2539 25.0649C14.5586 24.9291 14.8147 24.7037 14.9882 24.4188C15.1617 24.1339 15.2443 23.8029 15.2251 23.4699C15.2116 22.967 14.5916 20.501 14.5387 20L18.9653 20.1256C19.1075 21.1781 19.1598 23.6719 20.6969 23.8176C20.9526 23.8413 21.2258 23.8558 21.5115 23.8646Z" fill="#E98862"/>
<path d="M19.5854 23.0096C19.4775 22.8084 19.3919 22.596 19.3302 22.3761C19.1848 21.8751 19.0947 21.3597 19.0615 20.8391C18.1765 20.8896 17.2951 20.691 16.5174 20.2656C16.495 20.5718 16.3077 21.9272 16.4812 22.1805C16.8092 22.6587 18.0406 23.3087 19.5854 23.0096Z" fill="#0C0C0C"/>
<path d="M18.5778 22.4986C16.8748 22.6725 14.6664 22.0027 14.198 19.736L13.7751 17.6909C13.3062 15.4242 14.1167 13.3405 16.251 12.8991C18.3852 12.4577 20.3605 13.9652 20.8293 16.2319L21.0166 17.1374C21.0755 17.4494 21.113 17.7651 21.1289 18.0822C21.1773 18.9201 21.2475 20.1945 20.8559 21.1417C20.4853 22.0357 19.6655 22.3875 18.5778 22.4986Z" fill="#E98862"/>
<path d="M18.9525 20.2716C19.3011 20.2204 19.6327 20.0879 19.9207 19.885C19.9324 19.8767 19.9404 19.8641 19.943 19.85C19.9455 19.8358 19.9424 19.8213 19.9344 19.8094C19.9264 19.7975 19.914 19.7892 19.8999 19.7863C19.8858 19.7834 19.8712 19.7861 19.8591 19.7939C19.2357 20.2152 18.6103 20.2922 18.0512 20.0167C18.0399 20.0108 18.0282 20.0055 18.0163 20.0008C18.0027 19.9967 17.988 19.998 17.9753 20.0045C17.9626 20.011 17.9529 20.0222 17.9483 20.0357C17.9437 20.0492 17.9445 20.0639 17.9505 20.0769C17.9566 20.0898 17.9674 20.0998 17.9808 20.1049C17.9851 20.1066 17.9925 20.1103 18.0026 20.1154C18.2966 20.2608 18.6274 20.3152 18.9525 20.2716Z" fill="#0C0C0C"/>
<path d="M19.035 20.7867C19.0981 20.7785 19.1604 20.7648 19.2213 20.746C19.2348 20.7414 19.2459 20.7317 19.2524 20.719C19.2589 20.7062 19.2602 20.6915 19.256 20.6779C19.2518 20.6642 19.2425 20.6527 19.23 20.6458C19.2175 20.6389 19.2028 20.6371 19.1891 20.6409C18.8228 20.753 18.6112 20.6163 18.6023 20.6103C18.5902 20.6025 18.5756 20.5998 18.5615 20.6027C18.5474 20.6056 18.5351 20.6139 18.527 20.6258C18.519 20.6377 18.5159 20.6522 18.5185 20.6664C18.521 20.6805 18.529 20.6931 18.5407 20.7014C18.6907 20.7861 18.8653 20.8162 19.035 20.7867Z" fill="#0C0C0C"/>
<path d="M20.2528 17.3298C20.401 17.3298 20.5212 17.2096 20.5212 17.0614C20.5212 16.9131 20.401 16.793 20.2528 16.793C20.1045 16.793 19.9844 16.9131 19.9844 17.0614C19.9844 17.2096 20.1045 17.3298 20.2528 17.3298Z" fill="#0C0C0C"/>
<path d="M17.9051 17.7419C18.0533 17.7419 18.1735 17.6217 18.1735 17.4735C18.1735 17.3252 18.0533 17.2051 17.9051 17.2051C17.7569 17.2051 17.6367 17.3252 17.6367 17.4735C17.6367 17.6217 17.7569 17.7419 17.9051 17.7419Z" fill="#0C0C0C"/>
<path d="M14.4718 20.3992C13.8231 20.5333 13.1538 19.9482 13.0197 19.2996C12.8856 18.6509 13.3374 18.1846 13.9859 18.0508L14.41 18.4163L15.0296 20.2838L14.4718 20.3992Z" fill="#E98862"/>
<path d="M27.9368 30.4724C28.097 31.9746 28.99 41.3654 29.2218 43.2088L12.8359 46.381C12.424 44.7577 10.6117 37.6618 9.63319 34.5211C8.69941 31.524 7.95187 30.2228 8.16009 29.1947C8.52739 27.3818 10.5859 26.2055 12.0389 25.7146C12.9262 25.4148 14.2795 25.0611 14.2795 25.0611C14.2795 25.0611 14.8496 27.3861 17.6423 26.981C21.4429 26.429 20.6775 23.8224 20.6962 23.8188C21.3063 23.7007 24.714 23.5015 25.649 23.8822C26.9702 24.4196 27.5184 25.3944 27.7174 26.349C27.9466 27.448 27.7553 28.7689 27.9368 30.4724Z" fill="#4ECEC2"/>
<path d="M14.9167 19.2298C14.9167 19.2298 14.5138 15.9721 15.4506 15.5846C16.0744 15.3267 17.8274 15.9429 19.2321 15.3824C19.8466 15.1372 20.4829 15.1778 20.6029 15.4673C20.6504 15.5819 20.7159 13.7899 19.4647 12.6819C18.4685 11.7996 15.8084 12.011 14.6896 12.5802C11.592 14.156 13.8801 18.2186 13.8801 18.2186L14.241 19.2988L14.9167 19.2298Z" fill="#0C0C0C"/>
<path d="M19.1984 19.4365L19.2026 19.4359C19.4117 19.3932 19.7577 19.2982 19.726 19.1418C19.6994 19.0122 19.0591 17.6854 18.9861 17.5346C18.9798 17.5216 18.9686 17.5117 18.955 17.5069C18.9414 17.5022 18.9265 17.5031 18.9135 17.5093C18.9005 17.5156 18.8906 17.5268 18.8858 17.5404C18.8811 17.554 18.882 17.5689 18.8882 17.5819C19.1723 18.1694 19.6014 19.075 19.6194 19.1635C19.6064 19.2047 19.3974 19.2851 19.181 19.3293C19.1668 19.3316 19.154 19.3395 19.1456 19.3512C19.1372 19.3629 19.1338 19.3774 19.1361 19.3916C19.1384 19.4059 19.1463 19.4186 19.158 19.427C19.1697 19.4354 19.1842 19.4388 19.1984 19.4365Z" fill="#0C0C0C"/>
<path d="M19.306 16.2757C19.3956 16.2008 19.4954 16.139 19.6024 16.0921C19.7082 16.0449 19.8208 16.0147 19.936 16.0028C19.9941 15.9973 20.0525 15.9966 20.1107 16.0007C20.1686 16.0069 20.2258 16.0183 20.2816 16.0348C20.3912 16.0677 20.4947 16.1184 20.5879 16.185C20.5963 16.1901 20.6037 16.1968 20.6095 16.2048C20.6154 16.2127 20.6196 16.2218 20.6219 16.2314C20.6243 16.241 20.6247 16.2509 20.6232 16.2607C20.6217 16.2704 20.6183 16.2798 20.6132 16.2882C20.6081 16.2967 20.6013 16.304 20.5934 16.3099C20.5854 16.3157 20.5764 16.3199 20.5668 16.3223C20.5572 16.3246 20.5472 16.3251 20.5375 16.3236C20.5277 16.3221 20.5183 16.3187 20.5099 16.3135L20.5031 16.3097C20.4216 16.2587 20.3323 16.2212 20.2387 16.199C20.1929 16.1884 20.1463 16.1818 20.0994 16.1795C20.0526 16.1792 20.0057 16.1827 19.9594 16.1899C19.8659 16.2053 19.7754 16.2356 19.6914 16.2794C19.6079 16.3223 19.5306 16.3763 19.4616 16.44L19.4569 16.4444C19.4462 16.4546 19.4335 16.4627 19.4196 16.468C19.4058 16.4734 19.391 16.476 19.3761 16.4756C19.3612 16.4752 19.3466 16.472 19.333 16.4659C19.3194 16.4599 19.3071 16.4513 19.2969 16.4405C19.2866 16.4297 19.2786 16.4171 19.2732 16.4032C19.2679 16.3893 19.2653 16.3745 19.2657 16.3597C19.266 16.3448 19.2693 16.3301 19.2753 16.3165C19.2814 16.303 19.29 16.2907 19.3008 16.2804C19.3024 16.2789 19.3043 16.2772 19.306 16.2757Z" fill="#0C0C0C"/>
<path d="M17.975 16.6504C17.8747 16.6284 17.7723 16.6179 17.6696 16.6191C17.565 16.6198 17.4609 16.6329 17.3594 16.6581C17.2581 16.6822 17.1609 16.7212 17.0711 16.7739C16.9807 16.8265 16.8981 16.8916 16.8256 16.9671L16.8207 16.9719C16.8068 16.9862 16.7878 16.9944 16.7678 16.9947C16.7478 16.995 16.7286 16.9874 16.7143 16.9735C16.6999 16.9595 16.6917 16.9405 16.6914 16.9206C16.6911 16.9006 16.6988 16.8813 16.7127 16.867C16.7908 16.7756 16.8815 16.6957 16.9819 16.6295C17.0826 16.5628 17.1925 16.5112 17.3083 16.4766C17.4231 16.4412 17.5418 16.4195 17.6617 16.4118C17.7836 16.4035 17.9061 16.4096 18.0265 16.4299C18.0561 16.4351 18.0824 16.4518 18.0997 16.4763C18.1169 16.5009 18.1237 16.5313 18.1186 16.5609C18.1134 16.5905 18.0967 16.6168 18.0722 16.6341C18.0476 16.6513 18.0172 16.6581 17.9876 16.653L17.9816 16.6518L17.975 16.6504Z" fill="#0C0C0C"/>
<path d="M18.564 14.0131C19.0258 13.8194 19.169 13.1113 18.8839 12.4316C18.5987 11.7519 17.9932 11.3579 17.5314 11.5516C17.0697 11.7453 16.9265 12.4534 17.2116 13.1331C17.4968 13.8128 18.1023 14.2068 18.564 14.0131Z" fill="#0C0C0C"/>
<path d="M39.6229 21.4333C39.5717 21.3937 39.5123 21.366 39.449 21.3521C39.3858 21.3383 39.3202 21.3386 39.2571 21.3532C39.194 21.3677 39.1349 21.3961 39.0841 21.4363C39.0333 21.4764 38.9921 21.5274 38.9633 21.5854L39.2148 21.077C39.268 20.9749 39.2804 20.8565 39.2496 20.7456C39.2187 20.6347 39.1469 20.5397 39.0486 20.4798C38.9968 20.4506 38.9397 20.4324 38.8807 20.426C38.8217 20.4197 38.762 20.4254 38.7052 20.4429C38.6485 20.4604 38.5959 20.4893 38.5507 20.5278C38.5055 20.5662 38.4686 20.6135 38.4423 20.6667L38.5561 20.4367C38.6035 20.345 38.6178 20.2397 38.5965 20.1386C38.5752 20.0376 38.5196 19.947 38.4392 19.8823C38.3879 19.8427 38.3285 19.815 38.2653 19.8011C38.202 19.7873 38.1365 19.7877 38.0734 19.8022C38.0103 19.8168 37.9512 19.8451 37.9004 19.8853C37.8496 19.9254 37.8083 19.9763 37.7795 20.0344L37.5804 20.4373C37.6318 20.3334 37.6399 20.2133 37.6027 20.1035C37.5656 19.9937 37.4864 19.9031 37.3825 19.8517C37.1607 19.7231 36.9059 19.9092 36.8048 20.1136L35.8637 21.935L35.8909 21.3452C35.8986 21.2305 35.8624 21.1171 35.7897 21.0279C35.717 20.9388 35.6131 20.8806 35.4992 20.8652C35.4401 20.8592 35.3804 20.8654 35.3237 20.8832C35.2671 20.9011 35.2147 20.9304 35.1697 20.9692C35.1247 21.008 35.0881 21.0555 35.0622 21.1089C35.0362 21.1623 35.0213 21.2205 35.0186 21.2798L34.8027 25.9108L36.211 26.0166C36.6482 26.0495 37.0854 25.951 37.4664 25.7339C37.8473 25.5167 38.1548 25.1907 38.3493 24.7977L39.7397 21.9877C39.7872 21.896 39.8014 21.7907 39.7802 21.6897C39.7589 21.5886 39.7033 21.4981 39.6229 21.4333Z" fill="#E98862"/>
<path d="M36.6906 22.1528C36.7002 22.1574 36.7111 22.158 36.7211 22.1547C36.7311 22.1513 36.7394 22.1441 36.7442 22.1347L37.6369 20.4014C37.6395 20.3966 37.6411 20.3915 37.6416 20.3861C37.6421 20.3808 37.6416 20.3754 37.64 20.3702C37.6384 20.3651 37.6358 20.3603 37.6323 20.3562C37.6289 20.3521 37.6247 20.3487 37.6199 20.3463C37.6151 20.3438 37.6099 20.3423 37.6045 20.3419C37.5992 20.3415 37.5938 20.3422 37.5887 20.3439C37.5836 20.3455 37.5789 20.3482 37.5748 20.3518C37.5708 20.3553 37.5675 20.3596 37.5652 20.3645L36.6725 22.0985C36.67 22.1032 36.6686 22.1084 36.6681 22.1136C36.6677 22.1189 36.6683 22.1242 36.6699 22.1293C36.6715 22.1343 36.6741 22.139 36.6775 22.143C36.6809 22.1471 36.6851 22.1504 36.6898 22.1528H36.6906Z" fill="#E98862"/>
<path d="M37.4444 22.5674C37.4539 22.572 37.4648 22.5726 37.4748 22.5693C37.4848 22.5659 37.4931 22.5587 37.4979 22.5493L38.4942 20.6149C38.4991 20.6054 38.5 20.5943 38.4967 20.5842C38.4935 20.574 38.4863 20.5655 38.4768 20.5606C38.4672 20.5561 38.4563 20.5554 38.4462 20.5586C38.4362 20.5619 38.4277 20.5688 38.4225 20.5781L37.4263 22.5127C37.4214 22.5222 37.4205 22.5333 37.4238 22.5434C37.4271 22.5536 37.4343 22.5621 37.4438 22.567L37.4444 22.5674Z" fill="#E98862"/>
<path d="M38.2571 23.0211C38.2667 23.0257 38.2776 23.0263 38.2876 23.0229C38.2976 23.0196 38.3058 23.0124 38.3106 23.003L39.1053 21.46C39.1079 21.4552 39.1095 21.4501 39.11 21.4447C39.1105 21.4394 39.11 21.434 39.1084 21.4288C39.1068 21.4237 39.1042 21.4189 39.1008 21.4148C39.0973 21.4107 39.0931 21.4073 39.0883 21.4049C39.0835 21.4024 39.0783 21.4009 39.0729 21.4005C39.0676 21.4001 39.0622 21.4008 39.0571 21.4024C39.052 21.4041 39.0473 21.4068 39.0433 21.4104C39.0392 21.4139 39.0359 21.4182 39.0336 21.423L38.2389 22.9668C38.2364 22.9715 38.235 22.9767 38.2345 22.9819C38.2341 22.9872 38.2347 22.9925 38.2363 22.9976C38.2379 23.0026 38.2405 23.0073 38.2439 23.0113C38.2473 23.0154 38.2515 23.0187 38.2562 23.0211H38.2571Z" fill="#E98862"/>
<g opacity="0.1">
<path d="M36.6906 22.1528C36.7002 22.1574 36.7111 22.158 36.7211 22.1547C36.7311 22.1513 36.7394 22.1441 36.7442 22.1347L37.6369 20.4014C37.6395 20.3966 37.6411 20.3915 37.6416 20.3861C37.6421 20.3808 37.6416 20.3754 37.64 20.3702C37.6384 20.3651 37.6358 20.3603 37.6323 20.3562C37.6289 20.3521 37.6247 20.3487 37.6199 20.3463C37.6151 20.3438 37.6099 20.3423 37.6045 20.3419C37.5992 20.3415 37.5938 20.3422 37.5887 20.3439C37.5836 20.3455 37.5789 20.3482 37.5748 20.3518C37.5708 20.3553 37.5675 20.3596 37.5652 20.3645L36.6725 22.0985C36.67 22.1032 36.6686 22.1084 36.6681 22.1136C36.6677 22.1189 36.6683 22.1242 36.6699 22.1293C36.6715 22.1343 36.6741 22.139 36.6775 22.143C36.6809 22.1471 36.6851 22.1504 36.6898 22.1528H36.6906Z" fill="#0C0C0C"/>
</g>
<g opacity="0.1">
<path d="M37.4444 22.5674C37.4539 22.572 37.4648 22.5726 37.4748 22.5693C37.4848 22.5659 37.4931 22.5587 37.4979 22.5493L38.4942 20.6149C38.4991 20.6054 38.5 20.5943 38.4967 20.5842C38.4935 20.574 38.4863 20.5655 38.4768 20.5606C38.4672 20.5561 38.4563 20.5554 38.4462 20.5586C38.4362 20.5619 38.4277 20.5688 38.4225 20.5781L37.4263 22.5127C37.4214 22.5222 37.4205 22.5333 37.4238 22.5434C37.4271 22.5536 37.4343 22.5621 37.4438 22.567L37.4444 22.5674Z" fill="#0C0C0C"/>
</g>
<g opacity="0.1">
<path d="M38.2571 23.0211C38.2667 23.0257 38.2776 23.0263 38.2876 23.0229C38.2976 23.0196 38.3058 23.0124 38.3106 23.003L39.1053 21.46C39.1079 21.4552 39.1095 21.4501 39.11 21.4447C39.1105 21.4394 39.11 21.434 39.1084 21.4288C39.1068 21.4237 39.1042 21.4189 39.1008 21.4148C39.0973 21.4107 39.0931 21.4073 39.0883 21.4049C39.0835 21.4024 39.0783 21.4009 39.0729 21.4005C39.0676 21.4001 39.0622 21.4008 39.0571 21.4024C39.052 21.4041 39.0473 21.4068 39.0433 21.4104C39.0392 21.4139 39.0359 21.4182 39.0336 21.423L38.2389 22.9668C38.2364 22.9715 38.235 22.9767 38.2345 22.9819C38.2341 22.9872 38.2347 22.9925 38.2363 22.9976C38.2379 23.0026 38.2405 23.0073 38.2439 23.0113C38.2473 23.0154 38.2515 23.0187 38.2562 23.0211H38.2571Z" fill="#0C0C0C"/>
</g>
<path d="M34.0702 23.6758L32.1649 30.8961L27.0846 24.9242L22.3633 28.7088L31.2519 39.1571L31.2945 39.2104C31.6484 39.651 32.1198 39.9824 32.6542 40.1663C33.1885 40.3503 33.7641 40.3792 34.3142 40.2498C34.8643 40.1204 35.3666 39.8379 35.7629 39.435C36.1593 39.0322 36.4335 38.5253 36.5539 37.9732L39.3913 24.9572L34.0702 23.6758Z" fill="#4ECEC2"/>
<path d="M28.4525 37.4318C28.4501 37.4323 28.4477 37.4325 28.4453 37.4325C28.44 37.4326 28.4348 37.4316 28.4299 37.4296C28.4249 37.4277 28.4204 37.4248 28.4166 37.4211C28.4128 37.4174 28.4098 37.413 28.4077 37.4081C28.4056 37.4032 28.4045 37.398 28.4044 37.3927L28.3359 32.4784C28.3358 32.4677 28.3399 32.4574 28.3474 32.4497C28.3548 32.442 28.3651 32.4376 28.3758 32.4375C28.3865 32.4374 28.3968 32.4415 28.4045 32.4489C28.4121 32.4564 28.4165 32.4666 28.4167 32.4773L28.4851 37.3916C28.4852 37.4011 28.482 37.4103 28.4761 37.4176C28.4701 37.4249 28.4618 37.43 28.4525 37.4318Z" fill="#0C0C0C"/>
<path d="M29.0672 28.9412L24.8691 29.7539L25.8659 34.9023L30.0639 34.0896L29.0672 28.9412Z" fill="#FFFAFA"/>
<path d="M25.6865 33.9734C25.3613 34.0363 25.0247 34.0014 24.7193 33.8731C24.4139 33.7448 24.1535 33.5288 23.9709 33.2524C23.7883 32.9761 23.6917 32.6518 23.6934 32.3205C23.6951 31.9893 23.795 31.666 23.9804 31.3915C24.1658 31.1171 24.4285 30.9037 24.7352 30.7785C25.0418 30.6533 25.3787 30.6219 25.7033 30.6882C26.0278 30.7544 26.3254 30.9155 26.5584 31.1509C26.7915 31.3863 26.9495 31.6855 27.0124 32.0107C27.0963 32.4468 27.0038 32.8983 26.7553 33.2662C26.5067 33.6342 26.1223 33.8885 25.6865 33.9734ZM25.1571 31.2392C24.9416 31.2809 24.7432 31.3856 24.5872 31.5401C24.4312 31.6945 24.3244 31.8918 24.2805 32.1069C24.2366 32.322 24.2574 32.5453 24.3404 32.7486C24.4233 32.9518 24.5647 33.1259 24.7466 33.2488C24.9286 33.3717 25.1428 33.4379 25.3624 33.4391C25.5819 33.4402 25.7969 33.3762 25.9801 33.2551C26.1632 33.1341 26.3064 32.9615 26.3914 32.7591C26.4765 32.5567 26.4996 32.3336 26.4579 32.1181C26.4016 31.8291 26.233 31.5743 25.989 31.4095C25.7451 31.2447 25.4457 31.1835 25.1566 31.2392H25.1571Z" fill="#FFFAFA"/>
<path d="M27.5382 27.9535C27.5207 27.9569 27.5025 27.9543 27.4865 27.9462C27.4706 27.9382 27.4578 27.925 27.4501 27.9089C27.4424 27.8927 27.4403 27.8745 27.4441 27.857C27.448 27.8395 27.4575 27.8238 27.4712 27.8123C27.8135 27.5269 27.7446 26.9337 27.4802 26.5253C27.3542 26.3414 27.2145 26.1673 27.0623 26.0043C26.8628 25.7963 26.6885 25.5655 26.5432 25.3166C26.3855 25.0111 26.3131 24.6688 26.3334 24.3257C26.3538 23.9826 26.4662 23.6512 26.6589 23.3666C26.6712 23.349 26.6899 23.3371 26.7109 23.3333C26.732 23.3295 26.7537 23.3343 26.7712 23.3465C26.7888 23.3587 26.8008 23.3774 26.8045 23.3985C26.8083 23.4196 26.8036 23.4412 26.7913 23.4588C26.6152 23.7189 26.5125 24.0217 26.4939 24.3352C26.4753 24.6488 26.5415 24.9615 26.6855 25.2407C26.8249 25.4784 26.9919 25.6988 27.1832 25.8972C27.3409 26.0662 27.4855 26.2468 27.6159 26.4376C27.9145 26.8991 28.0013 27.5806 27.5747 27.9363C27.5642 27.945 27.5516 27.9509 27.5382 27.9535Z" fill="#FFFAFA"/>
<path d="M25.6174 26.6951C25.6029 26.6979 25.5878 26.6966 25.5739 26.6915C25.5599 26.6863 25.5477 26.6773 25.5385 26.6657C25.2247 26.2654 24.8342 25.7675 24.7543 25.1843C24.6909 24.7207 24.8276 24.2696 24.96 23.8332C25.0495 23.5654 25.1167 23.2907 25.1609 23.0119C25.1641 22.9911 25.1753 22.9723 25.1921 22.9596C25.209 22.9469 25.2301 22.9413 25.251 22.944C25.2719 22.9467 25.2909 22.9575 25.304 22.974C25.3171 22.9905 25.3232 23.0115 25.321 23.0325C25.2757 23.3202 25.2066 23.6037 25.1144 23.88C24.9812 24.3191 24.8554 24.7338 24.9141 25.1624C24.9881 25.7022 25.348 26.1612 25.6652 26.5661C25.6718 26.5745 25.6766 26.584 25.6794 26.5942C25.6823 26.6044 25.6831 26.6151 25.6818 26.6256C25.6806 26.6361 25.6772 26.6462 25.672 26.6555C25.6669 26.6647 25.6599 26.6728 25.6516 26.6793C25.6416 26.6872 25.6299 26.6926 25.6174 26.6951Z" fill="#FFFAFA"/>
<path d="M25.5995 33.7725C25.574 33.7143 25.5359 33.6624 25.4879 33.6207C25.4399 33.5789 25.3833 33.5484 25.3221 33.5312C25.2609 33.514 25.1966 33.5106 25.1339 33.5213C25.0712 33.5319 25.0117 33.5564 24.9596 33.5928L25.4157 33.2733C25.5096 33.2104 25.576 33.1142 25.6016 33.0042C25.6272 32.8942 25.6101 32.7785 25.5537 32.6807C25.5229 32.6312 25.4823 32.5885 25.4344 32.5552C25.3865 32.5219 25.3323 32.4987 25.2752 32.4871C25.2181 32.4754 25.1591 32.4755 25.102 32.4874C25.0449 32.4992 24.9909 32.5226 24.9431 32.5561L25.1495 32.4113C25.2336 32.3546 25.2955 32.2706 25.3247 32.1735C25.354 32.0764 25.3488 31.9722 25.31 31.8785C25.2845 31.8202 25.2464 31.7684 25.1984 31.7266C25.1504 31.6849 25.0938 31.6543 25.0325 31.6372C24.9713 31.62 24.907 31.6166 24.8443 31.6272C24.7816 31.6379 24.7221 31.6623 24.67 31.6988L24.308 31.9521C24.4013 31.8868 24.4648 31.7871 24.4846 31.675C24.5043 31.5628 24.4787 31.4474 24.4134 31.3542C24.283 31.139 23.9757 31.1793 23.7924 31.3077L23.0492 31.7896L23.2448 31.4957C23.3055 31.4004 23.3277 31.2857 23.3071 31.1746C23.2864 31.0636 23.2244 30.9645 23.1334 30.8975C23.0853 30.8645 23.031 30.8417 22.9738 30.8304C22.9165 30.8191 22.8576 30.8196 22.8006 30.8318C22.7436 30.8441 22.6896 30.8678 22.6421 30.9016C22.5945 30.9354 22.5543 30.9785 22.524 31.0283L20.2617 34.7153L21.4252 35.47C21.7865 35.7043 22.2096 35.8254 22.6403 35.8178C23.0709 35.8102 23.4894 35.6742 23.8423 35.4272L25.4383 34.3051C25.5225 34.2485 25.5845 34.1646 25.6139 34.0675C25.6432 33.9705 25.6382 33.8663 25.5995 33.7725Z" fill="#E98862"/>
<path d="M23.8567 32.2747C23.8475 32.2765 23.8379 32.2751 23.8296 32.2706C23.8214 32.2661 23.8149 32.2589 23.8115 32.2501C23.808 32.2414 23.8077 32.2317 23.8106 32.2227C23.8135 32.2138 23.8194 32.2061 23.8274 32.2011L24.3313 31.881C24.3404 31.8754 24.3512 31.8736 24.3616 31.876C24.3719 31.8784 24.3809 31.8848 24.3865 31.8937C24.3922 31.9027 24.3942 31.9135 24.3919 31.9239C24.3897 31.9342 24.3835 31.9433 24.3746 31.9491L23.8707 32.2692C23.8664 32.2719 23.8617 32.2738 23.8567 32.2747Z" fill="#E98862"/>
<path d="M24.3097 32.9874C24.3005 32.9892 24.291 32.9877 24.2828 32.9832C24.2745 32.9787 24.2681 32.9715 24.2646 32.9628C24.2611 32.9542 24.2608 32.9445 24.2636 32.9356C24.2664 32.9267 24.2722 32.919 24.2801 32.9139L24.9678 32.4693C24.9768 32.4635 24.9877 32.4615 24.9982 32.4638C25.0086 32.466 25.0177 32.4723 25.0235 32.4813C25.0293 32.4903 25.0313 32.5012 25.0291 32.5117C25.0268 32.5221 25.0205 32.5312 25.0115 32.537L24.3238 32.9817C24.3195 32.9844 24.3147 32.9864 24.3097 32.9874Z" fill="#E98862"/>
<path d="M24.7979 33.7616C24.7886 33.7633 24.779 33.7618 24.7708 33.7572C24.7625 33.7526 24.7561 33.7453 24.7527 33.7365C24.7493 33.7277 24.7491 33.718 24.7521 33.709C24.7551 33.7001 24.7612 33.6925 24.7692 33.6875L25.099 33.4852C25.1036 33.4822 25.1086 33.4802 25.114 33.4792C25.1193 33.4782 25.1248 33.4783 25.13 33.4795C25.1353 33.4806 25.1403 33.4829 25.1447 33.486C25.1491 33.4892 25.1529 33.4932 25.1557 33.4978C25.1585 33.5024 25.1604 33.5075 25.1612 33.5129C25.162 33.5182 25.1617 33.5237 25.1604 33.5289C25.159 33.5342 25.1566 33.5391 25.1533 33.5434C25.15 33.5477 25.1459 33.5513 25.1412 33.554L24.8114 33.7563C24.8072 33.7589 24.8027 33.7606 24.7979 33.7616Z" fill="#E98862"/>
<path opacity="0.17" d="M23.8567 32.2747C23.8475 32.2765 23.8379 32.2751 23.8296 32.2706C23.8214 32.2661 23.8149 32.2589 23.8115 32.2501C23.808 32.2414 23.8077 32.2317 23.8106 32.2227C23.8135 32.2138 23.8194 32.2061 23.8274 32.2011L24.3313 31.881C24.3404 31.8754 24.3512 31.8736 24.3616 31.876C24.3719 31.8784 24.3809 31.8848 24.3865 31.8937C24.3922 31.9027 24.3942 31.9135 24.3919 31.9239C24.3897 31.9342 24.3835 31.9433 24.3746 31.9491L23.8707 32.2692C23.8664 32.2719 23.8617 32.2738 23.8567 32.2747Z" fill="#0C0C0C"/>
<path opacity="0.17" d="M24.3097 32.9874C24.3005 32.9892 24.291 32.9877 24.2828 32.9832C24.2745 32.9787 24.2681 32.9715 24.2646 32.9628C24.2611 32.9542 24.2608 32.9445 24.2636 32.9356C24.2664 32.9267 24.2722 32.919 24.2801 32.9139L24.9678 32.4693C24.9768 32.4635 24.9877 32.4615 24.9982 32.4638C25.0086 32.466 25.0177 32.4723 25.0235 32.4813C25.0293 32.4903 25.0313 32.5012 25.0291 32.5117C25.0268 32.5221 25.0205 32.5312 25.0115 32.537L24.3238 32.9817C24.3195 32.9844 24.3147 32.9864 24.3097 32.9874Z" fill="#0C0C0C"/>
<path opacity="0.17" d="M24.7979 33.7616C24.7886 33.7633 24.779 33.7618 24.7708 33.7572C24.7625 33.7526 24.7561 33.7453 24.7527 33.7365C24.7493 33.7277 24.7491 33.718 24.7521 33.709C24.7551 33.7001 24.7612 33.6925 24.7692 33.6875L25.099 33.4852C25.1036 33.4822 25.1086 33.4802 25.114 33.4792C25.1193 33.4782 25.1248 33.4783 25.13 33.4795C25.1353 33.4806 25.1403 33.4829 25.1447 33.486C25.1491 33.4892 25.1529 33.4932 25.1557 33.4978C25.1585 33.5024 25.1604 33.5075 25.1612 33.5129C25.162 33.5182 25.1617 33.5237 25.1604 33.5289C25.159 33.5342 25.1566 33.5391 25.1533 33.5434C25.15 33.5477 25.1459 33.5513 25.1412 33.554L24.8114 33.7563C24.8072 33.7589 24.8027 33.7606 24.7979 33.7616Z" fill="#0C0C0C"/>
<path d="M9.49557 46.2505C9.0164 46.3433 8.52187 46.3189 8.0542 46.1792C7.58653 46.0395 7.15959 45.7888 6.80983 45.4483C6.46006 45.1079 6.19785 44.6879 6.04556 44.2242C5.89328 43.7605 5.85544 43.2668 5.93529 42.7853L8.09802 29.7441C8.23282 28.9558 8.67428 28.2528 9.32589 27.7891C9.97751 27.3253 10.7862 27.1384 11.5753 27.2693C12.3643 27.4002 13.0694 27.8381 13.5364 28.4874C14.0034 29.1367 14.1943 29.9445 14.0673 30.7342L13.033 36.9705L20.9916 31.8459L24.1688 36.8363L10.5771 45.8114C10.2486 46.0267 9.8812 46.1758 9.49557 46.2505Z" fill="#4ECEC2"/>
<path d="M12.2823 44.7302C12.2732 44.732 12.2637 44.7305 12.2555 44.7261C12.2473 44.7216 12.2409 44.7145 12.2374 44.7058C12.2338 44.6972 12.2334 44.6876 12.2362 44.6787C12.2389 44.6698 12.2447 44.6621 12.2525 44.6569L24.1135 36.8237L20.944 31.923L12.9387 36.9372C12.9321 36.9413 12.9244 36.9435 12.9166 36.9434C12.9088 36.9432 12.9011 36.9408 12.8946 36.9364C12.8882 36.932 12.8831 36.9258 12.8801 36.9186C12.8771 36.9114 12.8762 36.9034 12.8777 36.8957L13.5505 33.2031C13.5527 33.1929 13.5588 33.184 13.5675 33.1782C13.5762 33.1724 13.5868 33.1702 13.5971 33.172C13.6074 33.1739 13.6166 33.1797 13.6227 33.1882C13.6288 33.1967 13.6314 33.2073 13.6298 33.2176L12.9734 36.8202L20.9349 31.8342C20.9439 31.8286 20.9547 31.8268 20.965 31.8291C20.9754 31.8314 20.9844 31.8376 20.9902 31.8465L24.2026 36.8145C24.2084 36.8234 24.2104 36.8342 24.2082 36.8446C24.2061 36.855 24.1999 36.8641 24.191 36.87L12.2969 44.7245C12.2925 44.7274 12.2875 44.7293 12.2823 44.7302Z" fill="#0C0C0C"/>
<path d="M31.7101 33.9693C31.7055 33.9701 31.7009 33.9701 31.6963 33.9693C31.6858 33.9677 31.6763 33.9619 31.6699 33.9533C31.6636 33.9446 31.661 33.9338 31.6626 33.9233L32.1756 30.5932C32.1776 30.583 32.1834 30.5739 32.192 30.5679C32.2005 30.5619 32.211 30.5594 32.2213 30.561C32.2316 30.5626 32.2409 30.5681 32.2472 30.5764C32.2536 30.5846 32.2565 30.5951 32.2553 30.6054L31.7423 33.9355C31.7411 33.9438 31.7374 33.9515 31.7316 33.9575C31.7258 33.9636 31.7183 33.9677 31.7101 33.9693Z" fill="#0C0C0C"/>
<path d="M35.1678 21.9845L35.1975 21.1776C35.2052 21.0628 35.169 20.9494 35.0963 20.8603C35.0236 20.7712 34.9197 20.713 34.8057 20.6975C34.7466 20.6916 34.687 20.6977 34.6303 20.7156C34.5737 20.7335 34.5213 20.7627 34.4763 20.8015C34.4313 20.8403 34.3947 20.8878 34.3687 20.9413C34.3428 20.9947 34.3279 21.0528 34.3251 21.1121L34.248 22.7681" fill="#E98862"/>
<path d="M38.1106 22.9983L35.9395 21.1433L37.1271 12.6602L39.5831 14.6807L38.1106 22.9983Z" fill="#2E636E"/>
<path d="M36.9504 14.5429L37.239 12.9102C37.239 12.9102 37.5593 14.1551 39.2464 14.8115L39.186 16.1473L36.873 15.3017L36.9504 14.5429Z" fill="#2E636E"/>
<path opacity="0.49" d="M36.9504 14.5429L37.239 12.9102C37.239 12.9102 37.5593 14.1551 39.2464 14.8115L39.186 16.1473L36.873 15.3017L36.9504 14.5429Z" fill="white"/>
<path d="M38.8528 14.9645C38.8528 14.9645 35.918 13.7346 33.5742 14.2214L38.6605 15.3345L38.8528 14.9645Z" fill="#2E636E"/>
<path opacity="0.81" d="M38.8528 14.9645C38.8528 14.9645 35.918 13.7346 33.5742 14.2214L38.6605 15.3345L38.8528 14.9645Z" fill="white"/>
<path d="M39.5819 14.6816L38.7145 15.0184L37.3027 23.2496L38.1095 22.9992L39.5819 14.6816Z" fill="#2E636E"/>
<path opacity="0.25" d="M39.5819 14.6816L38.7145 15.0184L37.3027 23.2496L38.1095 22.9992L39.5819 14.6816Z" fill="white"/>
<path d="M33.29 14.0215L38.7152 15.0165L37.3035 23.2478L31.9922 22.3319L33.29 14.0215Z" fill="#2E636E"/>
</g>
<defs>
<clipPath id="clip0_431_5482">
<rect width="102" height="75.009" fill="white"/>
</clipPath>
</defs>
</svg>
