<svg width="87" height="98" viewBox="0 0 87 98" fill="none" xmlns="http://www.w3.org/2000/svg">
<g clip-path="url(#clip0_646_10169)">
<path d="M7.06439 97.9223L6.83594 97.8783L10.4066 62.3965L10.635 62.4405L7.06439 97.9223Z" fill="#494949"/>
<path d="M20.3593 97.9223L20.1309 97.8783L23.7014 62.3965L23.9298 62.4405L20.3593 97.9223Z" fill="#494949"/>
<path d="M49.7484 97.9223L49.9768 97.8783L46.4062 62.3965L46.1777 62.4405L49.7484 97.9223Z" fill="#494949"/>
<path d="M36.4533 97.9223L36.6818 97.8783L33.1113 62.3965L32.8828 62.4405L36.4533 97.9223Z" fill="#494949"/>
<path d="M31.7189 46.7798L31.4883 46.8105L33.5742 62.4331L33.8048 62.4023L31.7189 46.7798Z" fill="#494949"/>
<path d="M7.77552 46.7798L7.54492 46.8105L9.6308 62.4331L9.8614 62.4023L7.77552 46.7798Z" fill="#494949"/>
<path d="M33.7827 61.2754H10.3647C9.7329 61.2754 9.2207 61.7876 9.2207 62.4194V62.4195C9.2207 63.0514 9.7329 63.5636 10.3647 63.5636H33.7827C34.4145 63.5636 34.9267 63.0514 34.9267 62.4195V62.4194C34.9267 61.7876 34.4145 61.2754 33.7827 61.2754Z" fill="#292A2E"/>
<path opacity="0.8" d="M33.7827 61.2754H10.3647C9.7329 61.2754 9.2207 61.7876 9.2207 62.4194V62.4195C9.2207 63.0514 9.7329 63.5636 10.3647 63.5636H33.7827C34.4145 63.5636 34.9267 63.0514 34.9267 62.4195V62.4194C34.9267 61.7876 34.4145 61.2754 33.7827 61.2754Z" fill="white"/>
<path d="M33.7836 63.6789H10.3658C10.2003 63.6789 10.0364 63.6463 9.8835 63.583C9.73059 63.5196 9.59165 63.4268 9.47462 63.3098C9.35758 63.1927 9.26475 63.0538 9.20141 62.9009C9.13807 62.748 9.10547 62.5841 9.10547 62.4186C9.10547 62.253 9.13807 62.0892 9.20141 61.9362C9.26475 61.7833 9.35758 61.6444 9.47462 61.5274C9.59165 61.4103 9.73059 61.3175 9.8835 61.2541C10.0364 61.1908 10.2003 61.1582 10.3658 61.1582H33.7836C33.9492 61.1582 34.113 61.1908 34.266 61.2541C34.4189 61.3175 34.5578 61.4103 34.6748 61.5274C34.7919 61.6444 34.8847 61.7833 34.9481 61.9362C35.0114 62.0892 35.044 62.253 35.044 62.4186C35.044 62.5841 35.0114 62.748 34.9481 62.9009C34.8847 63.0538 34.7919 63.1927 34.6748 63.3098C34.5578 63.4268 34.4189 63.5196 34.266 63.583C34.113 63.6463 33.9492 63.6789 33.7836 63.6789ZM10.3658 61.3908C10.2309 61.3908 10.0972 61.4174 9.97253 61.4691C9.84785 61.5207 9.73455 61.5964 9.63912 61.6919C9.54369 61.7873 9.46799 61.9006 9.41634 62.0253C9.36469 62.15 9.33811 62.2836 9.33811 62.4186C9.33811 62.5535 9.36469 62.6872 9.41634 62.8118C9.46799 62.9365 9.54369 63.0498 9.63912 63.1452C9.73455 63.2407 9.84785 63.3164 9.97253 63.368C10.0972 63.4197 10.2309 63.4463 10.3658 63.4463H33.7836C33.9186 63.4463 34.0522 63.4197 34.1769 63.368C34.3016 63.3164 34.4149 63.2407 34.5103 63.1452C34.6058 63.0498 34.6815 62.9365 34.7331 62.8118C34.7848 62.6872 34.8113 62.5535 34.8113 62.4186C34.8113 62.2836 34.7848 62.15 34.7331 62.0253C34.6815 61.9006 34.6058 61.7873 34.5103 61.6919C34.4149 61.5964 34.3016 61.5207 34.1769 61.4691C34.0522 61.4174 33.9186 61.3908 33.7836 61.3908H10.3658Z" fill="#292A2E"/>
<path d="M46.6381 61.2754H23.2202C22.5884 61.2754 22.0762 61.7876 22.0762 62.4194V62.4195C22.0762 63.0514 22.5884 63.5636 23.2202 63.5636H46.6381C47.27 63.5636 47.7822 63.0514 47.7822 62.4195V62.4194C47.7822 61.7876 47.27 61.2754 46.6381 61.2754Z" fill="white"/>
<path d="M46.6373 63.6789H23.2193C23.0538 63.6789 22.8899 63.6463 22.737 63.583C22.5841 63.5196 22.4452 63.4268 22.3281 63.3098C22.2111 63.1927 22.1183 63.0538 22.0549 62.9009C21.9916 62.748 21.959 62.5841 21.959 62.4186C21.959 62.253 21.9916 62.0892 22.0549 61.9362C22.1183 61.7833 22.2111 61.6444 22.3281 61.5274C22.4452 61.4103 22.5841 61.3175 22.737 61.2541C22.8899 61.1908 23.0538 61.1582 23.2193 61.1582H46.6373C46.8028 61.1582 46.9667 61.1908 47.1196 61.2541C47.2725 61.3175 47.4114 61.4103 47.5285 61.5274C47.6455 61.6444 47.7383 61.7833 47.8017 61.9362C47.865 62.0892 47.8976 62.253 47.8976 62.4186C47.8976 62.5841 47.865 62.748 47.8017 62.9009C47.7383 63.0538 47.6455 63.1927 47.5285 63.3098C47.4114 63.4268 47.2725 63.5196 47.1196 63.583C46.9667 63.6463 46.8028 63.6789 46.6373 63.6789ZM23.2193 61.3908C23.0844 61.3908 22.9507 61.4174 22.826 61.4691C22.7014 61.5207 22.5881 61.5964 22.4926 61.6919C22.3972 61.7873 22.3215 61.9006 22.2699 62.0253C22.2182 62.15 22.1916 62.2836 22.1916 62.4186C22.1916 62.5535 22.2182 62.6872 22.2699 62.8118C22.3215 62.9365 22.3972 63.0498 22.4926 63.1452C22.5881 63.2407 22.7014 63.3164 22.826 63.368C22.9507 63.4197 23.0844 63.4463 23.2193 63.4463H46.6373C46.7722 63.4463 46.9059 63.4197 47.0306 63.368C47.1552 63.3164 47.2685 63.2407 47.364 63.1452C47.4594 63.0498 47.5351 62.9365 47.5868 62.8118C47.6384 62.6872 47.665 62.5535 47.665 62.4186C47.665 62.2836 47.6384 62.15 47.5868 62.0253C47.5351 61.9006 47.4594 61.7873 47.364 61.6919C47.2685 61.5964 47.1552 61.5207 47.0306 61.4691C46.9059 61.4174 46.7722 61.3908 46.6373 61.3908H23.2193Z" fill="#292A2E"/>
<path d="M30.4362 46.796H7.72471C7.35338 46.7959 6.99474 46.6608 6.71573 46.4158C6.43673 46.1707 6.25642 45.8325 6.20845 45.4643L4.70615 33.9276C4.67808 33.712 4.69633 33.4928 4.7597 33.2847C4.82306 33.0767 4.93008 32.8845 5.07361 32.7211C5.21714 32.5577 5.39388 32.4268 5.59202 32.3372C5.79017 32.2475 6.00516 32.2011 6.22264 32.2012H28.9339C29.3053 32.2012 29.6639 32.3363 29.9429 32.5813C30.2219 32.8263 30.4022 33.1645 30.4502 33.5327L31.9524 45.0695C31.9805 45.2852 31.9622 45.5043 31.8989 45.7124C31.8356 45.9204 31.7286 46.1125 31.5851 46.2759C31.4416 46.4393 31.2649 46.5702 31.0668 46.6599C30.8687 46.7496 30.6537 46.796 30.4362 46.796Z" fill="#292A2E"/>
<path opacity="0.8" d="M30.4362 46.796H7.72471C7.35338 46.7959 6.99474 46.6608 6.71573 46.4158C6.43673 46.1707 6.25642 45.8325 6.20845 45.4643L4.70615 33.9276C4.67808 33.712 4.69633 33.4928 4.7597 33.2847C4.82306 33.0767 4.93008 32.8845 5.07361 32.7211C5.21714 32.5577 5.39388 32.4268 5.59202 32.3372C5.79017 32.2475 6.00516 32.2011 6.22264 32.2012H28.9339C29.3053 32.2012 29.6639 32.3363 29.9429 32.5813C30.2219 32.8263 30.4022 33.1645 30.4502 33.5327L31.9524 45.0695C31.9805 45.2852 31.9622 45.5043 31.8989 45.7124C31.8356 45.9204 31.7286 46.1125 31.5851 46.2759C31.4416 46.4393 31.2649 46.5702 31.0668 46.6599C30.8687 46.7496 30.6537 46.796 30.4362 46.796Z" fill="white"/>
<path d="M30.4353 46.9115H7.7238C7.32446 46.9106 6.939 46.7649 6.63895 46.5014C6.33889 46.2379 6.14461 45.8745 6.09215 45.4786L4.58997 33.9419C4.55972 33.7098 4.57934 33.4739 4.6475 33.25C4.71567 33.0262 4.83082 32.8194 4.98526 32.6435C5.13971 32.4677 5.32989 32.3268 5.54311 32.2303C5.75634 32.1338 5.98769 32.0839 6.22174 32.084H28.933C29.3324 32.0849 29.7178 32.2306 30.0179 32.4941C30.3179 32.7576 30.5121 33.1211 30.5646 33.517L32.0669 45.0538C32.0971 45.2858 32.0775 45.5216 32.0093 45.7455C31.9411 45.9694 31.826 46.1761 31.6716 46.352C31.5172 46.5278 31.327 46.6686 31.1138 46.7651C30.9006 46.8616 30.6693 46.9116 30.4353 46.9115ZM6.22174 32.3166C6.02081 32.3166 5.82221 32.3595 5.63917 32.4424C5.45613 32.5252 5.29287 32.6462 5.16028 32.7971C5.0277 32.9481 4.92885 33.1256 4.87032 33.3178C4.81179 33.51 4.79493 33.7125 4.82087 33.9118L6.32317 45.4486C6.36817 45.7885 6.53496 46.1005 6.79258 46.3268C7.0502 46.553 7.38116 46.6782 7.72403 46.6789H30.4353C30.6362 46.6788 30.8348 46.636 31.0178 46.5531C31.2008 46.4702 31.364 46.3492 31.4965 46.1983C31.6291 46.0473 31.7279 45.8698 31.7864 45.6776C31.8449 45.4854 31.8618 45.283 31.8358 45.0838L30.3339 33.5471C30.2889 33.2072 30.1221 32.8952 29.8644 32.6689C29.6068 32.4426 29.2759 32.3175 28.933 32.3167L6.22174 32.3166Z" fill="#292A2E"/>
<path d="M31.7198 46.796H9.00826C8.63694 46.7959 8.27832 46.6608 7.99933 46.4158C7.72035 46.1707 7.54006 45.8325 7.49212 45.4643L5.98936 33.9276C5.96128 33.712 5.97953 33.4928 6.04288 33.2848C6.10624 33.0767 6.21323 32.8846 6.35674 32.7212C6.50024 32.5578 6.67695 32.4269 6.87507 32.3372C7.07318 32.2476 7.28815 32.2012 7.50562 32.2012H30.2176C30.5889 32.2012 30.9475 32.3363 31.2265 32.5813C31.5055 32.8263 31.6858 33.1645 31.7337 33.5327L33.236 45.0695C33.2641 45.2852 33.2459 45.5043 33.1825 45.7124C33.1192 45.9204 33.0122 46.1125 32.8687 46.2759C32.7252 46.4393 32.5484 46.5702 32.3503 46.6599C32.1522 46.7496 31.9373 46.796 31.7198 46.796Z" fill="white"/>
<path d="M31.7204 46.9115H9.00893C8.6096 46.9106 8.22415 46.7649 7.92412 46.5014C7.62408 46.2379 7.42982 45.8745 7.37739 45.4786L5.87509 33.9419C5.84489 33.7098 5.86453 33.474 5.9327 33.2501C6.00087 33.0262 6.11602 32.8195 6.27044 32.6437C6.42486 32.4678 6.61502 32.3269 6.82821 32.2304C7.0414 32.1339 7.27272 32.084 7.50674 32.084H30.2181C30.6175 32.0849 31.0029 32.2306 31.303 32.4941C31.6031 32.7577 31.7973 33.1211 31.8498 33.517L33.3521 45.0538C33.3823 45.2858 33.3626 45.5216 33.2945 45.7455C33.2263 45.9694 33.1111 46.1761 32.9567 46.3519C32.8023 46.5277 32.6121 46.6686 32.399 46.7651C32.1858 46.8616 31.9545 46.9115 31.7204 46.9115ZM7.50674 32.3166C7.30586 32.3167 7.1073 32.3596 6.92431 32.4425C6.74133 32.5255 6.57813 32.6464 6.4456 32.7974C6.31307 32.9484 6.21426 33.1259 6.15576 33.318C6.09725 33.5102 6.08041 33.7127 6.10634 33.9119L7.60806 45.4486C7.65311 45.7885 7.81991 46.1005 8.07752 46.3267C8.33513 46.553 8.66607 46.6781 9.00893 46.6789H31.7204C31.9214 46.6789 32.12 46.636 32.303 46.5532C32.4861 46.4703 32.6493 46.3494 32.7819 46.1984C32.9145 46.0474 33.0133 45.8699 33.0719 45.6777C33.1304 45.4855 33.1473 45.283 33.1213 45.0838L31.619 33.5471C31.574 33.2072 31.4072 32.8951 31.1496 32.6689C30.892 32.4426 30.561 32.3175 30.2181 32.3167L7.50674 32.3166Z" fill="#292A2E"/>
<path d="M49.374 49.4297L49.1426 49.4531L54.0464 98L54.2779 97.9766L49.374 49.4297Z" fill="#494949"/>
<path d="M29.2731 14.4905C29.2731 14.4905 30.7822 13.3514 31.1562 10.7292C31.4457 8.69906 29.5729 10.0143 29.5729 10.0143C29.5729 10.0143 29.7672 8.5504 28.7005 8.69569C27.6338 8.84097 27.0371 10.3787 27.0371 10.3787" fill="#0C0C0C"/>
<path d="M23.1884 8.86719C23.1884 8.86719 17.8963 9.43496 19.8095 16.6055L20.2778 16.6369L21.2284 16.7007" fill="#0C0C0C"/>
<path d="M28.3864 24.0947C28.3631 24.0917 28.1049 28.3754 23.1279 28.0023C19.6825 27.7442 18.454 24.0887 18.375 24.0887C18.7465 24.0098 19.2055 23.8899 19.388 23.8488C19.7857 23.7565 20.1457 23.5453 20.4204 23.2434C20.6951 22.9414 20.8713 22.563 20.9256 22.1584C21.0264 21.5512 20.8558 18.4445 20.908 17.8301L26.1968 19.0105C26.123 20.3082 25.6057 23.3164 27.4182 23.8488C27.7203 23.9369 28.0452 24.0178 28.3864 24.0947Z" fill="#E98862"/>
<path opacity="0.52" d="M26.2709 22.6181C26.188 22.3511 26.1347 22.0758 26.1117 21.7972C26.0537 21.1614 26.0654 20.5212 26.1466 19.888C25.0717 19.743 24.059 19.2993 23.2236 18.6074C23.1254 18.9701 22.5853 20.5549 22.735 20.8995C23.0171 21.5512 24.3452 22.6181 26.2709 22.6181Z" fill="#0C0C0C"/>
<path d="M25.1804 21.7701C23.0938 21.583 20.5965 20.2647 20.5606 17.4324L20.528 14.8768C20.492 12.0446 21.9504 9.72965 24.6172 9.69569C27.2839 9.66184 29.3063 11.9324 29.3423 14.7648L29.3567 15.8961C29.3549 16.2847 29.3265 16.6727 29.2719 17.0574C29.1351 18.0752 28.9229 19.6226 28.2323 20.6694C27.58 21.6577 26.5133 21.8896 25.1804 21.7701Z" fill="#E98862"/>
<path d="M26.1479 19.1822C26.5785 19.2017 27.0076 19.1197 27.4007 18.9429C27.4088 18.9394 27.4162 18.9344 27.4224 18.9281C27.4286 18.9218 27.4334 18.9143 27.4367 18.9061C27.44 18.8979 27.4417 18.8891 27.4416 18.8803C27.4415 18.8715 27.4397 18.8627 27.4362 18.8546C27.4327 18.8465 27.4277 18.8391 27.4214 18.8329C27.4151 18.8267 27.4076 18.8219 27.3994 18.8186C27.3912 18.8153 27.3824 18.8136 27.3736 18.8137C27.3648 18.8138 27.356 18.8157 27.3479 18.8191C26.5011 19.1803 25.7321 19.1274 25.1242 18.6662C25.1119 18.6564 25.0991 18.6474 25.0859 18.6391C25.0706 18.632 25.0532 18.6309 25.0372 18.636C25.0211 18.6411 25.0076 18.652 24.9992 18.6666C24.9908 18.6812 24.9882 18.6984 24.9919 18.7148C24.9955 18.7313 25.0052 18.7457 25.019 18.7554C25.0239 18.7584 25.0317 18.7646 25.0423 18.7731C25.3619 19.0164 25.7469 19.1589 26.1479 19.1822Z" fill="#0C0C0C"/>
<path d="M26.1269 19.8206C26.2047 19.8254 26.2828 19.8235 26.3602 19.815C26.378 19.8131 26.3942 19.8043 26.4055 19.7904C26.4167 19.7765 26.4219 19.7588 26.42 19.741C26.4182 19.7233 26.4093 19.707 26.3954 19.6958C26.3816 19.6846 26.3638 19.6794 26.3461 19.6812C25.8799 19.7308 25.6575 19.5172 25.6481 19.508C25.6355 19.4954 25.6184 19.4883 25.6006 19.4883C25.5827 19.4883 25.5656 19.4953 25.553 19.5079C25.5403 19.5205 25.5332 19.5376 25.5332 19.5555C25.5332 19.5733 25.5402 19.5904 25.5529 19.6031C25.7133 19.7397 25.9162 19.8166 26.1269 19.8206Z" fill="#0C0C0C"/>
<path d="M28.4613 16.4421C28.6427 16.4421 28.7898 16.2951 28.7898 16.1137C28.7898 15.9322 28.6427 15.7852 28.4613 15.7852C28.2799 15.7852 28.1328 15.9322 28.1328 16.1137C28.1328 16.2951 28.2799 16.4421 28.4613 16.4421Z" fill="#0C0C0C"/>
<path d="M25.2523 16.239C25.4337 16.239 25.5808 16.0919 25.5808 15.9105C25.5808 15.7291 25.4337 15.582 25.2523 15.582C25.0709 15.582 24.9238 15.7291 24.9238 15.9105C24.9238 16.0919 25.0709 16.239 25.2523 16.239Z" fill="#0C0C0C"/>
<path d="M20.7371 18.2941C19.9267 18.3044 19.2588 17.4457 19.2482 16.6353C19.2376 15.8249 19.8891 15.3696 20.6995 15.3594L21.124 15.897L21.4336 18.2852L20.7371 18.2941Z" fill="#E98862"/>
<path d="M21.5418 16.9912C21.5418 16.9912 21.8155 12.9835 23.0308 12.736C23.8401 12.5712 25.8028 13.7193 27.6207 13.3725C28.4161 13.2213 29.1712 13.4177 29.2479 13.7934C29.2783 13.9422 29.7738 11.8043 28.5284 10.1823C27.5367 8.89052 24.2916 8.52585 22.8152 8.94926C18.7273 10.122 20.5312 15.5351 20.5312 15.5351L20.7135 16.9167L21.5418 16.9912Z" fill="#0C0C0C"/>
<path d="M26.6373 18.2352H26.6426C26.9037 18.2325 27.3414 18.199 27.3397 18.0036C27.3379 17.8416 26.8773 16.0988 26.8246 15.9006C26.8196 15.8841 26.8084 15.8703 26.7933 15.8619C26.7783 15.8535 26.7606 15.8513 26.7439 15.8557C26.7273 15.8601 26.713 15.8708 26.7041 15.8856C26.6952 15.9003 26.6923 15.9179 26.6961 15.9347C26.9007 16.7066 27.2055 17.8949 27.2067 18.0052C27.1815 18.0517 26.9117 18.0997 26.6413 18.1024C26.6242 18.1028 26.608 18.1097 26.5959 18.1217C26.5837 18.1337 26.5767 18.1499 26.5762 18.167C26.5757 18.184 26.5818 18.2006 26.5931 18.2133C26.6045 18.226 26.6203 18.2339 26.6373 18.2353V18.2352Z" fill="#0C0C0C"/>
<path d="M27.5283 14.332C27.8028 14.2565 28.0925 14.2565 28.367 14.332C28.5018 14.3683 28.6304 14.4246 28.7485 14.4991C28.8653 14.572 28.9723 14.6594 29.0671 14.7592C29.0853 14.7768 29.0959 14.8008 29.0965 14.8261C29.0972 14.8514 29.088 14.8759 29.0708 14.8945C29.0536 14.913 29.0298 14.9241 29.0045 14.9254C28.9793 14.9266 28.9545 14.9179 28.9356 14.9011L28.9296 14.896C28.8418 14.8147 28.7441 14.7448 28.6388 14.6879C28.5355 14.6313 28.4243 14.5907 28.3088 14.5674C28.0816 14.5197 27.8457 14.5329 27.6252 14.6056L27.6159 14.6089C27.5795 14.6218 27.5395 14.6196 27.5047 14.603C27.4699 14.5864 27.4431 14.5566 27.4302 14.5202C27.4173 14.4838 27.4195 14.4438 27.4361 14.409C27.4527 14.3742 27.4825 14.3474 27.5189 14.3345L27.5283 14.332Z" fill="#0C0C0C"/>
<path d="M25.5841 14.4958C25.3752 14.3943 25.1433 14.3498 24.9117 14.3668C24.7942 14.3745 24.6785 14.3999 24.5686 14.4422C24.4568 14.4846 24.3509 14.5409 24.2531 14.6097L24.2468 14.6139C24.2259 14.6273 24.2005 14.6322 24.176 14.6274C24.1516 14.6227 24.1299 14.6087 24.1155 14.5883C24.1011 14.568 24.0951 14.5429 24.0987 14.5182C24.1023 14.4936 24.1153 14.4713 24.1349 14.4559C24.2422 14.3697 24.36 14.2973 24.4854 14.2405C24.6124 14.1825 24.7474 14.1439 24.8858 14.1258C25.1679 14.0873 25.4551 14.1258 25.7172 14.2372C25.7526 14.2527 25.7805 14.2816 25.7947 14.3176C25.8089 14.3535 25.8082 14.3937 25.7928 14.4292C25.7773 14.4647 25.7485 14.4926 25.7125 14.5067C25.6765 14.5209 25.6363 14.5202 25.6008 14.5048L25.5928 14.501L25.5841 14.4958Z" fill="#0C0C0C"/>
<path d="M27.137 11.5719C27.7368 11.4466 28.0736 10.6293 27.8891 9.74635C27.7046 8.86345 27.0688 8.24931 26.469 8.37464C25.8691 8.49996 25.5324 9.3173 25.7168 10.2002C25.9013 11.0831 26.5371 11.6972 27.137 11.5719Z" fill="#0C0C0C"/>
<path d="M60.5931 91.8652C60.5931 91.8652 61.2168 95.0982 64.2438 95.2784C67.2707 95.4585 66.6144 97.87 66.6144 97.87H55.0469V92.0907L60.5931 91.8652Z" fill="#F26903"/>
<path d="M38.5862 89.8226C38.5862 89.8226 37.7188 92.9989 40.3555 94.4966C42.9921 95.9944 41.3386 97.8686 41.3386 97.8686L30.959 92.762L33.51 87.5762L38.5862 89.8226Z" fill="#F26903"/>
<path d="M32.1584 88.9256L40.9115 61.3119H25.0452C21.8579 61.3119 20.5293 58.6092 20.5293 55.4222C20.5293 52.2352 23.6625 49.4414 26.8495 49.4414H48.2633C50.2071 49.4414 52.3867 50.6302 53.4537 52.2552C54.5206 53.8803 54.2321 56.3983 53.4591 58.182L39.4423 92.2254" fill="#262626"/>
<path opacity="0.8" d="M32.1584 88.9256L40.9115 61.3119H25.0452C21.8579 61.3119 20.5293 58.6092 20.5293 55.4222C20.5293 52.2352 23.6625 49.4414 26.8495 49.4414H48.2633C50.2071 49.4414 52.3867 50.6302 53.4537 52.2552C54.5206 53.8803 54.2321 56.3983 53.4591 58.182L39.4423 92.2254" fill="#0A0A0A"/>
<path d="M54.3818 94.8669L39.7459 61.3124L20.5285 61.3111C16.0255 60.9581 13.9633 58.4903 14.0289 55.304C14.0935 52.1581 15.6864 49.0508 18.8182 49.0508H44.7198C47.037 49.0984 48.86 51.6591 49.7196 53.8113L61.8869 92.8126" fill="#262626"/>
<path d="M12.7187 49.0893C12.7187 49.0893 11.8653 54.6548 13.2181 57.7491C14.907 61.6122 21.2382 61.3111 21.2382 61.3111L20.8814 49.0508L12.7187 49.0893Z" fill="#262626"/>
<path d="M50.271 48.9794L36.6963 46.1665C36.1306 46.0493 35.6037 45.7913 35.1642 45.4164C34.7247 45.0415 34.3868 44.5618 34.1818 44.0218L28.8427 29.9523C28.6801 29.53 28.6025 29.0798 28.6145 28.6275C28.6264 28.1752 28.7276 27.7297 28.9122 27.3166C29.0968 26.9035 29.3612 26.531 29.6902 26.2204C30.0193 25.9098 30.4064 25.6672 30.8294 25.5067C31.2525 25.3461 31.703 25.2708 32.1553 25.2849C32.6075 25.299 33.0525 25.4023 33.4647 25.5889C33.8769 25.7755 34.2482 26.0417 34.5572 26.3722C34.8662 26.7027 35.1069 27.091 35.2654 27.5148L39.9359 39.8217L51.6653 42.2521C51.6653 42.2521 50.5065 49.0281 50.271 48.9794Z" fill="#F26903"/>
<path d="M34.57 33.5253C34.4133 35.367 33.3021 46.857 33.1508 49.1255H12.7275C12.6101 47.0795 12.2292 38.3929 11.7841 34.392C11.3594 30.5741 11.2053 28.3954 11.6946 27.209C12.5574 25.1164 14.7167 24.3634 16.5767 24.1116C17.7124 23.9579 19.4205 23.8477 19.4205 23.8477C19.4205 23.8477 19.5652 26.7735 23.014 26.9364C27.7086 27.1574 27.3951 23.8477 27.4184 23.8477C28.1789 23.8477 32.3188 24.4008 33.3539 25.0754C34.8161 26.0285 35.2481 27.3271 35.2652 28.5202C35.2849 29.8941 34.7477 31.4366 34.57 33.5253Z" fill="#F26903"/>
<path d="M33.7672 42.9131H33.7623C33.7547 42.9125 33.7473 42.9104 33.7405 42.9069C33.7337 42.9034 33.7277 42.8986 33.7228 42.8927C33.7178 42.8869 33.7141 42.8802 33.7117 42.8729C33.7094 42.8656 33.7085 42.8579 33.7092 42.8503L34.2394 36.4812C34.2398 36.4735 34.2418 36.466 34.2452 36.4592C34.2486 36.4523 34.2534 36.4461 34.2593 36.4412C34.2652 36.4362 34.272 36.4325 34.2793 36.4302C34.2867 36.428 34.2944 36.4272 34.3021 36.4281C34.3097 36.4287 34.3171 36.4308 34.3239 36.4343C34.3307 36.4378 34.3367 36.4426 34.3417 36.4485C34.3466 36.4543 34.3504 36.461 34.3527 36.4683C34.355 36.4756 34.3559 36.4833 34.3552 36.4909L33.825 42.86C33.8238 42.8745 33.8172 42.8879 33.8065 42.8978C33.7958 42.9076 33.7818 42.9131 33.7672 42.9131Z" fill="#0C0C0C"/>
<path d="M43.4949 46.737L47.976 32.9617C48.0548 32.7196 48.2081 32.5086 48.4141 32.3591C48.6201 32.2095 48.8681 32.1289 49.1226 32.1289H68.5428C68.7331 32.1289 68.9208 32.1739 69.0903 32.2603C69.2599 32.3468 69.4066 32.4721 69.5184 32.6261C69.6303 32.7801 69.7041 32.9583 69.7338 33.1463C69.7635 33.3343 69.7483 33.5266 69.6894 33.7076L64.045 47.4834C63.9663 47.7255 63.8129 47.9364 63.607 48.086C63.401 48.2356 63.153 48.3161 62.8984 48.3162H44.6414C44.4511 48.3162 44.2634 48.2711 44.0938 48.1847C43.9242 48.0983 43.7774 47.9729 43.6656 47.8189C43.5537 47.6648 43.48 47.4865 43.4503 47.2984C43.4206 47.1104 43.4359 46.918 43.4949 46.737Z" fill="#292A2E"/>
<path d="M43.4949 46.737L47.976 32.9617C48.0548 32.7196 48.2081 32.5086 48.4141 32.3591C48.6201 32.2095 48.8681 32.1289 49.1226 32.1289H68.5428C68.7331 32.1289 68.9208 32.1739 69.0903 32.2603C69.2599 32.3468 69.4066 32.4721 69.5184 32.6261C69.6303 32.7801 69.7041 32.9583 69.7338 33.1463C69.7635 33.3343 69.7483 33.5266 69.6894 33.7076L64.045 47.4834C63.9663 47.7255 63.8129 47.9364 63.607 48.086C63.401 48.2356 63.153 48.3161 62.8984 48.3162H44.6414C44.4511 48.3162 44.2634 48.2711 44.0938 48.1847C43.9242 48.0983 43.7774 47.9729 43.6656 47.8189C43.5537 47.6648 43.48 47.4865 43.4503 47.2984C43.4206 47.1104 43.4359 46.918 43.4949 46.737Z" fill="#292A2E"/>
<path d="M47.1496 47.1992H34.9283C34.6238 47.1992 34.377 47.4461 34.377 47.7506V47.7648C34.377 48.0693 34.6238 48.3161 34.9283 48.3161H47.1496C47.4541 48.3161 47.7009 48.0693 47.7009 47.7648V47.7506C47.7009 47.4461 47.4541 47.1992 47.1496 47.1992Z" fill="#292A2E"/>
<path d="M47.1496 47.1992H34.9283C34.6238 47.1992 34.377 47.4461 34.377 47.7506V47.7648C34.377 48.0693 34.6238 48.3161 34.9283 48.3161H47.1496C47.4541 48.3161 47.7009 48.0693 47.7009 47.7648V47.7506C47.7009 47.4461 47.4541 47.1992 47.1496 47.1992Z" fill="#292A2E"/>
<path d="M56.0105 42.81C57.068 42.81 57.9253 41.9527 57.9253 40.8952C57.9253 39.8377 57.068 38.9805 56.0105 38.9805C54.953 38.9805 54.0957 39.8377 54.0957 40.8952C54.0957 41.9527 54.953 42.81 56.0105 42.81Z" fill="white"/>
<path d="M42.4725 43.5088L39.4224 42.4397L39.8603 42.4095C40.0014 42.3969 40.1326 42.3312 40.2271 42.2257C40.3217 42.1201 40.3727 41.9826 40.3697 41.8409C40.3657 41.7678 40.3468 41.6964 40.3142 41.6308C40.2816 41.5653 40.236 41.5071 40.1802 41.4598C40.1244 41.4125 40.0595 41.377 39.9896 41.3556C39.9196 41.3342 39.846 41.3273 39.7732 41.3352L34.377 41.9087L34.5165 43.6428C34.5601 44.1814 34.7635 44.6948 35.1007 45.117C35.4379 45.5392 35.8935 45.8512 36.4091 46.0128L38.746 46.7407C38.8667 46.7809 38.9976 46.7782 39.1165 46.733C39.2354 46.6877 39.335 46.6028 39.3985 46.4926C39.4536 46.3919 39.4752 46.2761 39.4599 46.1623C39.4447 46.0484 39.3935 45.9424 39.3138 45.8597C39.3189 45.856 39.3233 45.8513 39.3266 45.8459C39.3299 45.8405 39.332 45.8345 39.3329 45.8282C39.3338 45.8219 39.3334 45.8156 39.3317 45.8095C39.3301 45.8033 39.3272 45.7976 39.3232 45.7927L39.7536 45.9277C39.8879 45.9729 40.0344 45.9653 40.1633 45.9066C40.2923 45.8478 40.3941 45.7423 40.4483 45.6113C40.4925 45.4926 40.4935 45.362 40.4509 45.2426C40.4084 45.1232 40.325 45.0227 40.2156 44.9587C40.2207 44.956 40.2252 44.9523 40.2289 44.948L40.4059 45.0034C40.5266 45.0437 40.6575 45.0409 40.7764 44.9957C40.8953 44.9504 40.9949 44.8655 41.0584 44.7552C41.1253 44.633 41.1423 44.4897 41.1059 44.3553C41.0694 44.2208 40.9824 44.1057 40.863 44.034C40.8639 44.0305 40.8645 44.0268 40.8646 44.0231L42.1348 44.4683C42.198 44.4911 42.265 44.5012 42.3321 44.498C42.3992 44.4948 42.465 44.4783 42.5256 44.4495C42.5863 44.4207 42.6406 44.3801 42.6855 44.3302C42.7304 44.2802 42.765 44.2219 42.7872 44.1585C42.8094 44.0951 42.8188 44.028 42.8149 43.9609C42.811 43.8939 42.7939 43.8283 42.7645 43.7679C42.735 43.7075 42.694 43.6536 42.6436 43.6092C42.5932 43.5648 42.5345 43.5309 42.4709 43.5093L42.4725 43.5088Z" fill="#E98862"/>
<path opacity="0.2" d="M40.8163 44.0715C40.8104 44.0715 40.8045 44.0704 40.7989 44.0685L39.5703 43.6217C39.5577 43.6171 39.5475 43.6076 39.5418 43.5954C39.5362 43.5832 39.5356 43.5693 39.5402 43.5567C39.5448 43.544 39.5543 43.5338 39.5665 43.5281C39.5787 43.5225 39.5926 43.5219 39.6052 43.5265L40.8339 43.9733C40.8451 43.9774 40.8545 43.9853 40.8605 43.9956C40.8665 44.0059 40.8686 44.018 40.8665 44.0297C40.8645 44.0414 40.8583 44.0521 40.8492 44.0597C40.8401 44.0674 40.8285 44.0715 40.8166 44.0715H40.8163Z" fill="#0A0A0A"/>
<path opacity="0.2" d="M40.196 44.9647C40.1902 44.9647 40.1844 44.9637 40.179 44.9618L39.2106 44.6182C39.2042 44.6161 39.1983 44.6127 39.1932 44.6083C39.1881 44.6039 39.1839 44.5985 39.181 44.5925C39.178 44.5864 39.1763 44.5798 39.1759 44.5731C39.1755 44.5664 39.1764 44.5596 39.1787 44.5533C39.1809 44.5469 39.1844 44.5411 39.189 44.5361C39.1935 44.5311 39.199 44.5271 39.2051 44.5242C39.2112 44.5214 39.2178 44.5198 39.2246 44.5196C39.2313 44.5193 39.238 44.5204 39.2443 44.5228L40.2128 44.8664C40.2241 44.8704 40.2336 44.8783 40.2396 44.8886C40.2456 44.8988 40.2478 44.9109 40.2458 44.9227C40.2438 44.9345 40.2377 44.9451 40.2286 44.9528C40.2194 44.9605 40.2079 44.9647 40.196 44.9647Z" fill="#0A0A0A"/>
<path opacity="0.2" d="M39.2835 45.8719C39.2774 45.8719 39.2713 45.8707 39.2655 45.8685L38.8118 45.6956C38.7993 45.6908 38.7892 45.6812 38.7837 45.6689C38.7782 45.6567 38.7778 45.6427 38.7826 45.6302C38.7874 45.6177 38.797 45.6075 38.8093 45.6021C38.8215 45.5966 38.8355 45.5962 38.848 45.601L39.3017 45.774C39.3128 45.7782 39.322 45.7861 39.3279 45.7964C39.3337 45.8068 39.3357 45.8188 39.3336 45.8305C39.3314 45.8421 39.3252 45.8527 39.3161 45.8603C39.307 45.8678 39.2955 45.872 39.2836 45.8719H39.2835Z" fill="#0A0A0A"/>
<path d="M36.7653 40.8831L23.9699 40.8745L19.1292 29.0664L11.9082 32.1024L17.9474 46.1168L18.0064 46.2564C18.3019 46.9375 18.7996 47.5114 19.4321 47.9003C20.0646 48.2892 20.8014 48.4743 21.5426 48.4305L36.9585 47.5198L36.7653 40.8831Z" fill="#F26903"/>
<path d="M21.331 48.4958C20.6137 48.4945 19.9122 48.2843 19.3124 47.8909C18.7126 47.4974 18.2404 46.9378 17.9536 46.2803L17.8945 46.1407L12.748 34.1998L12.8548 34.1533L18.0602 46.2346C18.3523 46.9037 18.8423 47.4674 19.4643 47.8498C20.0863 48.2321 20.8105 48.4149 21.5394 48.3734L36.8989 47.4661L36.7086 40.9424L23.9309 40.9338L20.2086 31.8545L20.3163 31.8105L24.0087 40.8175L36.8216 40.8262L37.0185 47.5756L36.9621 47.5789L21.5466 48.4894C21.4746 48.4937 21.4024 48.4958 21.331 48.4958Z" fill="#0C0C0C"/>
<path d="M7.09862 49.432L2.19141 97.9785L2.42287 98.0019L7.33008 49.4554L7.09862 49.432Z" fill="#494949"/>
<path d="M27.374 49.432L22.4668 97.9785L22.6983 98.0019L27.6055 49.4554L27.374 49.432Z" fill="#494949"/>
<path d="M69.6494 49.4317L69.418 49.4551L74.3218 98.002L74.5533 97.9786L69.6494 49.4317Z" fill="#494949"/>
<path d="M74.0712 48.4902H2.99806C2.47166 48.4902 2.04492 48.9169 2.04492 49.4433C2.04492 49.9697 2.47166 50.3964 2.99806 50.3964H74.0712C74.5976 50.3964 75.0243 49.9697 75.0243 49.4433C75.0243 48.9169 74.5976 48.4902 74.0712 48.4902Z" fill="#292A2E"/>
<path opacity="0.8" d="M74.0712 48.4902H2.99806C2.47166 48.4902 2.04492 48.9169 2.04492 49.4433C2.04492 49.9697 2.47166 50.3964 2.99806 50.3964H74.0712C74.5976 50.3964 75.0243 49.9697 75.0243 49.4433C75.0243 48.9169 74.5976 48.4902 74.0712 48.4902Z" fill="white"/>
<path d="M74.0713 50.5119H2.99859C2.85721 50.5134 2.71695 50.4868 2.58591 50.4337C2.45487 50.3807 2.33565 50.3021 2.23516 50.2027C2.13467 50.1032 2.05489 49.9848 2.00045 49.8544C1.946 49.7239 1.91797 49.5839 1.91797 49.4425C1.91797 49.3011 1.946 49.1612 2.00045 49.0307C2.05489 48.9002 2.13467 48.7818 2.23516 48.6824C2.33565 48.5829 2.45487 48.5044 2.58591 48.4513C2.71695 48.3982 2.85721 48.3716 2.99859 48.3731H74.0713C74.2127 48.3716 74.353 48.3982 74.484 48.4513C74.615 48.5044 74.7343 48.5829 74.8347 48.6824C74.9352 48.7818 75.015 48.9002 75.0695 49.0307C75.1239 49.1612 75.1519 49.3011 75.1519 49.4425C75.1519 49.5839 75.1239 49.7239 75.0695 49.8544C75.015 49.9848 74.9352 50.1032 74.8347 50.2027C74.7343 50.3021 74.615 50.3807 74.484 50.4337C74.353 50.4868 74.2127 50.5134 74.0713 50.5119ZM2.99859 48.6057C2.88787 48.6044 2.778 48.6251 2.67533 48.6666C2.57267 48.7081 2.47925 48.7695 2.4005 48.8473C2.32174 48.9251 2.25922 49.0178 2.21655 49.12C2.17387 49.2222 2.1519 49.3318 2.1519 49.4425C2.1519 49.5532 2.17387 49.6629 2.21655 49.765C2.25922 49.8672 2.32174 49.9599 2.4005 50.0377C2.47925 50.1155 2.57267 50.177 2.67533 50.2184C2.778 50.2599 2.88787 50.2806 2.99859 50.2793H74.0713C74.182 50.2806 74.2919 50.2599 74.3946 50.2184C74.4972 50.177 74.5907 50.1155 74.6694 50.0377C74.7482 49.9599 74.8107 49.8672 74.8534 49.765C74.896 49.6629 74.918 49.5532 74.918 49.4425C74.918 49.3318 74.896 49.2222 74.8534 49.12C74.8107 49.0178 74.7482 48.9251 74.6694 48.8473C74.5907 48.7695 74.4972 48.7081 74.3946 48.6666C74.2919 48.6251 74.182 48.6044 74.0713 48.6057H2.99859Z" fill="#292A2E"/>
<path d="M74.0722 48.4902H24.0488C23.5224 48.4902 23.0957 48.9169 23.0957 49.4433C23.0957 49.9697 23.5224 50.3964 24.0488 50.3964H74.0722C74.5986 50.3964 75.0253 49.9697 75.0253 49.4433C75.0253 48.9169 74.5986 48.4902 74.0722 48.4902Z" fill="white"/>
<path d="M74.072 50.5119H24.0485C23.7669 50.509 23.4977 50.395 23.2995 50.1948C23.1014 49.9945 22.9902 49.7242 22.9902 49.4425C22.9902 49.1608 23.1014 48.8905 23.2995 48.6902C23.4977 48.49 23.7669 48.376 24.0485 48.3731H74.072C74.2134 48.3716 74.3536 48.3982 74.4847 48.4513C74.6157 48.5044 74.7349 48.5829 74.8354 48.6824C74.9359 48.7818 75.0157 48.9002 75.0701 49.0307C75.1246 49.1612 75.1526 49.3011 75.1526 49.4425C75.1526 49.5839 75.1246 49.7239 75.0701 49.8544C75.0157 49.9848 74.9359 50.1032 74.8354 50.2027C74.7349 50.3021 74.6157 50.3807 74.4847 50.4337C74.3536 50.4868 74.2134 50.5134 74.072 50.5119ZM24.0485 48.6057C23.8283 48.6083 23.618 48.6976 23.4632 48.8543C23.3084 49.0109 23.2216 49.2223 23.2216 49.4425C23.2216 49.6627 23.3084 49.8741 23.4632 50.0307C23.618 50.1874 23.8283 50.2767 24.0485 50.2793H74.072C74.1827 50.2806 74.2926 50.2599 74.3953 50.2184C74.4979 50.177 74.5913 50.1155 74.6701 50.0377C74.7489 49.9599 74.8114 49.8672 74.854 49.765C74.8967 49.6629 74.9187 49.5532 74.9187 49.4425C74.9187 49.3318 74.8967 49.2222 74.854 49.12C74.8114 49.0178 74.7489 48.9251 74.6701 48.8473C74.5913 48.7695 74.4979 48.7081 74.3953 48.6666C74.2926 48.6251 74.1827 48.6044 74.072 48.6057H24.0485Z" fill="#292A2E"/>
<path d="M75.9894 82.5242C75.9741 82.5243 75.959 82.5213 75.9448 82.5154C75.9307 82.5096 75.9179 82.501 75.9071 82.4902C75.7432 82.3264 75.4761 79.3195 74.7565 70.3667C74.4621 66.7035 74.184 63.2434 73.981 61.1407C73.9665 60.9905 73.9083 60.973 73.8892 60.9673C73.6113 60.8835 72.7664 61.5496 72.2948 62.1331C72.2754 62.1571 72.2472 62.1724 72.2165 62.1757C72.1858 62.1789 72.1551 62.1698 72.1311 62.1504C72.1071 62.131 72.0918 62.1029 72.0885 62.0722C72.0853 62.0415 72.0944 62.0108 72.1138 61.9868C72.4257 61.6011 73.4424 60.5899 73.9561 60.7445C74.0596 60.7756 74.1887 60.8657 74.2126 61.1183C74.4158 63.2229 74.6939 66.684 74.9884 70.3481C75.4257 75.7885 75.921 81.9519 76.0838 82.3401C76.0963 82.3575 76.1037 82.378 76.1053 82.3993C76.1069 82.4206 76.1026 82.442 76.0928 82.461C76.0831 82.48 76.0682 82.496 76.05 82.5072C76.0317 82.5183 76.0108 82.5242 75.9894 82.5242Z" fill="#494949"/>
<path d="M73.6818 64.9999C75.612 63.4527 76.2517 61.0444 75.1107 59.6209C73.9696 58.1974 71.4799 58.2977 69.5497 59.845C67.6194 61.3922 66.9797 63.8005 68.1207 65.2239C69.2618 66.6474 71.7515 66.5471 73.6818 64.9999Z" fill="#F26903"/>
<path opacity="0.2" d="M73.6818 64.9999C75.612 63.4527 76.2517 61.0444 75.1107 59.6209C73.9696 58.1974 71.4799 58.2977 69.5497 59.845C67.6194 61.3922 66.9797 63.8005 68.1207 65.2239C69.2618 66.6474 71.7515 66.5471 73.6818 64.9999Z" fill="white"/>
<path d="M68.6617 65.586C68.6506 65.586 68.6398 65.5828 68.6305 65.5769C68.6212 65.571 68.6137 65.5625 68.609 65.5525C68.6043 65.5426 68.6026 65.5314 68.604 65.5205C68.6054 65.5095 68.6098 65.4992 68.6169 65.4907L74.1179 58.857C74.1277 58.8451 74.1419 58.8376 74.1573 58.8362C74.1726 58.8348 74.1879 58.8395 74.1998 58.8493C74.2117 58.8592 74.2192 58.8734 74.2206 58.8887C74.222 58.9041 74.2173 58.9194 74.2074 58.9313L68.7065 65.565C68.701 65.5716 68.6941 65.5769 68.6864 65.5805C68.6787 65.5841 68.6702 65.586 68.6617 65.586Z" fill="white"/>
<path d="M77.1885 81.1021C77.17 81.1021 77.1517 81.0977 77.1352 81.0891C77.1187 81.0806 77.1045 81.0683 77.0937 81.0531C77.083 81.038 77.076 81.0205 77.0734 81.0021C77.0708 80.9838 77.0726 80.965 77.0787 80.9475L79.1452 75.0051C79.206 74.8305 79.3097 74.674 79.4467 74.5498C79.5837 74.4257 79.7497 74.3379 79.9294 74.2945C80.1092 74.2511 80.2969 74.2535 80.4754 74.3015C80.654 74.3495 80.8177 74.4415 80.9514 74.5691L82.0439 75.6126C82.0663 75.634 82.0792 75.6633 82.0799 75.6941C82.0806 75.725 82.069 75.7549 82.0477 75.7772C82.0264 75.7995 81.9971 75.8124 81.9662 75.8131C81.9354 75.8138 81.9055 75.8023 81.8832 75.7809L80.7908 74.7373C80.6852 74.6366 80.556 74.5639 80.415 74.526C80.274 74.4882 80.1258 74.4863 79.9839 74.5205C79.8421 74.5548 79.711 74.6241 79.6029 74.7221C79.4947 74.8201 79.4128 74.9437 79.3648 75.0815L77.2986 81.024C77.2906 81.0469 77.2758 81.0667 77.256 81.0807C77.2363 81.0946 77.2127 81.1021 77.1885 81.1021Z" fill="#494949"/>
<path d="M85.0954 78.9038C86.5259 77.7715 86.4409 75.2812 84.9055 73.3415C83.3702 71.4018 80.9659 70.7472 79.5354 71.8795C78.1049 73.0118 78.19 75.5021 79.7253 77.4418C81.2606 79.3815 83.6649 80.036 85.0954 78.9038Z" fill="#F26903"/>
<path d="M75.0508 82.1448C75.0247 82.1448 74.9993 82.136 74.9788 82.1198C74.9583 82.1036 74.9438 82.081 74.9377 82.0556L71.4695 67.5566C71.4457 67.4578 71.3952 67.3675 71.3235 67.2955C71.2518 67.2235 71.1616 67.1727 71.0629 67.1487C70.9641 67.1246 70.8607 67.1283 70.7639 67.1592C70.6671 67.1901 70.5807 67.2471 70.5142 67.324L69.4452 68.5593C69.4353 68.571 69.4231 68.5807 69.4094 68.5876C69.3957 68.5946 69.3808 68.5988 69.3655 68.6C69.3501 68.6012 69.3347 68.5993 69.3201 68.5945C69.3055 68.5897 69.292 68.582 69.2804 68.572C69.2688 68.5619 69.2593 68.5496 69.2524 68.5359C69.2456 68.5221 69.2415 68.5071 69.2405 68.4918C69.2395 68.4765 69.2415 68.4611 69.2464 68.4465C69.2514 68.432 69.2592 68.4186 69.2694 68.407L70.3382 67.1718C70.4328 67.0626 70.5556 66.9815 70.6932 66.9376C70.8308 66.8937 70.9779 66.8885 71.1182 66.9228C71.2586 66.957 71.3867 67.0293 71.4887 67.1317C71.5906 67.2341 71.6622 67.3626 71.6958 67.5031L75.1634 82.0019C75.1704 82.0319 75.1653 82.0633 75.1491 82.0895C75.133 82.1156 75.1072 82.1343 75.0773 82.1415C75.0686 82.1436 75.0597 82.1447 75.0508 82.1448Z" fill="#494949"/>
<path d="M73.7713 71.7804C74.1928 69.3428 73.0772 67.1147 71.2796 66.8038C69.4819 66.493 67.6828 68.217 67.2613 70.6547C66.8398 73.0923 67.9554 75.3204 69.753 75.6312C71.5507 75.9421 73.3498 74.218 73.7713 71.7804Z" fill="#F26903"/>
<path d="M75.9895 82.5237C75.9848 82.5237 75.98 82.5234 75.9752 82.5229C75.9601 82.521 75.9454 82.5162 75.9321 82.5087C75.9188 82.5011 75.9071 82.4911 75.8977 82.479C75.8883 82.467 75.8814 82.4532 75.8773 82.4385C75.8732 82.4237 75.872 82.4083 75.8739 82.3932L78.0882 64.4148C78.1124 64.2189 78.1925 64.0342 78.3191 63.8829C78.4457 63.7315 78.6133 63.6199 78.8018 63.5615C78.9903 63.5031 79.1917 63.5004 79.3817 63.5537C79.5717 63.607 79.7422 63.714 79.8728 63.8619L82.4038 66.7284C82.4242 66.7516 82.4346 66.7819 82.4327 66.8127C82.4308 66.8435 82.4167 66.8723 82.3935 66.8927C82.3704 66.9131 82.3401 66.9235 82.3093 66.9216C82.2785 66.9197 82.2497 66.9056 82.2293 66.8824L79.6984 64.0159C79.5974 63.9016 79.4656 63.8189 79.3188 63.7777C79.1719 63.7365 79.0163 63.7385 78.8706 63.7837C78.7249 63.8288 78.5954 63.9151 78.4976 64.032C78.3997 64.149 78.3378 64.2918 78.3191 64.4432L76.1049 82.4216C76.1015 82.4497 76.0878 82.4757 76.0666 82.4945C76.0453 82.5133 76.0179 82.5237 75.9895 82.5237Z" fill="#494949"/>
<path d="M84.9985 68.3225C85.8816 66.7261 84.8426 64.4613 82.6779 63.2639C80.5132 62.0665 78.0425 62.39 77.1595 63.9864C76.2764 65.5828 77.3154 67.8476 79.4801 69.045C81.6448 70.2424 84.1155 69.919 84.9985 68.3225Z" fill="#F26903"/>
<path opacity="0.2" d="M85.0954 78.9038C86.5259 77.7715 86.4409 75.2812 84.9055 73.3415C83.3702 71.4018 80.9659 70.7472 79.5354 71.8795C78.1049 73.0118 78.19 75.5021 79.7253 77.4418C81.2606 79.3815 83.6649 80.036 85.0954 78.9038Z" fill="white"/>
<path opacity="0.5" d="M73.7713 71.7804C74.1928 69.3428 73.0772 67.1147 71.2796 66.8038C69.4819 66.493 67.6828 68.217 67.2613 70.6547C66.8398 73.0923 67.9554 75.3204 69.753 75.6312C71.5507 75.9421 73.3498 74.218 73.7713 71.7804Z" fill="white"/>
<path opacity="0.5" d="M84.9985 68.3225C85.8816 66.7261 84.8426 64.4613 82.6779 63.2639C80.5132 62.0665 78.0425 62.39 77.1595 63.9864C76.2764 65.5828 77.3154 67.8476 79.4801 69.045C81.6448 70.2424 84.1155 69.919 84.9985 68.3225Z" fill="white"/>
<path d="M78.8219 97.7797H73.1575L72.2188 79.6562H79.7605L78.8219 97.7797Z" fill="#292A2E"/>
<path opacity="0.3" d="M78.8219 97.7797H73.1575L72.2188 79.6562H79.7605L78.8219 97.7797Z" fill="white"/>
<path d="M85.0969 78.9609C85.0881 78.9609 85.0794 78.9589 85.0715 78.9551C85.0636 78.9513 85.0567 78.9457 85.0513 78.9388L79.4911 71.9146C79.4815 71.9025 79.4771 71.8871 79.4789 71.8718C79.4807 71.8565 79.4885 71.8425 79.5006 71.8329C79.5127 71.8233 79.5281 71.8189 79.5434 71.8207C79.5587 71.8225 79.5727 71.8303 79.5823 71.8424L85.1425 78.8666C85.1493 78.8752 85.1535 78.8855 85.1547 78.8963C85.1559 78.9072 85.1541 78.9182 85.1493 78.9281C85.1445 78.9379 85.1371 78.9462 85.1278 78.952C85.1185 78.9579 85.1078 78.9609 85.0969 78.9609Z" fill="white"/>
<path d="M84.6302 68.8843C84.6178 68.8841 84.6058 68.8801 84.5959 68.8726L77.4809 63.6774C77.4684 63.6683 77.4601 63.6547 77.4577 63.6394C77.4553 63.6242 77.4591 63.6086 77.4682 63.5961C77.4773 63.5837 77.491 63.5753 77.5063 63.573C77.5215 63.5706 77.5371 63.5744 77.5495 63.5835L84.6645 68.7787C84.6743 68.7861 84.6815 68.7963 84.6851 68.8079C84.6887 68.8196 84.6886 68.8321 84.6848 68.8437C84.6809 68.8553 84.6735 68.8653 84.6636 68.8725C84.6537 68.8796 84.6418 68.8834 84.6296 68.8834L84.6302 68.8843Z" fill="white"/>
<path d="M69.4644 75.5559C69.4593 75.5559 69.4542 75.5552 69.4494 75.5538C69.4345 75.5498 69.4218 75.5401 69.4141 75.5268C69.4064 75.5135 69.4042 75.4976 69.4082 75.4827L71.6731 66.9967C71.6774 66.9822 71.6872 66.9699 71.7004 66.9625C71.7136 66.9551 71.7292 66.9531 71.7438 66.957C71.7584 66.9609 71.771 66.9704 71.7788 66.9834C71.7865 66.9964 71.7889 67.0119 71.7855 67.0266L69.5206 75.5126C69.5173 75.525 69.51 75.536 69.4998 75.5438C69.4897 75.5517 69.4772 75.5559 69.4644 75.5559Z" fill="white"/>
<path d="M81.5559 97.9422H0.0814254C0.05983 97.9422 0.0391192 97.9336 0.0238489 97.9183C0.00857872 97.903 0 97.8823 0 97.8607C0 97.8391 0.00857872 97.8184 0.0238489 97.8031C0.0391192 97.7879 0.05983 97.7793 0.0814254 97.7793H81.5557C81.5773 97.7793 81.598 97.7879 81.6133 97.8031C81.6285 97.8184 81.6371 97.8391 81.6371 97.8607C81.6371 97.8823 81.6285 97.903 81.6133 97.9183C81.598 97.9336 81.5773 97.9422 81.5557 97.9422H81.5559Z" fill="#292A2E"/>
</g>
<defs>
<clipPath id="clip0_646_10169">
<rect width="86.1158" height="98" fill="white"/>
</clipPath>
</defs>
</svg>
